<svg width="227" height="197" viewBox="0 0 227 197" fill="none" xmlns="http://www.w3.org/2000/svg">
<g clip-path="url(#clip0_502_2)">
<path d="M207.33 19.6201V19.9693C207.55 19.8561 207.54 19.7428 207.33 19.6201Z" fill="#221F22"/>
<path d="M209.84 36.6226L209.78 35.8111C209.649 35.7009 209.564 35.5505 209.54 35.3866C209.564 35.5505 209.649 35.7009 209.78 35.8111C209.97 35.2169 209.931 34.5787 209.67 34.009C209.67 33.9052 209.67 33.7919 209.62 33.6881H209.33H209.62C209.706 33.3568 209.722 33.0126 209.665 32.6755C209.609 32.3384 209.481 32.0155 209.29 31.7258C209.29 31.5559 209.22 31.3861 209.18 31.2257C209.14 31.0652 209.18 30.7444 209.25 30.4991V29.9046C209.17 28.2628 208.52 26.6966 208.48 25.0455L208.29 24.3756C208.55 24.1303 208.29 24.0548 208.13 23.9794C208.13 23.8661 208.13 23.7528 208.06 23.6396C208.183 23.3806 208.218 23.092 208.161 22.8133C208.104 22.5346 207.957 22.2796 207.74 22.0829C207.67 21.8375 207.59 21.5922 207.52 21.3469C207.66 20.9789 208.14 20.5637 207.35 20.3278C207.35 20.2146 207.35 20.092 207.35 19.9693V19.6201C207.35 19.3842 207.35 19.1483 207.35 18.903C207.457 18.7126 207.503 18.4968 207.481 18.2822C207.46 18.0676 207.373 17.8635 207.23 17.6953L207.17 16.8084C207.206 16.7685 207.233 16.7213 207.247 16.6704C207.261 16.6195 207.263 16.566 207.253 16.5142C207.242 16.4625 207.219 16.4139 207.186 16.3717C207.153 16.3294 207.109 16.2948 207.06 16.2705C206.98 15.5718 206.781 14.8899 206.47 14.2515C206.505 14.1764 206.521 14.0948 206.517 14.013C206.513 13.9313 206.489 13.8514 206.448 13.7795C206.407 13.7076 206.348 13.6456 206.278 13.5982C206.207 13.5508 206.126 13.5193 206.04 13.506C206.009 13.4609 205.983 13.4137 205.96 13.3646C205.78 12.506 204.87 12.5246 204.28 12.1944C203.48 11.7509 202.77 11.3358 202.63 10.3734C202.623 10.197 202.546 10.0297 202.415 9.90397C202.283 9.77828 202.107 9.7034 201.92 9.69411L201.77 9.60911H201.42C201.606 9.96224 201.763 10.3283 201.89 10.7038C201.763 10.3283 201.606 9.96224 201.42 9.60911H201.77L201.23 7.19384C201.23 7.07118 201.23 6.95783 201.28 6.83517C201.33 6.71251 201.55 6.63719 201.58 6.52396C202.022 5.03186 201.988 3.44957 201.48 1.97606C201.435 1.78892 201.327 1.62065 201.172 1.49646C201.017 1.37227 200.823 1.29886 200.62 1.2873L200.39 1.08919C200.229 0.799829 199.959 0.578037 199.633 0.467923C199.307 0.35781 198.949 0.367304 198.63 0.494644L198.28 0.428532C197.517 0.257754 196.717 0.296839 195.977 0.540946C195.236 0.785052 194.585 1.22417 194.1 1.80629C194.073 1.85709 194.053 1.91093 194.04 1.96661C193.807 3.04318 193.733 4.14495 193.82 5.24065L193.73 5.75964C193.55 5.8823 193.55 6.01431 193.73 6.13697L193.82 6.47674C193.528 7.25014 192.977 7.91264 192.25 8.36381C191.18 9.09033 190.09 9.92058 190.01 11.3642L189.92 11.4303C189.23 11.4303 188.56 11.4868 188.25 12.2133L187.92 12.3361C187.63 12.3062 187.337 12.3488 187.07 12.4598C186.803 12.5707 186.572 12.7461 186.4 12.9682C185.591 13.847 185 14.8849 184.67 16.0063C184.06 17.8934 184.35 19.7805 183.82 21.6675C183.801 21.9284 183.832 22.1904 183.91 22.4413L183.81 22.9225C183.784 23.3306 183.735 23.737 183.66 24.1397C183.735 23.737 183.784 23.3306 183.81 22.9225C182.95 23.6018 183.26 24.5266 183.25 25.3758C183.155 25.9213 183.118 26.4745 183.14 27.027C183.3 28.0554 182.89 29.1877 183.7 30.1123C183.7 30.5275 183.7 30.933 183.75 31.3482C183.68 31.7822 183.34 32.2918 183.9 32.6221C183.96 32.7825 184.02 32.9429 184.07 33.1033L184.13 34.4808C183.84 34.6129 183.88 34.7354 184.13 34.8392C184.13 35.4054 184.22 35.9715 184.27 36.5471C184.184 36.7239 184.148 36.9192 184.167 37.1131C184.187 37.307 184.26 37.4927 184.38 37.6512C184.38 37.8682 184.45 38.0851 184.48 38.2927L184.33 38.8776L184.69 39.0382C184.77 39.2552 184.89 39.3116 185.08 39.1418H185.18H185.37C185.46 38.6929 185.46 38.2321 185.37 37.7832C185.46 38.2321 185.46 38.6929 185.37 39.1418C185.37 39.1599 185.376 39.1777 185.387 39.1927C185.397 39.2078 185.412 39.2196 185.43 39.2268C185.43 39.9156 185.43 40.6043 185.36 41.2837C185.287 41.325 185.234 41.3907 185.209 41.4675C185.185 41.5443 185.193 41.6267 185.23 41.6988L185.17 42.0291C185.073 42.0906 185 42.1795 184.96 42.2829C184.921 42.3864 184.917 42.4992 184.95 42.6047C184.95 42.7557 184.95 42.8972 184.95 43.0482L185.18 43.1046L184.95 43.0482C184.882 43.1604 184.841 43.2855 184.831 43.4144C184.82 43.5434 184.84 43.673 184.89 43.7936L184.83 44.3029C184.36 44.7464 184.56 45.2465 184.63 45.7654V45.841L184.54 46.2655H184.49C184.3 46.3222 184.21 46.4261 184.3 46.6148C184.39 46.8035 184.3 46.9731 184.3 47.1524C183.94 47.3506 183.95 47.5959 184.2 47.879C184.2 48.0488 184.2 48.2187 184.13 48.3885V48.9169V48.3885C183.837 48.7616 183.636 49.1908 183.539 49.6458C183.442 50.1007 183.453 50.5703 183.57 51.021V51.3511C183.344 51.5317 183.181 51.7726 183.103 52.0419C183.024 52.3113 183.034 52.5967 183.13 52.8609C183.26 53.3609 183.01 54.1442 183.99 54.1347H184.69C185.55 54.3612 186.39 54.6253 187.25 54.8235C188.94 55.2009 188.86 55.1913 189.01 56.7764C189.064 58.0403 189.362 59.2843 189.89 60.4469C189.89 60.7205 189.89 60.994 189.94 61.2677C190.062 61.3945 190.154 61.544 190.211 61.7065C190.268 61.869 190.288 62.0409 190.27 62.2112C190.359 63.394 190.621 64.5595 191.05 65.6741C191.11 65.7874 191.16 65.9099 191.22 66.0326V66.5704C191.16 66.7308 191.02 66.9007 191.05 67.0422C191.22 68.3535 191.27 69.6761 191.2 70.9956C191.2 71.3164 191.2 71.6373 191.55 71.8354L191.76 72.5242C191.48 72.8356 191.7 73.0619 191.9 73.2883C192.1 73.5147 192.27 73.6564 192.16 73.9017C191.9 74.4584 192.36 74.5716 192.7 74.8453C194.35 76.0436 196.24 74.9302 197.96 75.3737C198.01 75.3737 198.08 75.3737 198.14 75.317C199.072 75.0328 199.95 74.609 200.74 74.0621C201.25 73.6469 201.74 73.3072 201.51 72.6562C201.28 72.0052 201.32 70.8258 200.09 70.6371C199.887 70.4522 199.727 70.2287 199.622 69.9815C199.517 69.7344 199.469 69.4691 199.48 69.2029C199.809 68.487 199.831 67.6784 199.54 66.9478V66.4477C199.85 66.3533 200.02 66.0987 200.24 65.9006C200.24 65.7213 200.24 65.5325 200.19 65.3533L200.28 65.1929C200.56 65.0608 200.59 64.8909 200.41 64.655C200.74 63.1926 201.08 61.7302 201.41 60.2677C201.67 60.1356 201.67 59.9468 201.5 59.7487C201.5 59.4562 201.56 59.1732 201.58 58.8902C201.67 58.8053 201.79 58.7486 201.85 58.6448C202.105 58.1087 202.474 57.6272 202.933 57.2298C203.392 56.8323 203.932 56.5272 204.52 56.333L205.32 56.3802C205.647 56.0422 205.875 55.629 205.98 55.1819C206.36 55.0215 206.37 54.8516 205.98 54.6818C205.98 54.1251 205.98 53.5779 205.98 53.0212C205.98 50.8227 206.09 48.6149 205.91 46.4164C205.96 46.2466 206.02 46.077 206.08 45.9071C206.183 45.8355 206.256 45.7321 206.287 45.615C206.318 45.4979 206.305 45.3743 206.25 45.2653L206.31 43.3783L206.16 43.1329C206.16 42.5951 206.16 42.0574 206.16 41.5195C206.269 41.3836 206.327 41.218 206.327 41.0478C206.327 40.8775 206.269 40.7119 206.16 40.576L205.95 41.0478C205.75 42.1348 205.7 43.2415 205.8 44.3407C205.7 43.2415 205.75 42.1348 205.95 41.0478L206.16 40.576C206.16 40.4156 206.16 40.2646 206.16 40.1042C206.47 39.8589 206.25 39.4626 206.46 39.1607C206.6 39.6325 206.41 40.1042 206.7 40.5288C206.53 41.3685 207.08 41.6706 207.81 41.8499C208.15 41.9617 208.522 41.9455 208.85 41.8049C209.178 41.6644 209.436 41.4102 209.57 41.095C210.209 39.6794 210.305 38.0976 209.84 36.6226V36.6226ZM206.56 36.5093C206.564 36.4938 206.564 36.4778 206.56 36.4623C206.564 36.4778 206.564 36.4938 206.56 36.5093V36.5093ZM185.21 44.3501C185.258 44.4081 185.284 44.4796 185.284 44.5531C185.284 44.6266 185.258 44.6978 185.21 44.7558C185.249 44.7014 185.269 44.6375 185.269 44.572C185.269 44.5064 185.249 44.4423 185.21 44.3879V44.3501ZM185.57 42.0669C185.574 42.1014 185.574 42.136 185.57 42.1705C185.574 42.136 185.574 42.1014 185.57 42.0669V42.0669ZM185.3 18.2048C185.308 18.5399 185.282 18.875 185.22 19.205C185.282 18.875 185.308 18.5399 185.3 18.2048V18.2048ZM194.1 6.76906C194.06 6.7265 194.026 6.67895 194 6.62762C194.026 6.67895 194.06 6.7265 194.1 6.76906C194.32 7.05212 194.72 7.25026 194.58 7.7126C194.72 7.25026 194.32 7.05212 194.1 6.76906V6.76906ZM195.73 56.9842H195.08C194.77 56.3426 195.02 55.5688 194.53 54.9744V54.7007C194.6 54.4176 194.66 54.1347 194.75 53.8611C194.89 53.4176 195.12 53.0685 195.75 53.144C196.38 53.2194 196.35 53.6251 196.37 54.0403C196.421 55.0566 196.201 56.069 195.73 56.9842V56.9842ZM194.63 8.02404C194.526 8.3331 194.351 8.61684 194.118 8.85493C193.884 9.09302 193.598 9.27957 193.28 9.40156C193.606 9.2842 193.9 9.09973 194.14 8.86138C194.381 8.62303 194.562 8.33688 194.67 8.02404H194.63ZM195.83 57.673V58.1353C195.83 57.9749 195.83 57.8239 195.83 57.673C196.04 57.5881 196.24 57.4747 196.26 57.2576C196.24 57.4747 196.04 57.5975 195.83 57.673V57.673ZM200.96 5.25954C200.11 5.08971 199.8 4.97647 199.7 4.54245C199.8 4.97647 200.11 5.08971 200.96 5.25954ZM200.27 7.22217C200.28 7.26888 200.28 7.3169 200.27 7.36361V7.87315V7.36361C200.28 7.3169 200.28 7.26888 200.27 7.22217V7.22217ZM200.4 8.39215C200.39 8.64874 200.479 8.90001 200.65 9.0998C200.479 8.90001 200.39 8.64874 200.4 8.39215ZM200.84 9.16568C200.95 9.2172 201.043 9.29535 201.11 9.39212C201.043 9.29535 200.95 9.2172 200.84 9.16568V9.16568ZM209.33 33.5467V32.6032C209.19 32.5466 209.11 32.4711 209.13 32.3578C209.13 32.4711 209.19 32.5466 209.33 32.6032V33.5467ZM207.59 23.866C207.464 23.4514 207.492 23.0084 207.67 22.6111C207.492 23.0084 207.464 23.4514 207.59 23.866V23.866ZM206.93 21.1958C207.13 21.4505 207.14 21.7903 207.33 22.0451C207.14 21.7903 207.13 21.4505 206.93 21.1958C206.93 20.6768 206.88 20.158 206.86 19.6485L206.93 21.1958ZM193.93 6.45785C194.084 6.00197 194.214 5.53908 194.32 5.07088C194.214 5.53908 194.084 6.00197 193.93 6.45785V6.45785ZM193.45 8.04293C193.269 8.14324 193.101 8.26373 192.95 8.40159C193.107 8.2625 193.282 8.14197 193.47 8.04293H193.45ZM185.23 17.0065C185.48 16.5437 185.694 16.0644 185.87 15.5723C185.694 16.0644 185.48 16.5437 185.23 17.0065V17.5255C185.22 17.3557 185.24 17.1858 185.25 17.0254L185.23 17.0065ZM183.89 31.3671C183.973 31.2216 184.021 31.0604 184.03 30.8953C184.021 31.0604 183.973 31.2216 183.89 31.3671V32.0464V31.3671ZM185.95 40.2365C185.969 40.6444 185.834 41.0455 185.57 41.3687C185.842 41.0481 185.983 40.6467 185.97 40.2365H185.95ZM185.39 43.0671V43.1518C185.451 43.237 185.492 43.3336 185.51 43.4349C185.525 43.4907 185.525 43.549 185.51 43.6047C185.525 43.549 185.525 43.4907 185.51 43.4349C185.492 43.3336 185.451 43.237 185.39 43.1518V43.0671ZM184.88 45.9541C185.24 45.756 185.11 45.539 184.88 45.322C184.88 45.2748 184.88 45.2183 184.88 45.1711C184.885 45.2213 184.885 45.2718 184.88 45.322C185.08 45.539 185.21 45.756 184.88 45.9541L184.82 46.3033L184.88 45.9541ZM184.27 49.115C184.548 48.7519 184.757 48.3466 184.89 47.9167C184.757 48.3466 184.548 48.7519 184.27 49.115L184.05 49.6246L184.27 49.115ZM183.89 52.6061C184.012 52.6625 184.119 52.7447 184.202 52.8461C184.285 52.9475 184.342 53.0656 184.37 53.1912C184.349 53.0623 184.296 52.9397 184.217 52.8332C184.137 52.7268 184.032 52.6392 183.91 52.5777L183.89 52.6061ZM184.08 50.5492C184.082 50.5712 184.082 50.5934 184.08 50.6153C184.09 50.5848 184.097 50.553 184.1 50.5209L184.08 50.5492ZM201.2 59.8524C201.086 58.8356 201.213 57.8078 201.57 56.8425C201.224 57.8003 201.104 58.8182 201.22 59.8243L201.2 59.8524ZM205.9 38.887C205.953 39.081 205.977 39.2813 205.97 39.4816C205.986 39.2728 205.969 39.0628 205.92 38.8587L205.9 38.887ZM206.46 36.651C206.46 37.019 206.52 37.3869 206.56 37.7548C206.54 37.3586 206.51 36.9906 206.48 36.6226L206.46 36.651ZM206.64 38.1229C206.64 38.2833 206.69 38.4438 206.71 38.6042C206.67 38.4155 206.67 38.255 206.67 38.0946L206.64 38.1229ZM209.72 39.4155C209.761 38.8395 209.694 38.2612 209.52 37.7076C209.52 37.4812 209.52 37.2264 209.52 37.0094C209.47 37.2264 209.52 37.4812 209.52 37.7076C209.697 38.251 209.771 38.8195 209.74 39.3871L209.72 39.4155Z" fill="#221F22"/>
</g>
<g filter="url(#filter0_f_502_2)">
<path d="M212.5 74.3547L201.5 68.2217L14 183L212.5 74.3547Z" fill="url(#paint0_linear_502_2)"/>
</g>
<defs>
<filter id="filter0_f_502_2" x="0" y="54.2217" width="226.5" height="142.778" filterUnits="userSpaceOnUse" color-interpolation-filters="sRGB">
<feFlood flood-opacity="0" result="BackgroundImageFix"/>
<feBlend mode="normal" in="SourceGraphic" in2="BackgroundImageFix" result="shape"/>
<feGaussianBlur stdDeviation="7" result="effect1_foregroundBlur_502_2"/>
</filter>
<linearGradient id="paint0_linear_502_2" x1="107" y1="156.442" x2="-88.315" y2="298.183" gradientUnits="userSpaceOnUse">
<stop/>
<stop offset="1" stop-opacity="0"/>
</linearGradient>
<clipPath id="clip0_502_2">
<rect width="27.11" height="75.162" fill="white" transform="translate(183 0.287109)"/>
</clipPath>
</defs>
</svg>
