<?xml version="1.0" encoding="UTF-8"?>
<svg width="125px" height="48px" viewBox="0 0 125 48" version="1.1" xmlns="http://www.w3.org/2000/svg" xmlns:xlink="http://www.w3.org/1999/xlink">
    <!-- Generator: Sketch 52.5 (67469) - http://www.bohemiancoding.com/sketch -->
    <title>Chargebee Design</title>
    <desc>Created with Sketch.</desc>
    <g id="Page-1" stroke="none" stroke-width="1" fill="none" fill-rule="evenodd">
        <g id="final-copy" transform="translate(-247.000000, -120.000000)" fill="#FFFFFF">
            <path d="M264.25256,133.711867 C263.706482,134.524427 263.160412,135.231173 262.614334,135.832128 C262.068257,136.433084 261.479525,136.932461 260.848123,137.330277 C260.21672,137.728092 259.521335,138.020101 258.761945,138.206313 C258.002556,138.392524 257.136524,138.485629 256.163823,138.485629 C254.849823,138.485629 253.633965,138.265564 252.516212,137.825428 C251.398459,137.385291 250.430038,136.758953 249.610922,135.946394 C248.791805,135.133835 248.151879,134.160471 247.691126,133.026274 C247.230373,131.892077 247,130.630936 247,129.242814 C247,127.854692 247.238905,126.593552 247.716724,125.459355 C248.194542,124.325157 248.847265,123.351794 249.674915,122.539235 C250.502564,121.726676 251.483783,121.100337 252.618601,120.660201 C253.753419,120.220065 254.977809,120 256.291809,120 C257.23038,120 258.113477,120.114264 258.941126,120.342797 C259.768775,120.571329 260.515355,120.892962 261.180887,121.307706 C261.84642,121.72245 262.430885,122.213363 262.9343,122.780462 C263.437716,123.347561 263.843002,123.969667 264.150171,124.6468 L261.411263,126.60201 C260.865185,125.467813 260.174066,124.60025 259.337884,123.999295 C258.501702,123.398339 257.452225,123.097866 256.18942,123.097866 C255.404433,123.097866 254.66212,123.241755 253.962457,123.529536 C253.262795,123.817318 252.652733,124.227823 252.132253,124.761065 C251.611772,125.294307 251.197954,125.937573 250.890785,126.690883 C250.583616,127.444194 250.430034,128.294829 250.430034,129.242814 C250.430034,130.156943 250.57935,130.99065 250.877986,131.743961 C251.176623,132.497271 251.586175,133.144769 252.106655,133.686475 C252.627136,134.228181 253.237198,134.647151 253.93686,134.943396 C254.636522,135.239642 255.387368,135.387762 256.18942,135.387762 C258.527315,135.387762 260.336171,134.202798 261.616041,131.832834 L264.25256,133.711867 Z M278.37372,138.130136 L275.148464,138.130136 L275.148464,130.867925 C275.148464,130.038437 274.935156,129.382475 274.508532,128.900018 C274.081909,128.417561 273.441984,128.176336 272.588737,128.176336 C271.684296,128.176336 270.937716,128.502201 270.348976,129.153941 C269.760236,129.805681 269.46587,130.66478 269.46587,131.731264 L269.46587,138.130136 L266.240614,138.130136 L266.240614,120.355493 L269.46587,120.355493 L269.46587,127.516135 C269.943688,126.771289 270.562283,126.195735 271.321672,125.789455 C272.081062,125.383176 272.930029,125.180039 273.868601,125.180039 C274.551198,125.180039 275.174059,125.285839 275.737201,125.497443 C276.300344,125.709047 276.773889,126.00952 277.15785,126.398871 C277.541811,126.788223 277.840443,127.253744 278.053754,127.795451 C278.267066,128.337157 278.37372,128.946567 278.37372,129.6237 L278.37372,138.130136 Z M289.090444,138.130136 C288.988054,137.994709 288.860069,137.761948 288.706485,137.431846 C288.5529,137.101744 288.476109,136.665846 288.476109,136.12414 C288.032421,136.919771 287.44369,137.512253 286.709898,137.901605 C285.976106,138.290956 285.148469,138.485629 284.226962,138.485629 C283.59556,138.485629 283.019627,138.392524 282.499147,138.206313 C281.978666,138.020101 281.530719,137.757716 281.15529,137.41915 C280.779862,137.080584 280.485496,136.665846 280.272184,136.174925 C280.058873,135.684004 279.952218,135.142306 279.952218,134.549815 C279.952218,133.906539 280.075937,133.343681 280.323379,132.861224 C280.57082,132.378767 280.903582,131.968261 281.321672,131.629695 C281.739763,131.291129 282.22184,131.02028 282.767918,130.81714 C283.313996,130.614 283.885663,130.470112 284.482935,130.38547 L288.296928,129.801446 L288.296928,129.318991 C288.296928,128.709572 288.104951,128.239818 287.72099,127.909716 C287.337029,127.579614 286.752564,127.414565 285.967577,127.414565 C285.21672,127.414565 284.649319,127.554222 284.265358,127.833539 C283.881397,128.112856 283.68942,128.447185 283.68942,128.836537 L283.68942,128.963499 C283.68942,128.997355 283.706484,129.056603 283.740614,129.141245 L280.848123,130.106154 C280.694538,129.784516 280.617747,129.429027 280.617747,129.039676 C280.617747,128.548754 280.7372,128.070537 280.976109,127.605008 C281.215018,127.139479 281.560578,126.728974 282.012799,126.373479 C282.465019,126.017984 283.023887,125.730207 283.68942,125.510139 C284.354952,125.290071 285.11433,125.180039 285.967577,125.180039 C287.759395,125.180039 289.133101,125.556688 290.088737,126.309998 C291.044373,127.063308 291.522184,128.210185 291.522184,129.750661 L291.522184,135.006877 C291.522184,135.734795 291.586177,136.327277 291.714164,136.784341 C291.842151,137.241406 292.059725,137.69 292.366894,138.130136 L289.090444,138.130136 Z M284.994881,135.895609 C285.933452,135.895609 286.718427,135.590904 287.349829,134.981485 C287.981232,134.372065 288.296928,133.45795 288.296928,132.239111 L288.296928,132.01058 L285.225256,132.518427 C283.808867,132.755424 283.100683,133.373298 283.100683,134.372068 C283.100683,134.879918 283.275596,135.260799 283.625427,135.514724 C283.975258,135.768649 284.431738,135.895609 284.994881,135.895609 Z M301.18942,128.354082 C300.865186,128.235584 300.51536,128.176336 300.139932,128.176336 C299.662114,128.176336 299.231231,128.26944 298.84727,128.455652 C298.463309,128.641863 298.13908,128.904248 297.874573,129.242814 C297.610067,129.581381 297.409557,129.97919 297.273038,130.436255 C297.136518,130.893319 297.068259,131.384233 297.068259,131.909011 L297.068259,138.130136 L293.843003,138.130136 L293.843003,125.535532 L297.068259,125.535532 L297.068259,127.541527 C297.426623,126.813609 297.900168,126.238055 298.488908,125.814847 C299.077648,125.39164 299.781566,125.180039 300.600683,125.180039 C300.993176,125.180039 301.360067,125.230823 301.701365,125.332393 L301.18942,128.354082 Z M305.788396,138.841121 C305.686006,139.128903 305.634812,139.41668 305.634812,139.704461 C305.634812,140.127669 305.877984,140.470462 306.364334,140.732851 C306.850685,140.99524 307.546071,141.126433 308.450512,141.126433 C309.423213,141.126433 310.186857,140.859816 310.741468,140.326574 C311.296078,139.793332 311.573379,138.908841 311.573379,137.673074 L311.573379,136.047963 C311.249145,136.572741 310.792665,137.017103 310.203925,137.381062 C309.615185,137.74502 308.868605,137.926997 307.964164,137.926997 C307.127982,137.926997 306.338741,137.770412 305.596416,137.457239 C304.854092,137.144065 304.205634,136.708167 303.651024,136.149533 C303.096414,135.590898 302.656998,134.92224 302.332764,134.143537 C302.008531,133.364835 301.846416,132.501504 301.846416,131.553518 C301.846416,130.622461 302.012797,129.763361 302.345563,128.976195 C302.678329,128.189028 303.126277,127.516138 303.68942,126.957503 C304.252563,126.398869 304.905286,125.962971 305.647611,125.649797 C306.389935,125.336623 307.170644,125.180039 307.989761,125.180039 C308.757683,125.180039 309.448802,125.328159 310.06314,125.624405 C310.677477,125.92065 311.180885,126.348084 311.573379,126.906718 L311.573379,125.535532 L314.798635,125.535532 L314.798635,137.266796 C314.798635,138.33328 314.645053,139.268555 314.337884,140.07265 C314.030715,140.876745 313.599832,141.545404 313.045222,142.078646 C312.490612,142.611888 311.820823,143.009697 311.035836,143.272086 C310.250849,143.534475 309.389083,143.665667 308.450512,143.665667 C306.53924,143.665667 305.04608,143.284786 303.97099,142.523012 C302.895899,141.761238 302.358362,140.703234 302.358362,139.348968 C302.358362,139.061187 302.392491,138.79457 302.460751,138.54911 C302.529011,138.303649 302.614334,138.087816 302.716724,137.901605 L305.788396,138.841121 Z M308.322526,127.973197 C307.878837,127.973197 307.45222,128.049373 307.042662,128.201728 C306.633104,128.354083 306.274746,128.582612 305.967577,128.887321 C305.660408,129.192031 305.417236,129.568681 305.238055,130.017281 C305.058873,130.465881 304.969283,130.977955 304.969283,131.553518 C304.969283,132.129081 305.058873,132.641155 305.238055,133.089755 C305.417236,133.538355 305.660408,133.915005 305.967577,134.219714 C306.274746,134.524424 306.633104,134.752953 307.042662,134.905308 C307.45222,135.057663 307.878837,135.133839 308.322526,135.133839 C308.766214,135.133839 309.197097,135.057663 309.615188,134.905308 C310.033279,134.752953 310.400169,134.524424 310.71587,134.219714 C311.031572,133.915005 311.283276,133.538355 311.47099,133.089755 C311.658704,132.641155 311.75256,132.129081 311.75256,131.553518 C311.75256,130.977955 311.658704,130.465881 311.47099,130.017281 C311.283276,129.568681 311.031572,129.192031 310.71587,128.887321 C310.400169,128.582612 310.033279,128.354083 309.615188,128.201728 C309.197097,128.049373 308.766214,127.973197 308.322526,127.973197 Z M319.372014,132.594604 C319.474403,133.559518 319.841294,134.325513 320.472696,134.892612 C321.104099,135.45971 321.897606,135.743255 322.853242,135.743255 C323.740619,135.743255 324.457335,135.535886 325.003413,135.121143 C325.549491,134.706399 326.001705,134.143541 326.360068,133.432552 L328.766212,134.803738 C328.168939,136.039505 327.38823,136.962085 326.424061,137.571504 C325.459893,138.180924 324.252567,138.485629 322.802048,138.485629 C321.914671,138.485629 321.078502,138.324812 320.293515,138.003174 C319.508528,137.681536 318.817409,137.22871 318.220137,136.644683 C317.622864,136.060657 317.149319,135.362374 316.799488,134.549815 C316.449657,133.737256 316.274744,132.831604 316.274744,131.832834 C316.274744,130.834063 316.449657,129.928412 316.799488,129.115853 C317.149319,128.303293 317.62713,127.605011 318.232935,127.020984 C318.83874,126.436957 319.546924,125.984131 320.357509,125.662493 C321.168093,125.340855 322.034125,125.180039 322.955631,125.180039 C323.860073,125.180039 324.691976,125.336623 325.451365,125.649797 C326.210755,125.962971 326.863478,126.398869 327.409556,126.957503 C327.955634,127.516138 328.382251,128.180564 328.68942,128.950802 C328.996589,129.721041 329.150171,130.563212 329.150171,131.477341 L329.150171,132.594604 L319.372014,132.594604 Z M322.853242,127.617704 C321.982931,127.617704 321.244884,127.871625 320.639078,128.379475 C320.033273,128.887324 319.610923,129.513662 319.372014,130.258508 L326.180887,130.258508 C326.027303,129.445949 325.664679,128.802683 325.093003,128.32869 C324.521328,127.854697 323.774749,127.617704 322.853242,127.617704 Z M330.856655,120.355493 L334.081911,120.355493 L334.081911,127.084465 C334.559729,126.491974 335.161259,126.026452 335.886519,125.687886 C336.611778,125.349319 337.40102,125.180039 338.254266,125.180039 C339.107513,125.180039 339.90102,125.328159 340.634812,125.624405 C341.368604,125.92065 342.00853,126.356548 342.554608,126.932111 C343.100685,127.507673 343.531568,128.205956 343.84727,129.026979 C344.162971,129.848003 344.320819,130.783278 344.320819,131.832834 C344.320819,132.882389 344.158705,133.817665 343.834471,134.638688 C343.510237,135.459711 343.070822,136.157994 342.516212,136.733557 C341.961601,137.309119 341.313144,137.745017 340.570819,138.041263 C339.828495,138.337508 339.039253,138.485629 338.203072,138.485629 C337.196241,138.485629 336.355805,138.29942 335.681741,137.926997 C335.007676,137.554574 334.474405,137.10598 334.081911,136.581203 L334.081911,138.130136 L330.856655,138.130136 L330.856655,120.355493 Z M337.460751,135.489332 C337.972699,135.489332 338.45051,135.400459 338.894198,135.222712 C339.337886,135.044965 339.717575,134.791044 340.033276,134.460942 C340.348978,134.130839 340.596415,133.745726 340.775597,133.30559 C340.954779,132.865454 341.044369,132.37454 341.044369,131.832834 C341.044369,131.308056 340.954779,130.821374 340.775597,130.372774 C340.596415,129.924173 340.348978,129.534828 340.033276,129.204726 C339.717575,128.874624 339.337886,128.620703 338.894198,128.442955 C338.45051,128.265208 337.972699,128.176336 337.460751,128.176336 C336.948803,128.176336 336.470992,128.265208 336.027304,128.442955 C335.583616,128.620703 335.203926,128.874624 334.888225,129.204726 C334.572524,129.534828 334.325086,129.924173 334.145904,130.372774 C333.966723,130.821374 333.877133,131.308056 333.877133,131.832834 C333.877133,132.37454 333.966723,132.865454 334.145904,133.30559 C334.325086,133.745726 334.572524,134.130839 334.888225,134.460942 C335.203926,134.791044 335.583616,135.044965 336.027304,135.222712 C336.470992,135.400459 336.948803,135.489332 337.460751,135.489332 Z M348.356655,132.594604 C348.459045,133.559518 348.825935,134.325513 349.457338,134.892612 C350.08874,135.45971 350.882248,135.743255 351.837884,135.743255 C352.72526,135.743255 353.441977,135.535886 353.988055,135.121143 C354.534132,134.706399 354.986346,134.143541 355.34471,133.432552 L357.750853,134.803738 C357.153581,136.039505 356.372872,136.962085 355.408703,137.571504 C354.444534,138.180924 353.237209,138.485629 351.786689,138.485629 C350.899313,138.485629 350.063144,138.324812 349.278157,138.003174 C348.49317,137.681536 347.802051,137.22871 347.204778,136.644683 C346.607506,136.060657 346.133961,135.362374 345.78413,134.549815 C345.434299,133.737256 345.259386,132.831604 345.259386,131.832834 C345.259386,130.834063 345.434299,129.928412 345.78413,129.115853 C346.133961,128.303293 346.611772,127.605011 347.217577,127.020984 C347.823382,126.436957 348.531566,125.984131 349.34215,125.662493 C350.152734,125.340855 351.018767,125.180039 351.940273,125.180039 C352.844714,125.180039 353.676617,125.336623 354.436007,125.649797 C355.195396,125.962971 355.84812,126.398869 356.394198,126.957503 C356.940276,127.516138 357.366893,128.180564 357.674061,128.950802 C357.98123,129.721041 358.134812,130.563212 358.134812,131.477341 L358.134812,132.594604 L348.356655,132.594604 Z M351.837884,127.617704 C350.967572,127.617704 350.229525,127.871625 349.62372,128.379475 C349.017915,128.887324 348.595564,129.513662 348.356655,130.258508 L355.165529,130.258508 C355.011945,129.445949 354.64932,128.802683 354.077645,128.32869 C353.50597,127.854697 352.75939,127.617704 351.837884,127.617704 Z M362.221843,132.594604 C362.324233,133.559518 362.691123,134.325513 363.322526,134.892612 C363.953928,135.45971 364.747435,135.743255 365.703072,135.743255 C366.590448,135.743255 367.307165,135.535886 367.853242,135.121143 C368.39932,134.706399 368.851534,134.143541 369.209898,133.432552 L371.616041,134.803738 C371.018768,136.039505 370.238059,136.962085 369.273891,137.571504 C368.309722,138.180924 367.102396,138.485629 365.651877,138.485629 C364.764501,138.485629 363.928332,138.324812 363.143345,138.003174 C362.358358,137.681536 361.667238,137.22871 361.069966,136.644683 C360.472693,136.060657 359.999148,135.362374 359.649317,134.549815 C359.299486,133.737256 359.124573,132.831604 359.124573,131.832834 C359.124573,130.834063 359.299486,129.928412 359.649317,129.115853 C359.999148,128.303293 360.476959,127.605011 361.082764,127.020984 C361.68857,126.436957 362.396754,125.984131 363.207338,125.662493 C364.017922,125.340855 364.883954,125.180039 365.805461,125.180039 C366.709902,125.180039 367.541805,125.336623 368.301195,125.649797 C369.060584,125.962971 369.713308,126.398869 370.259386,126.957503 C370.805463,127.516138 371.23208,128.180564 371.539249,128.950802 C371.846418,129.721041 372,130.563212 372,131.477341 L372,132.594604 L362.221843,132.594604 Z M365.703072,127.617704 C364.83276,127.617704 364.094713,127.871625 363.488908,128.379475 C362.883103,128.887324 362.460752,129.513662 362.221843,130.258508 L369.030717,130.258508 C368.877132,129.445949 368.514508,128.802683 367.942833,128.32869 C367.371158,127.854697 366.624578,127.617704 365.703072,127.617704 Z M247.691126,144.689825 L253.09215,144.689825 C254.491475,144.689825 255.78839,144.871802 256.982935,145.235761 C258.17748,145.59972 259.209893,146.149882 260.080205,146.886263 C260.950516,147.622645 261.628837,148.549457 262.115188,149.666725 C262.601538,150.783994 262.84471,152.087455 262.84471,153.577147 C262.84471,155.066839 262.601538,156.370299 262.115188,157.487568 C261.628837,158.604837 260.950516,159.531649 260.080205,160.26803 C259.209893,161.004412 258.17748,161.554574 256.982935,161.918533 C255.78839,162.282492 254.491475,162.464468 253.09215,162.464468 L247.691126,162.464468 L247.691126,144.689825 Z M253.322526,159.366602 C254.226967,159.366602 255.054604,159.248106 255.805461,159.011109 C256.556318,158.774113 257.200509,158.414391 257.738055,157.931934 C258.2756,157.449477 258.689418,156.844299 258.979522,156.116382 C259.269626,155.388464 259.414676,154.542061 259.414676,153.577147 C259.414676,152.612233 259.269626,151.770062 258.979522,151.050608 C258.689418,150.331155 258.2756,149.730209 257.738055,149.247752 C257.200509,148.765295 256.556318,148.401341 255.805461,148.155881 C255.054604,147.91042 254.226967,147.787692 253.322526,147.787692 L251.069966,147.787692 L251.069966,159.366602 L253.322526,159.366602 Z M267.162116,156.928937 C267.264506,157.893851 267.631396,158.659846 268.262799,159.226944 C268.894201,159.794043 269.687709,160.077588 270.643345,160.077588 C271.530721,160.077588 272.247438,159.870219 272.793515,159.455475 C273.339593,159.040731 273.791807,158.477873 274.150171,157.766884 L276.556314,159.138071 C275.959041,160.373838 275.178332,161.296417 274.214164,161.905837 C273.249995,162.515256 272.042669,162.819961 270.59215,162.819961 C269.704774,162.819961 268.868605,162.659145 268.083618,162.337507 C267.298631,162.015869 266.607512,161.563043 266.010239,160.979016 C265.412966,160.394989 264.939422,159.696707 264.58959,158.884147 C264.239759,158.071588 264.064846,157.165937 264.064846,156.167166 C264.064846,155.168396 264.239759,154.262744 264.58959,153.450185 C264.939422,152.637626 265.417232,151.939343 266.023038,151.355317 C266.628843,150.77129 267.337027,150.318464 268.147611,149.996826 C268.958195,149.675188 269.824227,149.514371 270.745734,149.514371 C271.650175,149.514371 272.482078,149.670956 273.241468,149.98413 C274.000857,150.297304 274.653581,150.733201 275.199659,151.291836 C275.745737,151.85047 276.172353,152.514897 276.479522,153.285135 C276.786691,154.055373 276.940273,154.897544 276.940273,155.811673 L276.940273,156.928937 L267.162116,156.928937 Z M270.643345,151.952037 C269.773033,151.952037 269.034986,152.205958 268.429181,152.713807 C267.823376,153.221657 267.401025,153.847995 267.162116,154.592841 L273.97099,154.592841 C273.817405,153.780282 273.454781,153.137015 272.883106,152.663022 C272.311431,152.18903 271.564851,151.952037 270.643345,151.952037 Z M281.308874,152.967731 C281.308874,153.746433 282.307157,154.338915 284.303754,154.745195 C285.805468,155.049905 286.889075,155.506962 287.554608,156.116382 C288.22014,156.725801 288.552901,157.56374 288.552901,158.630224 C288.552901,159.222715 288.437714,159.772877 288.207338,160.280727 C287.976961,160.788576 287.648466,161.232938 287.221843,161.613825 C286.79522,161.994712 286.270481,162.290953 285.647611,162.502557 C285.024741,162.714161 284.320823,162.819961 283.535836,162.819961 C282.733784,162.819961 282.021334,162.714161 281.398464,162.502557 C280.775594,162.290953 280.229525,162.01164 279.760239,161.664609 C279.290953,161.317579 278.885667,160.915537 278.544369,160.458473 C278.20307,160.001408 277.930035,159.527423 277.725256,159.036501 L280.31058,157.411391 C280.583619,158.207022 280.993171,158.858753 281.539249,159.366602 C282.085327,159.874451 282.767914,160.128372 283.587031,160.128372 C284.081914,160.128372 284.538394,160.009876 284.956485,159.77288 C285.374575,159.535883 285.583618,159.188858 285.583618,158.731793 C285.583618,158.308585 285.366043,157.978488 284.930887,157.741492 C284.495732,157.504495 283.808878,157.292895 282.870307,157.106683 C282.25597,156.988185 281.675771,156.823136 281.129693,156.611532 C280.583615,156.399928 280.114336,156.133311 279.721843,155.811673 C279.32935,155.490035 279.017919,155.113386 278.787543,154.681714 C278.557166,154.250042 278.44198,153.746432 278.44198,153.170869 C278.44198,152.578378 278.574231,152.053608 278.838737,151.596544 C279.103244,151.139479 279.453069,150.758598 279.888225,150.453888 C280.323381,150.149179 280.826789,149.916418 281.398464,149.755599 C281.970139,149.59478 282.563137,149.514371 283.177474,149.514371 C284.559734,149.514371 285.651873,149.776756 286.453925,150.301534 C287.255977,150.826312 287.912967,151.621931 288.424915,152.688415 L286.095563,154.059601 C285.822524,153.365541 285.438569,152.823843 284.943686,152.434491 C284.448803,152.04514 283.877136,151.850467 283.228669,151.850467 C282.699656,151.850467 282.247442,151.93934 281.872014,152.117087 C281.496585,152.294834 281.308874,152.578379 281.308874,152.967731 Z M290.233788,149.869864 L293.459044,149.869864 L293.459044,162.464468 L290.233788,162.464468 L290.233788,149.869864 Z M290.080205,144.689825 L293.612628,144.689825 L293.612628,148.041615 L290.080205,148.041615 L290.080205,144.689825 Z M299.030717,163.175454 C298.928327,163.463235 298.877133,163.751012 298.877133,164.038794 C298.877133,164.462002 299.120305,164.804795 299.606655,165.067184 C300.093006,165.329573 300.788391,165.460765 301.692833,165.460765 C302.665534,165.460765 303.429178,165.194148 303.983788,164.660906 C304.538399,164.127664 304.8157,163.243173 304.8157,162.007406 L304.8157,160.382296 C304.491466,160.907074 304.034986,161.351435 303.446246,161.715394 C302.857506,162.079353 302.110926,162.26133 301.206485,162.26133 C300.370303,162.26133 299.581062,162.104745 298.838737,161.791571 C298.096413,161.478397 297.447955,161.0425 296.893345,160.483865 C296.338734,159.925231 295.899319,159.256572 295.575085,158.47787 C295.250852,157.699167 295.088737,156.835836 295.088737,155.88785 C295.088737,154.956793 295.255118,154.097694 295.587884,153.310527 C295.92065,152.523361 296.368598,151.85047 296.931741,151.291836 C297.494883,150.733201 298.147607,150.297304 298.889932,149.98413 C299.632256,149.670956 300.412965,149.514371 301.232082,149.514371 C302.000004,149.514371 302.691123,149.662492 303.305461,149.958737 C303.919798,150.254983 304.423206,150.682417 304.8157,151.241051 L304.8157,149.869864 L308.040956,149.869864 L308.040956,161.601129 C308.040956,162.667612 307.887374,163.602888 307.580205,164.406983 C307.273036,165.211078 306.842153,165.879736 306.287543,166.412978 C305.732932,166.94622 305.063144,167.34403 304.278157,167.606419 C303.49317,167.868808 302.631404,168 301.692833,168 C299.78156,168 298.288401,167.619119 297.213311,166.857344 C296.13822,166.09557 295.600683,165.037566 295.600683,163.683301 C295.600683,163.39552 295.634812,163.128903 295.703072,162.883442 C295.771331,162.637981 295.856655,162.422149 295.959044,162.235937 L299.030717,163.175454 Z M301.564846,152.30753 C301.121158,152.30753 300.694541,152.383706 300.284983,152.536061 C299.875425,152.688416 299.517066,152.916944 299.209898,153.221654 C298.902729,153.526364 298.659557,153.903013 298.480375,154.351613 C298.301194,154.800214 298.211604,155.312288 298.211604,155.88785 C298.211604,156.463413 298.301194,156.975487 298.480375,157.424087 C298.659557,157.872688 298.902729,158.249337 299.209898,158.554047 C299.517066,158.858757 299.875425,159.087285 300.284983,159.23964 C300.694541,159.391995 301.121158,159.468171 301.564846,159.468171 C302.008535,159.468171 302.439418,159.391995 302.857509,159.23964 C303.275599,159.087285 303.64249,158.858757 303.958191,158.554047 C304.273892,158.249337 304.525596,157.872688 304.713311,157.424087 C304.901025,156.975487 304.994881,156.463413 304.994881,155.88785 C304.994881,155.312288 304.901025,154.800214 304.713311,154.351613 C304.525596,153.903013 304.273892,153.526364 303.958191,153.221654 C303.64249,152.916944 303.275599,152.688416 302.857509,152.536061 C302.439418,152.383706 302.008535,152.30753 301.564846,152.30753 Z M322.213311,162.464468 L318.988055,162.464468 L318.988055,155.202257 C318.988055,154.37277 318.783278,153.716807 318.37372,153.23435 C317.964162,152.751893 317.307172,152.510668 316.40273,152.510668 C315.549484,152.510668 314.845566,152.836534 314.290956,153.488274 C313.736345,154.140014 313.459044,154.999113 313.459044,156.065597 L313.459044,162.464468 L310.233788,162.464468 L310.233788,149.869864 L313.459044,149.869864 L313.459044,151.901252 C313.936862,151.173334 314.542658,150.593548 315.276451,150.161876 C316.010243,149.730204 316.837879,149.514371 317.759386,149.514371 C319.12458,149.514371 320.208187,149.912181 321.010239,150.707812 C321.812291,151.503443 322.213311,152.561446 322.213311,153.881855 L322.213311,162.464468 Z" id="Chargebee-Design"></path>
        </g>
    </g>
</svg>