<?xml version="1.0" encoding="UTF-8"?>
<svg width="202px" height="202px" viewBox="0 0 202 202" version="1.1" xmlns="http://www.w3.org/2000/svg" xmlns:xlink="http://www.w3.org/1999/xlink">
    <!-- Generator: Sketch 52.5 (67469) - http://www.bohemiancoding.com/sketch -->
    <title>cv-logo-black</title>
    <desc>Created with Sketch.</desc>
    <g id="Page-1" stroke="none" stroke-width="1" fill="none" fill-rule="evenodd">
        <g id="cv-logo-black" transform="translate(0.000000, 1.000000)" fill="#ffffff">
            <path d="M170.6,142.8 C168.7,141.5 166.2,141.6 164.3,142.9 C162.4,144.2 161.6,146.7 162.3,148.9 C163,151.1 165,152.7 167.3,152.8 C169.6,152.9 171.7,151.6 172.6,149.5 C173.6,147.1 172.7,144.3 170.6,142.8 C168.1,141.2 173.1,144.5 170.6,142.8 Z" id="Shape"></path>
            <path d="M100.7,193.7 C101.9,193.7 103.2,193.7 104.4,193.6 C106.9,193.5 109.4,193.3 111.8,193 C113.8,192.8 107.7,193.5 111.8,193 C114.3,192.7 116.3,195 115.8,197.5 C115.5,198.6 114.7,199.5 113.7,200 C113,200.3 112.3,200.3 111.6,200.4 C110.8,200.5 109.9,200.6 109.1,200.6 C102.5,201.1 95.9,201 89.3,200.3 C83.3,199.6 77.5,198.5 71.7,196.7 C66.1,195 60.7,192.8 55.5,190.1 C50.2,187.4 45.3,184.2 40.6,180.6 C35.2,176.6 30.3,172 25.9,166.9 C21.5,161.9 17.6,156.4 14.3,150.7 C10.9,144.8 8.1,138.6 6,132.1 C3.8,125.5 2.4,118.7 1.6,111.8 C0.8,104.8 0.8,97.7 1.5,90.7 C2.2,83.9 3.6,77 5.8,70.4 C7.9,63.9 10.6,57.7 14,51.7 C17.3,45.8 21.3,40.3 25.7,35.2 C30.1,30.2 35,25.6 40.3,21.5 C45.7,17.4 51.5,13.8 57.5,10.9 C63.7,7.9 70.2,5.6 76.9,3.9 C83.7,2.2 90.7,1.3 97.7,1 C104.7,0.8 111.8,1.3 118.7,2.5 C125.4,3.7 132,5.6 138.4,8.1 C144.7,10.6 150.7,13.8 156.3,17.5 C161.9,21.2 167.1,25.5 171.9,30.3 C173.9,32.3 175.7,34.3 177,36.9 C178.1,39.1 178.7,41.6 178.9,44 C179.2,49 177.5,54.1 174.1,57.8 C170.2,62.2 164.3,64.6 158.5,64.2 C155.7,64 152.9,63.2 150.4,61.8 C149.1,61.1 147.9,60.2 146.9,59.2 C145.7,58.1 144.6,56.8 143.4,55.7 C138.5,51.1 132.9,47.4 126.8,44.6 C120.5,41.8 113.8,40 107,39.4 C100,38.8 92.9,39.3 86.1,41 C79.5,42.7 73.2,45.5 67.4,49.2 C61.8,52.9 56.8,57.5 52.7,62.7 C48.5,68 45.2,74 42.9,80.4 C40.6,86.9 39.4,93.8 39.4,100.7 C39.4,107.7 40.5,114.6 42.8,121.2 C45,127.6 48.3,133.5 52.4,138.8 C56.5,144.1 61.5,148.7 67.1,152.4 C72.8,156.2 79.1,159 85.8,160.7 C92.6,162.5 99.7,163 106.7,162.4 C113.5,161.8 120.2,160.1 126.5,157.3 C127.2,157 127.8,156.6 128.5,156.5 C129.1,156.4 129.7,156.4 130.3,156.6 C131.5,157 132.4,157.9 132.7,159.1 C133,160.2 132.8,161.5 132,162.4 C131.6,162.9 131,163.2 130.4,163.5 C129.6,163.8 128.9,164.2 128.1,164.5 C121.7,167.2 115,168.9 108.1,169.5 C101.1,170.2 94,169.8 87.2,168.4 C88.1,169.4 88.9,170.5 89.7,171.6 C90.5,172.7 91.3,173.9 92,175 C92.1,175.2 92.4,175.6 92.4,175.6 L92.7,175.6 C93.1,175.6 93.4,175.7 93.8,175.7 C94.5,175.8 95.2,175.8 95.9,175.9 C98.8,176.1 101.7,176.1 104.6,176 C110.3,175.7 116,174.9 121.5,173.3 C126.8,171.8 132,169.7 136.9,167.1 C141.7,164.5 146.2,161.5 150.3,157.9 C151.3,157 152.3,156.1 153.3,155.2 C154.2,154.4 154.9,153.4 156,152.9 C157.9,151.9 160.2,152.2 161.8,153.5 C163.5,154.8 164.2,157 163.7,159.1 C163.4,160.2 162.9,161.1 162.1,161.8 C161.1,162.7 160.2,163.7 159.2,164.6 C155.2,168.2 150.9,171.5 146.3,174.3 C141.6,177.2 136.7,179.6 131.5,181.5 C126.2,183.5 120.8,184.9 115.2,185.8 C109.5,186.7 103.7,187.1 97.9,186.9 C98.4,188.2 98.8,189.5 99.2,190.8 C99.4,191.4 99.5,192 99.7,192.6 C99.7,192.8 99.9,193.3 99.9,193.3 L100.7,193.7 Z" id="Shape"></path>
            <path d="M156.5,175.3 C150.9,179.5 144.8,183.1 138.4,185.9 C135.2,187.3 131.9,188.5 128.5,189.6 C126.8,190.1 125.1,190.6 123.4,191 C122.7,191.2 121.9,191.3 121.2,191.7 C120.6,192 120.2,192.5 119.9,193.1 C119.2,194.4 119.4,195.9 120.3,197 C121.3,198.3 122.8,198.5 124.3,198.2 C127.7,197.4 131.1,196.4 134.4,195.2 C141,192.9 147.4,189.8 153.4,186.1 C154.9,185.2 156.4,184.2 157.8,183.2 C158.5,182.7 159.3,182.2 160,181.7 C160.6,181.2 161.3,180.8 161.8,180.1 C162.6,179 162.6,177.4 161.9,176.2 C161.2,175 159.8,174.3 158.5,174.4 C157.7,174.7 157,174.9 156.5,175.3 C146.2,183 158.1,174.1 156.5,175.3 Z" id="Shape"></path>
            <path d="M168.6,164.5 C167.7,165.5 166.7,166.5 165.7,167.5 C164.9,168.3 164,169 163.6,170.1 C163,172.2 164.4,174.4 166.5,174.7 C167.8,174.9 168.9,174.4 169.8,173.6 C170.8,172.7 171.8,171.7 172.7,170.7 C173.5,169.9 174.4,169.1 174.7,167.9 C174.9,167 174.8,165.9 174.3,165.1 C173.1,163.1 170.2,162.8 168.6,164.5 C167.3,165.9 169.9,163.1 168.6,164.5 Z" id="Shape"></path>
            <path d="M145.8,143.6 C143.5,146 141.1,148.2 138.5,150.2 C137.8,150.7 137,151.3 136.3,151.8 C135.7,152.2 135.2,152.8 134.9,153.5 C134.3,154.9 134.7,156.6 135.9,157.6 C137.3,158.8 139.1,158.7 140.6,157.6 C142,156.6 143.4,155.6 144.7,154.6 C145.9,153.6 147.1,152.5 148.3,151.4 C149,150.8 149.6,150.1 150.3,149.4 C150.9,148.8 151.5,148.2 151.9,147.4 C152.5,145.8 151.9,143.9 150.4,143 C148.9,142.1 147,142.4 145.8,143.6 C142.3,147.3 147.2,142.1 145.8,143.6 Z" id="Shape"></path>
            <path d="M101.1,77.4 C96.2,77.4 91.4,78.9 87.4,81.8 C83.5,84.6 80.5,88.5 78.9,93 C77.2,97.6 77,102.8 78.4,107.6 C79.7,112.2 82.4,116.3 86.1,119.3 C89.8,122.4 94.5,124.3 99.3,124.6 C104.2,125 109.2,123.8 113.4,121.2 C117.5,118.7 120.7,115.1 122.7,110.7 C124.7,106.2 125.3,101.1 124.3,96.2 C123.4,91.5 120.9,87.1 117.5,83.8 C114,80.5 109.5,78.3 104.8,77.5 C103.5,77.5 102.3,77.4 101.1,77.4 Z" id="Shape"></path>
        </g>
    </g>
</svg>