<svg width="306" height="366" viewBox="0 0 306 366" fill="none" xmlns="http://www.w3.org/2000/svg">
<path d="M247.545 78.3825L20.5124 191.407C20.4795 191.423 20.4438 191.432 20.4072 191.434C20.3706 191.437 20.334 191.432 20.2994 191.42C20.2648 191.407 20.233 191.389 20.2058 191.364C20.1786 191.339 20.1566 191.31 20.141 191.277C20.1105 191.212 20.106 191.139 20.1285 191.071C20.151 191.004 20.1987 190.948 20.2617 190.914L246.951 77.2126C247.028 77.1697 247.113 77.1427 247.201 77.1334C247.288 77.1241 247.377 77.1327 247.462 77.1585C247.546 77.1843 247.624 77.2269 247.692 77.2837C247.76 77.3405 247.815 77.4103 247.855 77.4891C247.895 77.5678 247.919 77.6537 247.925 77.7418C247.931 77.8299 247.919 77.9183 247.89 78.0017C247.861 78.0851 247.815 78.1619 247.756 78.2273C247.697 78.2927 247.625 78.3455 247.545 78.3825Z" fill="url(#paint0_linear_493_5)"/>
<path d="M260.21 63.3956L113.971 139.825C113.907 139.859 113.832 139.867 113.763 139.846C113.693 139.825 113.635 139.777 113.6 139.714C113.569 139.649 113.564 139.575 113.584 139.507C113.605 139.438 113.65 139.379 113.711 139.342L259.579 62.1885C259.734 62.1097 259.914 62.0947 260.081 62.1468C260.247 62.1988 260.387 62.3137 260.47 62.467C260.549 62.6226 260.564 62.8028 260.512 62.9693C260.46 63.1358 260.345 63.2754 260.191 63.3584L260.21 63.3956Z" fill="url(#paint1_linear_493_5)"/>
<path d="M270.972 72.969L177.987 118.988C177.955 119.005 177.92 119.016 177.885 119.019C177.849 119.022 177.813 119.017 177.78 119.006C177.746 118.995 177.714 118.977 177.688 118.953C177.661 118.929 177.639 118.9 177.624 118.868C177.608 118.836 177.597 118.802 177.594 118.766C177.591 118.73 177.596 118.694 177.607 118.661C177.618 118.627 177.636 118.595 177.66 118.569C177.684 118.542 177.713 118.521 177.745 118.506L270.35 71.8269C270.506 71.7517 270.685 71.7397 270.849 71.7933C271.014 71.847 271.151 71.9622 271.232 72.1148C271.311 72.2699 271.325 72.45 271.271 72.6154C271.217 72.7808 271.1 72.918 270.945 72.9969L270.972 72.969Z" fill="url(#paint2_linear_493_5)"/>
<path d="M257.081 75.2718C261.092 79.2821 267.594 79.2821 271.604 75.2718C275.614 71.2615 275.614 64.7595 271.604 60.7492C267.594 56.7389 261.092 56.7389 257.081 60.7492C253.071 64.7595 253.071 71.2615 257.081 75.2718Z" fill="#FF6B00"/>
<path d="M203.545 168.383L-23.4876 281.407C-23.5205 281.423 -23.5562 281.432 -23.5928 281.434C-23.6294 281.437 -23.666 281.432 -23.7006 281.42C-23.7352 281.407 -23.767 281.389 -23.7942 281.364C-23.8214 281.339 -23.8434 281.31 -23.859 281.277C-23.8895 281.212 -23.894 281.139 -23.8715 281.071C-23.849 281.004 -23.8013 280.948 -23.7383 280.914L202.951 167.213C203.028 167.17 203.113 167.143 203.201 167.133C203.288 167.124 203.377 167.133 203.462 167.159C203.546 167.184 203.624 167.227 203.692 167.284C203.76 167.341 203.815 167.41 203.855 167.489C203.895 167.568 203.919 167.654 203.925 167.742C203.931 167.83 203.919 167.918 203.89 168.002C203.861 168.085 203.815 168.162 203.756 168.227C203.697 168.293 203.625 168.346 203.545 168.383Z" fill="url(#paint3_linear_493_5)"/>
<path d="M216.21 153.396L69.9713 229.825C69.9072 229.859 69.8323 229.867 69.7627 229.846C69.6932 229.825 69.6347 229.778 69.5999 229.714C69.5691 229.649 69.5635 229.575 69.5841 229.507C69.6047 229.438 69.65 229.379 69.7113 229.342L215.579 152.189C215.734 152.11 215.914 152.095 216.081 152.147C216.247 152.199 216.387 152.314 216.47 152.467C216.549 152.623 216.564 152.803 216.512 152.969C216.46 153.136 216.345 153.275 216.191 153.358L216.21 153.396Z" fill="url(#paint4_linear_493_5)"/>
<path d="M226.972 162.969L133.987 208.988C133.955 209.005 133.921 209.016 133.885 209.019C133.849 209.022 133.813 209.017 133.78 209.006C133.746 208.995 133.714 208.977 133.688 208.953C133.661 208.929 133.64 208.9 133.624 208.868C133.608 208.836 133.597 208.802 133.594 208.766C133.591 208.73 133.596 208.694 133.607 208.661C133.618 208.627 133.636 208.595 133.66 208.569C133.684 208.542 133.713 208.521 133.745 208.506L226.35 161.827C226.506 161.752 226.685 161.74 226.849 161.793C227.014 161.847 227.151 161.962 227.232 162.115C227.311 162.27 227.325 162.45 227.271 162.615C227.217 162.781 227.1 162.918 226.945 162.997L226.972 162.969Z" fill="url(#paint5_linear_493_5)"/>
<path d="M275.545 186.534L48.5124 299.558C48.4796 299.575 48.4438 299.584 48.4073 299.586C48.3707 299.589 48.334 299.583 48.2995 299.571C48.2649 299.559 48.2331 299.54 48.2059 299.516C48.1787 299.491 48.1566 299.462 48.141 299.428C48.1106 299.364 48.1061 299.291 48.1286 299.223C48.1511 299.156 48.1988 299.099 48.2617 299.066L274.951 185.364C275.028 185.322 275.113 185.295 275.201 185.285C275.288 185.276 275.377 185.285 275.462 185.31C275.546 185.336 275.624 185.379 275.692 185.436C275.76 185.492 275.815 185.562 275.855 185.641C275.895 185.72 275.919 185.806 275.925 185.894C275.931 185.982 275.919 186.07 275.89 186.154C275.861 186.237 275.815 186.314 275.756 186.379C275.697 186.445 275.625 186.497 275.545 186.534Z" fill="url(#paint6_linear_493_5)"/>
<path d="M288.21 171.548L141.971 247.977C141.907 248.011 141.832 248.019 141.763 247.998C141.693 247.977 141.635 247.929 141.6 247.866C141.569 247.801 141.564 247.727 141.584 247.658C141.605 247.59 141.65 247.531 141.711 247.494L287.579 170.34C287.734 170.262 287.914 170.247 288.081 170.299C288.247 170.351 288.387 170.466 288.47 170.619C288.549 170.775 288.564 170.955 288.512 171.121C288.46 171.288 288.345 171.427 288.191 171.51L288.21 171.548Z" fill="url(#paint7_linear_493_5)"/>
<path d="M298.972 181.121L205.987 227.14C205.955 227.157 205.921 227.167 205.885 227.17C205.849 227.173 205.813 227.169 205.78 227.158C205.746 227.147 205.714 227.128 205.688 227.105C205.661 227.081 205.64 227.052 205.624 227.02C205.608 226.988 205.597 226.953 205.594 226.918C205.591 226.882 205.596 226.846 205.607 226.812C205.618 226.779 205.636 226.747 205.66 226.721C205.684 226.694 205.713 226.672 205.745 226.657L298.35 179.979C298.506 179.904 298.685 179.892 298.849 179.945C299.014 179.999 299.151 180.114 299.232 180.267C299.311 180.422 299.325 180.602 299.271 180.767C299.217 180.933 299.1 181.07 298.945 181.149L298.972 181.121Z" fill="url(#paint8_linear_493_5)"/>
<rect x="233.307" y="152.814" width="19.7993" height="19.7993" transform="rotate(109.664 233.307 152.814)" fill="#5B616C"/>
<rect x="297.492" y="163.82" width="19.7993" height="19.7993" transform="rotate(65.2179 297.492 163.82)" fill="#737C8B"/>
<defs>
<linearGradient id="paint0_linear_493_5" x1="39.9657" y1="110.668" x2="227.813" y2="157.876" gradientUnits="userSpaceOnUse">
<stop stop-color="white"/>
<stop offset="1" stop-color="#FF6B00"/>
</linearGradient>
<linearGradient id="paint1_linear_493_5" x1="127.824" y1="88.0243" x2="244.295" y2="120.852" gradientUnits="userSpaceOnUse">
<stop stop-color="white"/>
<stop offset="1" stop-color="#FF6B00"/>
</linearGradient>
<linearGradient id="paint2_linear_493_5" x1="185.544" y1="85.5108" x2="263.532" y2="104.684" gradientUnits="userSpaceOnUse">
<stop stop-color="white"/>
<stop offset="1" stop-color="#FF6B00"/>
</linearGradient>
<linearGradient id="paint3_linear_493_5" x1="-4.03434" y1="200.668" x2="183.813" y2="247.876" gradientUnits="userSpaceOnUse">
<stop stop-color="white"/>
<stop offset="1" stop-color="#FF6B00"/>
</linearGradient>
<linearGradient id="paint4_linear_493_5" x1="83.8236" y1="178.024" x2="200.295" y2="210.852" gradientUnits="userSpaceOnUse">
<stop stop-color="white"/>
<stop offset="1" stop-color="#FF6B00"/>
</linearGradient>
<linearGradient id="paint5_linear_493_5" x1="141.544" y1="175.511" x2="219.532" y2="194.684" gradientUnits="userSpaceOnUse">
<stop stop-color="white"/>
<stop offset="1" stop-color="#FF6B00"/>
</linearGradient>
<linearGradient id="paint6_linear_493_5" x1="67.9657" y1="218.82" x2="255.813" y2="266.028" gradientUnits="userSpaceOnUse">
<stop stop-color="white"/>
<stop offset="1" stop-color="#FF6B00"/>
</linearGradient>
<linearGradient id="paint7_linear_493_5" x1="155.824" y1="196.176" x2="272.295" y2="229.004" gradientUnits="userSpaceOnUse">
<stop stop-color="white"/>
<stop offset="1" stop-color="#FF6B00"/>
</linearGradient>
<linearGradient id="paint8_linear_493_5" x1="213.544" y1="193.663" x2="291.532" y2="212.836" gradientUnits="userSpaceOnUse">
<stop stop-color="white"/>
<stop offset="1" stop-color="#FF6B00"/>
</linearGradient>
</defs>
</svg>
