<svg width="762" height="784" viewBox="0 0 762 784" fill="none" xmlns="http://www.w3.org/2000/svg">
<ellipse cx="344.224" cy="378.039" rx="343.776" ry="343.955" fill="#101113"/>
<ellipse cx="344.224" cy="378.039" rx="343.776" ry="343.955" fill="url(#paint0_diamond_172_335)" fill-opacity="0.2" style="mix-blend-mode:multiply"/>
<path d="M270.15 704.392C246.491 704.518 223.046 699.903 201.201 690.82C143.874 666.812 103.526 613.242 87.683 539.958V539.316L88.2506 539.612C147.181 568.63 229.234 579.092 319.209 569.222C409.184 559.352 496.42 529.89 564.753 486.709L565.123 486.487V486.907C583.212 570.16 571.86 634.956 533.98 664.566C519 676.262 500.492 682.061 479.022 681.839C456.812 681.543 432.135 674.732 405.409 661.63C369.873 684.084 333.843 697.902 298.036 702.738C288.789 703.92 279.472 704.473 270.15 704.392V704.392ZM88.2753 540.451C104.242 613.193 144.392 666.294 201.349 690.253C230.962 702.59 263.314 706.514 297.764 701.875C333.448 696.94 369.527 683.196 405.063 660.742H405.211H405.359C431.987 673.869 456.714 680.679 478.85 680.975H480.404C501.084 680.975 518.926 675.251 533.412 663.9C571.046 634.488 582.348 570.135 564.432 487.376C496.099 530.483 408.962 559.722 319.012 569.716C229.062 579.709 147.354 569.296 88.2753 540.451Z" fill="#737C8B"/>
<path d="M351.661 721.048C320.048 721.048 290.583 715.619 267.608 704.318L267.88 703.751C329.253 733.977 437.07 721.985 508.216 677.003L508.562 677.521C463.87 705.774 404.742 721.048 351.661 721.048Z" fill="#737C8B"/>
<path d="M297.246 689.563C241.82 689.563 192.119 679.693 153.745 660.866L154.017 660.298C259.07 712.042 443.634 691.586 565.419 614.526L565.74 615.045C506.686 652.378 431.296 677.719 353.511 686.38C334.829 688.47 316.045 689.532 297.246 689.563V689.563Z" fill="#737C8B"/>
<path d="M332.585 721.812C330.269 721.78 327.959 721.574 325.675 721.195C306.969 718.481 288.856 703.923 273.358 679.248C257.021 653.315 243.745 617.561 234.145 572.874L234.737 572.751C244.411 617.339 257.589 653.043 273.876 678.853C289.374 703.528 307.339 717.963 325.872 720.8C339.223 722.799 352.697 718.876 365.924 709.129C379.472 698.988 392.749 682.678 405.038 660.84L405.581 661.161C393.242 683.073 379.991 699.333 366.097 709.499C355.091 717.691 343.813 721.812 332.585 721.812Z" fill="#737C8B"/>
<path d="M428.556 711.325C424.632 711.325 416.711 694.423 405.014 661.038L405.581 660.816C420.635 703.725 426.36 710.708 428.482 710.708H428.828C433.59 709.351 429.889 667.404 405.186 553.677H405.803C427.075 652.106 435.515 709.475 428.828 711.325H428.556Z" fill="#737C8B"/>
<path d="M480.478 681.568H478.924C456.714 681.272 431.888 674.437 405.162 661.285L404.668 661.038L405.137 660.742C473.445 617.561 531.29 547.558 568.01 463.614C604.731 379.67 615.91 291.877 599.499 216.371L599.376 215.754L599.943 216.026C625.805 228.783 646.017 244.501 660.009 262.76C673.239 279.437 680.995 299.791 682.219 321.042C685.229 377.548 642.586 438.026 565.222 487.006C583.236 570.136 571.86 634.784 534.029 664.369C519.272 675.794 501.306 681.568 480.478 681.568ZM405.927 660.964C432.382 673.918 456.936 680.704 478.924 680.951H480.478C501.158 680.951 519 675.226 533.486 663.876C571.169 634.414 582.447 569.914 564.407 486.907V486.784L564.58 486.66C641.871 437.804 684.489 377.474 681.478 321.166C680.294 300.046 672.625 279.806 659.515 263.204C645.696 245.142 625.756 229.597 600.289 216.939C616.527 292.444 605.224 380.114 568.627 463.935C532.03 547.756 474.136 617.709 405.927 660.964Z" fill="#737C8B"/>
<path d="M508.561 677.521L508.216 677.003C547.182 652.328 568.676 621.978 567.171 593.601C566.011 572.208 551.377 553.529 525.959 540.995L526.231 540.452C551.871 553.085 566.628 571.937 567.763 593.577C569.293 622.175 547.7 652.772 508.561 677.521Z" fill="#737C8B"/>
<path d="M565.739 615.094L565.419 614.576C632.048 572.406 668.917 520.318 666.35 471.708C665.313 453.487 658.696 436.026 647.398 421.692C635.355 405.999 617.982 392.477 595.723 381.521L595.994 380.954C618.204 391.959 635.799 405.629 647.818 421.297C659.21 435.732 665.879 453.325 666.918 471.683C669.559 520.466 632.665 572.752 565.739 615.094Z" fill="#737C8B"/>
<path d="M419.475 661.581C414.786 661.581 410.073 661.581 405.285 661.31V660.693C451.26 662.469 493.804 655.758 531.709 640.632C568.331 626.074 598.759 604.557 622.104 576.699C664.056 526.733 678.665 460.579 663.414 390.404L664.006 390.28C679.307 460.628 664.574 526.979 622.597 577.094C599.153 605.051 568.652 626.617 531.931 641.249C496.076 655.102 457.911 662.002 419.475 661.581V661.581Z" fill="#737C8B"/>
<path d="M405.384 661.309L405.236 660.717C449.558 649.497 491.649 630.824 529.71 605.495C565.377 581.924 596.66 552.315 622.153 517.997C646.307 485.744 663.86 449.043 673.803 409.995C683.528 371.807 684.289 331.887 676.024 293.357L676.617 293.233C684.926 331.85 684.174 371.866 674.42 410.143C664.419 449.27 646.81 486.044 622.597 518.367C597.063 552.741 565.73 582.401 530.006 606.013C491.901 631.376 449.759 650.075 405.384 661.309V661.309Z" fill="#737C8B"/>
<path d="M405.31 661.358H405.162C346.133 632.291 284.241 575.514 230.863 501.489C177.485 427.465 139.086 345.1 122.676 269.545V269.323H122.849C191.255 226.068 278.54 196.73 368.663 186.711C458.786 176.693 540.914 187.18 599.968 216.321V216.469C616.378 292.098 605.199 380.039 568.429 464.082C531.66 548.125 473.766 618.251 405.334 661.482L405.31 661.358ZM123.317 269.496C157.249 425.293 283.723 600.683 405.285 660.643C473.519 617.462 531.314 547.484 567.985 463.613C604.656 379.743 615.86 291.999 599.499 216.519C540.568 187.55 458.614 177.039 368.663 187.106C278.713 197.174 191.625 226.364 123.317 269.496Z" fill="#737C8B"/>
<path d="M285.697 567.742L285.376 567.224C356.67 522.143 464.758 510.151 526.329 540.452L526.058 540.995C464.561 510.768 356.744 522.785 285.697 567.742Z" fill="#737C8B"/>
<path d="M184.321 427.243L183.975 426.725C243.054 389.392 318.419 364.05 396.204 355.389C473.988 346.729 544.986 355.809 596.093 380.903L595.822 381.471C490.645 329.728 306.081 350.257 184.321 427.243Z" fill="#737C8B"/>
<path d="M405.581 661.161L405.038 660.84C465.375 553.603 486.919 339.523 453.061 183.578L453.653 183.455C487.561 339.499 465.992 553.801 405.581 661.161Z" fill="#737C8B"/>
<path d="M405.013 661.112C371.081 564.312 315.902 358.622 281.995 202.602L282.612 202.479C316.494 358.474 371.674 564.115 405.581 660.89L405.013 661.112Z" fill="#737C8B"/>
<path d="M270.15 704.392C246.491 704.519 223.046 699.904 201.2 690.821C143.899 666.837 103.6 613.317 87.6828 540.082C61.8946 527.374 41.7329 511.681 27.7653 493.446C14.5476 476.753 6.79273 456.395 5.55533 435.139C2.56933 378.584 45.2865 318.081 122.75 269.102L123.12 268.855V269.274C157.151 425.097 283.723 600.807 405.433 660.717L405.927 660.964L405.458 661.26C369.873 683.764 333.695 697.631 297.937 702.467C288.729 703.736 279.445 704.379 270.15 704.392V704.392ZM122.824 269.842C45.7553 318.674 3.28496 378.88 6.27097 435.164C7.48193 456.278 15.1486 476.51 28.2341 493.125C42.1771 511.311 62.3141 526.955 88.1023 539.662H88.2257V539.81C104.093 612.897 144.293 666.319 201.422 690.327C231.036 702.665 263.388 706.588 297.838 701.949C333.35 697.014 369.404 683.394 404.668 661.112C345.787 631.971 284.068 575.318 230.863 501.49C177.658 427.663 139.235 345.347 122.824 269.842Z" fill="#737C8B"/>
<path d="M267.608 704.317C241.968 691.585 227.186 672.807 226.051 651.192C224.521 622.594 246.114 591.972 285.278 567.297L285.598 567.816C246.632 592.49 225.163 622.841 226.668 651.217C227.803 672.635 242.437 691.313 267.88 703.824L267.608 704.317Z" fill="#737C8B"/>
<path d="M153.745 660.866C131.387 649.861 113.94 636.191 101.922 620.522C90.54 606.093 83.8794 588.509 82.8458 570.161C80.2547 521.305 117.148 468.994 184.025 426.726L184.37 427.244C117.592 469.512 80.8716 521.502 83.3394 570.112C84.402 588.306 91.0359 605.733 102.341 620.029C114.384 635.747 131.757 649.244 154.016 660.2L153.745 660.866Z" fill="#737C8B"/>
<path d="M405.285 661.309C319.777 658.028 232.985 625.506 160.975 569.716C126.917 543.653 97.1637 512.404 72.8019 477.111C49.3855 443.555 32.6919 405.781 23.6439 365.877L24.2608 365.729C33.2646 405.561 49.9085 443.269 73.2708 476.766C97.6017 512.001 127.304 543.206 161.296 569.247C233.281 624.963 319.925 657.435 405.31 660.693L405.285 661.309Z" fill="#737C8B"/>
<path d="M307.117 673.795C242.486 673.795 180.619 657.386 129.092 625.556C99.6627 607.595 73.9664 584.139 53.4053 556.466C32.8058 528.64 18.3775 496.741 11.083 462.898H11.6753C18.9739 496.647 33.3668 528.457 53.8989 556.219C74.4407 583.753 100.075 607.089 129.413 624.963C206.605 672.66 307.092 685.664 405.236 660.643L405.384 661.235C373.279 669.496 340.268 673.715 307.117 673.795V673.795Z" fill="#737C8B"/>
<path d="M253.961 573.393C189.799 573.393 132.226 562.043 87.7813 540.156H87.6332C71.1979 464.528 82.4015 376.586 119.171 292.519C155.941 208.451 213.835 138.374 282.242 95.1191H282.39H282.563C341.567 124.063 403.459 180.815 456.812 254.84C510.165 328.865 548.588 411.254 565.024 486.784V487.006H564.826C496.494 530.36 409.085 559.674 319.086 569.692C297.463 572.134 275.721 573.369 253.961 573.393V573.393ZM88.2748 539.663C147.23 568.656 229.185 579.143 319.11 569.1C409.036 559.057 496.173 529.817 564.481 486.71C530.45 330.913 404.15 155.523 282.415 95.5386C214.131 138.868 156.385 208.698 119.714 292.568C83.0432 376.438 71.8395 464.207 88.2748 539.663Z" fill="#737C8B"/>
<path d="M235.206 404C179.78 404 130.104 394.13 91.7054 375.278L91.9768 374.735C197.055 426.553 381.619 405.925 503.379 328.963L503.7 329.482C444.646 366.815 369.256 392.131 291.472 400.792C272.79 402.903 254.006 403.974 235.206 404V404Z" fill="#737C8B"/>
<path d="M234.046 572.751C200.139 416.682 221.707 202.405 282.118 95.0444L282.661 95.3405C222.299 202.578 200.756 416.682 234.638 572.628L234.046 572.751Z" fill="#737C8B"/>
<path d="M405.088 553.727C371.205 397.732 316.026 192.091 282.094 95.2911L282.686 95.0938C316.618 191.893 371.797 397.584 405.705 553.603L405.088 553.727Z" fill="#737C8B"/>
<path d="M564.555 487.351V486.907C530.697 331.01 404.15 155.399 282.39 95.4636L281.896 95.2168L282.365 94.9207C317.975 72.4172 354.153 58.5745 389.911 53.7136C424.459 49.05 457.009 52.9734 486.647 65.3849C543.924 89.3689 584.248 142.889 600.165 216.099C625.978 228.832 646.139 244.525 660.107 262.76C673.337 279.436 681.094 299.791 682.317 321.042C685.328 377.597 642.61 438.124 565.122 487.104L564.555 487.351ZM283.031 95.1675C341.912 124.309 403.607 180.962 456.812 254.839C510.017 328.716 548.44 410.933 564.925 486.438C641.994 437.606 684.439 377.399 681.453 321.116C680.269 299.996 672.6 279.756 659.49 263.154C645.572 244.969 625.41 229.3 599.647 216.618H599.499V216.469C583.631 143.382 543.431 89.9611 486.277 65.9524C456.664 53.6149 424.311 49.6669 389.861 54.3305C354.325 59.1421 318.395 72.8861 283.031 95.1675Z" fill="#737C8B"/>
<path d="M503.7 329.481L503.379 328.963C570.009 286.768 607.025 234.704 604.311 186.07C603.282 167.847 596.665 150.383 585.358 136.054C573.316 120.361 555.943 106.839 533.683 95.8832L533.955 95.3403C556.288 106.345 573.76 120.015 585.778 135.684C597.162 150.111 603.823 167.697 604.854 186.045C607.519 234.902 570.626 287.163 503.7 329.481Z" fill="#737C8B"/>
<path d="M663.439 390.404C654.431 350.572 637.788 312.865 614.429 279.367C590.098 244.132 560.396 212.926 526.403 186.885C454.418 131.169 367.75 98.6967 282.39 95.4396V94.8228C367.898 98.0798 454.665 130.601 526.699 186.391C560.746 212.469 590.49 243.726 614.848 279.021C638.256 312.558 654.933 350.318 663.957 390.206L663.439 390.404Z" fill="#737C8B"/>
<path d="M676.024 293.357C668.726 259.609 654.333 227.798 633.801 200.036C613.272 172.458 587.636 149.078 558.287 131.169C481.095 83.4721 380.607 70.4685 282.464 95.4888L282.316 94.8966C380.583 69.8269 481.268 82.8553 558.707 130.651C588.136 148.611 613.832 172.068 634.393 199.74C654.983 227.572 669.41 259.468 676.715 293.308L676.024 293.357Z" fill="#737C8B"/>
<path d="M122.824 269.842V269.422C104.735 186.169 116.087 121.373 153.967 91.7629C168.577 80.3385 186.542 74.4905 207.37 74.4905H208.925C231.135 74.7866 255.812 81.5969 282.514 94.6993C318.074 72.2451 354.203 58.4024 389.911 53.5661C424.46 48.9026 457.01 52.8259 486.648 65.2374C543.974 89.2214 584.298 142.815 600.165 216.1V216.717L599.598 216.445C540.643 187.428 458.614 176.965 368.614 186.959C278.615 196.952 191.453 226.414 123.145 269.645L122.824 269.842ZM207.222 75.2307C186.542 75.2307 168.7 80.98 154.19 92.3305C116.581 121.718 105.278 186.095 123.17 268.855C191.527 225.748 278.639 196.508 368.614 186.49C458.589 176.472 540.322 186.885 599.351 215.754C583.385 142.988 543.234 89.9123 486.253 65.953C456.64 53.6155 424.287 49.6675 389.837 54.331C354.178 59.266 318.074 73.01 282.563 95.4642H282.415H282.242C255.615 82.3618 230.888 75.5515 208.777 75.2554L207.222 75.2307Z" fill="#737C8B"/>
<path d="M122.281 141.68L121.96 141.137C181.014 103.804 256.405 78.4874 334.189 69.8265C411.973 61.1656 482.946 70.2213 533.93 95.3404L533.659 95.8832C428.606 44.1646 244.041 64.6942 122.281 141.68Z" fill="#737C8B"/>
<path d="M453.061 183.578C443.362 138.991 430.209 103.261 413.922 77.476C398.424 52.8011 380.434 38.3909 361.926 35.5287C348.575 33.5053 335.101 37.4286 321.874 47.1999C308.128 57.3166 294.95 73.5033 282.661 95.3407L282.118 95.0446C294.457 73.1332 307.709 56.8725 321.602 46.7064C334.978 36.8364 348.748 32.8638 362.123 34.9118C380.73 37.7 398.844 52.3076 414.44 77.1799C430.777 103.113 444.053 138.867 453.653 183.554L453.061 183.578Z" fill="#737C8B"/>
<path d="M281.995 202.603C260.624 104.322 252.185 46.7312 258.798 44.8559C258.912 44.8319 259.03 44.8319 259.144 44.8559C263.067 44.8559 270.989 61.7582 282.686 95.1434L282.094 95.3407C267.065 52.4557 261.34 45.4481 259.218 45.4481H258.971C254.208 46.7806 257.91 88.7526 282.612 202.479L281.995 202.603Z" fill="#737C8B"/>
<path d="M88.275 540.451L87.7074 540.155C61.8452 527.423 41.6341 511.705 27.6419 493.446C14.4242 476.753 6.66931 456.394 5.43191 435.139C2.44591 378.633 45.089 318.155 122.454 269.2C104.439 186.07 115.791 121.422 153.646 91.8364C168.256 80.4119 186.221 74.564 207.049 74.564H208.604C230.814 74.8601 255.639 81.695 282.365 94.8468L282.859 95.0935L282.39 95.3896C214.082 138.571 156.237 208.574 119.517 292.493C82.7966 376.412 71.815 464.304 88.275 539.81V540.451ZM207.222 75.2302C186.542 75.2302 168.7 80.9795 154.189 92.3299C116.506 121.767 105.253 186.267 123.268 269.274V269.496L123.095 269.619C45.8047 318.476 3.18625 378.781 6.17225 435.114C7.38321 456.228 15.0499 476.46 28.1354 493.075C41.9796 511.113 61.9192 526.683 87.362 539.316C71.124 463.836 82.4264 376.141 119.023 292.32C155.621 208.499 213.539 138.497 281.748 95.2169C255.319 82.2625 230.764 75.4769 208.776 75.2549L207.222 75.2302Z" fill="#737C8B"/>
<path d="M91.7053 375.278C69.4953 364.273 51.9001 350.603 39.8821 334.935C28.4976 320.507 21.8366 302.922 20.8062 284.573C18.3384 235.717 55.1082 183.406 121.985 141.138L122.306 141.681C55.6758 183.85 18.7826 235.914 21.3738 284.548C22.4022 302.771 29.0198 320.235 40.3263 334.564C52.369 350.258 69.7421 363.78 92.0014 374.735L91.7053 375.278Z" fill="#737C8B"/>
<path d="M23.6443 365.876C8.36881 295.504 23.0767 229.177 65.0782 179.063C88.5221 151.106 119.024 129.54 155.72 114.908C193.723 99.8068 236.342 93.0458 282.415 94.8224V95.4393C236.44 93.6874 193.896 100.374 155.991 115.5C119.369 130.058 88.9416 151.55 65.5718 179.433C23.6197 229.399 9.03512 295.553 24.286 365.704L23.6443 365.876Z" fill="#737C8B"/>
<path d="M11.0832 462.973C2.78897 424.38 3.54069 384.391 13.2795 346.137C23.2703 307.014 40.8808 270.246 65.1027 237.937C90.6299 203.55 121.964 173.882 157.694 150.267C195.815 124.907 237.974 106.216 282.365 94.9956L282.513 95.5878C238.191 106.795 196.099 125.46 158.039 150.786C122.364 174.356 91.0802 203.975 65.5963 238.308C41.4396 270.505 23.8635 307.146 13.8718 346.137C4.16789 384.357 3.44992 424.305 11.7742 462.849L11.0832 462.973Z" fill="#737C8B"/>
<path d="M345.293 721.985C336.829 721.985 327.18 721.689 319.628 721.171C307.424 720.298 295.274 718.783 283.229 716.63C276.344 715.545 267.188 713.571 260.402 711.695L257.761 710.98C249.963 708.858 240.24 706.242 233.084 703.577C224.446 700.394 214.427 696.175 205.42 692.424C200.797 690.697 196.297 688.772 191.921 686.65L188.688 684.923C175.713 678.343 163.139 671.002 151.03 662.938C140.172 655.14 127.537 645.493 118.949 638.263C113.421 633.698 106.61 627.159 101.329 621.903L100.268 620.867C91.0078 611.93 82.4289 602.313 74.6033 592.096C73.1227 590.073 71.4446 587.877 69.6678 585.557C65.8674 580.622 61.9437 575.366 58.9823 570.752C52.0973 560.167 44.4225 547.336 39.4623 538.083C31.189 521.957 24.0641 505.269 18.1407 488.141C13.0951 472.958 9.0475 457.462 6.02395 441.752C2.87481 423.732 0.921015 405.523 0.17534 387.245C0.0624967 369.397 0.910991 351.556 2.71714 333.799C3.96762 323.308 5.80486 312.895 8.22026 302.61C9.79964 295.355 12.4648 285.88 14.8586 277.565C19.6198 262.701 25.1804 248.105 31.516 233.841C38.4088 219.072 46.2907 204.786 55.1079 191.079C61.3807 181.006 68.3398 171.376 75.9359 162.259C77.3672 160.63 78.8973 158.78 80.5013 156.88C83.9562 152.784 87.5345 148.54 90.6932 145.159C98.7628 136.548 105.5 129.91 110.435 125.419L112.903 123.322C117.839 118.954 123.86 113.452 128.796 109.726C137.877 102.768 150.487 93.7613 160.21 87.3458C164.998 84.1627 171.661 80.2147 176.769 77.4758C194.044 68.3461 194.044 68.3461 206.999 62.5228C210.701 60.8696 216.87 58.3281 221.559 56.6009C225.384 55.2191 238.834 50.5062 249.618 47.2984C250.111 47.1504 261.957 43.6465 277.479 40.6115C286.782 38.7855 299.22 37.083 305.809 36.244C310.3 35.6765 316.396 35.2077 320.616 34.9116C323.824 34.7142 327.871 34.5415 331.424 34.3934L335.546 34.2454C339.741 34.048 344.997 34.122 349.661 34.2454H351.956C356.892 34.2454 364.295 34.5908 369.7 35.1336C374.635 35.6271 391.268 37.3791 404.396 39.5258C411.997 40.7842 421.967 43.153 427.223 44.4608C433.047 45.8919 440.796 48.0633 446.472 49.8893C454.492 52.3568 465.745 56.5268 475.147 60.3021C481.021 62.6462 488.498 66.1747 494.495 69.0123L495.778 69.6292C508.489 75.7198 520.751 82.7038 532.474 90.5289C544.559 98.4439 556.139 107.105 567.146 116.462C572.402 121.225 585.679 133.414 595.451 143.481C601.078 149.255 607.938 157.447 612.504 163.221C620.518 173.117 627.934 183.483 634.714 194.262C644.119 209.528 652.48 225.414 659.737 241.811C664.889 253.648 669.323 265.786 673.013 278.157C673.655 280.625 674.395 283.265 675.16 286.078C676.962 292.592 678.813 299.328 679.973 305.003C682.614 317.126 684.599 329.383 685.92 341.72C687.601 359.763 688.104 377.896 687.425 396.004C687.006 403.407 686.142 414.437 684.957 422.579C683.526 432.992 680.886 446.563 679.43 453.719C675.614 470.506 670.6 486.999 664.426 503.069C658.821 517.31 652.318 531.18 644.955 544.597C643.326 547.558 637.552 557.798 632.493 565.398C626.891 573.763 618.599 585.853 611.615 594.193C606.087 600.831 598.511 609.887 592.342 616.105C582.471 625.975 570.354 637.251 561.544 644.555C556.732 648.552 549.452 654.277 543.48 658.348L539.852 660.816C535.855 663.579 531.289 666.688 527.514 669.032C522.134 672.438 515.619 676.287 510.955 678.902C498.369 685.811 490.62 689.488 480.725 693.707C469.768 698.642 456.689 703.207 452.098 704.638C441.66 707.92 432.652 710.758 424.213 712.608L419.993 713.546C416.637 714.286 413.182 715.076 410.27 715.643C407.358 716.211 403.928 716.778 400.547 717.346L396.154 718.111C392.946 718.678 388.751 719.147 385.296 719.591L381.915 719.986C378.435 720.43 365.332 721.738 351.364 722.034L345.293 721.985ZM215.39 696.051C221.46 698.519 227.729 700.986 233.232 703.059C240.413 705.699 250.136 708.315 257.909 710.462L260.55 711.153C267.336 713.003 276.467 714.952 283.303 716.087C295.33 718.247 307.464 719.763 319.653 720.628C329.08 721.269 341.863 721.59 351.364 721.393C365.332 721.097 378.509 719.789 381.841 719.369L385.247 718.95C388.825 718.53 392.897 718.037 396.08 717.469L400.473 716.729C403.854 716.162 407.308 715.569 410.171 715.002C413.034 714.434 416.538 713.669 419.869 712.904L424.114 711.967C432.529 710.141 441.388 707.303 451.95 704.046C456.516 702.615 469.57 697.927 480.503 693.115C490.374 688.772 498.122 685.12 510.683 678.31C515.347 675.843 521.838 671.87 527.217 668.44C530.894 666.096 535.46 662.987 539.556 660.248L543.184 657.781C549.131 653.734 556.387 647.911 561.199 644.012C569.984 636.733 582.051 625.58 591.972 615.611C598.117 609.443 605.668 600.362 611.196 593.749C618.155 585.434 626.422 573.343 632.048 565.003C637.132 557.428 642.833 547.212 644.387 544.251C651.722 530.857 658.201 517.011 663.784 502.797C669.96 486.803 674.974 470.385 678.788 453.67C680.244 446.539 682.86 432.967 684.291 422.555C685.402 414.461 686.265 403.555 686.759 396.029C687.433 377.986 686.93 359.919 685.254 341.942C683.931 329.63 681.946 317.398 679.306 305.299C678.171 299.624 676.32 292.962 674.519 286.423C673.754 283.61 673.013 280.945 672.372 278.502C668.691 266.167 664.274 254.062 659.145 242.255C651.897 225.87 643.536 209.999 634.121 194.756C627.399 183.913 620.023 173.489 612.035 163.542C607.494 157.842 600.634 149.675 595.032 143.802C585.284 133.759 572.008 121.595 566.751 116.808C555.789 107.471 544.25 98.8345 532.202 90.9483C520.52 83.1417 508.299 76.1742 495.63 70.098L494.347 69.4812C488.35 66.6436 480.897 63.115 475.049 60.7709C465.647 57.0203 454.418 52.9243 446.423 50.3828C440.722 48.5569 432.998 46.3854 427.199 44.9543C421.942 43.6712 411.997 41.3271 404.421 40.0193C391.317 37.8479 374.586 36.096 369.872 35.6272C364.468 35.0843 357.163 34.8129 352.154 34.7388H349.859C345.219 34.7388 339.988 34.5908 335.792 34.7388L331.671 34.8869C328.118 35.0349 324.07 35.183 320.862 35.4051C316.544 35.7012 310.448 36.17 306.056 36.7375C299.467 37.5765 287.054 39.205 277.775 41.0803C262.302 44.1153 250.457 47.6191 249.963 47.7672C239.105 50.9749 225.779 55.6879 221.954 57.045C217.142 58.7722 211.121 61.3137 207.419 62.967C194.438 68.7902 194.438 68.7903 177.238 77.8953C172.154 80.5849 165.516 84.5329 160.729 87.7653C151.03 94.1808 138.519 103.162 129.363 110.121C124.428 113.871 118.357 119.3 113.495 123.667L111.028 125.765C106.092 130.231 99.3798 136.844 91.2855 145.505C88.1514 148.836 84.5731 153.08 81.1183 157.176C79.5142 159.076 77.9842 160.926 76.5529 162.58C68.9426 171.66 61.9827 181.266 55.7249 191.326C48.3216 203.071 38.0556 220.27 32.1823 233.989C25.8381 248.227 20.2692 262.799 15.5002 277.639C13.0324 285.954 10.5647 295.405 8.88657 302.635C6.45689 312.911 4.60317 323.316 3.33409 333.799C1.46764 351.561 0.561473 369.41 0.61954 387.269C1.3698 405.474 3.3236 423.608 6.46815 441.554C9.48371 457.238 13.5147 472.708 18.5356 487.869C24.4665 504.959 31.5827 521.614 39.8324 537.712C44.768 546.966 52.4428 559.772 59.3278 570.357C62.2645 574.848 66.1882 580.03 69.9886 585.014C71.7407 587.334 73.4188 589.53 74.9242 591.553C82.7505 601.8 91.338 611.442 100.614 620.398L101.675 621.435C107.055 626.69 113.767 633.204 119.27 637.769C127.957 644.925 140.567 654.548 151.351 662.444C163.411 670.43 175.936 677.69 188.861 684.183L192.094 685.91C196.042 687.687 200.657 689.735 205.568 691.832C228.547 700.666 253.107 704.649 277.701 703.528C282.266 703.355 286.881 703.01 291.521 702.516H291.965H292.236C329.697 698.445 367.676 684.38 405.137 660.717L405.458 661.235C367.947 684.972 329.87 699.062 292.31 703.183C266.454 706.254 240.24 703.824 215.39 696.051V696.051Z" fill="#737C8B"/>
<path d="M344.018 722.084C337.75 722.084 330.963 721.812 320.352 721.245C307.941 720.36 295.585 718.828 283.334 716.655L280.694 716.137C275.338 715.1 269.268 713.891 264.505 712.731C254.633 710.264 246.786 708.142 241.258 706.34L240.024 705.921C233.879 703.947 226.303 701.479 220.676 699.184C211.792 695.631 200.218 690.572 191.926 686.674C187.953 684.724 184.054 682.602 180.253 680.357C169.765 674.558 158.684 668.167 150.22 662.393C136.671 653.2 123.805 643.04 111.722 631.992C101.351 622.615 91.5988 612.576 82.5272 601.937C81.0712 600.111 79.4425 598.112 77.7397 596.064C73.8405 591.302 69.4231 585.922 66.2396 581.382C58.5417 570.701 51.3843 559.64 44.7942 548.242C36.1296 532.417 28.4804 516.057 21.8928 499.261C16.0675 483.614 11.3505 467.576 7.77684 451.267C4.0754 433.286 1.60187 415.074 0.373361 396.758C-0.396234 378.81 0.0242224 360.832 1.63196 342.94C2.67634 331.154 4.48994 319.449 7.06116 307.9C7.53005 305.951 8.02363 303.829 8.54187 301.657C9.99789 295.365 11.676 288.258 13.3294 282.706C16.0911 272.764 19.3863 262.979 23.2007 253.391L24.2619 250.924C30.0366 237.451 37.218 220.696 44.424 208.703C50.7417 198.167 60.1441 183.781 68.3866 172.035C71.8909 167.1 77.024 160.956 81.1453 156.045L82.6753 154.219C89.067 146.57 98.3213 137.242 105.626 129.963C109.649 125.965 115.201 121.129 119.693 117.23L121.173 115.947C132.642 106.21 144.735 97.233 157.376 89.075C165.101 84.1399 170.999 80.5866 175.416 78.2177C191.975 69.3344 191.975 69.3344 206.387 62.7953C211.076 60.6732 217.048 58.2056 221.318 56.7004C229.116 53.8873 240.567 49.9639 249.352 47.3729C250.635 47.0028 262.21 43.6222 277.288 40.6611C285.876 38.9832 297.45 37.3545 305.643 36.2934C309.123 35.8493 314.059 35.4051 320.45 34.9856C323.634 34.7635 327.632 34.6155 331.161 34.4675L335.405 34.2947C339.576 34.0973 345.079 34.1713 349.497 34.2947H351.323C361.786 34.4181 361.786 34.4181 385.181 36.7623C389.821 37.2065 395.842 38.2182 400.679 39.0078L402.703 39.3533C417.523 42.0025 432.168 45.5542 446.556 49.9886L450.998 51.469C456.304 53.2457 462.35 55.2445 467.039 57.1198C476.91 61.0433 487.867 65.6083 495.888 69.7292C506.376 75.1826 521.109 83.5723 532.51 90.6296C536.854 93.3193 541.839 96.9713 546.651 100.5C548.823 102.104 550.871 103.609 552.771 104.966C564.541 113.665 575.614 123.268 585.889 133.689C597.905 146.19 609.288 159.285 619.995 172.923C628.326 183.65 635.755 195.048 642.205 207.001C647.832 217.735 654.914 231.405 659.603 241.843C662.639 248.579 665.921 257.685 668.562 265.014L669.401 267.358C673.742 279.671 677.23 292.269 679.84 305.062C683.341 323.077 685.813 341.276 687.243 359.571C687.913 377.511 687.493 395.475 685.984 413.364C684.993 425.165 683.179 436.881 680.555 448.429C676.725 465.2 671.955 481.742 666.267 497.978C659.9 515.099 652.176 531.685 643.168 547.576C635.829 560.219 627.831 572.467 619.205 584.269C612.294 593.664 604.828 602.637 596.847 611.141C591.491 616.767 577.77 630.882 566.418 640.357C560.125 645.613 551.908 652.054 546.009 656.396C540.111 660.739 532.807 665.65 527.476 668.957L527.303 668.685L527.476 668.957C521.035 672.929 515.877 676.014 512.126 678.111C507.511 680.702 500.898 684.305 495.69 686.772L492.31 688.401C488.657 690.153 484.511 692.152 481.13 693.534C471.679 697.733 462.017 701.439 452.183 704.638L451.763 704.761C447.494 706.168 442.213 707.895 438.067 708.981C420.521 713.595 419.854 713.768 410.23 715.668C401.691 717.247 390.043 718.752 381.948 719.912C377.827 720.455 371.904 720.998 367.141 721.245C357.27 721.763 350.903 722.084 344.018 722.084ZM192.123 686.032C200.465 690.005 212.039 695.063 220.898 698.617C226.525 700.862 234.052 703.355 240.073 705.329L241.332 705.748C246.835 707.549 254.633 709.696 264.529 712.139C269.268 713.299 275.338 714.607 280.669 715.52L283.334 716.063C295.588 718.211 307.943 719.735 320.352 720.628C335.961 721.743 351.631 721.743 367.24 720.628C371.904 720.381 377.827 719.838 382.047 719.295C390.092 718.234 401.79 716.63 410.328 714.952C419.928 713.077 420.619 712.904 438.116 708.29C442.262 707.204 447.543 705.477 451.788 704.095L452.232 703.947C462.055 700.769 471.701 697.071 481.13 692.867C484.487 691.486 488.534 689.511 492.285 687.735L495.666 686.131C500.848 683.663 507.437 680.061 512.052 677.47C515.803 675.372 520.961 672.288 527.377 668.34C532.683 665.033 540.136 659.999 545.861 655.804C551.587 651.609 559.953 645.021 566.246 639.79C577.573 630.339 591.269 616.249 596.625 610.623C604.55 602.128 611.967 593.171 618.835 583.8C627.455 572.02 635.454 559.797 642.797 547.181C651.751 531.318 659.426 514.765 665.748 497.682C671.444 481.468 676.207 464.941 680.012 448.182C682.635 436.676 684.449 425 685.441 413.241C686.949 395.377 687.37 377.437 686.7 359.522C685.281 341.242 682.809 323.058 679.297 305.062C676.704 292.3 673.224 279.734 668.882 267.456L668.043 265.112C665.427 257.709 662.145 248.728 659.11 241.991C654.421 231.578 647.363 217.907 641.835 207.173C635.37 195.261 627.942 183.897 619.625 173.195C608.904 159.538 597.496 146.435 585.445 133.936C575.193 123.543 564.153 113.957 552.426 105.262C550.526 103.905 548.453 102.4 546.281 100.796C541.345 97.2674 536.41 93.6401 532.19 90.9257C520.788 83.8931 506.08 75.5033 495.592 70.0746C487.621 65.9291 476.565 61.3887 466.817 57.49C462.153 55.6146 456.107 53.6159 450.801 51.8392L446.359 50.3587C432.009 45.9066 417.396 42.3546 402.604 39.7234L400.581 39.4026C395.645 38.613 389.747 37.6013 385.132 37.1571C361.737 34.8869 361.737 34.8869 351.298 34.6895H349.497C345.079 34.6895 339.625 34.5415 335.43 34.6895L331.185 34.8623C327.656 35.0103 323.782 35.1584 320.5 35.3804C314.231 35.7999 309.271 36.2441 305.693 36.6883C297.499 37.7493 285.95 39.3533 277.387 41.0312C262.333 43.9923 250.759 47.3729 249.5 47.7431C240.739 50.2106 229.289 54.2574 221.49 57.0458C217.27 58.5757 211.274 61.0186 206.684 63.116C192.345 69.7785 192.345 69.7786 175.811 78.7606C171.394 81.1048 165.52 84.658 157.796 89.5932C145.164 97.7446 133.079 106.713 121.618 116.44L120.137 117.724C115.67 121.622 110.118 126.459 106.12 130.407C98.7162 137.686 89.5852 147.014 83.1936 154.639L81.6635 156.465C77.5422 161.4 72.4338 167.445 68.9542 172.405C60.7117 184.126 51.3093 198.512 44.9916 209.049C37.8349 220.992 30.6536 237.722 24.8789 251.195L23.8177 253.663C19.9992 263.223 16.7039 272.985 13.9464 282.903C12.293 288.431 10.6395 295.538 9.15883 301.805C8.64059 304.001 8.14701 306.123 7.67812 308.048C5.1147 319.573 3.30934 331.253 2.2736 343.014C0.666177 360.873 0.245718 378.818 1.015 396.733C2.25392 415.024 4.72738 433.21 8.41847 451.168C11.9844 467.463 16.6763 483.491 22.4604 499.138C29.0402 515.909 36.6812 532.245 45.3371 548.045C51.9126 559.425 59.0536 570.469 66.7332 581.135C69.9167 585.651 74.3341 591.006 78.2332 595.768L83.0208 601.641C92.0605 612.269 101.788 622.293 112.141 631.647C124.181 642.599 136.988 652.676 150.466 661.8C156.439 665.847 163.694 670.24 171.147 674.484C129.811 646.205 100.616 599.297 87.611 539.976C82.6156 516.586 80.1337 492.729 80.2075 468.811C80.2075 411.785 93.4104 351.107 119.125 292.33C155.871 208.284 213.791 138.18 282.199 94.9232L282.544 95.4661C214.235 138.649 156.389 208.654 119.668 292.576C94.0273 351.28 80.8738 411.859 80.8738 468.811C80.8012 492.68 83.2831 516.487 88.2773 539.828C102.048 603.245 134.574 652.374 180.525 679.715C184.522 681.936 188.446 684.058 192.123 686.032Z" fill="#737C8B"/>
<path opacity="0.4" d="M243.342 401.453C178.983 152.685 223.188 61.4967 253.335 46.9985L450.706 704.413L428.721 710.912C408.734 715.912 307.7 650.22 243.342 401.453Z" fill="url(#paint1_linear_172_335)"/>
<g filter="url(#filter0_di_172_335)">
<path d="M252.333 46.5988C340.19 22.2151 434.131 33.7495 513.488 78.6646C592.846 123.58 651.12 198.196 675.491 286.1C699.862 374.003 688.334 467.993 643.442 547.392C598.55 626.791 523.973 685.095 436.115 709.479L344.224 378.039L252.333 46.5988Z" fill="url(#paint2_radial_172_335)"/>
<path d="M252.333 46.5988C340.19 22.2151 434.131 33.7495 513.488 78.6646C592.846 123.58 651.12 198.196 675.491 286.1C699.862 374.003 688.334 467.993 643.442 547.392C598.55 626.791 523.973 685.095 436.115 709.479L344.224 378.039L252.333 46.5988Z" fill="url(#paint3_diamond_172_335)" fill-opacity="0.2" style="mix-blend-mode:multiply"/>
</g>
<g filter="url(#filter1_f_172_335)">
<ellipse cx="338.28" cy="137.07" rx="42.4723" ry="41.9945" fill="#FF6B00"/>
</g>
<g filter="url(#filter2_f_172_335)">
<ellipse cx="498.675" cy="203.561" rx="62.959" ry="62.4919" fill="#FBEAC1"/>
</g>
<defs>
<filter id="filter0_di_172_335" x="218.333" y="0.0825195" width="543.668" height="783.396" filterUnits="userSpaceOnUse" color-interpolation-filters="sRGB">
<feFlood flood-opacity="0" result="BackgroundImageFix"/>
<feColorMatrix in="SourceAlpha" type="matrix" values="0 0 0 0 0 0 0 0 0 0 0 0 0 0 0 0 0 0 127 0" result="hardAlpha"/>
<feOffset dx="20" dy="20"/>
<feGaussianBlur stdDeviation="27"/>
<feComposite in2="hardAlpha" operator="out"/>
<feColorMatrix type="matrix" values="0 0 0 0 0 0 0 0 0 0 0 0 0 0 0 0 0 0 0.75 0"/>
<feBlend mode="multiply" in2="BackgroundImageFix" result="effect1_dropShadow_172_335"/>
<feBlend mode="normal" in="SourceGraphic" in2="effect1_dropShadow_172_335" result="shape"/>
<feColorMatrix in="SourceAlpha" type="matrix" values="0 0 0 0 0 0 0 0 0 0 0 0 0 0 0 0 0 0 127 0" result="hardAlpha"/>
<feOffset dy="-12"/>
<feGaussianBlur stdDeviation="14.5"/>
<feComposite in2="hardAlpha" operator="arithmetic" k2="-1" k3="1"/>
<feColorMatrix type="matrix" values="0 0 0 0 1 0 0 0 0 0.420805 0 0 0 0 0.00138855 0 0 0 1 0"/>
<feBlend mode="normal" in2="shape" result="effect2_innerShadow_172_335"/>
</filter>
<filter id="filter1_f_172_335" x="201.807" y="1.0752" width="272.945" height="271.989" filterUnits="userSpaceOnUse" color-interpolation-filters="sRGB">
<feFlood flood-opacity="0" result="BackgroundImageFix"/>
<feBlend mode="normal" in="SourceGraphic" in2="BackgroundImageFix" result="shape"/>
<feGaussianBlur stdDeviation="47" result="effect1_foregroundBlur_172_335"/>
</filter>
<filter id="filter2_f_172_335" x="341.716" y="47.0693" width="313.918" height="312.984" filterUnits="userSpaceOnUse" color-interpolation-filters="sRGB">
<feFlood flood-opacity="0" result="BackgroundImageFix"/>
<feBlend mode="normal" in="SourceGraphic" in2="BackgroundImageFix" result="shape"/>
<feGaussianBlur stdDeviation="47" result="effect1_foregroundBlur_172_335"/>
</filter>
<radialGradient id="paint0_diamond_172_335" cx="0" cy="0" r="1" gradientUnits="userSpaceOnUse" gradientTransform="translate(201.449 378.039) rotate(67.4568) scale(372.411 373.567)">
<stop stop-color="#AF4A33"/>
<stop offset="1" stop-color="#C2403D" stop-opacity="0"/>
</radialGradient>
<linearGradient id="paint1_linear_172_335" x1="163.148" y1="378.626" x2="636.692" y2="174.359" gradientUnits="userSpaceOnUse">
<stop stop-color="#AD4900"/>
<stop offset="1" stop-color="#CD5702" stop-opacity="0"/>
</linearGradient>
<radialGradient id="paint2_radial_172_335" cx="0" cy="0" r="1" gradientUnits="userSpaceOnUse" gradientTransform="translate(497.368 206.869) rotate(144.211) scale(415.748 420.34)">
<stop stop-color="#FF6B00"/>
<stop offset="0.567013" stop-color="#DA5D03"/>
<stop offset="1" stop-color="#BF5000"/>
</radialGradient>
<radialGradient id="paint3_diamond_172_335" cx="0" cy="0" r="1" gradientUnits="userSpaceOnUse" gradientTransform="translate(201.449 378.039) rotate(67.4568) scale(372.411 373.567)">
<stop stop-color="#AF4A33"/>
<stop offset="1" stop-color="#C2403D" stop-opacity="0"/>
</radialGradient>
</defs>
</svg>
