<svg width="227" height="204" viewBox="0 0 227 204" fill="none" xmlns="http://www.w3.org/2000/svg">
<g filter="url(#filter0_f_987_63)">
<path d="M212.5 81.133L201.5 75L14 189.778L212.5 81.133Z" fill="url(#paint0_linear_987_63)"/>
</g>
<path d="M199.666 8.61897L206.857 9.09838C206.946 9.10428 207.024 9.15667 207.064 9.23603L207.472 10.0512C207.49 10.0884 207.518 10.1204 207.552 10.1442L212.418 13.5504C212.471 13.5873 212.507 13.6431 212.52 13.7062L214.5 23.6079L216.985 32.0558C216.995 32.0901 216.997 32.1262 216.992 32.1617L216.503 35.5903C216.501 35.602 216.5 35.6138 216.5 35.6257V36.5673C216.5 36.5942 216.504 36.6209 216.513 36.6464L216.994 38.0893C216.998 38.1017 217.001 38.1144 217.003 38.1273L217.479 40.981C217.492 41.0606 217.466 41.1418 217.409 41.1989L215.726 42.8815C215.611 42.9965 215.419 42.9728 215.335 42.8333L214.439 41.3399C214.311 41.1257 213.982 41.2115 213.975 41.4611L213.502 57.5376C213.501 57.5836 213.487 57.6283 213.462 57.6668L206.252 68.7213C206.144 68.8876 206.263 69.1079 206.462 69.1079H207.831C207.933 69.1079 208.025 69.1701 208.063 69.2651L208.863 71.2651C208.929 71.4293 208.808 71.6079 208.631 71.6079H202H200.854H195.742C195.607 71.6079 195.497 71.5008 195.492 71.366L195 56.1079L194.011 40.2762C194.004 40.1745 193.937 40.0868 193.84 40.0546L192.635 39.6529C192.551 39.625 192.489 39.5551 192.47 39.4688L190.014 28.1722C190.005 28.1301 190.007 28.0862 190.02 28.045L194.476 13.6852C194.492 13.635 194.523 13.5909 194.565 13.5593L198.453 10.6433C198.484 10.62 198.509 10.5898 198.526 10.5551L199.426 8.75661C199.471 8.66653 199.565 8.61227 199.666 8.61897Z" fill="#202328"/>
<path d="M200 2.10791C200.4 1.30791 201.5 0.774573 202 0.607906C205.6 -0.992094 207.5 0.94124 208 2.10791L207.5 2.10791C207.667 2.60791 207.5 3.20791 207.5 3.60791C207.5 4.00791 206.833 7.77457 206.5 9.60791L200.5 9.10791C200.167 7.10791 199.6 2.90791 200 2.10791Z" fill="#202328"/>
<defs>
<filter id="filter0_f_987_63" x="0" y="61" width="226.5" height="142.778" filterUnits="userSpaceOnUse" color-interpolation-filters="sRGB">
<feFlood flood-opacity="0" result="BackgroundImageFix"/>
<feBlend mode="normal" in="SourceGraphic" in2="BackgroundImageFix" result="shape"/>
<feGaussianBlur stdDeviation="7" result="effect1_foregroundBlur_987_63"/>
</filter>
<linearGradient id="paint0_linear_987_63" x1="107" y1="163.22" x2="-88.315" y2="304.962" gradientUnits="userSpaceOnUse">
<stop/>
<stop offset="1" stop-opacity="0"/>
</linearGradient>
</defs>
</svg>
