<svg width="264" height="326" viewBox="0 0 264 326" fill="none" xmlns="http://www.w3.org/2000/svg">
<path d="M193.132 166.075L0.314721 170.205C0.261119 170.209 0.206666 170.192 0.162683 170.158C0.1187 170.124 0.0885663 170.076 0.0785374 170.022C0.0733373 169.969 0.0876681 169.918 0.118831 169.877C0.149998 169.836 0.1959 169.808 0.247976 169.799L193.007 165.1C193.14 165.097 193.272 165.147 193.375 165.238C193.477 165.329 193.542 165.453 193.556 165.585C193.568 165.65 193.566 165.715 193.552 165.777C193.537 165.839 193.51 165.897 193.472 165.947C193.434 165.997 193.385 166.038 193.33 166.069C193.274 166.099 193.212 166.117 193.148 166.123L193.132 166.075Z" fill="url(#paint0_linear_894_821)"/>
<path d="M205.663 158.004L80.3201 163.187C80.2934 163.191 80.2659 163.189 80.2393 163.181C80.2127 163.174 80.1876 163.161 80.1655 163.144C80.1434 163.127 80.1248 163.106 80.1107 163.082C80.0967 163.058 80.0875 163.032 80.0838 163.005C80.0762 162.951 80.0896 162.898 80.1212 162.857C80.1528 162.815 80.2001 162.788 80.2533 162.782L205.509 157.066C205.578 157.054 205.65 157.057 205.72 157.075C205.79 157.092 205.857 157.125 205.915 157.169C205.973 157.213 206.022 157.269 206.058 157.332C206.095 157.395 206.117 157.465 206.125 157.535C206.132 157.606 206.125 157.676 206.102 157.742C206.08 157.808 206.043 157.867 205.995 157.916C205.947 157.965 205.888 158.002 205.822 158.025C205.756 158.049 205.685 158.058 205.614 158.051L205.663 158.004Z" fill="url(#paint1_linear_894_821)"/>
<path d="M208.34 173.595L129.427 175.114C129.378 175.106 129.334 175.081 129.3 175.045C129.266 175.009 129.245 174.963 129.241 174.915C129.236 174.867 129.248 174.82 129.275 174.782C129.302 174.744 129.342 174.717 129.388 174.706L208.255 172.601C208.32 172.599 208.386 172.611 208.449 172.634C208.511 172.658 208.569 172.694 208.619 172.739C208.669 172.784 208.71 172.839 208.739 172.899C208.768 172.959 208.786 173.023 208.79 173.088C208.797 173.153 208.79 173.218 208.771 173.279C208.752 173.34 208.721 173.395 208.679 173.443C208.637 173.49 208.585 173.528 208.527 173.554C208.469 173.58 208.405 173.594 208.34 173.595Z" fill="url(#paint2_linear_894_821)"/>
<g filter="url(#filter0_di_894_821)">
<ellipse cx="222.663" cy="159.663" rx="19.3205" ry="19.3205" transform="rotate(-15 222.663 159.663)" fill="url(#paint3_radial_894_821)" shape-rendering="crispEdges"/>
</g>
<defs>
<filter id="filter0_di_894_821" x="189.337" y="131.338" width="74.6504" height="74.6505" filterUnits="userSpaceOnUse" color-interpolation-filters="sRGB">
<feFlood flood-opacity="0" result="BackgroundImageFix"/>
<feColorMatrix in="SourceAlpha" type="matrix" values="0 0 0 0 0 0 0 0 0 0 0 0 0 0 0 0 0 0 127 0" result="hardAlpha"/>
<feOffset dx="4" dy="9"/>
<feGaussianBlur stdDeviation="9"/>
<feComposite in2="hardAlpha" operator="out"/>
<feColorMatrix type="matrix" values="0 0 0 0 0 0 0 0 0 0 0 0 0 0 0 0 0 0 0.75 0"/>
<feBlend mode="multiply" in2="BackgroundImageFix" result="effect1_dropShadow_894_821"/>
<feBlend mode="normal" in="SourceGraphic" in2="effect1_dropShadow_894_821" result="shape"/>
<feColorMatrix in="SourceAlpha" type="matrix" values="0 0 0 0 0 0 0 0 0 0 0 0 0 0 0 0 0 0 127 0" result="hardAlpha"/>
<feOffset dy="8"/>
<feGaussianBlur stdDeviation="15"/>
<feComposite in2="hardAlpha" operator="arithmetic" k2="-1" k3="1"/>
<feColorMatrix type="matrix" values="0 0 0 0 0.727101 0 0 0 0 0.755493 0 0 0 0 0.804167 0 0 0 0.3 0"/>
<feBlend mode="normal" in2="shape" result="effect2_innerShadow_894_821"/>
</filter>
<linearGradient id="paint0_linear_894_821" x1="-32375" y1="69867.7" x2="-20956.5" y2="78546.2" gradientUnits="userSpaceOnUse">
<stop stop-color="#737C8B"/>
<stop offset="1" stop-color="white" stop-opacity="0"/>
</linearGradient>
<linearGradient id="paint1_linear_894_821" x1="-21925.9" y1="46504.1" x2="-14600.6" y2="52071.4" gradientUnits="userSpaceOnUse">
<stop stop-color="#737C8B"/>
<stop offset="1" stop-color="white" stop-opacity="0"/>
</linearGradient>
<linearGradient id="paint2_linear_894_821" x1="-13231.1" y1="28912.9" x2="-8529.27" y2="32486.5" gradientUnits="userSpaceOnUse">
<stop stop-color="#737C8B"/>
<stop offset="1" stop-color="white" stop-opacity="0"/>
</linearGradient>
<radialGradient id="paint3_radial_894_821" cx="0" cy="0" r="1" gradientUnits="userSpaceOnUse" gradientTransform="translate(235.777 151.098) rotate(152.944) scale(30.8076 31.1428)">
<stop stop-color="#737C8B"/>
<stop offset="0.567013" stop-color="#323A48" stop-opacity="0.59"/>
<stop offset="1" stop-color="#0C0D0E"/>
</radialGradient>
</defs>
</svg>
