<svg width="601" height="1406" viewBox="0 0 601 1406" fill="none" xmlns="http://www.w3.org/2000/svg">
<path d="M352.497 352.225C158.641 546.08 158.641 860.381 352.497 1054.24C546.352 1248.09 860.653 1248.09 1054.51 1054.24C1248.36 860.381 1248.36 546.08 1054.51 352.225C860.653 158.369 546.352 158.369 352.497 352.225Z" fill="url(#paint0_linear_894_1019)"/>
<g filter="url(#filter0_di_894_1019)">
<path d="M352.495 352.226C158.64 546.081 158.64 860.383 352.495 1054.24C546.35 1248.09 860.652 1248.09 1054.51 1054.24C1248.36 860.383 1248.36 546.081 1054.51 352.226C860.652 158.371 546.35 158.371 352.495 352.226Z" fill="url(#paint1_radial_894_1019)" shape-rendering="crispEdges"/>
</g>
<path opacity="0.14" d="M1017.72 960.915C1089.78 888.86 1134.64 794.046 1144.63 692.628C1154.63 591.209 1129.15 489.462 1072.54 404.724C1015.93 319.985 931.685 257.498 834.165 227.909C736.645 198.321 631.883 203.462 537.729 242.457C443.574 281.452 365.854 351.887 317.811 441.762C269.768 531.637 254.374 635.389 274.253 735.342C294.132 835.294 348.053 925.261 426.83 989.913C505.606 1054.57 604.363 1089.9 706.272 1089.9C764.135 1090.06 821.454 1078.74 874.913 1056.6C928.373 1034.46 976.91 1001.94 1017.72 960.915ZM1018.93 962.125C946.59 1034.46 851.41 1079.48 749.602 1089.51C647.795 1099.54 545.66 1073.95 460.6 1017.12C375.54 960.286 312.818 875.717 283.121 777.822C253.424 679.927 258.59 574.764 297.737 480.251C336.885 385.737 407.593 307.722 497.813 259.497C588.034 211.273 692.184 195.823 792.519 215.78C892.853 235.737 983.164 289.866 1048.06 368.944C1112.96 448.023 1148.43 547.158 1148.43 649.458C1148.59 707.549 1137.23 765.095 1115 818.764C1092.77 872.433 1060.12 921.16 1018.93 962.125Z" fill="black"/>
<path opacity="0.29" d="M981.556 868.199C1044.62 805.152 1083.87 722.19 1092.62 633.448C1101.37 544.706 1079.08 455.675 1029.54 381.526C980.009 307.377 906.296 252.698 820.966 226.806C735.635 200.914 643.966 205.411 561.58 239.531C479.193 273.65 411.186 335.282 369.147 413.923C327.108 492.564 313.638 583.349 331.032 670.808C348.426 758.268 395.608 836.99 464.538 893.561C533.469 950.133 619.883 981.053 709.055 981.052C759.681 981.186 809.831 971.281 856.605 951.91C903.379 932.539 945.848 904.087 981.556 868.199ZM982.765 869.408C919.444 932.751 836.118 972.178 746.986 980.97C657.853 989.762 568.43 967.376 493.953 917.626C419.476 867.876 364.554 793.84 338.546 708.135C312.538 622.429 317.052 530.357 351.32 447.607C385.588 364.857 447.489 296.549 526.476 254.324C605.462 212.098 696.647 198.568 784.491 216.037C872.336 233.507 951.405 280.896 1008.23 350.13C1065.05 419.363 1096.1 506.157 1096.1 595.722C1096.23 646.567 1086.28 696.934 1066.83 743.91C1047.38 790.887 1018.8 833.541 982.765 869.408Z" fill="black"/>
<path opacity="0.43" d="M945.38 775.472C999.429 721.429 1033.07 650.317 1040.56 574.253C1048.05 498.189 1028.94 421.88 986.475 358.33C944.011 294.779 880.824 247.92 807.682 225.736C734.54 203.552 655.969 207.417 585.357 236.672C514.745 265.926 456.462 318.761 420.44 386.172C384.418 453.583 372.885 531.4 387.807 606.361C402.73 681.322 443.183 748.79 502.275 797.267C561.366 845.745 635.439 872.232 711.872 872.215C755.256 872.322 798.231 863.827 838.311 847.222C878.392 830.616 914.783 806.229 945.38 775.472ZM946.589 776.681C892.276 831.011 820.805 864.828 744.354 872.369C667.903 879.909 591.202 860.708 527.321 818.035C463.441 775.363 416.333 711.86 394.025 638.348C371.717 564.836 375.59 485.864 404.982 414.887C434.375 343.91 487.47 285.321 555.218 249.103C622.967 212.885 701.179 201.279 776.525 216.263C851.872 231.247 919.692 271.893 968.429 331.276C1017.17 390.66 1043.8 465.105 1043.8 541.927C1043.92 585.54 1035.38 628.742 1018.7 669.036C1002.01 709.33 977.502 745.917 946.589 776.681Z" fill="black"/>
<path opacity="0.57" d="M909.204 682.743C954.247 637.722 982.286 578.476 988.542 515.099C994.798 451.722 978.884 388.137 943.513 335.178C908.142 282.22 855.502 243.164 794.563 224.667C733.624 206.17 668.156 209.376 609.315 233.739C550.475 258.102 501.903 302.114 471.875 358.275C441.848 414.436 432.223 479.272 444.642 541.734C457.06 604.196 490.754 660.42 539.98 700.824C589.206 741.229 650.919 763.314 714.604 763.317C750.756 763.412 786.568 756.34 819.97 742.51C853.372 728.68 883.701 708.366 909.204 682.743ZM910.414 683.953C865.112 729.281 805.493 757.499 741.718 763.797C677.943 770.095 613.957 754.083 560.664 718.491C507.371 682.898 468.068 629.927 449.454 568.605C430.84 507.282 434.066 441.402 458.582 382.191C483.098 322.98 527.387 274.103 583.903 243.887C640.418 213.671 705.662 203.988 768.517 216.486C831.372 228.984 887.949 262.891 928.605 312.429C969.262 361.966 991.484 424.069 991.483 488.155C991.576 524.529 984.46 560.561 970.545 594.168C956.63 627.775 936.193 658.291 910.414 683.953Z" fill="black"/>
<path opacity="0.71" d="M873.08 590.061C909.108 554.046 931.533 506.652 936.533 455.956C941.533 405.259 928.8 354.398 900.503 312.037C872.206 269.677 830.096 238.44 781.348 223.647C732.601 208.855 680.233 211.424 633.167 230.916C586.101 250.408 547.25 285.617 523.235 330.543C499.219 375.469 491.525 427.333 501.463 477.297C511.4 527.26 538.356 572.232 577.735 604.549C617.115 636.865 666.482 654.527 717.424 654.525C746.341 654.592 774.985 648.93 801.701 637.865C828.418 626.801 852.678 610.554 873.08 590.061ZM874.29 591.271C838.005 627.585 790.25 650.193 739.164 655.243C688.078 660.293 636.821 647.472 594.128 618.965C551.436 590.459 519.949 548.03 505.034 498.909C490.118 449.788 492.697 397.016 512.332 349.583C531.966 302.151 567.44 262.995 612.709 238.787C657.978 214.579 710.241 206.818 760.591 216.825C810.941 226.833 856.264 253.99 888.835 293.669C921.405 333.349 939.21 383.094 939.213 434.43C939.282 463.564 933.581 492.424 922.438 519.343C911.294 546.263 894.93 570.709 874.29 591.271Z" fill="black"/>
<path opacity="0.86" d="M836.867 497.299C863.899 470.299 880.732 434.761 884.497 396.741C888.263 358.721 878.727 320.572 857.516 288.795C836.304 257.018 804.73 233.579 768.173 222.474C731.617 211.369 692.341 213.284 657.038 227.893C621.735 242.502 592.591 268.901 574.572 302.591C556.553 336.281 550.774 375.177 558.22 412.651C565.666 450.124 585.877 483.856 615.408 508.097C644.938 532.339 681.961 545.59 720.167 545.592C741.844 545.639 763.315 541.396 783.343 533.108C803.372 524.819 821.563 512.649 836.867 497.299ZM838.077 498.508C810.8 525.818 774.898 542.823 736.488 546.627C698.078 550.43 659.537 540.797 627.434 519.368C595.331 497.939 571.653 466.04 560.434 429.109C549.215 392.178 551.15 352.499 565.909 316.834C580.668 281.169 607.338 251.726 641.373 233.522C675.409 215.319 714.704 209.481 752.561 217.003C790.419 224.526 824.496 244.944 848.986 274.777C873.477 304.611 886.863 342.014 886.866 380.611C886.912 402.51 882.625 424.201 874.251 444.435C865.878 464.669 853.583 483.046 838.077 498.508Z" fill="black"/>
<path d="M800.696 404.568C816.067 389.192 826.533 369.604 830.772 348.28C835.01 326.956 832.831 304.854 824.508 284.769C816.186 264.684 802.095 247.517 784.017 235.44C765.938 223.363 744.685 216.918 722.944 216.92C701.203 216.922 679.951 223.37 661.874 235.45C643.798 247.529 629.709 264.698 621.39 284.784C613.071 304.871 610.895 326.973 615.137 348.296C619.379 369.62 629.848 389.206 645.221 404.58C665.857 425.164 693.814 436.723 722.961 436.72C752.108 436.718 780.064 425.155 800.696 404.568ZM644.024 247.896C659.639 232.286 679.532 221.656 701.188 217.352C722.843 213.047 745.289 215.261 765.687 223.712C786.084 232.164 803.518 246.474 815.783 264.834C828.048 283.193 834.593 304.778 834.592 326.857C834.59 348.936 828.041 370.519 815.773 388.877C803.506 407.235 786.07 421.542 765.671 429.991C745.272 438.44 722.826 440.65 701.171 436.342C679.516 432.034 659.624 421.402 644.012 405.789C623.103 384.835 611.361 356.442 611.363 326.84C611.365 297.238 623.112 268.846 644.024 247.896Z" fill="black"/>
<path opacity="0.14" d="M1012.21 1068.5C1073.83 1006.89 1115.79 928.396 1132.79 842.941C1149.8 757.486 1141.08 668.908 1107.73 588.41C1074.39 507.911 1017.93 439.108 945.483 390.701C873.037 342.294 787.863 316.458 700.733 316.46C583.898 316.457 471.846 362.867 389.228 445.48C306.611 528.093 260.195 640.142 260.192 756.978C260.189 873.813 306.598 985.865 389.211 1068.48C471.824 1151.1 583.873 1197.52 700.709 1197.52C758.583 1197.67 815.913 1186.35 869.382 1164.2C922.852 1142.06 971.399 1109.53 1012.21 1068.5ZM1013.34 1069.62C951.509 1131.44 872.736 1173.54 786.979 1190.6C701.223 1207.65 612.335 1198.9 531.555 1165.44C450.774 1131.98 381.729 1075.32 333.15 1002.62C284.57 929.921 258.638 844.45 258.632 757.014C259.532 640.355 306.506 528.78 389.315 446.606C472.125 364.431 584.059 318.318 700.721 318.317C817.384 318.315 929.318 364.425 1012.13 446.597C1094.94 528.769 1141.92 640.343 1142.82 757.002C1142.98 815.082 1131.61 872.617 1109.39 926.277C1087.16 979.937 1054.51 1028.66 1013.34 1069.62Z" fill="black"/>
<path opacity="0.29" d="M970.511 1083.35C1033.58 1020.28 1072.83 937.296 1081.57 848.534C1090.31 759.772 1068 670.725 1018.45 596.566C968.894 522.407 895.159 467.725 809.807 441.837C724.455 415.95 632.767 420.458 550.367 454.594C467.966 488.73 399.951 550.382 357.911 629.045C315.871 707.707 302.408 798.513 319.814 885.989C337.221 973.466 384.421 1052.2 453.372 1108.78C522.323 1165.35 608.758 1196.27 697.95 1196.26C748.589 1196.39 798.75 1186.47 845.534 1167.09C892.318 1147.71 934.796 1119.25 970.511 1083.35ZM971.551 1084.39C908.238 1147.7 824.934 1187.09 735.831 1195.87C646.728 1204.64 557.34 1182.24 482.897 1132.5C408.455 1082.75 353.563 1008.74 327.575 923.058C301.587 837.379 306.111 745.339 340.376 662.622C374.641 579.904 436.527 511.627 515.489 469.422C594.451 427.218 685.604 413.698 773.417 431.166C861.23 448.634 940.27 496.009 997.069 565.22C1053.87 634.431 1084.91 721.195 1084.91 810.728C1085.05 861.572 1075.1 911.939 1055.64 958.912C1036.18 1005.89 1007.6 1048.53 971.551 1084.39Z" fill="black"/>
<path opacity="0.43" d="M928.824 1098.21C982.906 1044.15 1016.57 973.004 1024.07 896.903C1031.58 820.802 1012.47 744.453 969.992 680.865C927.516 617.277 864.305 570.385 791.13 548.179C717.955 525.973 639.344 529.827 568.692 559.084C498.041 588.342 439.72 641.193 403.667 708.631C367.615 776.069 356.062 853.921 370.977 928.923C385.892 1003.92 426.351 1071.43 485.462 1119.95C544.573 1168.46 618.677 1194.98 695.147 1194.98C738.56 1195.1 781.565 1186.6 821.675 1169.99C861.785 1153.38 898.204 1128.99 928.824 1098.21ZM929.78 1099.17C875.503 1153.46 804.08 1187.25 727.681 1194.79C651.282 1202.32 574.634 1183.13 510.797 1140.49C446.961 1097.84 399.885 1034.39 377.592 960.925C355.298 887.463 359.167 808.544 388.538 737.615C417.909 666.686 470.966 608.136 538.667 571.941C606.369 535.746 684.526 524.145 759.822 539.116C835.118 554.087 902.893 594.702 951.6 654.042C1000.31 713.383 1026.93 787.776 1026.93 864.545C1027.04 908.132 1018.51 951.308 1001.84 991.579C985.163 1031.85 960.672 1068.42 929.78 1099.17Z" fill="black"/>
<path opacity="0.57" d="M887.097 1113.04C932.183 1067.98 960.249 1008.67 966.511 945.238C972.774 881.802 956.846 818.157 921.441 765.148C886.037 712.14 833.347 673.048 772.351 654.534C711.354 636.02 645.824 639.229 586.929 663.615C528.033 688.002 479.416 732.055 449.361 788.27C419.306 844.485 409.674 909.382 422.106 971.902C434.538 1034.42 468.264 1090.7 517.537 1131.14C566.811 1171.58 628.583 1193.68 692.328 1193.69C728.511 1193.78 764.353 1186.69 797.783 1172.85C831.213 1159.01 861.569 1138.68 887.097 1113.04ZM887.956 1113.9C842.695 1159.18 783.134 1187.36 719.422 1193.65C655.71 1199.93 591.789 1183.93 538.552 1148.37C485.316 1112.81 446.057 1059.89 427.466 998.625C408.875 937.362 412.102 871.549 436.597 812.399C461.093 753.249 505.34 704.423 561.801 674.24C618.261 644.058 683.44 634.387 746.232 646.876C809.023 659.365 865.542 693.24 906.156 742.729C946.77 792.219 968.967 854.26 968.965 918.282C969.064 954.626 961.959 990.63 948.061 1024.21C934.162 1057.79 913.746 1088.29 887.992 1113.93L887.956 1113.9Z" fill="black"/>
<path opacity="0.71" d="M845.444 1127.94C881.525 1091.88 903.987 1044.43 909.002 993.666C914.016 942.903 901.274 891.972 872.945 849.551C844.617 807.131 802.455 775.846 753.645 761.027C704.835 746.208 652.397 748.773 605.266 768.285C558.135 787.796 519.228 823.047 495.174 868.029C471.121 913.012 463.41 964.944 473.355 1014.98C483.3 1065.01 510.285 1110.04 549.713 1142.41C589.141 1174.77 638.572 1192.46 689.582 1192.46C718.535 1192.53 747.215 1186.87 773.967 1175.79C800.718 1164.72 825.011 1148.45 845.444 1127.94ZM846.218 1128.71C809.991 1165 762.302 1187.61 711.278 1192.67C660.253 1197.74 609.05 1184.96 566.394 1156.5C523.738 1128.05 492.269 1085.68 477.348 1036.63C462.428 987.57 464.98 934.858 484.569 887.471C504.158 840.085 539.573 800.958 584.778 776.757C629.983 752.556 682.181 744.78 732.478 754.752C782.774 764.724 828.057 791.828 860.609 831.446C893.161 871.063 910.968 920.743 910.996 972.018C911.081 1001.12 905.4 1029.95 894.282 1056.85C883.164 1083.74 866.828 1108.17 846.218 1128.71Z" fill="black"/>
<path opacity="0.86" d="M803.79 1142.77C830.888 1115.71 847.763 1080.09 851.541 1041.98C855.318 1003.88 845.763 965.637 824.505 933.785C803.247 901.933 771.601 878.438 734.961 867.306C698.32 856.173 658.953 858.091 623.568 872.733C588.183 887.375 558.971 913.835 540.91 947.603C522.85 981.371 517.058 1020.36 524.522 1057.92C531.986 1095.48 552.245 1129.29 581.845 1153.58C611.445 1177.88 648.554 1191.16 686.849 1191.16C708.569 1191.2 730.083 1186.95 750.152 1178.64C770.222 1170.34 788.451 1158.15 803.79 1142.77ZM804.479 1143.46C777.258 1170.72 741.426 1187.69 703.09 1191.49C664.754 1195.29 626.287 1185.68 594.244 1164.3C562.201 1142.91 538.566 1111.07 527.366 1074.21C516.167 1037.35 518.097 997.751 532.826 962.155C547.556 926.558 574.174 897.171 608.145 879.002C642.115 860.833 681.335 855.006 719.12 862.515C756.905 870.024 790.917 890.404 815.359 920.181C839.801 949.958 853.16 987.29 853.16 1025.81C853.208 1047.67 848.932 1069.31 840.577 1089.5C832.222 1109.69 819.954 1128.03 804.479 1143.46Z" fill="black"/>
<path d="M762.052 1157.66C777.486 1142.22 787.996 1122.56 792.254 1101.15C796.512 1079.75 794.327 1057.56 785.974 1037.39C777.622 1017.23 763.477 999.991 745.329 987.865C727.181 975.739 705.845 969.267 684.019 969.267C662.192 969.267 640.856 975.739 622.708 987.865C604.56 999.991 590.415 1017.23 582.063 1037.39C573.71 1057.56 571.525 1079.75 575.783 1101.15C580.041 1122.56 590.551 1142.22 605.985 1157.66C626.696 1178.32 654.76 1189.93 684.019 1189.93C713.277 1189.93 741.341 1178.32 762.052 1157.66ZM605.38 1000.98C620.929 985.436 640.738 974.848 662.305 970.558C683.871 966.268 706.225 968.47 726.54 976.884C746.855 985.299 764.218 999.549 776.435 1017.83C788.651 1036.11 795.171 1057.61 795.171 1079.6C795.171 1101.59 788.651 1123.08 776.435 1141.37C764.218 1159.65 746.855 1173.9 726.54 1182.31C706.225 1190.73 683.871 1192.93 662.305 1188.64C640.739 1184.35 620.929 1173.76 605.38 1158.21C584.568 1137.34 572.881 1109.07 572.881 1079.6C572.881 1050.13 584.568 1021.85 605.38 1000.98Z" fill="black"/>
<defs>
<filter id="filter0_di_894_1019" x="173.104" y="172.835" width="1100.79" height="1100.79" filterUnits="userSpaceOnUse" color-interpolation-filters="sRGB">
<feFlood flood-opacity="0" result="BackgroundImageFix"/>
<feColorMatrix in="SourceAlpha" type="matrix" values="0 0 0 0 0 0 0 0 0 0 0 0 0 0 0 0 0 0 127 0" result="hardAlpha"/>
<feOffset dx="20" dy="20"/>
<feGaussianBlur stdDeviation="27"/>
<feComposite in2="hardAlpha" operator="out"/>
<feColorMatrix type="matrix" values="0 0 0 0 0 0 0 0 0 0 0 0 0 0 0 0 0 0 0.75 0"/>
<feBlend mode="multiply" in2="BackgroundImageFix" result="effect1_dropShadow_894_1019"/>
<feBlend mode="normal" in="SourceGraphic" in2="effect1_dropShadow_894_1019" result="shape"/>
<feColorMatrix in="SourceAlpha" type="matrix" values="0 0 0 0 0 0 0 0 0 0 0 0 0 0 0 0 0 0 127 0" result="hardAlpha"/>
<feOffset dy="8"/>
<feGaussianBlur stdDeviation="35"/>
<feComposite in2="hardAlpha" operator="arithmetic" k2="-1" k3="1"/>
<feColorMatrix type="matrix" values="0 0 0 0 0.727101 0 0 0 0 0.755493 0 0 0 0 0.804167 0 0 0 0.4 0"/>
<feBlend mode="normal" in2="shape" result="effect2_innerShadow_894_1019"/>
</filter>
<linearGradient id="paint0_linear_894_1019" x1="674.67" y1="1376.41" x2="187.667" y2="590.837" gradientUnits="userSpaceOnUse">
<stop stop-color="#737C8B"/>
<stop offset="1" stop-color="#0A0D12"/>
</linearGradient>
<radialGradient id="paint1_radial_894_1019" cx="0" cy="0" r="1" gradientUnits="userSpaceOnUse" gradientTransform="translate(620.852 1097.09) rotate(-72.0556) scale(791.534 800.146)">
<stop stop-color="#737C8B"/>
<stop offset="0.567013" stop-color="#323A48" stop-opacity="0.59"/>
<stop offset="1" stop-color="#0C0D0E"/>
</radialGradient>
</defs>
</svg>
