<svg width="1475" height="1002" viewBox="0 0 1475 1002" fill="none" xmlns="http://www.w3.org/2000/svg">
<path d="M1474 1L504 501.006" stroke="white" stroke-width="0.25" stroke-miterlimit="10"/>
<path d="M1474 22.7463L504 501.006" stroke="white" stroke-width="0.25" stroke-miterlimit="10"/>
<path d="M1474 44.4805L504 501.006" stroke="white" stroke-width="0.25" stroke-miterlimit="10"/>
<path d="M1474 66.2268L504 501.006" stroke="white" stroke-width="0.25" stroke-miterlimit="10"/>
<path d="M1474 87.9609L504 501.006" stroke="white" stroke-width="0.25" stroke-miterlimit="10"/>
<path d="M1474 109.695L504 501.006" stroke="white" stroke-width="0.25" stroke-miterlimit="10"/>
<path d="M1474 131.441L504 501.006" stroke="white" stroke-width="0.25" stroke-miterlimit="10"/>
<path d="M1474 153.175L504 501.006" stroke="white" stroke-width="0.25" stroke-miterlimit="10"/>
<path d="M1474 174.922L504 501.006" stroke="white" stroke-width="0.25" stroke-miterlimit="10"/>
<path d="M1474 196.655L504 501.006" stroke="white" stroke-width="0.25" stroke-miterlimit="10"/>
<path d="M1474 218.39L504 501.006" stroke="white" stroke-width="0.25" stroke-miterlimit="10"/>
<path d="M1474 240.136L504 501.006" stroke="white" stroke-width="0.25" stroke-miterlimit="10"/>
<path d="M1474 261.87L504 501.006" stroke="white" stroke-width="0.25" stroke-miterlimit="10"/>
<path d="M1474 283.616L504 501.006" stroke="white" stroke-width="0.25" stroke-miterlimit="10"/>
<path d="M1474 305.35L504 501.006" stroke="white" stroke-width="0.25" stroke-miterlimit="10"/>
<path d="M1474 327.085L504 501.006" stroke="white" stroke-width="0.25" stroke-miterlimit="10"/>
<path d="M1474 348.831L504 501.006" stroke="white" stroke-width="0.25" stroke-miterlimit="10"/>
<path d="M1474 370.565L504 501.006" stroke="white" stroke-width="0.25" stroke-miterlimit="10"/>
<path d="M1474 392.311L504 501.006" stroke="white" stroke-width="0.25" stroke-miterlimit="10"/>
<path d="M1474 414.045L504 501.006" stroke="white" stroke-width="0.25" stroke-miterlimit="10"/>
<path d="M1474 435.78L504 501.006" stroke="white" stroke-width="0.25" stroke-miterlimit="10"/>
<path d="M1474 457.526L504 501.006" stroke="white" stroke-width="0.25" stroke-miterlimit="10"/>
<path d="M1474 479.26L504 501.006" stroke="white" stroke-width="0.25" stroke-miterlimit="10"/>
<path d="M505 501L-1.5825e-05 501" stroke="white" stroke-width="0.5" stroke-miterlimit="10"/>
<path d="M1474 522.74L504 501.006" stroke="white" stroke-width="0.25" stroke-miterlimit="10"/>
<path d="M1474 544.474L504 501.006" stroke="white" stroke-width="0.25" stroke-miterlimit="10"/>
<path d="M1474 566.22L504 501.006" stroke="white" stroke-width="0.25" stroke-miterlimit="10"/>
<path d="M1474 587.955L504 501.006" stroke="white" stroke-width="0.25" stroke-miterlimit="10"/>
<path d="M1474 609.701L504 501.006" stroke="white" stroke-width="0.25" stroke-miterlimit="10"/>
<path d="M1474 631.435L504 501.006" stroke="white" stroke-width="0.25" stroke-miterlimit="10"/>
<path d="M1474 653.169L504 501.006" stroke="white" stroke-width="0.25" stroke-miterlimit="10"/>
<path d="M1474 674.915L504 501.006" stroke="white" stroke-width="0.25" stroke-miterlimit="10"/>
<path d="M1474 696.649L504 501.006" stroke="white" stroke-width="0.25" stroke-miterlimit="10"/>
<path d="M1474 718.396L504 501.006" stroke="white" stroke-width="0.25" stroke-miterlimit="10"/>
<path d="M1474 740.13L504 501.006" stroke="white" stroke-width="0.25" stroke-miterlimit="10"/>
<path d="M1474 761.864L504 501.006" stroke="white" stroke-width="0.25" stroke-miterlimit="10"/>
<path d="M1474 783.61L504 501.006" stroke="white" stroke-width="0.25" stroke-miterlimit="10"/>
<path d="M1474 805.344L504 501.006" stroke="white" stroke-width="0.25" stroke-miterlimit="10"/>
<path d="M1474 827.09L504 501.006" stroke="white" stroke-width="0.25" stroke-miterlimit="10"/>
<path d="M1474 848.825L504 501.006" stroke="white" stroke-width="0.25" stroke-miterlimit="10"/>
<path d="M1474 870.559L504 501.006" stroke="white" stroke-width="0.25" stroke-miterlimit="10"/>
<path d="M1474 892.305L504 501.006" stroke="white" stroke-width="0.25" stroke-miterlimit="10"/>
<path d="M1474 914.039L504 501.006" stroke="white" stroke-width="0.25" stroke-miterlimit="10"/>
<path d="M1474 935.785L504 501.006" stroke="white" stroke-width="0.25" stroke-miterlimit="10"/>
<path d="M1474 957.52L504 501.006" stroke="white" stroke-width="0.25" stroke-miterlimit="10"/>
<path d="M1474 979.254L504 501.006" stroke="white" stroke-width="0.25" stroke-miterlimit="10"/>
<path d="M1474 1001L504 501.006" stroke="white" stroke-width="0.25" stroke-miterlimit="10"/>
</svg>
