<?xml version="1.0" encoding="UTF-8"?>
<svg width="121px" height="120px" viewBox="0 0 121 120" version="1.1" xmlns="http://www.w3.org/2000/svg" xmlns:xlink="http://www.w3.org/1999/xlink">
    <!-- Generator: Sketch 54.1 (76490) - https://sketchapp.com -->
    <title>Asset 6</title>
    <desc>Created with Sketch.</desc>
    <g id="Page-1" stroke="none" stroke-width="1" fill="none" fill-rule="evenodd">
        <g id="events-details-copy" transform="translate(-659.000000, -149.000000)" fill="#FFB400" fill-rule="nonzero">
            <g id="Asset-6" transform="translate(659.000000, 149.000000)">
                <path d="M13.5348084,43.8812736 C14.6033459,45.1813276 14.8882893,46.8375607 14.9773341,50.0431732 C14.9773341,53.7118187 14.6923907,55.296816 13.730707,56.6324879 C12.4485282,58.2334492 10.420605,59.0446184 8.38801943,58.7695629 L1.74704695e-12,58.7695629 L1.74704695e-12,41.9579061 L8.19212089,41.9579061 C10.1772799,41.71531 12.1597967,42.4290161 13.5348084,43.8812736 Z M10.5785213,54.6556935 C11.2416174,53.2524671 11.5006275,51.6922395 11.3264976,50.150027 C11.4943779,48.7494849 11.207153,47.3320924 10.5072855,46.1073934 C9.73766104,45.3717596 8.67931407,45.0189773 7.62223421,45.1457097 L3.65083648,45.1457097 L3.65083648,55.6708041 L7.60442526,55.6708041 C8.69954278,55.811705 9.79808503,55.4367534 10.5785213,54.6556935 Z M28.0669185,49.3130059 C28.9601594,50.7135498 29.3204165,52.3884292 29.0820291,54.0323799 L19.1268214,54.0323799 C19.1454253,54.562695 19.3764569,55.0632635 19.7679439,55.4214787 C20.5216817,56.0673233 21.5040156,56.3819269 22.4927145,56.2941176 C23.2346897,56.3163117 23.9735559,56.1891298 24.6654074,55.9201295 C25.1006296,55.7517002 25.4523497,55.419165 25.6449002,54.9940637 L28.9929843,54.9940637 C28.6948103,56.2211255 27.9275884,57.2824492 26.8559093,57.9503508 C25.5334926,58.7161325 24.0193369,59.0869461 22.4927145,59.0188883 C20.2306046,59.2475983 18.0140232,58.274465 16.6513761,56.4543983 C16.0141259,55.3784676 15.6989059,54.1423105 15.7431193,52.8926066 C15.7226127,51.6564157 16.0832602,50.4438939 16.7760389,49.4198597 C18.1297917,47.6553555 20.2730891,46.6805224 22.4927145,46.8197518 C24.6549884,46.6423499 26.7578342,47.5829199 28.0669185,49.3130059 Z M19.1624393,51.8062601 L25.733945,51.8062601 C25.7151542,51.306002 25.5121983,50.830324 25.1640583,50.4705882 C24.4586381,49.835952 23.5291449,49.5090267 22.5817593,49.5623314 C21.607415,49.5006966 20.644295,49.7985034 19.8747976,50.3993524 C19.4903223,50.7781254 19.2401712,51.272174 19.1624393,51.8062601 Z M29.7765785,50.2568807 C29.7765785,48.0841878 31.6465192,46.7841338 35.4220183,46.7841338 C38.6632488,46.7841338 40.6756611,47.5321101 41.2811657,49.3130059 C41.4068119,49.7720813 41.4785315,50.2442351 41.4948732,50.7199137 L38.1824069,50.7199137 C38.1829934,50.498291 38.1343302,50.2793068 38.0399352,50.0787911 C37.8084188,49.7582299 37.4522396,49.4910955 35.56449,49.4910955 C33.6767404,49.4910955 33.1246627,49.8116568 33.1246627,50.3281166 C33.1246627,50.8445764 33.4808419,51.0404749 35.154884,51.2898003 L37.8796546,51.6994064 C40.711279,52.1268214 41.9400971,52.9282245 41.9400971,55.3680518 C41.9400971,57.8078791 40.0167296,59.0545062 36.0453319,59.0545062 C32.0739342,59.0545062 30.2039935,58.2531031 29.7053427,56.3297356 C29.6156215,55.9505929 29.5737413,55.5617054 29.58068,55.1721533 L32.9643821,55.1721533 C32.9727729,55.372037 33.0087305,55.5698041 33.0712358,55.7598489 C33.2849433,56.3119266 34.1041554,56.4722072 36.0453319,56.4722072 C37.9865084,56.4722072 38.592013,56.0982191 38.592013,55.4392876 C38.592013,54.7803562 37.9330815,54.6378845 36.1521856,54.3707501 L33.5876956,53.996762 C31.0053967,53.6227739 29.7765785,52.5008095 29.7765785,50.2568807 Z M46.8019428,47.0868861 L46.7485159,57.5585537 C46.7485159,58.5024285 46.7663249,58.8407987 46.8553697,58.8407987 L43.4182407,58.8407987 C43.2401511,58.7873718 43.2401511,58.5558554 43.2401511,57.5941716 L43.2401511,47.0868861 L46.8019428,47.0868861 Z M43.2579601,42.7771182 L46.8553697,42.7771182 L46.8553697,45.840259 L43.2579601,45.840259 L43.2579601,42.7771182 Z M61.4587156,46.9800324 L61.5121425,48.849973 C60.7934726,48.8476656 60.0787135,48.9557804 59.3928764,49.1705343 C59.7559847,49.6563011 59.9667207,50.2389242 59.998381,50.8445764 C60.0336975,51.1522549 60.0336975,51.4629637 59.998381,51.7706422 C59.7490556,53.6227739 57.8078791,55.0118726 54.2460874,55.0118726 C53.3666284,55.0406303 52.493158,54.8573848 51.6994064,54.4776039 C51.2541824,54.5488397 51.004857,54.7803562 51.004857,55.1187264 C51.004857,55.8132758 51.7528332,55.8132758 54.4597949,55.8132758 C59.7668645,55.6529951 61.3874798,56.7215326 61.3874798,58.9832704 C61.3874798,61.2450081 59.2147868,62.5450621 54.2638964,62.5450621 C49.3130059,62.5450621 47.5321101,61.5299514 47.5321101,59.7490556 C47.5321101,58.3599568 48.5472207,57.8256881 49.8116568,57.6654074 C49.3202237,57.6662929 48.8502677,57.4640675 48.5130358,57.1066016 C48.1758038,56.7491357 48.0012741,56.2682063 48.0307609,55.7776579 C48.0773538,54.851241 48.7307395,54.0671781 49.6335672,53.8542903 C48.7522036,53.3625478 48.1967224,52.441262 48.1732326,51.432272 C48.146844,51.0944163 48.146844,50.7550171 48.1732326,50.4171614 C48.3157043,48.5294118 50.150027,46.7485159 53.9611441,46.7485159 C55.4497941,46.6645671 56.9317588,47.004184 58.2352941,47.7280086 C59.1861924,47.1022672 60.3294247,46.8369868 61.4587156,46.9800324 Z M51.6459795,58.1462493 C50.8267674,58.2531031 50.5418241,58.30653 50.5418241,58.9832704 C50.5418241,59.6600108 51.432272,60.0696168 54.1036158,60.0696168 C56.7749595,60.0696168 57.9325418,59.6243929 57.9325418,59.0010793 C57.9325418,58.3777658 57.416082,58.1462493 54.7625472,58.1462493 C53.7296276,58.1462493 52.0021587,58.1462493 51.6459795,58.1462493 Z M56.7037237,51.4856989 L56.6502968,51.4856989 C56.7126681,51.211332 56.7307054,50.9287481 56.7037237,50.6486778 C56.5968699,49.8828926 55.7598489,49.295197 54.1036158,49.295197 C52.4473826,49.295197 51.5569347,49.9719374 51.4678899,50.6842957 C51.4412284,50.9507649 51.4412284,51.2192297 51.4678899,51.4856989 C51.5569347,52.1980572 52.269293,52.8569887 54.0679978,52.8569887 C55.8667026,52.8569887 56.7037237,52.1446303 56.7037237,51.4856989 Z M65.2342148,48.7965461 C66.179468,47.423734 67.7962819,46.6733141 69.4549379,46.8375607 C70.7121051,46.5994578 72.0063318,46.9902248 72.9216673,47.8842735 C73.8370029,48.7783222 74.25811,50.0629974 74.0496492,51.3254182 C74.0496492,58.3243389 74.0496492,58.8407987 74.0496492,58.8407987 L70.6659471,58.8407987 C70.5234754,58.8407987 70.5234754,58.5024285 70.5234754,52.2158662 C70.6058929,51.5706335 70.3848646,50.9236051 69.9249093,50.4636498 C69.464954,50.0036945 68.8179256,49.7826662 68.1726929,49.8650836 C66.6767404,49.8650836 65.3410685,50.6486778 65.3410685,52.1980572 L65.3410685,58.7695629 L61.9039396,58.7695629 L61.9039396,47.0156503 L65.2342148,47.0156503 L65.2342148,48.7965461 Z M82.9363195,62.0286023 C83.1268818,62.7112247 83.0364539,63.4417123 82.6851895,64.0572614 C82.333925,64.6728105 81.7510173,65.1222634 81.0663788,65.3054506 C75.5218564,66.7895305 69.9179709,68.0420939 64.2547221,69.0631409 L64.2547221,86.124123 C64.2547221,87.5994655 63.0587207,88.7954668 61.5833783,88.7954668 C60.1080359,88.7954668 58.9120345,87.5994655 58.9120345,86.124123 L58.9120345,70.0960604 C56.4187804,70.4700486 53.9255262,70.7906098 51.432272,71.0755532 L51.1295197,71.0755532 C49.6541773,71.1542381 48.3943892,70.0220235 48.3157043,68.5466811 C48.2370193,67.0713386 49.3692339,65.8115506 50.8445764,65.7328656 C60.574501,64.6362504 70.2071413,62.8025958 79.6594711,60.2477064 C81.0550987,59.8442301 82.515712,60.6380417 82.9363195,62.0286023 Z M92.2504047,63.7204533 C92.3572585,70.1672963 92.7668645,76.6853751 93.4792229,83.1144091 C93.6359883,84.5769047 92.5886618,85.8939972 91.1284404,86.0706962 L90.8256881,86.0706962 C89.4304353,86.0651504 88.2744616,84.9867588 88.1721533,83.5952509 C87.441986,77.0237453 87.014571,70.3275769 86.9077172,63.7204533 C86.9077172,62.2451109 88.1037186,61.0491096 89.579061,61.0491096 C91.0544034,61.0491096 92.2504047,62.2451109 92.2504047,63.7204533 Z M102.739881,70.7728009 C105.072855,73.9606044 107.708581,77.0237453 110.273071,80.0690772 C110.736446,80.6039082 110.967001,81.3016696 110.913494,82.0072887 C110.859987,82.7129079 110.526853,83.3679251 109.988127,83.8267674 C109.498797,84.2630766 108.862707,84.49843 108.207232,84.4856989 C107.42831,84.4856084 106.687694,84.1477838 106.17701,83.559633 C104.146789,81.2088505 102.08095,78.7868322 100.104155,76.275769 C100.272158,77.9972775 100.612226,79.6976212 101.119266,81.3513222 C101.329934,82.0314665 101.260356,82.7675695 100.92598,83.3961952 C100.591605,84.0248209 100.020105,84.4939442 99.3383702,84.6994064 C99.0797557,84.7841116 98.8090917,84.8262149 98.5369671,84.8240691 C97.3709416,84.8233626 96.3400935,84.0664461 95.990286,82.9541284 C93.7641662,75.9017809 94.5121425,68.4042094 95.1710739,61.8148948 C95.3186082,60.3395524 96.6342097,59.2631513 98.1095521,59.4106855 C99.5848944,59.5582197 100.661296,60.8738211 100.513761,62.3491635 C100.424717,63.1683756 100.264436,64.0766325 100.264436,64.9492715 C101.40099,63.4266067 102.657564,61.9973288 104.022126,60.6751214 C105.069079,59.643168 106.750673,59.643168 107.797625,60.6751214 C108.302282,61.1736545 108.586315,61.8534959 108.586315,62.562871 C108.586315,63.2722461 108.302282,63.9520875 107.797625,64.4506206 C105.89732,66.2859035 104.239514,68.3566654 102.864544,70.6125202 L102.739881,70.7728009 Z M118.073394,71.5207771 C120.416693,73.2350429 121.458275,76.2180767 120.691311,79.0183486 C119.902303,81.7271059 117.439447,83.6049436 114.618457,83.6486778 L114.012952,83.6486778 C112.53761,83.4962257 111.465195,82.1766376 111.617647,80.7012952 C111.770099,79.2259528 113.089687,78.1535383 114.56503,78.3059903 C115.018134,78.2812852 115.411745,77.9860772 115.562331,77.558014 C115.678545,76.9484734 115.436506,76.3260867 114.939018,75.9552078 C114.690224,75.785959 114.428175,75.6370676 114.155424,75.5099838 C113.273792,75.0582663 112.47816,74.4555145 111.804641,73.729088 C109.926526,71.6056533 109.954961,68.4068543 111.87053,66.3171436 C113.786098,64.2274328 116.970358,63.9214728 119.248786,65.6082029 C120.42906,66.4934084 120.66826,68.1678102 119.783054,69.3480841 C118.897849,70.528358 117.223447,70.7675583 116.043173,69.8823529 C115.951559,69.8465902 115.849845,69.8465902 115.75823,69.8823529 C115.732999,69.9696104 115.732999,70.0622299 115.75823,70.1494873 C116.039102,70.3528946 116.337026,70.5316491 116.648678,70.6837561 C117.145246,70.9241331 117.621687,71.2040417 118.073394,71.5207771 Z M39.4824609,71.0577442 C40.8359417,70.0070157 42.1716136,72.3221802 40.8181328,73.3550998 C31.5153241,80.5082183 21.7593759,87.0518421 11.6114409,92.9449541 C10.9823664,93.2657918 10.2122464,93.0415164 9.8537935,92.4330897 C9.49534058,91.824663 9.67242771,91.0423432 10.2579601,90.6475985 C20.4010485,84.7376287 30.1618677,78.1947273 39.4824609,71.0577442 Z M38.8591473,80.140313 C39.3934161,78.3594172 41.9757151,79.1252024 41.4592553,80.8526713 C38.7310136,89.0442174 35.0489565,96.8865209 30.4889369,104.218025 C29.562871,105.66055 27.2655154,104.324879 28.1737723,102.864544 C32.6235269,95.7400221 36.2104906,88.1117461 38.8591473,80.140313 Z M44.2018349,89.8996222 C44.3977334,88.2077712 47.0690772,88.1899622 46.8731786,89.8996222 C45.7180006,99.655269 43.8610564,109.31495 41.3167836,118.803562 C41.0748136,119.453446 40.3757441,119.810056 39.7075744,119.624454 C39.0394048,119.438851 38.6244135,118.772779 38.7522936,118.091203 C41.2335181,108.834779 43.0546077,99.4139137 44.2018349,89.8996222 Z M56.1160281,91.733945 C56.1160281,90.9962738 56.7140288,90.3982732 57.4516999,90.3982732 C58.1893711,90.3982732 58.7873718,90.9962738 58.7873718,91.733945 C58.6805181,96.9341608 58.7873718,102.134377 59.143551,107.316784 C59.2504047,109.097679 56.579061,109.097679 56.4722072,107.316784 C56.1160281,102.134377 56.0091743,96.9341608 56.1160281,91.733945 Z M68.4042094,91.0750135 C71.9303832,96.4770642 75.5812196,101.79007 79.3567188,107.014031 C80.3718295,108.349703 78.0566649,109.738802 77.0593632,108.349703 C73.3194819,103.137615 69.6686454,97.8305451 66.1068538,92.4284943 C65.162979,90.9681597 67.4781436,89.6324879 68.4042094,91.0750135 Z M23.7393416,38.4317323 C19.4126603,32.6380349 15.5424185,26.5170986 12.1635186,20.124123 C11.3621155,18.6103616 13.6594711,17.2568807 14.4786832,18.7884512 C17.8515507,25.175366 21.7158654,31.290391 26.0366972,37.0782515 C27.0696168,38.4317323 24.7544522,39.8030221 23.7393416,38.4317323 Z M37.1316784,40.6756611 C33.355312,33.1839301 29.1575446,25.9121602 24.5585537,18.8953049 C23.6146789,17.5418241 25.9298435,16.1171074 26.8559093,17.5418241 C31.4568892,24.5607729 35.6604719,31.8323169 39.446843,39.3221802 C40.2126282,40.8537507 37.9152725,42.2072315 37.1316784,40.6756611 Z M50.5418241,38.0577442 C49.9731805,30.0978174 48.6008422,22.2158218 46.4457636,14.5321101 C46.3178836,13.8505342 46.7328748,13.1844626 47.4010445,12.99886 C48.0692141,12.8132573 48.7682836,13.1698675 49.0102536,13.8197518 C51.2254005,21.7365879 52.6335483,29.8573044 53.2131678,38.0577442 C53.3200216,39.83864 50.6486778,39.7495953 50.5418241,38.0577442 Z M62.4382083,38.7879115 C62.2245008,40.4797625 59.553157,40.4975715 59.7668645,38.7879115 L64.2547221,1.26443605 C64.4506206,-0.409606044 67.1219644,-0.427415003 66.9260658,1.26443605 L62.4382083,38.7879115 Z M72.446843,40.1413923 C71.5207771,41.583918 69.2056125,40.2482461 70.1494873,38.8057205 C73.0939018,34.2466271 76.1926606,29.7943875 79.4457636,25.4490016 C80.4608743,24.0955208 82.7760389,25.4133837 81.7431193,26.8024825 C78.5018888,31.1359957 75.4031301,35.582299 72.446843,40.1413923 Z M82.1527253,49.1705343 C80.9417161,50.4171614 79.0539665,48.5294118 80.2649757,47.2827847 C90.6297895,36.6092822 101.315165,26.2563411 112.321101,16.2239611 C113.585537,15.0663788 115.491096,16.9541284 114.208851,18.1117107 C103.202914,28.132218 92.5175391,38.4851592 82.1527253,49.1705343 Z M86.569347,82.6157582 C87.0032622,83.1999613 87.1818839,83.9350818 87.064425,84.6532594 C86.946966,85.371437 86.5434558,86.0113489 85.9460335,86.4268753 C85.4898793,86.7397305 84.949786,86.9073457 84.3966541,86.9077172 C83.5329923,86.909595 82.7224496,86.4910361 82.2239611,85.7857528 C81.9212089,85.3583378 81.440367,84.5391257 81.2088505,84.1117107 C80.7430914,84.9932355 79.929183,85.6391945 78.9649217,85.8926066 C78.3259834,86.0922563 77.6566293,86.1766794 76.9881274,86.141932 C76.3906497,86.1309366 75.7950553,86.0713772 75.2072315,85.9638424 C72.0817239,85.4154641 69.4216552,83.3738614 68.0836481,80.4964922 C66.6082477,77.0443746 68.0651931,73.0397226 71.4139234,71.3426875 C72.9921356,70.714757 74.6857901,70.429446 76.3826228,70.5056665 C78.6207683,70.6131434 80.7397942,71.5457686 82.3308149,73.1235834 C83.0890763,74.0330102 83.6909088,75.0621438 84.1117107,76.1689153 C84.1757033,76.3193973 84.2292569,76.4741076 84.2719914,76.6319482 C84.4500809,77.2018349 84.6459795,77.7717215 84.7884512,78.2881813 C85.1394965,79.8190065 85.7412441,81.2812531 86.569347,82.6157582 Z M79.4457636,78.840259 L79.4813815,78.840259 C79.7663249,77.4511603 78.3772261,75.9730167 76.4360496,75.5812196 C74.4948732,75.1894226 72.6605505,75.8839719 72.3756071,77.3621155 C72.0906638,78.840259 73.4263357,80.2115488 75.3853211,80.6211549 C76.9969884,81.2004459 78.7802924,80.418295 79.4457636,78.840259 Z" id="Combined-Shape"></path>
            </g>
        </g>
    </g>
</svg>