<svg xmlns="http://www.w3.org/2000/svg" viewBox="0 0 1784.08 173.78"><defs><style>.cls-1{fill:#eab500;}</style></defs><title>Asset 4texture</title><g id="Layer_2" data-name="Layer 2"><g id="Layer_1-2" data-name="Layer 1"><path class="cls-1" d="M27.76,26.55H0V2.41H82.06V26.55H54.31V171.37H27.76Z"/><path class="cls-1" d="M94.85,2.41H121.4V71.2h28.48V2.41h26.55v169H149.88v-76H121.4v76H94.85Z"/><path class="cls-1" d="M196.22,2.41h72.41V26.55H222.77V71.2h36.45V95.34H222.77v51.89h45.86v24.14H196.22Z"/><path class="cls-1" d="M317.86,131.3v-9.65H343v11.58c0,12.07,5.31,16.42,13.76,16.42s13.76-4.35,13.76-16.9c0-14-5.31-22.93-22.69-38.14C325.58,75.06,318.34,61.31,318.34,42c0-26.55,13.76-42,39.59-42s38.62,15.45,38.62,42.48v7H371.44V40.79c0-12.07-4.82-16.65-13.27-16.65s-13.28,4.58-13.28,16.17c0,12.31,5.56,21.24,22.93,36.44C390,96.3,397,109.82,397,130.82c0,27.51-14,43-40.07,43S317.86,158.33,317.86,131.3Z"/><path class="cls-1" d="M433,26.55H405.23V2.41h82.06V26.55H459.54V171.37H433Z"/><path class="cls-1" d="M500.08,2.41h39.35c27.51,0,39.34,12.8,39.34,38.86V51.65c0,17.38-5.55,28.48-17.38,33.31v.48C574.67,89.55,579,102.1,579,121.17v29.68c0,8.21.24,14.24,2.9,20.52h-27c-1.44-4.35-2.41-7-2.41-20.76V119.72C552.46,104,547.87,99,535.81,99h-9.18v72.41H500.08Zm36.21,72.41c9.89,0,15.93-4.34,15.93-17.86v-13c0-12.07-4.1-17.38-13.52-17.38H526.63V74.82Z"/><path class="cls-1" d="M617.87,2.41h36l27.52,169H654.8L650,137.82v.48H619.8L615,171.37H590.35Zm29,113L635,31.86h-.48l-11.58,83.51Z"/><path class="cls-1" d="M703.79,26.55H676V2.41H758.1V26.55H730.34V171.37H703.79Z"/><path class="cls-1" d="M770.89,2.41h72.4V26.55H797.44V71.2h36.44V95.34H797.44v51.89h45.85v24.14h-72.4Z"/><path class="cls-1" d="M856.56,131.3V42.48c0-27,13.52-42.48,39.59-42.48s39.58,15.45,39.58,42.48V57h-25.1V40.79c0-12.07-5.31-16.65-13.76-16.65s-13.75,4.58-13.75,16.65v92.44c0,12.07,5.31,16.42,13.75,16.42s13.76-4.35,13.76-16.42V100.17H897.36V76h38.37V131.3c0,27-13.51,42.48-39.58,42.48S856.56,158.33,856.56,131.3Z"/><path class="cls-1" d="M952.86,2.41h26.55v169H952.86Z"/><path class="cls-1" d="M997.51,132.27V41.51C997.51,15.45,1011,0,1036.61,0s39.1,15.45,39.1,41.51V59.38h-25.1V39.83c0-11.11-5.31-15.69-13.27-15.69s-13.28,4.58-13.28,15.69V134.2c0,11.1,5.31,15.45,13.28,15.45s13.27-4.35,13.27-15.45V108.37h25.1v23.9c0,26.06-13.51,41.51-39.1,41.51S997.51,158.33,997.51,132.27Z"/><path class="cls-1" d="M1130.25,2.41h72.41V26.55H1156.8V71.2h36.45V95.34H1156.8v51.89h45.86v24.14h-72.41Z"/><path class="cls-1" d="M1217.87,2.41h26.55V147.23h43.68v24.14h-70.23Z"/><path class="cls-1" d="M1300.89,2.41h72.41V26.55h-45.86V71.2h36.45V95.34h-36.45v51.89h45.86v24.14h-72.41Z"/><path class="cls-1" d="M1388.5,2.41h37.9l16.89,120.93h.48l16.9-120.93h37.89v169h-25.1V43.45H1473l-19.31,127.92h-22.21L1412.15,43.45h-.48V171.37H1388.5Z"/><path class="cls-1" d="M1518.35,2.41h72.41V26.55H1544.9V71.2h36.45V95.34H1544.9v51.89h45.86v24.14h-72.41Z"/><path class="cls-1" d="M1606,2.41h33.31l25.82,101.13h.49V2.41h23.65v169H1662L1630.1,48h-.49V171.37H1606Z"/><path class="cls-1" d="M1729.77,26.55H1702V2.41h82.06V26.55h-27.76V171.37h-26.55Z"/></g></g></svg>