<svg xmlns="http://www.w3.org/2000/svg" viewBox="0 0 1025.26 93.35"><defs><style>.cls-1{fill:#eab500;}</style></defs><title>Asset 3texture</title><g id="Layer_2" data-name="Layer 2"><g id="Layer_1-2" data-name="Layer 1"><path class="cls-1" d="M14.91,14.26H0V1.3H44.08v13H29.17V92.05H14.91Z"/><path class="cls-1" d="M51,1.3H65.22v37h15.3V1.3H94.78V92.05H80.52V51.21H65.22V92.05H51Z"/><path class="cls-1" d="M105.42,1.3h38.89v13H119.68v24h19.58v13H119.68V79.09h24.63v13H105.42Z"/><path class="cls-1" d="M170.77,70.53V65.34h13.48v6.23c0,6.48,2.85,8.81,7.39,8.81S199,78.05,199,71.31c0-7.52-2.85-12.32-12.18-20.49C174.92,40.32,171,32.93,171,22.56,171,8.3,178.42,0,192.29,0S213,8.3,213,22.82v3.76H199.55V21.91c0-6.48-2.59-8.94-7.13-8.94s-7.13,2.46-7.13,8.68c0,6.61,3,11.41,12.32,19.58,11.92,10.5,15.68,17.76,15.68,29,0,14.78-7.52,23.08-21.52,23.08S170.77,85.05,170.77,70.53Z"/><path class="cls-1" d="M232.62,14.26H217.71V1.3h44.08v13H246.88V92.05H232.62Z"/><path class="cls-1" d="M268.67,1.3H289.8c14.78,0,21.13,6.87,21.13,20.87v5.58c0,9.33-3,15.29-9.33,17.89v.26c7.13,2.2,9.46,8.94,9.46,19.19V81c0,4.41.13,7.65,1.56,11H298.1c-.78-2.33-1.3-3.76-1.3-11.15V64.31c0-8.43-2.46-11.15-8.94-11.15h-4.93V92.05H268.67Zm19.45,38.89c5.31,0,8.55-2.33,8.55-9.59v-7c0-6.49-2.2-9.34-7.26-9.34h-6.48V40.19Z"/><path class="cls-1" d="M331.94,1.3h19.32L366,92.05H351.78l-2.59-18v.26H333l-2.59,17.76H317.16ZM347.5,62l-6.35-44.86h-.26L334.67,62Z"/><path class="cls-1" d="M378.11,14.26H363.2V1.3h44.08v13H392.37V92.05H378.11Z"/><path class="cls-1" d="M414.15,1.3h38.9v13H428.42v24H448v13H428.42V79.09h24.63v13h-38.9Z"/><path class="cls-1" d="M460.18,70.53V22.82C460.18,8.3,467.45,0,481.45,0s21.26,8.3,21.26,22.82V30.6H489.23V21.91c0-6.48-2.86-8.94-7.39-8.94s-7.39,2.46-7.39,8.94V71.57c0,6.48,2.85,8.81,7.39,8.81s7.39-2.33,7.39-8.81V53.81H482.1v-13h20.61V70.53c0,14.52-7.26,22.82-21.26,22.82S460.18,85.05,460.18,70.53Z"/><path class="cls-1" d="M511.92,1.3h14.26V92.05H511.92Z"/><path class="cls-1" d="M535.91,71.05V22.3c0-14,7.26-22.3,21-22.3s21,8.3,21,22.3v9.59H564.43V21.39c0-6-2.85-8.42-7.13-8.42s-7.13,2.46-7.13,8.42v50.7c0,6,2.85,8.29,7.13,8.29s7.13-2.33,7.13-8.29V58.21h13.49V71.05c0,14-7.26,22.3-21,22.3S535.91,85.05,535.91,71.05Z"/><path class="cls-1" d="M607.22,1.3h38.9v13H621.48v24h19.58v13H621.48V79.09h24.64v13h-38.9Z"/><path class="cls-1" d="M654.29,1.3h14.26V79.09H692v13H654.29Z"/><path class="cls-1" d="M698.9,1.3h38.89v13H713.16v24h19.57v13H713.16V79.09h24.63v13H698.9Z"/><path class="cls-1" d="M746,1.3h20.36l9.08,65h.25L784.73,1.3h20.36V92.05H791.6V23.34h-.26L781,92.05H769L758.67,23.34h-.26V92.05H746Z"/><path class="cls-1" d="M815.73,1.3h38.89v13H830v24h19.58v13H830V79.09h24.63v13H815.73Z"/><path class="cls-1" d="M862.79,1.3h17.89l13.88,54.32h.26V1.3h12.7V92.05H892.87L875.76,25.8h-.26V92.05H862.79Z"/><path class="cls-1" d="M929.31,14.26H914.4V1.3h44.08v13H943.57V92.05H929.31Z"/><path class="cls-1" d="M986.1,1.3h14.26V92.05H986.1Z"/><path class="cls-1" d="M1011,1.3h14.26V92.05H1011Z"/></g></g></svg>