<svg width="1086" height="960" viewBox="0 0 1086 960" fill="none" xmlns="http://www.w3.org/2000/svg">
<path d="M1644 -41L674 459.006" stroke="white" stroke-width="0.25" stroke-miterlimit="10"/>
<path d="M1644 -19.2537L674 459.006" stroke="white" stroke-width="0.25" stroke-miterlimit="10"/>
<path d="M1644 2.48047L674 459.006" stroke="white" stroke-width="0.25" stroke-miterlimit="10"/>
<path d="M1644 24.2268L674 459.006" stroke="white" stroke-width="0.25" stroke-miterlimit="10"/>
<path d="M1644 45.9609L674 459.006" stroke="white" stroke-width="0.25" stroke-miterlimit="10"/>
<path d="M1644 67.6951L674 459.006" stroke="white" stroke-width="0.25" stroke-miterlimit="10"/>
<path d="M1644 89.4408L674 459.006" stroke="white" stroke-width="0.25" stroke-miterlimit="10"/>
<path d="M1644 111.175L674 459.006" stroke="white" stroke-width="0.25" stroke-miterlimit="10"/>
<path d="M1644 132.922L674 459.006" stroke="white" stroke-width="0.25" stroke-miterlimit="10"/>
<path d="M1644 154.655L674 459.006" stroke="white" stroke-width="0.25" stroke-miterlimit="10"/>
<path d="M1644 176.39L674 459.006" stroke="white" stroke-width="0.25" stroke-miterlimit="10"/>
<path d="M1644 198.136L674 459.006" stroke="white" stroke-width="0.25" stroke-miterlimit="10"/>
<path d="M1644 219.87L674 459.006" stroke="white" stroke-width="0.25" stroke-miterlimit="10"/>
<path d="M1644 241.616L674 459.006" stroke="white" stroke-width="0.25" stroke-miterlimit="10"/>
<path d="M1644 263.35L674 459.006" stroke="white" stroke-width="0.25" stroke-miterlimit="10"/>
<path d="M1644 285.085L674 459.006" stroke="white" stroke-width="0.25" stroke-miterlimit="10"/>
<path d="M1644 306.831L674 459.006" stroke="white" stroke-width="0.25" stroke-miterlimit="10"/>
<path d="M1644 328.565L674 459.006" stroke="white" stroke-width="0.25" stroke-miterlimit="10"/>
<path d="M1644 350.311L674 459.006" stroke="white" stroke-width="0.25" stroke-miterlimit="10"/>
<path d="M1644 372.045L674 459.006" stroke="white" stroke-width="0.25" stroke-miterlimit="10"/>
<path d="M1644 393.78L674 459.006" stroke="white" stroke-width="0.25" stroke-miterlimit="10"/>
<path d="M1644 415.526L674 459.006" stroke="white" stroke-width="0.25" stroke-miterlimit="10"/>
<path d="M1644 437.26L674 459.006" stroke="white" stroke-width="0.25" stroke-miterlimit="10"/>
<path d="M675 459L-1.75387e-05 459" stroke="white" stroke-width="0.5" stroke-miterlimit="10"/>
<path d="M1644 480.74L674 459.006" stroke="white" stroke-width="0.25" stroke-miterlimit="10"/>
<path d="M1644 502.474L674 459.006" stroke="white" stroke-width="0.25" stroke-miterlimit="10"/>
<path d="M1644 524.22L674 459.006" stroke="white" stroke-width="0.25" stroke-miterlimit="10"/>
<path d="M1644 545.955L674 459.006" stroke="white" stroke-width="0.25" stroke-miterlimit="10"/>
<path d="M1644 567.701L674 459.006" stroke="white" stroke-width="0.25" stroke-miterlimit="10"/>
<path d="M1644 589.435L674 459.006" stroke="white" stroke-width="0.25" stroke-miterlimit="10"/>
<path d="M1644 611.169L674 459.006" stroke="white" stroke-width="0.25" stroke-miterlimit="10"/>
<path d="M1644 632.915L674 459.006" stroke="white" stroke-width="0.25" stroke-miterlimit="10"/>
<path d="M1644 654.649L674 459.006" stroke="white" stroke-width="0.25" stroke-miterlimit="10"/>
<path d="M1644 676.396L674 459.006" stroke="white" stroke-width="0.25" stroke-miterlimit="10"/>
<path d="M1644 698.13L674 459.006" stroke="white" stroke-width="0.25" stroke-miterlimit="10"/>
<path d="M1644 719.864L674 459.006" stroke="white" stroke-width="0.25" stroke-miterlimit="10"/>
<path d="M1644 741.61L674 459.006" stroke="white" stroke-width="0.25" stroke-miterlimit="10"/>
<path d="M1644 763.344L674 459.006" stroke="white" stroke-width="0.25" stroke-miterlimit="10"/>
<path d="M1644 785.09L674 459.006" stroke="white" stroke-width="0.25" stroke-miterlimit="10"/>
<path d="M1644 806.825L674 459.006" stroke="white" stroke-width="0.25" stroke-miterlimit="10"/>
<path d="M1644 828.559L674 459.006" stroke="white" stroke-width="0.25" stroke-miterlimit="10"/>
<path d="M1644 850.305L674 459.006" stroke="white" stroke-width="0.25" stroke-miterlimit="10"/>
<path d="M1644 872.039L674 459.006" stroke="white" stroke-width="0.25" stroke-miterlimit="10"/>
<path d="M1644 893.785L674 459.006" stroke="white" stroke-width="0.25" stroke-miterlimit="10"/>
<path d="M1644 915.52L674 459.006" stroke="white" stroke-width="0.25" stroke-miterlimit="10"/>
<path d="M1644 937.254L674 459.006" stroke="white" stroke-width="0.25" stroke-miterlimit="10"/>
<path d="M1644 959L674 459.006" stroke="white" stroke-width="0.25" stroke-miterlimit="10"/>
</svg>
