<?xml version="1.0" encoding="utf-8"?>
<!-- Generator: Adobe Illustrator 23.0.2, SVG Export Plug-In . SVG Version: 6.00 Build 0)  -->
<svg version="1.1" id="Layer_1" xmlns="http://www.w3.org/2000/svg" xmlns:xlink="http://www.w3.org/1999/xlink" x="0px" y="0px"
	 viewBox="0 0 2200 900" style="enable-background:new 0 0 2200 900;" xml:space="preserve">
<style type="text/css">
	.st0{fill:#EAB500;}
</style>
<g>
	<path class="st0" d="M1609.3,23.2c2-0.7,3.1-3,2.3-5c-0.7-2-3-3.1-5-2.3c-2,0.7-3.1,3-2.3,5C1605.1,22.9,1607.3,24,1609.3,23.2z"/>
	<path class="st0" d="M1673.2,25.7c2.1,0.4,4.2-0.9,4.7-3c0.5-2.1-0.8-4.2-3-4.6c-2.1-0.4-4.2,0.9-4.7,3
		C1669.7,23.2,1671.1,25.2,1673.2,25.7z"/>
	<path class="st0" d="M1739.3,42.4c0.1,0,0.2,0.1,0.3,0.1l0.2,0l0.1,0l0.2,0c0.4,0.1,0.9,0.1,1.3,0.1c1.7-0.5,1.9-1,2.3-1.7
		c0.4-0.7,0.5-1.5,0.4-2.3c-0.1-0.8-0.5-1.6-1-2.1c-0.5-0.6-1.5-1-1.3-1.3c0-0.1,0-0.1,0-0.2l0,0l-0.1,0l-0.2-0.1
		c-0.1,0-0.2-0.1-0.3-0.1c-2.1-0.5-4.2,0.7-4.8,2.8C1735.9,39.7,1737.2,41.8,1739.3,42.4z"/>
	<path class="st0" d="M1806.3,38.4c2,0.7,4.3-0.4,5-2.4s-0.4-4.3-2.4-5c-2-0.7-4.3,0.4-5,2.4S1804.3,37.6,1806.3,38.4z"/>
	<path class="st0" d="M1872.9,55.2c1.7,0,3.1-1.4,3.2-3.1c0-1.7-1.4-3.1-3.1-3.2c-1.7,0-3.1,1.4-3.2,3.1
		C1869.8,53.7,1871.2,55.1,1872.9,55.2z"/>
	<path class="st0" d="M1939.8,43.1c1.5-0.8,2.2-2.6,1.4-4.2c-0.8-1.5-2.6-2.2-4.2-1.4c-1.5,0.8-2.2,2.6-1.4,4.2
		C1936.4,43.2,1938.3,43.8,1939.8,43.1z"/>
	<path class="st0" d="M2003,23.1c1.7-0.2,2.9-1.8,2.7-3.5c-0.2-1.7-1.8-2.9-3.5-2.7c-1.7,0.2-2.9,1.8-2.7,3.5
		C1999.7,22.1,2001.3,23.3,2003,23.1z"/>
	<path class="st0" d="M2070.5,22.3c1.7,0.1,3.2-1.2,3.3-2.9c0.1-1.7-1.2-3.2-2.9-3.3c-1.7-0.1-3.2,1.2-3.3,2.9
		C2067.4,20.7,2068.8,22.2,2070.5,22.3z"/>
	<path class="st0" d="M2138.6,13.2c0.3,0,0.5-0.1,0.7-0.2c0.1-0.1,0.2-0.1,0.3-0.2c0,0,0.1-0.1,0.1-0.1l0-0.1c0-0.2,0.1-0.6,0.3-1.1
		c0.2-0.5,0.6-0.9,0.8-1.6c0.2-0.6,0.3-1.3-0.1-2.2c-0.3-0.4-1-0.6-1.8-0.7l-0.3,0c-0.1,0-0.1,0-0.2,0c-0.1,0-0.2,0-0.4,0
		c-0.3,0-0.5,0-0.8,0c-1.7,0.3-2.8,2-2.5,3.7C2135.3,12.4,2136.9,13.5,2138.6,13.2z"/>
	<path class="st0" d="M2193.8,46.9c0.5,0.3,1.1,0.5,1.7,0.5l0.2,0c0.1,0,0.2,0,0.3,0c0.2,0,0.4,0,0.6,0c0.4,0,0.6-0.1,0.9-0.3
		c0.4-0.4,0.6-0.8,0.7-1.3s0.1-0.9,0.1-1.3c0-0.3,0.1-0.6,0.1-0.8c0-0.1,0-0.2,0.1-0.3c0-0.1,0-0.1,0-0.1l-0.1-0.2
		c-0.2-0.5-0.6-1-1.1-1.4c-1.4-1-3.4-0.6-4.3,0.9C2192,44,2192.3,46,2193.8,46.9z"/>
	<path class="st0" d="M1609,103.2c1.9-1.1,2.5-3.5,1.5-5.3c-1.1-1.9-3.5-2.5-5.3-1.5c-1.9,1.1-2.5,3.5-1.5,5.3
		C1604.7,103.6,1607.1,104.3,1609,103.2z"/>
	<path class="st0" d="M1676.1,86.2c-0.1-2.2-1.9-3.8-4-3.8c-2.2,0.1-3.8,1.9-3.8,4c0.1,2.2,1.9,3.8,4,3.8
		C1674.5,90.2,1676.2,88.4,1676.1,86.2z"/>
	<path class="st0" d="M1735.1,110.3c-1.9-1.1-4.3-0.4-5.3,1.4c-1.1,1.9-0.4,4.3,1.4,5.3c1.9,1.1,4.3,0.4,5.3-1.4
		C1737.6,113.8,1737,111.4,1735.1,110.3z"/>
	<path class="st0" d="M1793.4,91.7c1.8-1.1,2.4-3.6,1.2-5.4c-1.1-1.8-3.6-2.4-5.4-1.2c-1.8,1.1-2.4,3.6-1.2,5.4
		C1789.1,92.3,1791.5,92.8,1793.4,91.7z"/>
	<path class="st0" d="M1856,91.4c0.1,0.1,0.3,0.2,0.5,0.3c0.1,0,0.2,0.1,0.2,0.1c0,0,0,0,0,0.1c0,0,0,0,0,0c0.1,0,0.2,0.1,0.3,0.1
		c1.7,0.4,3.4-0.6,3.8-2.2c0.4-1.7-0.6-3.4-2.2-3.8c-0.1,0-0.2,0-0.3-0.1c-0.2,0-0.3-0.1-0.5-0.1c-0.2,0-0.4,0-0.5,0
		c-0.1,0-0.2,0-0.3,0.1c-0.2,0-0.3,0.1-0.5,0.2c-0.3,0.2-0.6,0.4-0.9,0.6c-0.5,0.5-0.8,1.2-0.9,1.9c-0.1,0.8,0.1,1.5,0.5,2.1
		C1855.5,91,1855.8,91.2,1856,91.4z"/>
	<path class="st0" d="M1923.5,108.4c1.7,0.3,3.4-0.8,3.7-2.5s-0.7-3.3-2.4-3.6c-1.7-0.3-3.4,0.8-3.7,2.5
		C1920.8,106.5,1921.8,108.1,1923.5,108.4z"/>
	<path class="st0" d="M1991.9,114c1.7-0.3,2.8-1.9,2.6-3.6c-0.3-1.7-1.9-2.8-3.6-2.6c-1.7,0.3-2.8,1.9-2.6,3.6
		C1988.6,113.1,1990.2,114.3,1991.9,114z"/>
	<path class="st0" d="M2057.8,94.7c1.6-0.7,2.3-2.6,1.5-4.1c-0.7-1.6-2.6-2.3-4.1-1.5c-1.6,0.7-2.3,2.6-1.5,4.1
		S2056.2,95.4,2057.8,94.7z"/>
	<path class="st0" d="M2119.6,91.5c1.7,0.5,3.4-0.5,3.9-2.1c0.5-1.7-0.5-3.4-2.1-3.9c-1.7-0.5-3.4,0.5-3.9,2.1
		C2117,89.3,2118,91,2119.6,91.5z"/>
	<path class="st0" d="M2185.3,110.5c1.7,0.5,3.4-0.5,3.9-2.1s-0.5-3.4-2.1-3.9s-3.4,0.5-3.9,2.1
		C2182.6,108.3,2183.6,110.1,2185.3,110.5z"/>
	<path class="st0" d="M1675.5,157c2-0.9,2.8-3.2,2-5.1s-3.2-2.8-5.1-2c-2,0.9-2.8,3.2-2,5.1C1671.3,157,1673.6,157.9,1675.5,157z"/>
	<path class="st0" d="M1741.5,150.1l0.2,0c0.1,0,0,0,0,0l0,0c0,0,0.1,0,0.1,0c0.1,0,0.2-0.1,0.3-0.1c0.2-0.1,0.4-0.2,0.6-0.3
		c0.4-0.2,0.7-0.5,1-0.8c0.6-0.6,0.9-1.5,1-2.4c0-0.9-0.2-1.8-0.7-2.5c-0.2-0.3-0.6-0.6-0.9-0.9c-0.2-0.1-0.4-0.2-0.6-0.3
		c-0.1,0-0.2-0.1-0.3-0.1c-0.1,0-0.1,0-0.2-0.1l-0.3-0.1l-0.4,0l-0.2,0c-0.2,0-0.3,0-0.5,0c-2.1,0.1-3.8,1.9-3.7,4
		c0.1,2.1,1.9,3.8,4,3.7C1741.2,150.2,1741.4,150.1,1741.5,150.1z"/>
	<path class="st0" d="M1812,153.6c0.7-2-0.3-4.2-2.4-5c-2-0.7-4.2,0.3-5,2.4c-0.7,2,0.3,4.2,2.4,5
		C1809.1,156.7,1811.3,155.6,1812,153.6z"/>
	<path class="st0" d="M1872.9,164.4c-1.7,0.2-2.9,1.8-2.7,3.5c0.2,1.7,1.8,2.9,3.5,2.7c1.7-0.2,2.9-1.8,2.7-3.5
		C1876.2,165.4,1874.6,164.2,1872.9,164.4z"/>
	<path class="st0" d="M1940.2,170c-1.6-0.7-3.4,0.1-4.1,1.7c-0.7,1.6,0.1,3.4,1.7,4.1c1.6,0.7,3.4-0.1,4.1-1.7
		C1942.6,172.4,1941.8,170.6,1940.2,170z"/>
	<path class="st0" d="M2002.9,175.4c-1.7,0.4-2.7,2.1-2.3,3.7c0.4,1.7,2.1,2.7,3.7,2.3c1.7-0.4,2.7-2.1,2.3-3.7
		C2006.2,176,2004.5,175,2002.9,175.4z"/>
	<path class="st0" d="M2070.3,164.8c-1.7,0.2-2.9,1.7-2.8,3.4c0.2,1.7,1.7,2.9,3.4,2.7c1.7-0.2,2.9-1.7,2.8-3.4
		C2073.6,165.8,2072,164.6,2070.3,164.8z"/>
	<path class="st0" d="M2136.1,149.7c1.6-0.6,2.4-2.4,1.8-4c-0.6-1.6-2.4-2.4-4-1.7c-1.6,0.6-2.4,2.4-1.7,4
		C2132.7,149.5,2134.5,150.3,2136.1,149.7z"/>
	<path class="st0" d="M2199.8,156.6c-0.4,0.1-0.8,0.2-1.1,0.4c-0.7,0.4-1.2,1-1.5,1.9c-0.2,0.8-0.1,1.7,0.3,2.4
		c0.2,0.3,0.5,0.7,0.8,0.9c0.2,0.1,0.3,0.2,0.5,0.3c0.1,0,0.2,0.1,0.3,0.1c0.1,0,0.2,0.1,0.2,0.1c0,0,0.1,0,0.2,0.1
		c0.1,0,0.2,0,0.3,0.1c0.1,0,0.2,0,0.3,0v-6.2C2199.9,156.6,2199.8,156.6,2199.8,156.6z"/>
	<path class="st0" d="M1635,232.4c-2.2,0.2-3.8,2.1-3.6,4.2c0.2,2.2,2.1,3.8,4.2,3.6c2.2-0.2,3.8-2.1,3.6-4.2
		C1639,233.9,1637.1,232.3,1635,232.4z"/>
	<path class="st0" d="M1702.8,224.1c-2.1,0.5-3.4,2.7-2.9,4.8c0.5,2.1,2.7,3.4,4.8,2.9c2.1-0.5,3.4-2.7,2.9-4.8
		C1707,224.8,1704.9,223.5,1702.8,224.1z"/>
	<path class="st0" d="M1771.3,212.3c-2.2,0.2-3.8,2-3.7,4.2c0.2,2.2,2,3.8,4.2,3.7c2.2-0.2,3.8-2,3.7-4.2
		C1775.4,213.8,1773.5,212.1,1771.3,212.3z"/>
	<path class="st0" d="M1840.1,222.2c-1.7-0.5-3.4,0.5-3.9,2.2c-0.5,1.7,0.5,3.4,2.2,3.9c1.7,0.5,3.4-0.5,3.9-2.2
		C1842.7,224.4,1841.7,222.6,1840.1,222.2z"/>
	<path class="st0" d="M1905.3,214.3c-1.7,0.4-2.7,2.2-2.3,3.9c0.4,1.7,2.2,2.7,3.9,2.3c1.7-0.4,2.7-2.2,2.3-3.9
		C1908.7,214.8,1907,213.8,1905.3,214.3z"/>
	<path class="st0" d="M1971.5,243.2c0.5-0.4,0.8-1,1-1.7c0.1-0.7,0.1-1.4-0.2-1.9c-0.1-0.3-0.3-0.6-0.5-0.8
		c-0.1-0.1-0.2-0.2-0.3-0.3l-0.1-0.1c0,0,0,0,0-0.1l0-0.1c0-0.1,0.1-0.1-0.1-0.2c-0.1-0.1-0.3-0.2-0.5-0.3c-1.6-0.7-3.5,0-4.2,1.6
		c-0.7,1.6,0,3.5,1.6,4.2c0.2,0.1,0.3,0.1,0.5,0.2c0.1,0,0.5,0.2,0.8,0.2l0.5,0c0.1,0,0.2,0,0.2,0l0.1,0c0.2,0,0.3-0.1,0.5-0.2
		C1970.9,243.6,1971.2,243.4,1971.5,243.2z"/>
	<path class="st0" d="M2037.6,254.2c1.6-0.6,2.5-2.4,1.9-4c-0.6-1.6-2.4-2.5-4-1.9c-1.6,0.6-2.5,2.4-1.9,4
		C2034.2,253.9,2036,254.8,2037.6,254.2z"/>
	<path class="st0" d="M2106,234c0-1.7-1.4-3.2-3.2-3.2c-1.7,0-3.2,1.4-3.2,3.2s1.4,3.2,3.2,3.2C2104.5,237.2,2106,235.7,2106,234z"
		/>
	<path class="st0" d="M2175.1,234.6c0-1.7-1.4-3.2-3.1-3.2c-1.7,0-3.2,1.4-3.2,3.1c0,1.7,1.4,3.2,3.1,3.2
		C2173.7,237.7,2175.1,236.3,2175.1,234.6z"/>
	<path class="st0" d="M1618.2,281.2c-2.1,0.6-3.3,2.7-2.8,4.8c0.5,2.1,2.7,3.4,4.8,2.8c2.1-0.6,3.4-2.7,2.8-4.8
		C1622.4,281.9,1620.3,280.7,1618.2,281.2z"/>
	<path class="st0" d="M1567.2,247.2c-2.1,0.6-3.3,2.7-2.8,4.8c0.5,2.1,2.7,3.4,4.8,2.8c2.1-0.6,3.4-2.7,2.8-4.8
		C1571.4,247.9,1569.3,246.7,1567.2,247.2z"/>
	<path class="st0" d="M1687.2,285.4c-0.3,0-0.5,0.1-0.8,0.1c-0.1,0-0.2,0.1-0.4,0.1c0,0,0,0.1,0,0.1l0,0.1c0,0-0.1,0.1-0.2,0.1
		c-0.2,0.1-0.3,0.2-0.5,0.3c-0.3,0.2-0.6,0.5-0.9,0.7c-0.5,0.6-0.8,1.3-0.9,2.1c-0.1,0.8,0.1,1.6,0.4,2.3c0.2,0.3,0.4,0.7,0.7,0.9
		c0.1,0.1,0.3,0.3,0.4,0.4c0.1,0.1,0.1,0.1,0.3,0.2l0.5,0.2l0.7,0.1c0.1,0,0.2,0.1,0.4,0.1c0.2,0,0.5,0,0.8,0c2.2-0.1,3.8-2,3.7-4.1
		C1691.2,286.9,1689.4,285.3,1687.2,285.4z"/>
	<path class="st0" d="M1756.7,285.7c-2.1-0.5-4.2,0.9-4.7,3c-0.5,2.1,0.9,4.2,3,4.7c2.1,0.5,4.2-0.9,4.7-3
		C1760.2,288.3,1758.9,286.2,1756.7,285.7z"/>
	<path class="st0" d="M1821.5,288.8c-1.7,0.5-2.5,2.3-2,4c0.5,1.7,2.3,2.5,4,2c1.7-0.5,2.5-2.3,2-4
		C1824.9,289.1,1823.1,288.2,1821.5,288.8z"/>
	<path class="st0" d="M1889.7,281.2c-1.7-0.2-3.3,1-3.5,2.7c-0.2,1.7,1,3.3,2.7,3.5c1.7,0.2,3.3-1,3.5-2.7
		C1892.6,283,1891.4,281.4,1889.7,281.2z"/>
	<path class="st0" d="M1956.8,298c-1.7-0.5-3.4,0.4-4,2c-0.5,1.7,0.4,3.4,2,4c1.7,0.5,3.4-0.4,4-2
		C1959.4,300.3,1958.4,298.6,1956.8,298z"/>
	<path class="st0" d="M2026.1,298.2c-0.2-0.2-0.6-0.3-0.7-0.4c-0.2-0.1-0.4-0.2-0.6-0.3c-0.5-0.2-0.9-0.2-1.5-0.2
		c-1.7,0.2-3,1.7-2.8,3.5c0.2,1.7,1.7,3,3.5,2.8c0.5-0.1,1-0.2,1.4-0.5c0.2-0.1,0.4-0.3,0.5-0.5c0.2-0.2,0.1-0.3,0.2-0.5
		c0.1-0.3,0.2-0.5,0.4-0.8c0.1-0.3,0.2-0.6,0.3-1c0-0.4,0-0.7-0.1-1C2026.6,298.8,2026.4,298.5,2026.1,298.2z"/>
	<path class="st0" d="M2092.5,303.2c-1.7-0.2-3.3,1-3.5,2.7c-0.2,1.7,1,3.3,2.8,3.5c1.7,0.2,3.3-1,3.5-2.7
		C2095.5,305,2094.2,303.5,2092.5,303.2z"/>
	<path class="st0" d="M2160.7,310.1c-1.7-0.1-3.2,1.3-3.2,3.1c-0.1,1.7,1.3,3.2,3.1,3.2c1.7,0.1,3.2-1.3,3.2-3.1
		C2163.8,311.6,2162.5,310.2,2160.7,310.1z"/>
	<path class="st0" d="M1593.4,385c-2.1,0-3.9,1.8-3.8,3.9c0,2.1,1.8,3.9,3.9,3.8c2.1,0,3.9-1.8,3.8-3.9
		C1597.3,386.7,1595.5,385,1593.4,385z"/>
	<path class="st0" d="M1657.5,372.6c-2,0.8-3,3-2.2,5c0.8,2,3,3,5,2.2c2-0.8,3-3,2.2-5C1661.8,372.8,1659.5,371.8,1657.5,372.6z"/>
	<path class="st0" d="M1725.1,366.5c-2.1-0.2-4.1,1.3-4.3,3.4c-0.2,2.1,1.3,4.1,3.4,4.3c2.1,0.2,4.1-1.3,4.3-3.4
		C1728.7,368.6,1727.2,366.7,1725.1,366.5z"/>
	<path class="st0" d="M1792.4,367.5c2.1-0.4,3.5-2.4,3.1-4.5c-0.4-2.1-2.4-3.5-4.5-3.1c-2.1,0.4-3.5,2.4-3.1,4.5
		C1788.2,366.4,1790.2,367.8,1792.4,367.5z"/>
	<path class="st0" d="M1859,383.1c0.4-0.6,0.6-1.4,0.5-2.2c-0.1-0.8-0.6-1.5-1.2-1.9c-0.5-0.4-1.5-0.6-1.5-0.7c0,0,0,0,0,0
		c-0.2,0-0.4,0-0.6,0c-0.4,0-0.8,0.1-1.1,0.3c-0.7,0.4-1.3,1-1.6,1.8c-0.3,0.8-0.2,1.7,0.2,2.4c0.2,0.4,0.4,0.7,0.7,0.9
		c0.2,0.1,0.3,0.3,0.5,0.4c0.3,0.1,0.7,0.3,1.1,0.4c0.1,0,0.3,0.1,0.4,0.1C1858.3,384.1,1858.5,383.7,1859,383.1z"/>
	<path class="st0" d="M1857.2,375.1C1857.2,375.1,1857.2,375.1,1857.2,375.1C1857.2,375.1,1857.2,375.1,1857.2,375.1L1857.2,375.1z"
		/>
	<path class="st0" d="M1923.9,370.2c1.6-0.7,2.3-2.5,1.6-4.1c-0.7-1.6-2.5-2.3-4.1-1.6c-1.6,0.7-2.3,2.5-1.6,4.1
		C1920.5,370.2,1922.3,370.9,1923.9,370.2z"/>
	<path class="st0" d="M1987.9,351.9c0.6-1.6-0.2-3.4-1.8-4c-1.6-0.6-3.4,0.2-4,1.8c-0.6,1.6,0.2,3.4,1.8,4
		C1985.5,354.3,1987.2,353.5,1987.9,351.9z"/>
	<path class="st0" d="M2049.8,370.7c1.7,0,3.1-1.3,3.1-3.1c0-1.7-1.3-3.1-3.1-3.1c-1.7,0-3.1,1.3-3.1,3.1
		C2046.7,369.2,2048.1,370.6,2049.8,370.7z"/>
	<path class="st0" d="M2120.8,365.1c-0.1-1.7-1.7-3-3.4-2.8c-1.7,0.1-3,1.6-2.8,3.4c0.1,1.7,1.7,3,3.4,2.8
		C2119.6,368.3,2120.9,366.8,2120.8,365.1z"/>
	<path class="st0" d="M2185.6,362.6c1.7-0.1,3-1.7,2.8-3.4c-0.1-1.7-1.7-3-3.4-2.8c-1.7,0.1-3,1.7-2.8,3.4
		C2182.4,361.5,2183.9,362.7,2185.6,362.6z"/>
	<path class="st0" d="M1612.9,429c2-0.7,3.1-2.9,2.4-4.9c-0.7-2-2.9-3.1-4.9-2.4c-2,0.7-3.1,2.9-2.4,4.9
		C1608.7,428.7,1610.9,429.7,1612.9,429z"/>
	<path class="st0" d="M1674.1,424.6c-0.2,2.1,1.3,4,3.4,4.2c2.1,0.2,4-1.3,4.2-3.4c0.2-2.1-1.3-4-3.4-4.2
		C1676.2,420.9,1674.3,422.4,1674.1,424.6z"/>
	<path class="st0" d="M1741.2,431.5c-0.2,2.1,1.3,4,3.4,4.2c2.1,0.2,4-1.3,4.2-3.4c0.2-2.1-1.3-4-3.4-4.2
		C1743.4,427.8,1741.5,429.3,1741.2,431.5z"/>
	<path class="st0" d="M1811,430.8c-2.1,0.5-3.3,2.6-2.8,4.7c0.5,2.1,2.6,3.3,4.7,2.8c2.1-0.5,3.3-2.6,2.8-4.7
		C1815.1,431.5,1813,430.3,1811,430.8z"/>
	<path class="st0" d="M1874.1,423.7c-0.1,2.1,1.6,3.9,3.8,4c2.1,0.1,3.9-1.6,4-3.8c0.1-2.1-1.6-3.9-3.8-4
		C1876,419.9,1874.2,421.5,1874.1,423.7z"/>
	<path class="st0" d="M1940.6,432.3c-0.6,2.1,0.6,4.2,2.7,4.8c2.1,0.6,4.2-0.6,4.8-2.7c0.6-2.1-0.6-4.2-2.7-4.8
		C1943.3,429,1941.2,430.2,1940.6,432.3z"/>
	<path class="st0" d="M2010.3,433.3c-2.1,0.2-3.7,2.1-3.5,4.2c0.2,2.1,2,3.7,4.2,3.5c2.1-0.2,3.7-2.1,3.5-4.2
		C2014.3,434.7,2012.4,433.1,2010.3,433.3z"/>
	<path class="st0" d="M2077.7,428.4c-2.1,0.1-3.7,2-3.6,4.1c0.1,2.1,2,3.7,4.1,3.6c2.1-0.1,3.7-2,3.6-4.1
		C2081.7,429.9,2079.8,428.3,2077.7,428.4z"/>
	<path class="st0" d="M2144.5,429c-0.5,0.1-1.3,0.4-1.1,0.6c0,0.1,0,0.2-0.1,0.3c-0.1,0.1-0.3,0.2-0.4,0.3c-0.3,0.2-0.5,0.5-0.7,0.8
		c-0.4,0.6-0.7,1.3-0.7,2.1c0,0.8,0.2,1.5,0.6,2.1c0.2,0.3,0.4,0.6,0.7,0.8c0.1,0.1,0.3,0.2,0.4,0.3c0.3,0.1,0.6,0.2,0.9,0.3
		c1.2,0,1.5,0,2.1-0.1c2.1-0.5,3.4-2.6,2.9-4.6C2148.7,429.8,2146.6,428.5,2144.5,429z"/>
	<path class="st0" d="M1585.2,486.4c-2-0.8-4.2,0.2-5,2.2c-0.8,2,0.2,4.2,2.2,5c2,0.8,4.2-0.2,5-2.2
		C1588.2,489.4,1587.2,487.1,1585.2,486.4z"/>
	<path class="st0" d="M1648.5,501.8c-2.1,0.1-3.8,1.9-3.7,4.1c0.1,2.1,1.9,3.8,4.1,3.7c2.1-0.1,3.8-1.9,3.7-4.1
		C1652.4,503.3,1650.6,501.6,1648.5,501.8z"/>
	<path class="st0" d="M1720.4,502.2c-0.1-2.1-1.9-3.8-4.1-3.7c-2.1,0.1-3.8,1.9-3.7,4s1.9,3.8,4.1,3.7
		C1718.8,506.2,1720.5,504.3,1720.4,502.2z"/>
	<path class="st0" d="M1784.4,504.3c-2.1-0.4-4.1,1.1-4.5,3.2c-0.4,2.1,1.1,4.1,3.2,4.5c2.1,0.4,4.1-1.1,4.5-3.2
		C1788,506.7,1786.5,504.7,1784.4,504.3z"/>
	<path class="st0" d="M1854.3,507.8c-0.2-0.2-0.5-0.5-0.8-0.6c-0.6-0.4-1.3-0.6-2-0.6c-2.1,0-3.9,1.8-3.9,3.9c0,2.1,1.8,3.9,3.9,3.9
		c0.7,0,1.4-0.2,2-0.6c0.3-0.2,0.6-0.4,0.8-0.6c0.3-0.2,0.3-0.5,0.4-0.8c0.2-0.5,0.5-1.1,0.6-1.8c0.1-0.7,0.1-1.3-0.3-1.9
		C1854.9,508.3,1854.5,508,1854.3,507.8z"/>
	<path class="st0" d="M1921,516.9c-1.2-1.8-3.6-2.2-5.4-1.1c-0.2,0.2-0.4,0.3-0.6,0.5c-0.1,0.1-0.2,0.2-0.3,0.3l0,0.1
		c0.1,0.2,0.1,0.5,0.1,1c0,0.7-0.4,1.6-0.5,2.7c-0.1,1.1,0.4,2.1,1.7,3.1c0.6,0,1.3-0.1,2.2-0.4c0.2-0.1,0.4-0.2,0.6-0.3
		c0.1,0,0.2-0.1,0.4-0.1c0.2-0.1,0.5-0.2,0.7-0.4C1921.7,521.1,1922.2,518.7,1921,516.9z"/>
	<path class="st0" d="M1975.4,479.9l-0.3-0.1l-0.5-0.1c-0.4-0.1-0.7-0.1-1-0.2c-0.7-0.1-1.3-0.1-1.7-0.1c-0.8,0.9-1.3,1.8-1.4,2.6
		c-0.1,0.8,0.1,1.4,0.4,2c0.4,0.6,0.9,1,1.3,1.4c0.4,0.4,0.7,0.8,0.8,1.1c0.1,0.2,0.1,0.4,0.1,0.5c0,0.1,0,0.1,0,0.1l0,0
		c0,0,0.1,0.1,0.2,0.1c2.1,0.6,4.2-0.6,4.8-2.6C1978.6,482.7,1977.5,480.6,1975.4,479.9z"/>
	<path class="st0" d="M2040.1,496.8c-2.1-0.1-4,1.5-4.1,3.6c-0.2,2.1,1.5,4,3.6,4.1c2.1,0.1,4-1.5,4.1-3.6
		C2043.9,498.8,2042.3,496.9,2040.1,496.8z"/>
	<path class="st0" d="M2107.9,502.1c-2.1-0.2-4,1.4-4.2,3.5c-0.2,2.1,1.4,4,3.5,4.2c2.1,0.2,4-1.4,4.2-3.5
		C2111.6,504.2,2110,502.3,2107.9,502.1z"/>
	<path class="st0" d="M2178.1,518.3c0.5-2.1-0.7-4.2-2.8-4.7c-2.1-0.5-4.2,0.7-4.7,2.8c-0.5,2.1,0.7,4.2,2.8,4.7
		C2175.4,521.6,2177.5,520.4,2178.1,518.3z"/>
	<path class="st0" d="M1476.5,27.5c2.7-0.3,4.6-2.7,4.3-5.4c-0.3-2.7-2.7-4.6-5.4-4.3c-2.7,0.3-4.6,2.7-4.3,5.4
		C1471.4,25.8,1473.8,27.8,1476.5,27.5z"/>
	<path class="st0" d="M1541.8,30.9c2.6,0.7,5.3-0.9,5.9-3.5c0.7-2.6-0.9-5.3-3.5-5.9c-2.6-0.7-5.3,0.9-5.9,3.5
		C1537.6,27.6,1539.2,30.3,1541.8,30.9z"/>
	<path class="st0" d="M1415.7,40.8c-1-2.5-3.8-3.7-6.3-2.7c-2.5,1-3.7,3.8-2.7,6.3c1,2.5,3.8,3.7,6.3,2.7
		C1415.4,46.1,1416.7,43.3,1415.7,40.8z"/>
	<path class="st0" d="M1480.7,90.2c-2.7-0.2-5,1.8-5.3,4.5c-0.2,2.7,1.8,5,4.5,5.3c2.7,0.2,5-1.8,5.3-4.5
		C1485.4,92.8,1483.4,90.4,1480.7,90.2z"/>
	<path class="st0" d="M1550.6,112.6c1-2.5-0.2-5.3-2.7-6.3c-2.5-1-5.3,0.2-6.3,2.7c-1,2.5,0.2,5.3,2.7,6.3
		C1546.8,116.4,1549.6,115.1,1550.6,112.6z"/>
	<path class="st0" d="M1418.1,115.8c2.5-1.1,3.5-4,2.4-6.5c-1.1-2.5-4-3.5-6.5-2.4c-2.5,1.1-3.5,4-2.4,6.5
		C1412.7,115.8,1415.6,116.9,1418.1,115.8z"/>
	<path class="st0" d="M1493.7,179.6c0-2.7-2.2-4.8-4.9-4.8c-2.7,0-4.8,2.2-4.8,4.9c0,2.7,2.2,4.8,4.9,4.8
		C1491.6,184.5,1493.7,182.3,1493.7,179.6z"/>
	<path class="st0" d="M1553.6,162.2c2.3-1.3,3.1-4.3,1.8-6.6c-1.3-2.3-4.3-3.1-6.6-1.8c-2.3,1.3-3.1,4.3-1.8,6.6
		C1548.3,162.7,1551.3,163.5,1553.6,162.2z"/>
	<path class="st0" d="M1420.8,175.6c-2.7,0-4.8,2.3-4.8,4.9c0,2.7,2.2,4.8,4.9,4.8c2.7,0,4.8-2.3,4.8-4.9
		C1425.6,177.7,1423.4,175.5,1420.8,175.6z"/>
	<path class="st0" d="M1457.1,247.8c-0.3-0.1-1.9,0.3-1.9,0.3l-0.2,0.1c-1.2,0.3-2.2,1.1-2.9,2.3c-0.7,1.2-0.8,2.5-0.5,3.7l0.1,0.2
		c0,0.1,0.1,0.2,0.2,0.3c0.1,0.2,0.3,0.4,0.4,0.6c0.3,0.4,0.7,0.8,1.1,1.2c0,0,0,0,0,0c1.7,1.5,4.4,1.4,6-0.2
		c0.1-0.1,0.2-0.2,0.3-0.3c0.4-0.5,0.8-0.9,1.1-1.3c0.4-0.5,0.3-0.7,0.4-1c0.2-1.2-0.1-2.6-0.9-3.7
		C1459.5,248.7,1458.4,248,1457.1,247.8z"/>
	<path class="st0" d="M1468,313.6c-2.7,0.5-4.4,3-4,5.7c0.5,2.7,3,4.5,5.7,4c2.7-0.5,4.5-3,4-5.7
		C1473.2,314.9,1470.7,313.1,1468,313.6z"/>
	<path class="st0" d="M1551.3,297.2c-2.6,0.6-4.3,3.2-3.7,5.9c0.6,2.7,3.2,4.3,5.9,3.7c2.7-0.6,4.3-3.2,3.7-5.9
		S1554,296.6,1551.3,297.2z"/>
	<path class="st0" d="M1516.3,260.2c-2.6,0.6-4.3,3.2-3.7,5.9c0.6,2.7,3.2,4.3,5.9,3.7c2.7-0.6,4.3-3.2,3.7-5.9
		S1519,259.6,1516.3,260.2z"/>
	<path class="st0" d="M1516.3,207.2c-2.6,0.6-4.3,3.2-3.7,5.9c0.6,2.7,3.2,4.3,5.9,3.7c2.7-0.6,4.3-3.2,3.7-5.9
		S1519,206.6,1516.3,207.2z"/>
	<path class="st0" d="M1490.7,366.8c-2.1,1.6-2.5,4.7-0.8,6.8s4.7,2.5,6.8,0.8c2.1-1.6,2.5-4.7,0.8-6.8
		C1495.9,365.5,1492.8,365.2,1490.7,366.8z"/>
	<path class="st0" d="M1538.4,365c1.6-2.1,1.2-5.2-1-6.8c-2.1-1.6-5.2-1.2-6.8,1c-1.6,2.1-1.2,5.2,1,6.8
		C1533.8,367.5,1536.8,367.1,1538.4,365z"/>
	<path class="st0" d="M1541.2,433.8c-2.6-0.6-5.2,1.1-5.8,3.7c-0.6,2.6,1.1,5.2,3.7,5.8c2.6,0.6,5.2-1.1,5.8-3.7
		C1545.4,437,1543.8,434.4,1541.2,433.8z"/>
	<path class="st0" d="M1614.5,546.1c-2.7-0.1-5,2-5.1,4.7c-0.1,2.7,2,5,4.7,5.1c2.7,0.1,5-2,5.1-4.7
		C1619.3,548.5,1617.2,546.2,1614.5,546.1z"/>
	<path class="st0" d="M1680.1,570.4c-2.5-1.1-5.4-0.1-6.5,2.4c-1.1,2.5-0.1,5.4,2.4,6.5c2.5,1.1,5.4,0.1,6.5-2.4
		C1683.6,574.5,1682.5,571.6,1680.1,570.4z"/>
	<path class="st0" d="M1745.3,582.2c-0.5,0-0.9,0.1-1.3,0.2c-0.2,0.1-0.4,0.1-0.6,0.2c0,0-0.1,0-0.1,0.1l0,0.1l0,0.2
		c-0.1,0.1,0,0.2-0.2,0.3c-0.2,0.1-0.4,0.2-0.5,0.3c-0.3,0.2-0.6,0.5-0.9,0.9c-0.5,0.7-0.9,1.4-1,2.3c-0.1,0.9,0,1.8,0.3,2.5
		c0.2,0.4,0.4,0.8,0.6,1.1c0.1,0.2,0.3,0.3,0.4,0.5c0.1,0.2,0.5,0.3,0.8,0.5l0.5,0.1l0.3,0.1c0.1,0,0.1,0,0.2,0.1
		c0.2,0.1,0.4,0.1,0.6,0.2c0.4,0.1,0.9,0.2,1.3,0.2c2.7-0.1,4.9-2.3,4.8-5C1750.3,584.3,1748.1,582.1,1745.3,582.2z"/>
	<path class="st0" d="M1809.2,573.7c-2.3,1.5-2.9,4.5-1.4,6.8c1.5,2.3,4.5,2.9,6.8,1.4c2.3-1.5,2.9-4.5,1.4-6.8
		C1814.5,572.9,1811.5,572.3,1809.2,573.7z"/>
	<path class="st0" d="M1875.7,555.5c0.9-2.6-0.4-5.4-2.9-6.3c-2.6-0.9-5.4,0.4-6.3,2.9c-0.9,2.6,0.4,5.4,2.9,6.3
		C1872,559.4,1874.8,558,1875.7,555.5z"/>
	<path class="st0" d="M1937.1,574.8c2.7,0,5-2.1,5-4.8c0-2.7-2.1-5-4.8-5c-2.7,0-5,2.1-5,4.8
		C1932.3,572.5,1934.4,574.8,1937.1,574.8z"/>
	<path class="st0" d="M2006.4,571.3c-2.7-0.4-5.2,1.4-5.7,4.1c-0.4,2.7,1.4,5.2,4.1,5.7c2.7,0.4,5.2-1.4,5.7-4.1
		C2010.9,574.3,2009.1,571.8,2006.4,571.3z"/>
	<path class="st0" d="M2070.9,562.3c2.4-1.3,3.3-4.3,1.9-6.7c-1.3-2.4-4.3-3.3-6.7-1.9c-2.4,1.3-3.3,4.3-1.9,6.7
		C2065.5,562.7,2068.5,563.6,2070.9,562.3z"/>
	<path class="st0" d="M2139.8,552.4c0.2-2.7-1.8-5.1-4.6-5.3c-2.7-0.2-5.1,1.8-5.3,4.6c-0.2,2.7,1.8,5.1,4.6,5.3
		C2137.2,557.2,2139.6,555.1,2139.8,552.4z"/>
	<path class="st0" d="M2199.3,550.2c-0.4,0.7-0.6,1.5-0.6,2.3c0,0.8,0.2,1.6,0.6,2.3c0.2,0.3,0.4,0.6,0.7,0.9v-6.5c0,0,0,0,0,0
		C2199.7,549.5,2199.5,549.8,2199.3,550.2z"/>
	<path class="st0" d="M1799,644.2c-0.1-0.1-0.2-0.2-0.3-0.3l-0.1-0.3c-0.1-0.1,0-0.3-0.2-0.4c-0.1-0.1-0.2-0.2-0.4-0.4
		c-0.3-0.2-0.6-0.4-0.9-0.6c-0.6-0.3-1.3-0.5-2.1-0.5c-2.7-0.1-5,2-5.1,4.7c-0.1,2.7,2,5,4.7,5.1c0.7,0,1.5-0.1,2.1-0.4
		c0.3-0.1,0.6-0.3,0.9-0.5c0.1-0.1,0.3-0.2,0.4-0.3c0.1-0.1,0.4-0.2,0.5-0.4c0.2-0.1,0.3-0.2,0.4-0.4c0.1-0.1,0.1-0.2,0.2-0.4
		c0.1-0.3,0.2-0.5,0.3-0.8c0.2-0.6,0.2-1.1,0.2-1.8c0-0.6-0.2-1.2-0.4-1.7C1799.3,644.6,1799.1,644.4,1799,644.2z"/>
	<path class="st0" d="M1860.6,635.4c-1.2,0.6-2.1,1.6-2.5,2.8c-0.5,1.2-0.2,2.4,0.2,3.7c0.4,1.3,1.7,2,2.8,2.5
		c1.2,0.4,2.5,0.4,3.7-0.2c2.4-1.2,3.4-4.1,2.2-6.6C1866,635.2,1863.1,634.2,1860.6,635.4z"/>
	<path class="st0" d="M1930.5,615.9c0.2-2.7-1.8-5.1-4.5-5.3c-2.7-0.2-5.1,1.8-5.3,4.5c-0.2,2.7,1.8,5.1,4.5,5.3
		C1928,620.6,1930.3,618.6,1930.5,615.9z"/>
	<path class="st0" d="M1994,624.5c-2.4-1.2-5.4-0.2-6.6,2.3c-1.2,2.4-0.2,5.4,2.3,6.6c2.4,1.2,5.4,0.2,6.6-2.3
		C1997.5,628.6,1996.5,625.7,1994,624.5z"/>
	<path class="st0" d="M1941.2,651c-6-2.9-13.3-0.4-16.2,5.6c-2.9,6-0.4,13.3,5.6,16.2c6,2.9,13.3,0.4,16.2-5.6
		C1949.7,661.2,1947.2,653.9,1941.2,651z"/>
	<path class="st0" d="M2053.8,633.7c-2.6,0.8-4,3.6-3.2,6.1c0.8,2.6,3.6,4,6.1,3.2c2.6-0.8,4-3.6,3.2-6.1
		C2059.1,634.3,2056.4,632.9,2053.8,633.7z"/>
	<path class="st0" d="M2122.8,628.7c-2.7-0.3-5.1,1.6-5.5,4.2c-0.3,2.7,1.6,5.1,4.2,5.5c2.7,0.3,5.1-1.6,5.5-4.2
		C2127.4,631.5,2125.5,629.1,2122.8,628.7z"/>
	<path class="st0" d="M2184.3,633.9c2.5,1,5.4-0.3,6.3-2.8c1-2.5-0.3-5.4-2.8-6.3c-2.5-1-5.4,0.3-6.3,2.8
		C2180.5,630.1,2181.7,632.9,2184.3,633.9z"/>
	<path class="st0" d="M1880.4,697.1c-2.4-1.2-5.3-0.2-6.5,2.2c-1.2,2.4-0.2,5.3,2.2,6.5c2.4,1.2,5.3,0.2,6.5-2.2
		C1883.8,701.2,1882.8,698.3,1880.4,697.1z"/>
	<path class="st0" d="M1723.4,624.1c-2.4-1.2-5.3-0.2-6.5,2.2c-1.2,2.4-0.2,5.3,2.2,6.5c2.4,1.2,5.3,0.2,6.5-2.2
		C1726.8,628.2,1725.8,625.3,1723.4,624.1z"/>
	<path class="st0" d="M1948.5,707.2c-2.4,1.3-3.2,4.3-1.9,6.6s4.3,3.2,6.6,1.9c2.4-1.3,3.2-4.3,1.9-6.6
		C1953.8,706.7,1950.9,705.9,1948.5,707.2z"/>
	<path class="st0" d="M2046.5,719.2c-2.4,1.3-3.2,4.3-1.9,6.6s4.3,3.2,6.6,1.9c2.4-1.3,3.2-4.3,1.9-6.6
		C2051.8,718.7,2048.9,717.9,2046.5,719.2z"/>
	<path class="st0" d="M2119.5,719.2c-2.4,1.3-3.2,4.3-1.9,6.6s4.3,3.2,6.6,1.9c2.4-1.3,3.2-4.3,1.9-6.6
		C2124.8,718.7,2121.9,717.9,2119.5,719.2z"/>
	<path class="st0" d="M2002.9,686.5c-2.7-0.3-5.1,1.6-5.4,4.3c-0.3,2.7,1.6,5.1,4.3,5.4c2.7,0.3,5.1-1.6,5.4-4.3
		C2007.5,689.2,2005.6,686.8,2002.9,686.5z"/>
	<path class="st0" d="M2069.1,682.5c-2.7,0.5-4.4,3-4,5.6s3,4.4,5.6,4c2.7-0.5,4.4-3,4-5.6C2074.2,683.9,2071.7,682.1,2069.1,682.5z
		"/>
	<path class="st0" d="M2141.9,688.1c-0.1-0.2-0.2-0.4-0.3-0.5c-0.3-0.3-0.6-0.7-0.9-0.9c-0.7-0.5-1.5-0.9-2.4-1
		c-2.7-0.3-5.1,1.6-5.4,4.3c-0.3,2.7,1.6,5.1,4.3,5.4c0.9,0.1,1.8-0.1,2.6-0.4c0.4-0.2,0.8-0.4,1.1-0.7c0.2-0.1,0.3-0.3,0.5-0.5
		c0.1-0.2,0.2-0.3,0.2-0.5c0.3-0.6,0.8-1.3,1-2.1c0.2-0.8,0.3-1.6-0.2-2.4C2142.2,688.5,2142,688.3,2141.9,688.1z"/>
	<path class="st0" d="M2178.5,682.3c-9.9,12.9-7.4,31.3,5.5,41.2c4.8,3.7,10.4,5.6,16,6v-58.6
		C2191.8,671.3,2183.9,675.3,2178.5,682.3z"/>
	<path class="st0" d="M1627.5,152.3c-12-9.2-29.3-6.9-38.5,5.1c-9.2,12-6.9,29.3,5.1,38.5c12,9.2,29.3,6.9,38.5-5.1
		C1641.9,178.8,1639.6,161.5,1627.5,152.3z"/>
	<path class="st0" d="M37,9.2c1-0.5,1.5-1.7,1-2.7c-0.5-1-1.7-1.5-2.7-1s-1.5,1.7-1,2.7C34.8,9.2,36,9.6,37,9.2z"/>
	<path class="st0" d="M78.9,9.5c0.4-1-0.1-2.2-1.1-2.6c-1-0.4-2.2,0.1-2.6,1.1c-0.4,1,0.1,2.2,1.1,2.6C77.3,11,78.5,10.5,78.9,9.5z"
		/>
	<path class="st0" d="M114.7,0.2c0.6,1,1.8,1.3,2.8,0.8c0.4-0.2,0.7-0.6,0.9-1h-3.7C114.7,0.1,114.7,0.1,114.7,0.2z"/>
	<path class="st0" d="M153.8,11.7c1,0.6,2.2,0.3,2.8-0.7c0.6-1,0.3-2.2-0.7-2.8c-1-0.6-2.2-0.3-2.8,0.7
		C152.6,9.9,152.9,11.2,153.8,11.7z"/>
	<path class="st0" d="M195,1.1c0.5-0.2,0.8-0.7,1-1.1h-3.8c0,0.1,0.1,0.2,0.1,0.3C192.8,1.3,194,1.7,195,1.1z"/>
	<path class="st0" d="M236.2,3c0.1,0.1,0.1,0.1,0.4,0.2c0.2,0.1,0.5,0.1,0.7,0.2c0.2,0,0.3-0.1,0.5-0.1c0.1,0,0.3-0.1,0.4-0.1
		c0.1,0,0.1-0.1,0.2-0.1c0.1-0.1,0.2-0.1,0.3-0.2c0.2-0.2,0.4-0.4,0.5-0.6c0.2-0.5,0.3-1,0.1-1.6c-0.1-0.2-0.2-0.4-0.3-0.6h-3.1
		c-0.2,0.3-0.4,0.6-0.5,1c-0.1,0.5,0.1,1,0.3,1.4C235.8,2.7,236,2.8,236.2,3z"/>
	<path class="st0" d="M366.2,2c1-0.2,1.8-1,1.9-2h-5c0,0,0,0.1,0,0.1C363.5,1.5,364.9,2.3,366.2,2z"/>
	<path class="st0" d="M36.7,37.3c-1.1,0.1-1.9,1.1-1.7,2.2c0.1,1.1,1.1,1.9,2.2,1.7c1.1-0.1,1.9-1.1,1.7-2.2
		C38.8,38,37.8,37.2,36.7,37.3z"/>
	<path class="st0" d="M80.4,40.8c1.1,0.1,2-0.8,2.1-1.9c0.1-1.1-0.8-2-1.9-2.1c-1.1-0.1-2,0.8-2.1,1.9S79.3,40.7,80.4,40.8z"/>
	<path class="st0" d="M124.1,35c0.2,0,0.3-0.1,0.5-0.2c0.1,0,0.1-0.1,0.2-0.1c0,0,0.1,0,0.1-0.1l0-0.1c0-0.2,0.1-0.4,0.2-0.7
		c0.1-0.3,0.4-0.6,0.5-1c0.2-0.4,0.2-0.9,0-1.4c-0.2-0.2-0.6-0.4-1.2-0.4l-0.2,0c-0.1,0-0.1,0-0.1,0c-0.1,0-0.2,0-0.2,0
		c-0.2,0-0.3,0-0.5,0c-1.1,0.2-1.8,1.3-1.6,2.3C122,34.4,123,35.2,124.1,35z"/>
	<path class="st0" d="M159.4,56.6c0.3,0.2,0.7,0.3,1.1,0.3l0.1,0c0,0,0.1,0,0.2,0c0.1,0,0.3,0,0.4,0c0.2,0,0.4-0.1,0.6-0.2
		c0.3-0.3,0.4-0.5,0.5-0.8c0.1-0.3,0.1-0.6,0.1-0.8c0-0.2,0-0.4,0.1-0.5c0-0.1,0-0.1,0-0.2c0,0,0-0.1,0-0.1l-0.1-0.1
		c-0.1-0.3-0.4-0.7-0.7-0.9c-0.9-0.6-2.2-0.4-2.8,0.6C158.3,54.7,158.5,56,159.4,56.6z"/>
	<path class="st0" d="M203.1,57.5c0.1,0,0.1,0,0.1,0c0.4,0,0.8-0.1,1.1-0.3c0.9-0.6,1.2-1.8,0.6-2.8c-0.6-0.9-1.8-1.2-2.8-0.6
		c-0.3,0.2-0.6,0.5-0.7,0.9c0,0,0,0.1,0,0.1l0,0.1c0,0.1,0,0.1,0,0.2c0,0.2,0,0.3,0.1,0.5c0,0.3,0,0.5,0.1,0.8
		c0.1,0.3,0.2,0.6,0.4,0.8c0.1,0.1,0.3,0.2,0.6,0.2c0.1,0,0.2,0,0.4,0C203,57.5,203,57.5,203.1,57.5z"/>
	<path class="st0" d="M240.7,32.1c-0.2,0-0.4-0.1-0.5-0.1c-0.1,0-0.2,0-0.3,0l-0.1,0l-0.1,0l-0.2,0c-0.6,0-1,0.2-1.2,0.5
		c-0.2,0.5-0.1,0.8,0,1.2c0.1,0.4,0.3,0.6,0.4,0.9c0.1,0.3,0.2,0.6,0.2,0.8l0,0.1l0,0l0.1,0c0.1,0.1,0.1,0.1,0.2,0.1
		c0.2,0.1,0.3,0.2,0.5,0.2c1.1,0.3,2.2-0.4,2.4-1.4C242.4,33.5,241.8,32.4,240.7,32.1z"/>
	<path class="st0" d="M283.1,42.1c-1.1-0.2-2.1,0.6-2.3,1.7c-0.2,1.1,0.6,2.1,1.7,2.3c1.1,0.2,2.1-0.6,2.3-1.7
		C284.9,43.3,284.2,42.3,283.1,42.1z"/>
	<path class="st0" d="M325.7,43.9c-1.4,0.2-2.3,1.4-2.1,2.8c0.2,1.4,1.4,2.3,2.8,2.1c1.4-0.2,2.3-1.4,2.1-2.8
		C328.3,44.6,327.1,43.7,325.7,43.9z"/>
	<path class="st0" d="M369.6,40.7c-1.4,0-2.5,1.2-2.5,2.5c0,1.4,1.1,2.5,2.5,2.5c1.4,0,2.5-1.2,2.5-2.5
		C372.1,41.8,371,40.7,369.6,40.7z"/>
	<path class="st0" d="M30.1,99.6c1.1-0.2,1.8-1.2,1.6-2.3c-0.2-1.1-1.2-1.8-2.3-1.6s-1.8,1.2-1.6,2.3C28,99,29,99.7,30.1,99.6z"/>
	<path class="st0" d="M72.3,87.2c1-0.5,1.4-1.6,1-2.7c-0.5-1-1.6-1.4-2.7-1c-1,0.5-1.4,1.6-1,2.7C70.1,87.2,71.3,87.7,72.3,87.2z"/>
	<path class="st0" d="M111.9,85.1c1.1,0.3,2.2-0.3,2.5-1.4c0.3-1.1-0.3-2.2-1.4-2.5c-1.1-0.3-2.2,0.3-2.5,1.4
		C110.2,83.7,110.8,84.8,111.9,85.1z"/>
	<path class="st0" d="M154,97.4c1.1,0.3,2.2-0.3,2.5-1.4c0.3-1.1-0.3-2.2-1.4-2.5c-1.1-0.3-2.2,0.3-2.5,1.4
		C152.3,95.9,152.9,97,154,97.4z"/>
	<path class="st0" d="M193.6,81.1c-1,0.5-1.4,1.7-0.9,2.7c0.5,1,1.7,1.4,2.7,0.9c1-0.5,1.4-1.7,0.9-2.7
		C195.8,81.1,194.6,80.6,193.6,81.1z"/>
	<path class="st0" d="M236.1,87.2c0.1,0.1,0.2,0.1,0.3,0.2c0,0,0.2,0.1,0.3,0.1c0.1,0,0.2,0.1,0.4,0.1c0.1,0,0.2,0,0.3,0l0.2,0
		c0.1,0,0.1,0,0.2,0c0.1,0,0.1,0,0.2-0.1c0.1,0,0.2-0.1,0.4-0.2c0.2-0.1,0.4-0.3,0.6-0.5c0.3-0.4,0.4-0.9,0.3-1.5s-0.4-1-0.8-1.3
		c-0.2-0.1-0.4-0.3-0.7-0.3c-0.1,0-0.3,0-0.4-0.1c-0.1,0-0.1,0-0.2,0c0,0,0,0,0,0l0,0v0l0,0c0,0,0,0-0.1,0c-0.1,0-0.2,0-0.4,0.1
		c-0.2,0.1-0.5,0.2-0.6,0.3c-0.4,0.3-0.7,0.7-0.7,1.3c-0.1,0.5,0.1,1,0.3,1.4C235.7,86.9,235.9,87,236.1,87.2z"/>
	<path class="st0" d="M278.3,84.7c0.9,0.6,2.2,0.3,2.8-0.6c0.6-0.9,0.3-2.2-0.6-2.8c-0.9-0.6-2.2-0.3-2.8,0.6
		C277.1,82.9,277.4,84.1,278.3,84.7z"/>
	<path class="st0" d="M317,99.9c-1.4,0.1-2.4,1.4-2.2,2.7c0.1,1.4,1.4,2.4,2.7,2.2s2.4-1.4,2.2-2.7C319.6,100.8,318.3,99.8,317,99.9
		z"/>
	<path class="st0" d="M361,100.9c1.4-0.1,2.4-1.3,2.3-2.7c-0.1-1.4-1.3-2.4-2.7-2.3c-1.4,0.1-2.4,1.3-2.3,2.7
		C358.4,99.9,359.7,101,361,100.9z"/>
	<path class="st0" d="M37.1,138.9c-1.1,0.3-1.7,1.3-1.5,2.4c0.3,1.1,1.3,1.7,2.4,1.5c1.1-0.3,1.7-1.3,1.5-2.4S38.2,138.7,37.1,138.9
		z"/>
	<path class="st0" d="M80.3,132.1c-1.1,0.1-1.9,1.1-1.8,2.2c0.1,1.1,1.1,1.9,2.2,1.8c1.1-0.1,1.9-1.1,1.8-2.2
		C82.4,132.8,81.4,132,80.3,132.1z"/>
	<path class="st0" d="M122.5,122.4c1-0.4,1.5-1.6,1.1-2.6c-0.4-1-1.6-1.5-2.6-1.1c-1,0.4-1.5,1.6-1.1,2.6
		C120.3,122.3,121.4,122.8,122.5,122.4z"/>
	<path class="st0" d="M161.6,128.3c-0.1,0.5-0.1,1.1,0.2,1.5c0.1,0.2,0.3,0.4,0.5,0.6c0.1,0.1,0.2,0.2,0.3,0.2
		c0.1,0,0.1,0.1,0.2,0.1c0,0,0.1,0,0.1,0c0,0,0.1,0,0.1,0c0.1,0,0.1,0,0.2,0c0.1,0,0.3,0,0.4,0c0.3,0,0.5-0.1,0.7-0.2
		c0.5-0.2,0.8-0.6,1-1.1c0.2-0.5,0.2-1.1-0.1-1.5c-0.1-0.2-0.3-0.4-0.4-0.6c-0.1-0.1-0.2-0.2-0.3-0.2c-0.1,0-0.1-0.1-0.2-0.1
		c-0.1,0-0.1-0.1-0.3-0.1l0,0c-0.2,0-0.2,0-0.3-0.1c-0.1,0-0.1,0-0.2,0c-0.1,0-0.3,0-0.4,0c-0.3,0-0.5,0.1-0.7,0.2
		C162.1,127.4,161.8,127.8,161.6,128.3z"/>
	<path class="st0" d="M206.5,140.4c-0.3-1-1.5-1.6-2.5-1.3c-0.5,0.2-0.9,0.5-1.2,1c-0.1,0.1-0.1,0.2-0.1,0.4c0,0.1,0,0.2,0,0.4
		c0,0.3,0,0.5,0,0.8c0,0.3,0.1,0.5,0.3,0.7c0.1,0.1,0.2,0.2,0.3,0.2c0.1,0.1,0.2,0.1,0.3,0.2c0.5,0.2,1,0.3,1.5,0.1
		C206.2,142.5,206.8,141.4,206.5,140.4z"/>
	<path class="st0" d="M246.7,129.6c-1.1-0.1-2.1,0.7-2.1,1.8c-0.1,1.1,0.7,2.1,1.8,2.1c1.1,0.1,2.1-0.7,2.1-1.8
		C248.6,130.6,247.8,129.7,246.7,129.6z"/>
	<path class="st0" d="M292.2,137.3c0.3-1.4-0.6-2.7-2-2.9c-1.4-0.3-2.7,0.6-2.9,2c-0.3,1.4,0.6,2.7,2,2.9
		C290.6,139.5,292,138.6,292.2,137.3z"/>
	<path class="st0" d="M333.1,138.9c1.4-0.3,2.2-1.6,2-2.9c-0.3-1.4-1.6-2.2-2.9-2c-1.4,0.3-2.2,1.6-2,2.9
		C330.4,138.2,331.7,139.1,333.1,138.9z"/>
	<path class="st0" d="M378.4,132.7c0-1.4-1.2-2.5-2.6-2.4c-1.4,0-2.5,1.2-2.4,2.6s1.2,2.5,2.6,2.4
		C377.4,135.3,378.5,134.1,378.4,132.7z"/>
	<path class="st0" d="M17,182.4c0.3-0.3,0.5-0.6,0.6-1.1c0.1-0.4,0-0.9-0.1-1.2c-0.1-0.2-0.2-0.4-0.3-0.5c-0.1-0.1-0.1-0.2-0.2-0.2
		l-0.1,0c0,0,0,0,0,0l0-0.1c0,0,0.1,0-0.1-0.1c-0.1-0.1-0.2-0.1-0.3-0.2c-1-0.5-2.2,0-2.7,1c-0.5,1,0,2.2,1,2.7
		c0.1,0,0.2,0.1,0.3,0.1c0.1,0,0.3,0.1,0.5,0.1l0.3,0c0,0,0.1,0,0.1,0l0.1,0c0.1,0,0.2-0.1,0.3-0.1C16.6,182.6,16.8,182.5,17,182.4z
		"/>
	<path class="st0" d="M59.4,189.4c1.1-0.4,1.6-1.5,1.2-2.6c-0.4-1.1-1.5-1.6-2.6-1.2c-1.1,0.4-1.6,1.5-1.2,2.6
		C57.1,189.2,58.3,189.8,59.4,189.4z"/>
	<path class="st0" d="M103.2,176.5c0-1.1-0.9-2-2-2c-1.1,0-2,0.9-2,2c0,1.1,0.9,2,2,2C102.2,178.5,103.2,177.6,103.2,176.5z"/>
	<path class="st0" d="M147.5,176.8c0-1.1-0.9-2-2-2.1c-1.1,0-2,0.9-2.1,2c0,1.1,0.9,2,2,2.1C146.5,178.8,147.5,178,147.5,176.8z"/>
	<path class="st0" d="M189.1,183.3c1.1,0.2,2.1-0.6,2.3-1.7c0.2-1.1-0.6-2.1-1.7-2.3c-1.1-0.2-2.1,0.6-2.3,1.7
		C187.2,182.1,188,183.1,189.1,183.3z"/>
	<path class="st0" d="M233.4,178.7c1.1-0.2,1.8-1.3,1.6-2.4s-1.3-1.8-2.4-1.6c-1.1,0.2-1.8,1.3-1.6,2.4
		C231.2,178.2,232.3,178.9,233.4,178.7z"/>
	<path class="st0" d="M273.7,164.4c0.1,0.1,0.1,0.1,0.2,0.2c0,0.1,0.1,0.1,0.1,0.2c0.1,0.1,0.1,0.2,0.1,0.3c0,0.1,0,0.1,0,0.1
		c0,0,0,0,0,0c0.1,0,0.1,0,0.2,0.1c0.1,0,0.3,0.1,0.4,0.1c0.3,0,0.5,0,0.8-0.1c0.5-0.2,0.9-0.5,1.2-1c0.3-0.5,0.3-1.1,0.1-1.5
		c-0.1-0.2-0.2-0.5-0.4-0.7c-0.1-0.1-0.2-0.2-0.3-0.3c-0.1,0-0.1-0.1-0.2-0.1c-0.1,0-0.2-0.1-0.3-0.2c-0.4-0.2-0.9-0.4-1.3-0.5
		c-0.4,0.2-0.7,0.4-0.9,0.6c-0.1,0.1-0.2,0.2-0.3,0.3c-0.1,0.1-0.2,0.2-0.2,0.3c-0.1,0.4-0.1,0.8,0,1.2
		C273.1,163.8,273.4,164.2,273.7,164.4z"/>
	<path class="st0" d="M317.1,181.2c-0.1-1.4-1.4-2.4-2.8-2.3c-0.7,0.1-1.3,0.4-1.7,0.9c-0.1,0.1-0.2,0.3-0.2,0.4
		c0,0.1-0.1,0.3-0.1,0.4c-0.1,0.3-0.2,0.7-0.2,1c0,0.4,0,0.7,0.2,1c0.1,0.1,0.2,0.3,0.4,0.4c0.2,0.1,0.2,0.2,0.4,0.3
		c0.5,0.4,1.2,0.6,1.9,0.6C316.2,183.8,317.3,182.6,317.1,181.2z"/>
	<path class="st0" d="M359,177.2c-1.4-0.1-2.6,0.9-2.8,2.2c-0.1,1.4,0.9,2.6,2.3,2.8c1.4,0.1,2.6-0.9,2.8-2.2
		C361.4,178.6,360.4,177.3,359,177.2z"/>
	<path class="st0" d="M7.6,217.5c-1.1-0.3-2.2,0.2-2.5,1.3c-0.3,1.1,0.2,2.2,1.3,2.5c1.1,0.3,2.2-0.2,2.5-1.3
		C9.2,219,8.6,217.8,7.6,217.5z"/>
	<path class="st0" d="M52,217.6c-0.1-0.1-0.4-0.2-0.5-0.3c-0.1-0.1-0.3-0.2-0.4-0.2c-0.3-0.1-0.6-0.2-0.9-0.1
		c-1.1,0.1-1.9,1.1-1.8,2.2c0.1,1.1,1.1,1.9,2.2,1.8c0.3,0,0.6-0.1,0.9-0.3c0.1-0.1,0.2-0.2,0.4-0.3c0.1-0.1,0.1-0.2,0.1-0.4
		c0-0.2,0.1-0.3,0.2-0.5c0.1-0.2,0.1-0.4,0.2-0.6c0-0.2,0-0.4,0-0.7C52.3,218,52.2,217.8,52,217.6z"/>
	<path class="st0" d="M94.5,220.8c-1.1-0.1-2.1,0.6-2.2,1.8s0.7,2.1,1.8,2.3c1.1,0.1,2.1-0.6,2.2-1.8C96.4,222,95.6,221,94.5,220.8z
		"/>
	<path class="st0" d="M138.3,225.2c-1.1,0-2,0.8-2.1,2c0,1.1,0.8,2,2,2.1c1.1,0,2-0.8,2.1-2C140.2,226.2,139.4,225.3,138.3,225.2z"
		/>
	<path class="st0" d="M181.3,221.6c1-0.5,1.4-1.7,0.9-2.7c-0.5-1-1.7-1.4-2.7-0.9c-1,0.5-1.4,1.7-0.9,2.7
		C179.1,221.7,180.3,222.1,181.3,221.6z"/>
	<path class="st0" d="M219.9,220.5c-0.9-0.6-2.2-0.3-2.8,0.6s-0.3,2.2,0.6,2.8c0.9,0.6,2.2,0.3,2.8-0.6
		C221.1,222.4,220.8,221.1,219.9,220.5z"/>
	<path class="st0" d="M256.5,222.5c-1,0.5-1.4,1.7-1,2.7c0.5,1,1.7,1.4,2.7,1c1-0.5,1.4-1.7,1-2.7S257.5,222,256.5,222.5z"/>
	<path class="st0" d="M298.9,223.9c-1.3-0.5-2.8,0.1-3.3,1.4c-0.5,1.3,0.1,2.8,1.4,3.3c1.3,0.5,2.8-0.1,3.3-1.4
		C300.8,225.9,300.2,224.4,298.9,223.9z"/>
	<path class="st0" d="M338,217.3c-1.3,0.5-1.9,2-1.4,3.3c0.5,1.3,2,1.9,3.3,1.4c1.3-0.5,1.9-2,1.4-3.3S339.3,216.7,338,217.3z"/>
	<path class="st0" d="M379.4,233.1c0.2,0,0.3,0,0.5,0c0.1,0,0.2,0,0.2-0.1c0.1,0,0.2,0,0.3,0c0.9-0.1,1.2-0.6,1.3-1.4
		c0-0.7-0.1-1.5-0.1-2l0-0.2c0-0.1-0.1-0.1-0.1-0.2c-0.1-0.1-0.2-0.3-0.3-0.4c-0.2-0.2-0.5-0.4-0.8-0.6c-1.3-0.6-2.8,0-3.3,1.3
		c-0.6,1.3,0,2.8,1.3,3.3C378.7,233.1,379.1,233.1,379.4,233.1z"/>
	<path class="st0" d="M27.5,252c0.4-1-0.1-2.2-1.2-2.6s-2.2,0.1-2.6,1.2c-0.4,1,0.1,2.2,1.2,2.6C25.9,253.6,27.1,253.1,27.5,252z"/>
	<path class="st0" d="M67.2,264.1c1.1,0,2-0.9,2-2c0-1.1-0.9-2-2-2c-1.1,0-2,0.9-2,2C65.2,263.1,66.1,264,67.2,264.1z"/>
	<path class="st0" d="M112.6,260.5c-0.1-1.1-1.1-1.9-2.2-1.8c-1.1,0.1-1.9,1.1-1.8,2.2c0.1,1.1,1.1,1.9,2.2,1.8
		C111.9,262.5,112.7,261.6,112.6,260.5z"/>
	<path class="st0" d="M154.2,258.9c1.1-0.1,1.9-1.1,1.8-2.2c-0.1-1.1-1.1-1.9-2.2-1.8c-1.1,0.1-1.9,1.1-1.8,2.2
		C152.1,258.2,153.1,259,154.2,258.9z"/>
	<path class="st0" d="M198.2,263.9c0-0.1,0-0.2,0-0.3c0-0.1,0-0.2-0.1-0.3c-0.3-0.4-0.7-0.7-1.2-0.8c-1.1-0.3-2.1,0.4-2.4,1.4
		c-0.3,1.1,0.4,2.1,1.4,2.4c0.5,0.1,1,0.1,1.4-0.2c0.1-0.1,0.3-0.1,0.4-0.2c0.1-0.1,0.2-0.1,0.3-0.2c0.2-0.2,0.3-0.4,0.3-0.7
		c0-0.1,0-0.1,0-0.2c0-0.1,0-0.1,0-0.2C198.3,264.4,198.3,264.1,198.2,263.9z"/>
	<path class="st0" d="M238.6,253.1c-0.1,0-0.3,0-0.4,0c-0.2,0-0.5,0-0.7,0.1c-0.2,0.1-0.3,0.2-0.4,0.3c-0.1,0-0.1,0.1-0.2,0.1
		l-0.1,0.1c-0.1,0.2-0.2,0.3-0.2,0.5c-0.1,0.4-0.1,0.8,0,1.2c0.1,0.4,0.3,0.7,0.6,1c0.1,0.1,0.3,0.2,0.5,0.3l0.1,0.1l0,0.1
		c0,0,0,0.1,0,0.1c0,0.1,0,0.1,0,0.1c0.1,0,0.3,0.1,0.4,0.1c1.1,0.1,2.1-0.7,2.2-1.8C240.5,254.1,239.7,253.2,238.6,253.1z"/>
	<path class="st0" d="M282,258.1c-1.1-0.2-2.1,0.5-2.4,1.5c-0.2,1.1,0.5,2.1,1.5,2.4c1.1,0.2,2.1-0.5,2.4-1.5
		C283.8,259.3,283.1,258.3,282,258.1z"/>
	<path class="st0" d="M322.1,257.7c-1.2,0.6-1.8,2.1-1.2,3.3c0.6,1.2,2.1,1.8,3.3,1.2c1.2-0.6,1.8-2.1,1.2-3.3
		C324.8,257.6,323.4,257.1,322.1,257.7z"/>
	<path class="st0" d="M364.3,247.5c-1.4-0.1-2.6,0.9-2.7,2.3s0.9,2.6,2.3,2.7c1.4,0.1,2.6-0.9,2.7-2.3
		C366.7,248.7,365.7,247.6,364.3,247.5z"/>
	<path class="st0" d="M2,304.9c0.4-1.3-0.4-2.7-1.7-3c-0.1,0-0.2,0-0.2,0v4.9C0.9,306.5,1.7,305.8,2,304.9z"/>
	<path class="st0" d="M41.9,304.2c-1.4,0.1-2.4,1.3-2.3,2.7c0.1,1.4,1.3,2.4,2.7,2.2c1.4-0.1,2.4-1.3,2.3-2.7S43.2,304.1,41.9,304.2
		z"/>
	<path class="st0" d="M85.1,301c-1.4,0.1-2.4,1.3-2.3,2.6s1.3,2.4,2.6,2.3c1.4-0.1,2.4-1.3,2.3-2.6C87.6,302,86.4,301,85.1,301z"/>
	<path class="st0" d="M127.9,301.4c-0.3,0.1-0.8,0.3-0.7,0.4c0,0,0,0.1,0,0.2c-0.1,0.1-0.2,0.1-0.3,0.2c-0.2,0.1-0.3,0.3-0.5,0.5
		c-0.3,0.4-0.4,0.8-0.4,1.3c0,0.5,0.1,1,0.4,1.4c0.1,0.2,0.3,0.4,0.4,0.5c0.1,0.1,0.2,0.1,0.3,0.2c0.2,0.1,0.4,0.1,0.6,0.2
		c0.7,0,0.9,0,1.3-0.1c1.3-0.3,2.2-1.6,1.9-3C130.5,301.9,129.2,301.1,127.9,301.4z"/>
	<path class="st0" d="M168.5,301.5c1.2,0.7,2.7,0.3,3.4-0.9c0.7-1.2,0.3-2.7-0.9-3.4c-1.2-0.7-2.7-0.3-3.4,0.9
		S167.4,300.8,168.5,301.5z"/>
	<path class="st0" d="M205.7,316c0.3,1.3,1.6,2.2,2.9,1.9c1.3-0.3,2.2-1.6,1.9-2.9c-0.3-1.3-1.6-2.2-2.9-1.9
		C206.2,313.3,205.4,314.6,205.7,316z"/>
	<path class="st0" d="M250.7,311.9c1.4,0,2.5-1.1,2.5-2.5c0-1.4-1.1-2.5-2.5-2.5s-2.5,1.1-2.5,2.5
		C248.2,310.8,249.3,311.9,250.7,311.9z"/>
	<path class="st0" d="M293.9,306.6c-1.4,0-2.5,1.2-2.4,2.5c0,1.4,1.1,2.4,2.5,2.4c1.4,0,2.5-1.2,2.4-2.5
		C296.4,307.7,295.3,306.6,293.9,306.6z"/>
	<path class="st0" d="M336.9,303.5c-1.4,0.1-2.3,1.4-2.2,2.7c0.1,1.4,1.4,2.3,2.7,2.2c1.4-0.1,2.3-1.4,2.2-2.7
		C339.4,304.4,338.2,303.4,336.9,303.5z"/>
	<path class="st0" d="M380.5,305.4c-1.4-0.1-2.6,0.9-2.7,2.2c-0.1,1.4,0.8,2.6,2.2,2.7c1.4,0.1,2.6-0.9,2.7-2.2
		C382.8,306.7,381.8,305.5,380.5,305.4z"/>
	<path class="st0" d="M425.6,298.2c-4.3-0.8-8.6,0.3-11.9,2.6c-3.3,2.4-5.7,6.1-6.4,10.5c-0.7,4.3,0.4,8.5,2.8,11.8
		c2.4,3.4,6,5.8,10.3,6.6c8.7,1.5,16.8-4.3,18.3-12.9C440.2,308.1,434.3,299.8,425.6,298.2z"/>
	<path class="st0" d="M19.5,334.1l-0.2-0.1l-0.3-0.1c-0.2,0-0.4-0.1-0.7-0.1c-0.4-0.1-0.8-0.1-1.1,0c-0.5,0.6-0.8,1.2-0.9,1.7
		c-0.1,0.5,0,0.9,0.3,1.3c0.2,0.4,0.6,0.7,0.8,0.9c0.2,0.3,0.4,0.5,0.5,0.7c0,0.1,0.1,0.2,0.1,0.3c0,0,0,0.1,0,0.1l0,0
		c0,0,0.1,0,0.1,0c1.3,0.4,2.7-0.4,3.1-1.7C21.6,335.9,20.8,334.5,19.5,334.1z"/>
	<path class="st0" d="M61,344.9c-1.4-0.1-2.6,0.9-2.7,2.3c-0.1,1.4,0.9,2.6,2.3,2.7c1.4,0.1,2.6-0.9,2.7-2.3
		C63.4,346.2,62.4,345,61,344.9z"/>
	<path class="st0" d="M104.4,348.3c-1.4-0.1-2.6,0.9-2.7,2.2c-0.1,1.4,0.9,2.6,2.3,2.7c1.4,0.1,2.6-0.9,2.7-2.2
		C106.8,349.6,105.8,348.4,104.4,348.3z"/>
	<path class="st0" d="M149.4,358.7c0.3-1.3-0.5-2.7-1.8-3c-1.3-0.3-2.7,0.5-3,1.8c-0.3,1.3,0.5,2.7,1.8,3
		C147.7,360.8,149,360,149.4,358.7z"/>
	<path class="st0" d="M192,357.4c-0.2-1.4-1.5-2.3-2.9-2c-1.4,0.2-2.3,1.5-2,2.9c0.2,1.4,1.5,2.3,2.9,2
		C191.3,360.1,192.3,358.8,192,357.4z"/>
	<path class="st0" d="M232.6,350.5c1.3-0.3,2.1-1.7,1.8-3c-0.3-1.3-1.7-2.1-3-1.8s-2.1,1.7-1.8,3C229.9,350,231.2,350.8,232.6,350.5
		z"/>
	<path class="st0" d="M276.5,338.1c0.2-0.7,0-1.3-0.3-1.9c-0.2-0.3-0.4-0.5-0.6-0.7c-0.1-0.1-0.3-0.2-0.4-0.3
		c-0.1,0-0.1-0.1-0.3-0.1c-0.2,0-0.3-0.1-0.5-0.1c-0.2-0.1-0.5-0.1-0.7-0.1c-0.3,0.1-0.6,0.2-0.8,0.3c-0.1,0.1-0.3,0.1-0.3,0.2
		c-0.1,0-0.1,0.1-0.2,0.1c-0.2,0.2-0.4,0.4-0.5,0.7c-0.3,0.5-0.3,1.1-0.2,1.7c0.2,0.6,0.5,1.1,1,1.4c0.2,0.2,0.5,0.3,0.8,0.4
		c0.1,0,0.1,0,0.2,0c0.1,0,0,0,0.1,0.1c0,0,0,0.1,0,0.1l0,0l0,0l0.2,0c0.2,0,0.3,0,0.5,0c0.3-0.1,0.6-0.2,0.9-0.3
		C275.9,339.3,276.4,338.7,276.5,338.1z"/>
	<path class="st0" d="M317,345.8c-1.3-0.4-2.7,0.3-3,1.7c-0.4,1.3,0.4,2.7,1.7,3.1c1.3,0.4,2.7-0.3,3-1.7
		C319,347.6,318.3,346.2,317,345.8z"/>
	<path class="st0" d="M357.3,352.3c-1.3,0.4-2.1,1.7-1.8,3c0.4,1.3,1.7,2.1,3,1.8c1.3-0.4,2.1-1.7,1.8-3
		C360,352.8,358.7,352,357.3,352.3z"/>
	<path class="st0" d="M400,342.8c-1.4,0.2-2.3,1.5-2.1,2.8c0.2,1.4,1.5,2.3,2.8,2.1c1.4-0.2,2.3-1.5,2.1-2.8
		C402.6,343.5,401.4,342.6,400,342.8z"/>
	<path class="st0" d="M449.4,10.6c-1.8,0-3.1,1.5-3.1,3.3c0,1.8,1.5,3.1,3.3,3.1c1.8,0,3.1-1.5,3.1-3.3
		C452.6,12,451.1,10.6,449.4,10.6z"/>
	<path class="st0" d="M492.5,3c0.4-0.1,0.7-0.3,0.9-0.6c0.1-0.1,0.1-0.1,0.2-0.2c0.1-0.1,0.1-0.1,0.1-0.2c0-0.1,0-0.2,0-0.3
		c0-0.1,0-0.3,0.1-0.5c0.1-0.2,0.2-0.4,0.3-0.6c0.1-0.2,0.1-0.4,0.2-0.6h-6.1c0,0.4,0.1,0.8,0.2,1.2C489,2.8,490.9,3.6,492.5,3z"/>
	<path class="st0" d="M405.3,10.4c1.6,0.8,3.5,0.2,4.3-1.4c0.8-1.6,0.2-3.5-1.4-4.3c-1.6-0.8-3.5-0.2-4.3,1.4
		C403.1,7.6,403.7,9.6,405.3,10.4z"/>
	<path class="st0" d="M456.8,37.1l0.1,0l0,0L456.8,37.1c0.1-0.1,0.1-0.1,0.1-0.1c0,0,0-0.1,0-0.2c0,0,0-0.1,0.1-0.1
		c0.1,0,0.2-0.1,0.2-0.1c0.3-0.1,0.6-0.3,0.8-0.5c0.5-0.4,0.9-1.1,1-1.8s0-1.4-0.3-2c-0.2-0.3-0.4-0.6-0.6-0.8
		c-0.1-0.1-0.1-0.1-0.2-0.2c-0.1-0.1-0.3-0.1-0.4-0.2c-0.3-0.1-0.6-0.2-0.9-0.3c-0.2,0-0.5,0.1-0.8,0.1l-0.4,0.1l-0.3,0.1
		c-1.7,0.4-2.7,2.1-2.2,3.8C453.4,36.6,455.1,37.6,456.8,37.1z"/>
	<path class="st0" d="M501.9,43.3c0.5-1.6-0.4-3.4-2.1-3.9c-1.6-0.5-3.4,0.4-3.9,2.1c-0.5,1.6,0.4,3.4,2.1,3.9
		C499.6,45.9,501.4,45,501.9,43.3z"/>
	<path class="st0" d="M413.4,46.4c1.7,0,3.1-1.4,3.1-3.1c0-1.7-1.4-3.1-3.1-3.2c-1.7,0-3.1,1.4-3.1,3.1
		C410.3,45,411.7,46.4,413.4,46.4z"/>
	<path class="st0" d="M447.4,92.6c1.6-0.6,2.4-2.5,1.8-4.1c-0.6-1.6-2.5-2.4-4.1-1.8c-1.6,0.6-2.4,2.5-1.8,4.1
		C444,92.5,445.8,93.3,447.4,92.6z"/>
	<path class="st0" d="M489.4,85.1c1.7-0.2,3-1.7,2.8-3.4c-0.2-1.7-1.7-3-3.4-2.8c-1.7,0.2-3,1.7-2.8,3.4
		C486.1,84,487.7,85.3,489.4,85.1z"/>
	<path class="st0" d="M404.2,101.6c1.7,0.2,3.2-1.1,3.4-2.8c0.2-1.7-1.1-3.2-2.8-3.4c-1.7-0.2-3.2,1.1-3.4,2.8
		C401.2,100,402.5,101.5,404.2,101.6z"/>
	<path class="st0" d="M457.7,133.2C457.7,133.1,457.7,133.1,457.7,133.2C457.7,133.1,457.7,133.1,457.7,133.2
		C457.7,133.1,457.7,133.2,457.7,133.2z"/>
	<polygon class="st0" points="457.7,133.2 457.7,133.2 457.7,133.2 	"/>
	<path class="st0" d="M457.6,132.3C457.6,132.3,457.6,132.3,457.6,132.3l0.2-0.1c0.1,0,0.2,0,0.3-0.1c0.4-0.1,0.7-0.3,1-0.6
		c0.6-0.5,1-1.3,1.1-2.1c0.1-0.9-0.2-1.7-0.7-2.3c-0.3-0.3-0.6-0.6-0.9-0.7c-0.1,0-0.2-0.1-0.3-0.1l-0.1-0.1c-0.1,0-0.1,0-0.2-0.1
		c-0.4-0.1-0.8-0.1-1.2-0.2c-0.1,0-0.2,0-0.3,0c-1.8,0.9-1.9,1.3-2.3,2.1c-0.3,0.7-0.2,1.6,0.1,2.3c0.3,0.8,1,1.3,1.7,1.6
		C456.5,132.3,457.4,132.2,457.6,132.3z"/>
	<path class="st0" d="M501.3,131.9c-1.6-0.6-3.4,0.1-4,1.7c-0.6,1.6,0.1,3.4,1.7,4c1.6,0.6,3.4-0.1,4-1.7
		C503.7,134.4,502.9,132.6,501.3,131.9z"/>
	<path class="st0" d="M414.4,143.8c-0.6,1.6,0.2,3.4,1.9,4c0.2,0.1,0.5,0.1,0.7,0.2c0.3,0,0.4,0,0.9,0.1c0.8,0.1,1.5,0,1.9-0.3
		c0.6-0.8,0.6-1.6,0.5-2.3c-0.2-0.7-0.5-1.2-0.6-1.7c-0.1-0.5-0.2-0.8-0.1-1c0.1-0.1-0.2-0.3-0.4-0.4c-0.2-0.1-0.4-0.3-0.7-0.3
		C416.8,141.4,415,142.2,414.4,143.8z"/>
	<path class="st0" d="M447,181.8c-1.7,0-3.1,1.5-3.1,3.2c0,1.7,1.5,3.1,3.2,3.1c1.7,0,3.1-1.5,3.1-3.2
		C450.2,183.2,448.8,181.8,447,181.8z"/>
	<path class="st0" d="M402.6,187.1c1.7,0.1,3.3-1.1,3.4-2.9c0.2-1.7-1.1-3.3-2.9-3.4c-1.7-0.1-3.3,1.1-3.4,2.9
		C399.5,185.4,400.8,187,402.6,187.1z"/>
	<path class="st0" d="M447.4,264.4c-1.4-1-3.3-0.6-4.3,0.8c-1,1.4-0.6,3.3,0.8,4.3s3.3,0.6,4.3-0.8
		C449.1,267.3,448.8,265.4,447.4,264.4z"/>
	<path class="st0" d="M463.4,230.6c-1.5-0.8-3.4-0.1-4.2,1.4c-0.8,1.5-0.1,3.4,1.4,4.2c1.5,0.8,3.4,0.1,4.2-1.4
		C465.5,233.3,464.9,231.4,463.4,230.6z"/>
	<path class="st0" d="M492.4,181.6c-1.5-0.8-3.4-0.1-4.2,1.4c-0.8,1.5-0.1,3.4,1.4,4.2c1.5,0.8,3.4,0.1,4.2-1.4
		C494.5,184.3,493.9,182.4,492.4,181.6z"/>
	<path class="st0" d="M420.4,209.6c-1.5-0.8-3.4-0.1-4.2,1.4c-0.8,1.5-0.1,3.4,1.4,4.2c1.5,0.8,3.4,0.1,4.2-1.4
		C422.5,212.3,421.9,210.4,420.4,209.6z"/>
	<path class="st0" d="M467.8,219.1c-3.8-1.8-8.3-0.3-10.1,3.5c-1.8,3.8-0.3,8.3,3.5,10.1c3.8,1.8,8.3,0.3,10.1-3.5
		C473.1,225.4,471.6,220.9,467.8,219.1z"/>
	<path class="st0" d="M410.7,249.9c-0.1-1.7-1.6-3-3.3-2.9c-1.7,0.1-3,1.6-2.9,3.3c0.1,1.7,1.6,3,3.3,2.9
		C409.5,253.1,410.8,251.6,410.7,249.9z"/>
	<path class="st0" d="M39.4,392.6c-1.7-0.3-3.3,0.9-3.6,2.6c-0.3,1.7,0.9,3.3,2.6,3.6c1.7,0.3,3.3-0.9,3.6-2.6
		C42.2,394.6,41.1,392.9,39.4,392.6z"/>
	<path class="st0" d="M80.7,386.8c1.5-0.8,2.1-2.8,1.2-4.3c-0.8-1.5-2.8-2.1-4.3-1.2c-1.5,0.8-2.1,2.8-1.2,4.3
		C77.2,387.1,79.2,387.7,80.7,386.8z"/>
	<path class="st0" d="M124.8,380.5c0.1-1.7-1.2-3.2-2.9-3.4c-1.7-0.1-3.2,1.2-3.4,2.9c-0.1,1.7,1.2,3.2,2.9,3.4
		C123.2,383.6,124.7,382.3,124.8,380.5z"/>
	<path class="st0" d="M164.4,378c-0.4,0.1-0.7,0.3-1,0.5c-0.2,0.2-0.3,0.4-0.4,0.6c-0.2,0.4-0.4,0.9-0.4,1.5c0,0.5,0.1,1,0.4,1.5
		c0.1,0.2,0.3,0.4,0.4,0.6c0.1,0.2,0.1,0.4,0.1,0.5c0,0.2-0.1,0.3,0.2,0.5c0.3,0.2,0.5,0.3,0.9,0.5c1.6,0.6,3.4-0.3,4-1.9
		c0.6-1.6-0.3-3.4-1.9-4c-0.3-0.1-0.6-0.2-1-0.2C165.5,378,164.8,377.9,164.4,378z"/>
	<path class="st0" d="M210.8,391.9c-0.2-1.7-1.8-3-3.5-2.7c-1.7,0.2-3,1.8-2.7,3.5c0.2,1.7,1.8,3,3.5,2.7
		C209.8,395.2,211,393.6,210.8,391.9z"/>
	<path class="st0" d="M250.5,382.3c-1.7,0.4-2.8,2.1-2.4,3.8c0.4,1.7,2.1,2.8,3.8,2.4c1.7-0.4,2.8-2.1,2.4-3.8
		S252.2,381.9,250.5,382.3z"/>
	<path class="st0" d="M293.9,387c-1.5-0.8-3.4-0.2-4.2,1.4c-0.8,1.5-0.2,3.4,1.4,4.2c1.5,0.8,3.4,0.2,4.2-1.4
		C296,389.7,295.4,387.8,293.9,387z"/>
	<path class="st0" d="M331.9,387.8c-1.6,0.6-2.5,2.4-1.9,4c0.6,1.6,2.4,2.5,4,1.9c1.6-0.6,2.5-2.4,1.9-4S333.5,387.3,331.9,387.8z"
		/>
	<path class="st0" d="M31.4,426.7c-1.6-0.8-3.4-0.1-4.2,1.5c-0.8,1.6-0.1,3.4,1.5,4.2c1.6,0.8,3.4,0.1,4.2-1.5
		C33.6,429.3,33,427.5,31.4,426.7z"/>
	<path class="st0" d="M0,445.5v10.3c0.4-0.5,0.8-1.1,1.2-1.7C2.6,451.2,2,447.8,0,445.5z"/>
	<path class="st0" d="M69.7,432.6c-1.7,0.5-2.6,2.3-2.1,3.9c0.5,1.7,2.3,2.6,3.9,2.1c1.7-0.5,2.6-2.3,2.1-3.9
		C73.1,433,71.4,432.1,69.7,432.6z"/>
	<path class="st0" d="M114,429.4c-1.7-0.2-3.3,1-3.5,2.7c-0.2,1.7,1,3.3,2.7,3.5c1.7,0.2,3.3-1,3.5-2.7S115.7,429.6,114,429.4z"/>
	<path class="st0" d="M153.3,432.7c1.6,0.6,3.4-0.2,4.1-1.8c0.6-1.6-0.2-3.4-1.8-4.1c-1.6-0.6-3.4,0.2-4.1,1.8
		C150.9,430.3,151.7,432.1,153.3,432.7z"/>
	<path class="st0" d="M191,425.7c-1.4,1-1.8,2.9-0.8,4.4c1,1.4,2.9,1.8,4.4,0.8c1.4-1,1.8-2.9,0.8-4.4
		C194.4,425.1,192.4,424.7,191,425.7z"/>
	<path class="st0" d="M236.7,431.4c0-0.2-0.1-0.3-0.1-0.4c0.1-0.3-0.3-0.7-0.6-1c-0.3-0.3-0.8-0.5-1.2-0.6c-1.7-0.5-3.4,0.5-3.9,2.2
		c-0.5,1.7,0.5,3.4,2.2,3.9c0.5,0.1,0.9,0.1,1.4,0.1c0.5-0.1,0.8-0.3,1.4-0.5c0.2-0.1,0.4-0.3,0.5-0.4c0.1-0.1,0.2-0.3,0.3-0.5
		c0.2-0.3,0.2-0.7,0.3-1.1c0-0.4,0-0.8-0.1-1.1C236.9,431.7,236.8,431.6,236.7,431.4z"/>
	<path class="st0" d="M278.5,433.7c-1.7-0.5-3.4,0.5-3.9,2.2c-0.5,1.7,0.5,3.4,2.2,3.9c1.7,0.5,3.4-0.5,3.9-2.2
		C281.2,435.9,280.2,434.2,278.5,433.7z"/>
	<path class="st0" d="M2.3,479.7c-1.5,0.8-2.1,2.7-1.2,4.2c0.8,1.5,2.7,2.1,4.2,1.2c1.5-0.8,2.1-2.7,1.2-4.2
		C5.7,479.4,3.8,478.9,2.3,479.7z"/>
	<path class="st0" d="M65.1,487.4c-1.5,0.8-2.1,2.7-1.2,4.2c0.8,1.5,2.7,2.1,4.2,1.2c1.5-0.8,2.1-2.7,1.2-4.2
		C68.5,487.1,66.6,486.6,65.1,487.4z"/>
	<path class="st0" d="M111.8,487.4c-1.5,0.8-2.1,2.7-1.2,4.2c0.8,1.5,2.7,2.1,4.2,1.2c1.5-0.8,2.1-2.7,1.2-4.2
		C115.3,487.1,113.4,486.6,111.8,487.4z"/>
	<path class="st0" d="M37.1,466.4c-1.7-0.2-3.3,1-3.5,2.7c-0.2,1.7,1,3.3,2.7,3.5c1.7,0.2,3.3-1,3.5-2.7
		C40.1,468.2,38.9,466.6,37.1,466.4z"/>
	<path class="st0" d="M79.5,463.9c-1.7,0.3-2.8,1.9-2.6,3.6c0.3,1.7,1.9,2.8,3.6,2.6c1.7-0.3,2.8-1.9,2.6-3.6
		C82.8,464.8,81.2,463.6,79.5,463.9z"/>
	<path class="st0" d="M126.2,467.5c-0.1-0.1-0.1-0.2-0.2-0.3c-0.2-0.2-0.4-0.4-0.6-0.6c-0.4-0.3-1-0.6-1.6-0.6
		c-1.7-0.2-3.3,1-3.5,2.8c-0.2,1.7,1,3.3,2.8,3.5c0.6,0.1,1.2,0,1.7-0.3c0.3-0.1,0.5-0.3,0.7-0.4c0.1-0.1,0.2-0.2,0.3-0.3
		c0.1-0.1,0.1-0.2,0.2-0.3c0.2-0.4,0.5-0.8,0.6-1.4c0.1-0.5,0.2-1-0.1-1.5C126.4,467.7,126.3,467.6,126.2,467.5z"/>
	<path class="st0" d="M213.7,462.4c-1.4-1-3.3-0.8-4.4,0.6c-1,1.4-0.8,3.3,0.6,4.4c1.4,1,3.3,0.8,4.4-0.6
		C215.3,465.5,215.1,463.5,213.7,462.4z"/>
	<path class="st0" d="M176.1,460.2c-8.3-6.3-20.1-4.7-26.4,3.5c-6.3,8.3-4.7,20.1,3.5,26.4c8.3,6.3,20.1,4.7,26.4-3.5
		C185.9,478.4,184.3,466.6,176.1,460.2z"/>
</g>
</svg>
