<?xml version="1.0" encoding="utf-8"?>
<!-- Generator: Adobe Illustrator 23.0.2, SVG Export Plug-In . SVG Version: 6.00 Build 0)  -->
<svg version="1.1" id="Layer_1" xmlns="http://www.w3.org/2000/svg" xmlns:xlink="http://www.w3.org/1999/xlink" x="0px" y="0px"
	 viewBox="0 0 1650 843.2" style="enable-background:new 0 0 1650 843.2;" xml:space="preserve">
<style type="text/css">
	.st0{fill:#EAB500;}
</style>
<g>
	<path class="st0" d="M1308.6,6.8c0.8-0.3,1.3-1.2,0.9-2c-0.3-0.8-1.2-1.3-2-0.9c-0.8,0.3-1.3,1.2-0.9,2
		C1306.9,6.6,1307.7,7.1,1308.6,6.8z"/>
	<path class="st0" d="M1345.8,8.2c0.8,0.1,1.7-0.4,1.9-1.2c0.2-0.8-0.3-1.7-1.2-1.9c-0.8-0.1-1.7,0.3-1.9,1.2
		C1344.4,7.2,1345,8,1345.8,8.2z"/>
	<path class="st0" d="M1384.1,17.9c0.1,0,0.1,0.1,0.1,0.1h0.1h0.1h0.1c0.1,0.1,0.3,0.1,0.6,0.1c0.7-0.2,0.8-0.4,0.9-0.7
		c0.1-0.3,0.2-0.6,0.1-0.9c-0.1-0.4-0.2-0.6-0.4-0.8c-0.2-0.2-0.6-0.4-0.6-0.6c0-0.1,0-0.1,0-0.1l0,0h-0.1l-0.1-0.1
		c-0.1,0-0.1-0.1-0.1-0.1c-0.8-0.2-1.7,0.3-2,1.1C1382.7,16.7,1383.2,17.6,1384.1,17.9z"/>
	<path class="st0" d="M1422.8,15.6c0.8,0.3,1.8-0.1,2-1c0.3-0.8-0.1-1.8-1-2s-1.8,0.1-2,1C1421.6,14.4,1422,15.2,1422.8,15.6z"/>
	<path class="st0" d="M1461,25.4c0.7,0,1.3-0.6,1.3-1.3c0-0.7-0.6-1.3-1.3-1.3s-1.3,0.6-1.3,1.3C1459.7,24.7,1460.4,25.3,1461,25.4z
		"/>
	<path class="st0" d="M1499.5,18.4c0.6-0.3,0.9-1,0.6-1.7c-0.3-0.6-1.1-0.9-1.7-0.6c-0.6,0.4-0.9,1.1-0.6,1.7
		C1498.1,18.5,1498.8,18.7,1499.5,18.4z"/>
	<path class="st0" d="M1536.1,6.8c0.7-0.1,1.2-0.7,1.1-1.4c-0.1-0.7-0.7-1.2-1.4-1.1c-0.7,0.1-1.2,0.7-1.1,1.4
		C1534.8,6.3,1535.4,6.9,1536.1,6.8z"/>
	<path class="st0" d="M1575.2,6.4c0.7,0.1,1.3-0.5,1.3-1.2c0.1-0.7-0.5-1.3-1.2-1.3c-0.7-0.1-1.3,0.5-1.3,1.2
		C1574,5.7,1574.5,6.3,1575.2,6.4z"/>
	<path class="st0" d="M1614.4,1.1c0.1,0,0.2-0.1,0.3-0.1c0.1-0.1,0.1-0.1,0.1-0.1l0.1-0.1l0,0c0-0.1,0.1-0.2,0.1-0.4
		s0.2-0.3,0.3-0.6c0.1-0.2,0.1-0.6-0.1-0.9c-0.1-0.1-0.4-0.2-0.7-0.3h-0.1c-0.1,0-0.1,0-0.1,0s-0.1,0-0.1,0c-0.1,0-0.2,0-0.3,0
		c-0.7,0.1-1.1,0.8-1,1.5C1613.1,0.8,1613.7,1.2,1614.4,1.1z"/>
	<path class="st0" d="M1646.7,20.6c0.2,0.1,0.4,0.2,0.7,0.2h0.1c0.1,0,0.1,0,0.1,0s0.1,0,0.2,0c0.1,0,0.2-0.1,0.3-0.1
		c0.1-0.1,0.2-0.4,0.3-0.6c0.1-0.2,0.1-0.4,0.1-0.6c0-0.1,0.1-0.2,0.1-0.4c0-0.1,0-0.1,0.1-0.1c0-0.1,0-0.1,0-0.1l-0.1-0.1
		c-0.1-0.2-0.2-0.4-0.4-0.6c-0.6-0.4-1.4-0.2-1.8,0.4C1645.9,19.4,1646.1,20.3,1646.7,20.6z"/>
	<path class="st0" d="M1308.3,53c0.8-0.4,1-1.4,0.6-2.2c-0.4-0.8-1.4-1-2.2-0.6c-0.8,0.4-1,1.4-0.6,2.2
		C1306.5,53.1,1307.5,53.4,1308.3,53z"/>
	<path class="st0" d="M1346.7,43.8c-0.1-0.9-0.8-1.5-1.6-1.5c-0.9,0.1-1.5,0.8-1.5,1.6c0.1,0.9,0.8,1.5,1.6,1.5
		C1346.1,45.4,1346.7,44.7,1346.7,43.8z"/>
	<path class="st0" d="M1381.2,58.3c-0.8-0.4-1.8-0.1-2.2,0.6c-0.4,0.8-0.1,1.8,0.6,2.2c0.8,0.4,1.8,0.1,2.2-0.6
		C1382.1,59.7,1381.9,58.7,1381.2,58.3z"/>
	<path class="st0" d="M1414.7,46.4c0.7-0.4,1-1.5,0.5-2.2c-0.4-0.7-1.5-1-2.2-0.5c-0.7,0.4-1,1.5-0.5,2.2
		C1413,46.6,1414,46.8,1414.7,46.4z"/>
	<path class="st0" d="M1451.6,46.4c0.1,0.1,0.1,0.1,0.2,0.1c0.1,0,0.1,0.1,0.1,0.1s0,0,0,0.1l0,0c0.1,0,0.1,0.1,0.1,0.1
		c0.7,0.1,1.4-0.2,1.5-0.9c0.1-0.7-0.2-1.4-0.9-1.5c-0.1,0-0.1,0-0.1-0.1c-0.1,0-0.1-0.1-0.2-0.1s-0.1,0-0.2,0s-0.1,0-0.1,0.1
		c-0.1,0-0.1,0.1-0.2,0.1c-0.1,0.1-0.2,0.1-0.3,0.2c-0.2,0.2-0.3,0.5-0.3,0.8c-0.1,0.4,0.1,0.6,0.2,0.8
		C1451.4,46.3,1451.5,46.3,1451.6,46.4z"/>
	<path class="st0" d="M1490.4,56.1c0.7,0.1,1.4-0.4,1.5-1c0.1-0.7-0.3-1.3-1-1.5c-0.7-0.1-1.4,0.3-1.5,1
		C1489.3,55.3,1489.7,55.9,1490.4,56.1z"/>
	<path class="st0" d="M1529.7,59.3c0.7-0.1,1.1-0.8,1-1.5c-0.1-0.7-0.8-1.1-1.5-1c-0.7,0.1-1.1,0.8-1,1.5
		C1528.4,58.9,1529,59.4,1529.7,59.3z"/>
	<path class="st0" d="M1567.6,48.2c0.6-0.3,0.9-1,0.6-1.7s-1.1-0.9-1.7-0.6s-0.9,1-0.6,1.7C1566.2,48.2,1566.9,48.5,1567.6,48.2z"/>
	<path class="st0" d="M1603.7,46.4c0.7,0.2,1.4-0.2,1.6-0.8c0.2-0.7-0.2-1.4-0.8-1.6c-0.7-0.2-1.4,0.2-1.6,0.8
		C1602.6,45.5,1603,46.2,1603.7,46.4z"/>
	<path class="st0" d="M1641.7,57.3c0.7,0.2,1.4-0.2,1.6-0.8c0.2-0.6-0.2-1.4-0.8-1.6s-1.4,0.2-1.6,0.8
		C1640.5,56.4,1641,57.1,1641.7,57.3z"/>
	<path class="st0" d="M1346.7,84.1c0.8-0.3,1.1-1.3,0.8-2c-0.3-0.8-1.3-1.1-2-0.8c-0.8,0.3-1.1,1.3-0.8,2
		C1345.1,84.1,1346,84.4,1346.7,84.1z"/>
	<path class="st0" d="M1385,80L1385,80C1385.1,80,1385.1,80,1385,80L1385,80h0.1c0.1,0,0.1-0.1,0.1-0.1c0.1-0.1,0.1-0.1,0.2-0.1
		c0.1-0.1,0.3-0.2,0.4-0.3c0.2-0.2,0.4-0.6,0.4-1c0-0.3-0.1-0.7-0.3-1c-0.1-0.1-0.2-0.2-0.3-0.3c-0.1-0.1-0.1-0.1-0.2-0.1
		c-0.1,0-0.1-0.1-0.1-0.1c-0.1,0-0.1,0-0.1-0.1l-0.1-0.1h-0.1h-0.1c-0.1,0-0.1,0-0.2,0c-0.8,0.1-1.5,0.8-1.5,1.6
		c0.1,0.8,0.8,1.5,1.6,1.5C1384.9,80.1,1385,80,1385,80z"/>
	<path class="st0" d="M1425.3,82.5c0.3-0.8-0.1-1.7-1-2c-0.8-0.3-1.7,0.1-2,1c-0.3,0.8,0.1,1.7,1,2
		C1424.1,83.7,1425,83.3,1425.3,82.5z"/>
	<path class="st0" d="M1461.1,89.5c-0.7,0.1-1.2,0.7-1.1,1.4c0.1,0.7,0.7,1.2,1.4,1.1c0.7-0.1,1.2-0.7,1.1-1.4
		C1462.4,89.9,1461.8,89.4,1461.1,89.5z"/>
	<path class="st0" d="M1499.7,92.7c-0.6-0.3-1.4,0.1-1.7,0.7c-0.3,0.6,0.1,1.4,0.7,1.7s1.4-0.1,1.7-0.7
		C1500.7,93.7,1500.3,92.9,1499.7,92.7z"/>
	<path class="st0" d="M1536.2,95.8c-0.7,0.1-1.1,0.8-0.9,1.5c0.1,0.7,0.8,1.1,1.5,0.9c0.7-0.1,1.1-0.8,0.9-1.5
		C1537.5,96.1,1536.8,95.7,1536.2,95.8z"/>
	<path class="st0" d="M1575.1,89.7c-0.7,0.1-1.2,0.7-1.1,1.4c0.1,0.7,0.7,1.2,1.4,1.1c0.7-0.1,1.2-0.7,1.1-1.4
		C1576.4,90.2,1575.8,89.7,1575.1,89.7z"/>
	<path class="st0" d="M1612.8,80c0.6-0.2,1-1,0.7-1.6c-0.2-0.6-1-1-1.6-0.7c-0.6,0.2-1,1-0.7,1.6C1611.5,79.9,1612.2,80.2,1612.8,80
		z"/>
	<path class="st0" d="M1649.6,85c-0.1,0.1-0.3,0.1-0.4,0.1c-0.3,0.1-0.5,0.4-0.6,0.8c-0.1,0.4-0.1,0.7,0.1,1
		c0.1,0.1,0.2,0.3,0.3,0.3c0.1,0.1,0.1,0.1,0.2,0.1c0.1,0,0.1,0.1,0.1,0.1s0.1,0.1,0.1,0.1s0.1,0,0.1,0.1c0.1,0,0.1,0,0.1,0.1
		c0.1,0,0.1,0,0.1,0v-2.5C1649.7,85,1649.6,85,1649.6,85z"/>
	<path class="st0" d="M1323.6,128.9c-0.9,0.1-1.5,0.8-1.5,1.7c0.1,0.9,0.8,1.5,1.7,1.5c0.9-0.1,1.5-0.8,1.5-1.7
		C1325.3,129.5,1324.6,128.9,1323.6,128.9z"/>
	<path class="st0" d="M1363,124.1c-0.8,0.2-1.4,1.1-1.2,2c0.2,0.8,1.1,1.4,2,1.2c0.8-0.2,1.4-1.1,1.2-2
		C1364.6,124.4,1363.8,123.9,1363,124.1z"/>
	<path class="st0" d="M1402.4,117.3c-0.9,0.1-1.5,0.8-1.5,1.7c0.1,0.9,0.8,1.5,1.7,1.5c0.9-0.1,1.5-0.8,1.5-1.7
		C1404.1,117.9,1403.3,117.2,1402.4,117.3z"/>
	<path class="st0" d="M1441.9,122.8c-0.7-0.2-1.4,0.2-1.6,0.9c-0.2,0.7,0.2,1.4,0.9,1.6c0.7,0.2,1.4-0.2,1.6-0.9
		C1443,123.7,1442.6,123,1441.9,122.8z"/>
	<path class="st0" d="M1479.8,118.3c-0.7,0.1-1.1,0.9-0.9,1.6c0.1,0.7,0.9,1.1,1.6,0.9c0.7-0.1,1.1-0.9,0.9-1.6
		S1480.5,118.1,1479.8,118.3z"/>
	<path class="st0" d="M1517.6,134c0.2-0.1,0.3-0.4,0.4-0.7c0.1-0.3,0.1-0.6-0.1-0.8c-0.1-0.1-0.1-0.2-0.2-0.4
		c-0.1-0.1-0.1-0.1-0.1-0.1l-0.1-0.1c0,0,0,0,0-0.1v-0.1c0-0.1,0.1-0.1-0.1-0.1c-0.1-0.1-0.1-0.1-0.2-0.1c-0.6-0.3-1.4,0-1.7,0.6
		c-0.3,0.6,0,1.4,0.6,1.7c0.1,0.1,0.1,0.1,0.2,0.1c0.1,0,0.2,0.1,0.3,0.1h0.2c0.1,0,0.1,0,0.1,0h0.1c0.1,0,0.1-0.1,0.2-0.1
		C1517.4,134.1,1517.5,134.1,1517.6,134z"/>
	<path class="st0" d="M1556,140.3c0.6-0.2,1-1,0.8-1.6c-0.2-0.6-1-1-1.6-0.8c-0.6,0.2-1,1-0.8,1.6
		C1554.6,140.2,1555.3,140.6,1556,140.3z"/>
	<path class="st0" d="M1595.2,129.1c0-0.7-0.6-1.3-1.3-1.3s-1.3,0.6-1.3,1.3c0,0.7,0.6,1.3,1.3,1.3
		C1594.5,130.4,1595.2,129.8,1595.2,129.1z"/>
	<path class="st0" d="M1635.1,129.5c0-0.7-0.6-1.3-1.3-1.3s-1.3,0.6-1.3,1.3s0.6,1.3,1.3,1.3
		C1634.5,130.8,1635.1,130.2,1635.1,129.5z"/>
	<path class="st0" d="M1314.1,157.1c-0.8,0.2-1.3,1.1-1.1,2c0.2,0.8,1.1,1.4,2,1.1c0.8-0.2,1.4-1.1,1.1-2
		C1315.8,157.3,1315,156.9,1314.1,157.1z"/>
	<path class="st0" d="M1284.7,137.5c-0.8,0.2-1.3,1.1-1.1,2c0.2,0.8,1.1,1.4,2,1.1c0.8-0.3,1.4-1.1,1.1-2
		C1286.4,137.7,1285.5,137.3,1284.7,137.5z"/>
	<path class="st0" d="M1353.8,159.5c-0.1,0-0.2,0.1-0.3,0.1c-0.1,0-0.1,0.1-0.1,0.1v0.1v0.1l-0.1,0.1c-0.1,0.1-0.1,0.1-0.2,0.1
		c-0.1,0.1-0.2,0.2-0.4,0.3c-0.2,0.2-0.3,0.6-0.3,0.8c-0.1,0.3,0.1,0.6,0.1,0.9c0.1,0.1,0.1,0.3,0.3,0.3c0.1,0.1,0.1,0.1,0.1,0.1
		s0.1,0.1,0.1,0.1l0.2,0.1l0.3,0.1c0.1,0,0.1,0.1,0.1,0.1s0.2,0,0.3,0c0.9-0.1,1.5-0.8,1.5-1.7
		C1355.5,160.1,1354.8,159.5,1353.8,159.5z"/>
	<path class="st0" d="M1393.8,159.7c-0.8-0.2-1.7,0.3-1.9,1.2c-0.2,0.8,0.3,1.7,1.2,1.9s1.7-0.3,1.9-1.2
		C1395.2,160.7,1394.7,159.9,1393.8,159.7z"/>
	<path class="st0" d="M1431.6,161.3c-0.7,0.2-1,0.9-0.8,1.6c0.2,0.7,0.9,1,1.6,0.8c0.7-0.2,1-0.9,0.8-1.6
		C1432.9,161.5,1432.2,161,1431.6,161.3z"/>
	<path class="st0" d="M1470.6,156.9c-0.7-0.1-1.3,0.4-1.4,1.1c-0.1,0.7,0.4,1.3,1.1,1.4c0.7,0.1,1.3-0.4,1.4-1.1
		C1471.8,157.6,1471.3,157,1470.6,156.9z"/>
	<path class="st0" d="M1509.3,166.6c-0.7-0.2-1.4,0.1-1.6,0.8c-0.2,0.7,0.1,1.4,0.8,1.6c0.7,0.2,1.4-0.1,1.6-0.8
		C1510.4,167.5,1510,166.9,1509.3,166.6z"/>
	<path class="st0" d="M1549.1,166.6c-0.1-0.1-0.2-0.1-0.3-0.1c-0.1-0.1-0.1-0.1-0.2-0.1c-0.2-0.1-0.3-0.1-0.6-0.1
		c-0.7,0.1-1.2,0.7-1.1,1.4s0.7,1.2,1.4,1.1c0.2-0.1,0.4-0.1,0.6-0.2c0.1-0.1,0.1-0.1,0.2-0.2c0.1-0.1,0.1-0.1,0.1-0.2
		c0.1-0.1,0.1-0.2,0.1-0.4s0.1-0.2,0.1-0.4c0-0.1,0-0.3-0.1-0.4C1549.3,166.9,1549.2,166.7,1549.1,166.6z"/>
	<path class="st0" d="M1587.8,169.6c-0.7-0.1-1.3,0.4-1.4,1.1c-0.1,0.7,0.4,1.3,1.1,1.4c0.7,0.1,1.3-0.4,1.4-1.1
		C1589,170.4,1588.5,169.8,1587.8,169.6z"/>
	<path class="st0" d="M1627.2,173.6c-0.7-0.1-1.3,0.6-1.3,1.3c-0.1,0.7,0.6,1.3,1.3,1.3c0.7,0.1,1.3-0.6,1.3-1.3
		C1628.5,174.3,1628,173.7,1627.2,173.6z"/>
	<path class="st0" d="M1299.6,217.1c-0.8,0-1.6,0.7-1.5,1.6c0,0.8,0.7,1.6,1.6,1.5c0.8,0,1.6-0.7,1.5-1.6
		C1301.2,217.7,1300.5,217.1,1299.6,217.1z"/>
	<path class="st0" d="M1336.8,209.8c-0.8,0.4-1.2,1.2-0.9,2c0.3,0.8,1.2,1.2,2,0.9c0.8-0.4,1.2-1.2,0.9-2
		C1338.6,209.9,1337.7,209.5,1336.8,209.8z"/>
	<path class="st0" d="M1375.6,206.4c-0.8-0.1-1.7,0.6-1.8,1.4c-0.1,0.8,0.6,1.7,1.4,1.8s1.7-0.6,1.8-1.4
		C1377.1,207.2,1376.5,206.4,1375.6,206.4z"/>
	<path class="st0" d="M1414.4,205.5c0.8-0.1,1.4-1,1.3-1.8c-0.1-0.8-1-1.4-1.8-1.3s-1.4,1-1.3,1.8
		C1412.7,205.1,1413.5,205.7,1414.4,205.5z"/>
	<path class="st0" d="M1452.6,215c0.1-0.2,0.2-0.6,0.2-0.9c-0.1-0.4-0.2-0.6-0.5-0.8c-0.2-0.1-0.6-0.2-0.6-0.3l0,0
		c-0.1,0-0.1,0-0.2,0c-0.1,0-0.4,0.1-0.4,0.1c-0.3,0.1-0.6,0.4-0.6,0.7c-0.1,0.4-0.1,0.7,0.1,1c0.1,0.1,0.1,0.3,0.3,0.4
		c0.1,0.1,0.1,0.1,0.2,0.1c0.1,0.1,0.3,0.1,0.4,0.1c0.1,0,0.1,0.1,0.1,0.1C1452.3,215.3,1452.4,215.2,1452.6,215z"/>
	<path class="st0" d="M1452,210.6L1452,210.6L1452,210.6L1452,210.6z"/>
	<path class="st0" d="M1490.3,207.3c0.6-0.3,0.9-1,0.6-1.7c-0.3-0.6-1-0.9-1.7-0.6c-0.6,0.3-0.9,1-0.6,1.7
		C1488.9,207.3,1489.6,207.6,1490.3,207.3z"/>
	<path class="st0" d="M1527,197c0.2-0.6-0.1-1.4-0.7-1.6c-0.6-0.2-1.4,0.1-1.6,0.7s0.1,1.4,0.7,1.6C1526,198,1526.7,197.7,1527,197z
		"/>
	<path class="st0" d="M1563.2,207.6c0.7,0,1.3-0.6,1.3-1.3s-0.6-1.3-1.3-1.3s-1.3,0.6-1.3,1.3
		C1561.9,206.9,1562.5,207.5,1563.2,207.6z"/>
	<path class="st0" d="M1603.7,205c-0.1-0.7-0.7-1.2-1.4-1.1c-0.7,0.1-1.2,0.6-1.1,1.4c0.1,0.7,0.7,1.2,1.4,1.1
		C1603.2,206.2,1603.7,205.6,1603.7,205z"/>
	<path class="st0" d="M1641.5,202.9c0.7-0.1,1.2-0.7,1.1-1.4c-0.1-0.7-0.7-1.2-1.4-1.1c-0.7,0.1-1.2,0.7-1.1,1.4
		C1640.3,202.4,1640.8,202.9,1641.5,202.9z"/>
	<path class="st0" d="M1310.7,241.2c0.8-0.3,1.3-1.2,1-2c-0.3-0.8-1.2-1.3-2-1c-0.8,0.3-1.3,1.2-1,2
		C1309,241,1309.9,241.4,1310.7,241.2z"/>
	<path class="st0" d="M1346.9,239.3c-0.1,0.8,0.6,1.6,1.4,1.7s1.6-0.6,1.7-1.4c0.1-0.8-0.6-1.6-1.4-1.7
		C1347.7,237.8,1346.9,238.4,1346.9,239.3z"/>
	<path class="st0" d="M1385.7,243.3c-0.1,0.8,0.6,1.6,1.4,1.7c0.8,0.1,1.6-0.6,1.7-1.4c0.1-0.8-0.6-1.6-1.4-1.7
		C1386.5,241.8,1385.7,242.3,1385.7,243.3z"/>
	<path class="st0" d="M1425.5,243.4c-0.8,0.2-1.3,1.1-1.1,1.9c0.2,0.8,1,1.3,1.9,1.1s1.3-1.1,1.1-1.9
		C1427.1,243.7,1426.2,243.2,1425.5,243.4z"/>
	<path class="st0" d="M1462.4,238.7c-0.1,0.8,0.6,1.6,1.5,1.6c0.8,0.1,1.6-0.6,1.6-1.5c0.1-0.8-0.6-1.6-1.5-1.6
		C1463.1,237.2,1462.4,237.8,1462.4,238.7z"/>
	<path class="st0" d="M1500.8,243.9c-0.2,0.8,0.2,1.7,1.1,2c0.8,0.2,1.7-0.2,2-1.1c0.2-0.8-0.2-1.7-1.1-2
		C1501.8,242.5,1501,243,1500.8,243.9z"/>
	<path class="st0" d="M1540.5,244.9c-0.8,0.1-1.5,0.8-1.4,1.7c0.1,0.8,0.8,1.5,1.7,1.4s1.5-0.8,1.4-1.7
		C1542.1,245.4,1541.3,244.8,1540.5,244.9z"/>
	<path class="st0" d="M1579.3,242.1c-0.8,0.1-1.5,0.8-1.5,1.7c0.1,0.8,0.8,1.5,1.7,1.5c0.8-0.1,1.5-0.8,1.5-1.7
		C1581,242.7,1580.2,242.1,1579.3,242.1z"/>
	<path class="st0" d="M1618,242.5c-0.2,0.1-0.6,0.1-0.4,0.2c0,0.1,0,0.1-0.1,0.1c-0.1,0.1-0.1,0.1-0.1,0.1c-0.1,0.1-0.2,0.2-0.3,0.4
		c-0.1,0.2-0.3,0.6-0.3,0.8c0,0.4,0.1,0.6,0.2,0.8c0.1,0.1,0.1,0.2,0.3,0.4c0.1,0.1,0.1,0.1,0.1,0.1c0.1,0.1,0.2,0.1,0.3,0.1
		c0.5,0,0.6,0,0.8-0.1c0.8-0.2,1.4-1.1,1.2-1.9C1619.7,242.7,1618.9,242.3,1618,242.5z"/>
	<path class="st0" d="M1294.7,275.5c-0.8-0.4-1.7,0.1-2,0.9c-0.3,0.8,0.1,1.7,0.9,2c0.8,0.3,1.7-0.1,2-0.9
		C1295.9,276.7,1295.4,275.8,1294.7,275.5z"/>
	<path class="st0" d="M1331.4,284.5c-0.8,0.1-1.5,0.8-1.5,1.7c0.1,0.8,0.8,1.5,1.7,1.5c0.8-0.1,1.5-0.8,1.5-1.7
		C1333.1,285.1,1332.4,284.4,1331.4,284.5z"/>
	<path class="st0" d="M1372.3,284c-0.1-0.8-0.8-1.5-1.7-1.5c-0.8,0.1-1.5,0.8-1.5,1.6c0.1,0.8,0.8,1.5,1.7,1.5
		C1371.6,285.6,1372.3,284.9,1372.3,284z"/>
	<path class="st0" d="M1409.8,286c-0.8-0.1-1.7,0.4-1.8,1.3c-0.1,0.8,0.4,1.7,1.3,1.8c0.8,0.1,1.7-0.4,1.8-1.3
		C1411.3,286.9,1410.6,286.1,1409.8,286z"/>
	<path class="st0" d="M1449.8,287.8c-0.1-0.1-0.2-0.2-0.3-0.2c-0.2-0.1-0.6-0.2-0.8-0.2c-0.8,0-1.6,0.7-1.6,1.6
		c0,0.9,0.7,1.6,1.6,1.6c0.3,0,0.6-0.1,0.8-0.2c0.1-0.1,0.2-0.1,0.3-0.2c0.1-0.1,0.1-0.2,0.1-0.4c0.1-0.2,0.2-0.4,0.2-0.7
		s0.1-0.6-0.1-0.8C1450,288,1449.8,287.9,1449.8,287.8z"/>
	<path class="st0" d="M1488.3,293c-0.5-0.7-1.5-0.9-2.2-0.4c-0.1,0.1-0.1,0.1-0.2,0.2c-0.1,0.1-0.1,0.1-0.1,0.1v0.1
		c0.1,0.1,0.1,0.2,0.1,0.4c0,0.3-0.1,0.6-0.2,1.1c-0.1,0.4,0.1,0.8,0.7,1.3c0.2,0,0.6-0.1,0.9-0.1c0.1-0.1,0.1-0.1,0.2-0.1
		c0.1,0,0.1-0.1,0.1-0.1c0.1-0.1,0.2-0.1,0.3-0.1C1488.6,294.7,1488.8,293.7,1488.3,293z"/>
	<path class="st0" d="M1520,271.8l-0.1-0.1l-0.2-0.1c-0.1-0.1-0.3-0.1-0.4-0.1c-0.3-0.1-0.6-0.1-0.7-0.1c-0.3,0.4-0.6,0.7-0.6,1.1
		c-0.1,0.3,0.1,0.6,0.1,0.8c0.1,0.2,0.3,0.4,0.6,0.6c0.1,0.1,0.3,0.4,0.3,0.4c0.1,0.1,0.1,0.1,0.1,0.2c0,0.1,0,0.1,0,0.1l0,0
		l0.1,0.1c0.8,0.2,1.7-0.2,2-1C1521.3,272.9,1520.9,272.1,1520,271.8z"/>
	<path class="st0" d="M1557.6,281.6c-0.8-0.1-1.6,0.6-1.7,1.5c-0.1,0.8,0.6,1.6,1.5,1.7s1.6-0.6,1.7-1.5
		C1559.1,282.4,1558.5,281.6,1557.6,281.6z"/>
	<path class="st0" d="M1596.7,284.7c-0.8-0.1-1.6,0.6-1.7,1.4c-0.1,0.8,0.6,1.6,1.4,1.7c0.8,0.1,1.6-0.6,1.7-1.4
		C1598.2,285.5,1597.6,284.7,1596.7,284.7z"/>
	<path class="st0" d="M1636.7,293.1c0.2-0.8-0.3-1.7-1.1-1.9c-0.8-0.2-1.7,0.3-1.9,1.1c-0.2,0.8,0.3,1.7,1.1,1.9
		C1635.5,294.5,1636.4,294,1636.7,293.1z"/>
	<path class="st0" d="M1232,9.1c1.1-0.1,1.9-1.1,1.8-2.2c-0.1-1.1-1.1-1.9-2.2-1.8c-1.1,0.1-1.9,1.1-1.8,2.2
		C1230,8.4,1230.9,9.2,1232,9.1z"/>
	<path class="st0" d="M1270,11.1c1.1,0.3,2.2-0.3,2.4-1.4c0.3-1.1-0.3-2.2-1.4-2.4c-1.1-0.3-2.2,0.3-2.4,1.4
		C1268.3,9.7,1269,10.8,1270,11.1z"/>
	<path class="st0" d="M1196.2,17.9c-0.4-1-1.5-1.5-2.5-1.1c-1,0.4-1.5,1.5-1.1,2.5c0.4,1,1.5,1.5,2.5,1.1
		C1196.1,20,1196.6,18.9,1196.2,17.9z"/>
	<path class="st0" d="M1234.4,47c-1.1-0.1-2,0.7-2.2,1.8c-0.1,1.1,0.7,2,1.8,2.2c1.1,0.1,2-0.7,2.2-1.8
		C1236.3,48,1235.5,47,1234.4,47z"/>
	<path class="st0" d="M1274.1,58.7c0.4-1-0.1-2.2-1.1-2.5c-1-0.4-2.2,0.1-2.5,1.1c-0.4,1,0.1,2.2,1.1,2.5
		C1272.6,60.2,1273.7,59.7,1274.1,58.7z"/>
	<path class="st0" d="M1198,60.1c1-0.4,1.4-1.6,1-2.7c-0.4-1-1.6-1.4-2.7-1c-1,0.4-1.4,1.6-1,2.7C1195.9,60.1,1197,60.5,1198,60.1z"
		/>
	<path class="st0" d="M1241.2,97.7c0-1.1-0.9-2-2-2s-2,0.9-2,2c0,1.1,0.9,2,2,2S1241.2,98.8,1241.2,97.7z"/>
	<path class="st0" d="M1276.2,87c0.9-0.6,1.3-1.8,0.7-2.7c-0.6-0.9-1.8-1.3-2.7-0.7c-0.9,0.6-1.3,1.8-0.7,2.7
		C1274.1,87.2,1275.3,87.5,1276.2,87z"/>
	<path class="st0" d="M1199.9,96.2c-1.1,0-2,0.9-2,2c0,1.1,0.9,2,2,2s2-0.9,2-2C1201.9,97.1,1201,96.2,1199.9,96.2z"/>
	<path class="st0" d="M1220.8,137.9c-0.1-0.1-0.8,0.1-0.8,0.1l-0.1,0.1c-0.5,0.1-0.9,0.4-1.2,0.9c-0.3,0.5-0.3,1-0.2,1.5l0.1,0.1
		c0,0.1,0.1,0.1,0.1,0.1c0.1,0.1,0.1,0.1,0.1,0.2c0.1,0.1,0.3,0.4,0.4,0.5l0,0c0.7,0.6,1.8,0.6,2.5-0.1c0.1-0.1,0.1-0.1,0.1-0.1
		c0.1-0.2,0.3-0.4,0.4-0.6c0.1-0.2,0.1-0.3,0.1-0.4c0.1-0.5-0.1-1.1-0.3-1.5C1221.7,138.3,1221.3,138,1220.8,137.9z"/>
	<path class="st0" d="M1227.4,175.9c-1.1,0.2-1.8,1.2-1.6,2.3c0.2,1.1,1.2,1.8,2.3,1.6c1.1-0.2,1.8-1.2,1.6-2.3
		C1229.5,176.5,1228.5,175.7,1227.4,175.9z"/>
	<path class="st0" d="M1275.5,166.4c-1.1,0.2-1.8,1.3-1.5,2.4c0.2,1.1,1.3,1.8,2.4,1.5c1.1-0.2,1.8-1.3,1.5-2.4
		C1277.7,166.9,1276.6,166.2,1275.5,166.4z"/>
	<path class="st0" d="M1255.3,145.1c-1.1,0.2-1.8,1.3-1.5,2.4c0.2,1.1,1.3,1.8,2.4,1.5c1.1-0.2,1.8-1.3,1.5-2.4
		C1257.5,145.5,1256.4,144.8,1255.3,145.1z"/>
	<path class="st0" d="M1255.3,114.5c-1.1,0.2-1.8,1.3-1.5,2.4c0.2,1.1,1.3,1.8,2.4,1.5c1.1-0.2,1.8-1.3,1.5-2.4
		C1257.5,114.9,1256.4,114.2,1255.3,114.5z"/>
	<path class="st0" d="M1240.8,206.5c-0.8,0.6-1,1.9-0.3,2.7c0.7,0.8,1.9,1,2.7,0.4c0.8-0.6,1-1.9,0.3-2.7S1241.7,205.8,1240.8,206.5
		z"/>
	<path class="st0" d="M1267.2,204.3c0.6-0.8,0.5-2.1-0.4-2.7c-0.8-0.6-2.1-0.5-2.7,0.4c-0.6,0.8-0.5,2.1,0.4,2.7
		C1265.3,205.3,1266.5,205.1,1267.2,204.3z"/>
	<path class="st0" d="M1269.3,245.3c-1-0.2-2.1,0.4-2.3,1.5c-0.2,1.1,0.4,2.1,1.5,2.3c1,0.2,2.1-0.4,2.3-1.5
		C1271,246.6,1270.4,245.6,1269.3,245.3z"/>
	<path class="st0" d="M1311.8,310.2c-1.1-0.1-2,0.8-2,1.9c-0.1,1.1,0.8,2,1.9,2c1.1,0.1,2-0.8,2-1.9
		C1313.7,311.2,1312.9,310.2,1311.8,310.2z"/>
	<path class="st0" d="M1349.3,324.2c-1-0.4-2.2-0.1-2.7,1c-0.4,1-0.1,2.2,1,2.7c1,0.4,2.2,0.1,2.7-1
		C1350.7,325.9,1350.3,324.7,1349.3,324.2z"/>
	<path class="st0" d="M1387.3,331.1c-0.2,0-0.3,0.1-0.6,0.1c-0.1,0.1-0.1,0.1-0.2,0.1c0,0-0.1,0-0.1,0.1v0.1v0.1
		c-0.1,0.1,0,0.1-0.1,0.1c-0.1,0.1-0.1,0.1-0.2,0.1c-0.1,0.1-0.2,0.2-0.3,0.4c-0.2,0.3-0.4,0.6-0.4,0.9c-0.1,0.4,0,0.7,0.1,1
		c0.1,0.1,0.1,0.4,0.2,0.4c0.1,0.1,0.1,0.1,0.1,0.2c0,0.1,0.2,0.1,0.3,0.2l0.2,0.1l0.1,0.1c0.1,0,0.1,0,0.1,0.1
		c0.1,0.1,0.1,0.1,0.2,0.1c0.1,0.1,0.3,0.1,0.6,0.1c1.1-0.1,2-0.9,2-2C1389.4,332,1388.5,331.1,1387.3,331.1z"/>
	<path class="st0" d="M1424.7,326c-0.9,0.6-1.2,1.8-0.6,2.7c0.6,0.9,1.8,1.2,2.7,0.6c0.9-0.6,1.2-1.8,0.6-2.7
		C1426.8,325.7,1425.6,325.5,1424.7,326z"/>
	<path class="st0" d="M1461.9,314.5c0.4-1.1-0.1-2.2-1.2-2.5c-1-0.4-2.2,0.1-2.5,1.2c-0.4,1.1,0.1,2.2,1.2,2.5
		C1460.4,316.1,1461.5,315.6,1461.9,314.5z"/>
	<path class="st0" d="M1498.1,325.1c1.1,0,2-0.8,2-2c0-1.1-0.8-2-2-2c-1.1,0-2,0.8-2,2C1496.2,324.2,1497.1,325.1,1498.1,325.1z"/>
	<path class="st0" d="M1538,324.8c-1.1-0.1-2.1,0.6-2.3,1.7c-0.1,1.1,0.6,2.1,1.7,2.3c1.1,0.1,2.1-0.6,2.3-1.7
		C1539.8,326,1539.1,325,1538,324.8z"/>
	<path class="st0" d="M1575,317.9c1-0.6,1.3-1.8,0.8-2.7c-0.6-1-1.8-1.3-2.7-0.8c-1,0.6-1.3,1.8-0.8,2.7
		C1572.8,318.2,1574,318.5,1575,317.9z"/>
	<path class="st0" d="M1614.3,312.9c0.1-1.1-0.7-2-1.9-2.2c-1.1-0.1-2,0.7-2.2,1.9c-0.1,1.1,0.7,2,1.9,2.2
		C1613.3,314.9,1614.3,314.1,1614.3,312.9z"/>
	<path class="st0" d="M1649.5,312.2c-0.1,0.3-0.2,0.6-0.2,0.9s0.1,0.6,0.2,0.9c0.1,0.1,0.1,0.2,0.3,0.4v-2.7l0,0
		C1649.7,311.9,1649.7,311.9,1649.5,312.2z"/>
	<path class="st0" d="M1417.7,366.4c-0.1-0.1-0.1-0.1-0.1-0.1l-0.1-0.1c-0.1-0.1,0-0.1-0.1-0.1c-0.1-0.1-0.1-0.1-0.1-0.1
		c-0.1-0.1-0.2-0.1-0.4-0.2c-0.2-0.1-0.6-0.2-0.8-0.2c-1.1-0.1-2,0.8-2,1.9c-0.1,1.1,0.8,2,1.9,2c0.3,0,0.6-0.1,0.8-0.1
		c0.1-0.1,0.2-0.1,0.3-0.2c0.1-0.1,0.1-0.1,0.1-0.1s0.1-0.1,0.2-0.1s0.1-0.1,0.1-0.1c0.1-0.1,0.1-0.1,0.1-0.1
		c0.1-0.1,0.1-0.2,0.1-0.4c0.1-0.2,0.1-0.4,0.1-0.7c0-0.2-0.1-0.5-0.1-0.7C1417.7,366.6,1417.7,366.6,1417.7,366.4z"/>
	<path class="st0" d="M1454.3,361.7c-0.5,0.2-0.8,0.6-1,1.1c-0.2,0.5-0.1,1,0.1,1.5c0.1,0.5,0.7,0.8,1.1,1c0.5,0.1,1,0.1,1.5-0.1
		c1-0.5,1.4-1.7,0.9-2.7C1456.5,361.6,1455.3,361.2,1454.3,361.7z"/>
	<path class="st0" d="M1493.4,349.6c0.1-1.1-0.7-2-1.8-2.2c-1.1-0.1-2,0.7-2.2,1.8c-0.1,1.1,0.7,2,1.8,2.2
		C1492.5,351.5,1493.4,350.7,1493.4,349.6z"/>
	<path class="st0" d="M1530.6,355.5c-1-0.5-2.2-0.1-2.7,0.9c-0.5,1-0.1,2.2,0.9,2.7c1,0.5,2.2,0.1,2.7-0.9
		C1532,357.1,1531.6,356,1530.6,355.5z"/>
	<path class="st0" d="M1500.5,370c-3.5-1.7-7.7-0.2-9.4,3.2s-0.2,7.7,3.2,9.4c3.5,1.7,7.7,0.2,9.4-3.2
		C1505.4,375.9,1503.9,371.6,1500.5,370z"/>
	<path class="st0" d="M1565.8,360.8c-1.1,0.4-1.6,1.5-1.3,2.5c0.3,1,1.5,1.6,2.4,1.3c1.1-0.4,1.6-1.5,1.3-2.5
		C1567.9,361,1566.8,360.4,1565.8,360.8z"/>
	<path class="st0" d="M1605.3,357.9c-1.1-0.1-2,0.6-2.2,1.7c-0.1,1.1,0.6,2,1.7,2.2c1.1,0.1,2-0.6,2.2-1.7
		C1607.1,359.1,1606.3,358.1,1605.3,357.9z"/>
	<path class="st0" d="M1641.2,359.3c1,0.4,2.2-0.1,2.5-1.1c0.4-1-0.1-2.2-1.1-2.5c-1-0.4-2.2,0.1-2.5,1.1
		C1639.7,357.8,1640.1,358.9,1641.2,359.3z"/>
	<path class="st0" d="M1465,397.4c-1-0.5-2.2-0.1-2.7,0.9c-0.5,1-0.1,2.2,0.9,2.7c1,0.5,2.2,0.1,2.7-0.9
		C1466.3,399,1466,397.9,1465,397.4z"/>
	<path class="st0" d="M1374.3,355.2c-1-0.5-2.2-0.1-2.7,0.9c-0.5,1-0.1,2.2,0.9,2.7c1,0.5,2.2,0.1,2.7-0.9
		C1375.7,356.8,1375.3,355.7,1374.3,355.2z"/>
	<path class="st0" d="M1505.1,403.1c-1,0.6-1.3,1.8-0.8,2.7c0.6,0.9,1.8,1.3,2.7,0.8c1-0.6,1.3-1.8,0.8-2.7
		C1507.3,402.9,1506.1,402.6,1505.1,403.1z"/>
	<path class="st0" d="M1561.7,410.1c-1,0.6-1.3,1.8-0.8,2.7c0.5,0.9,1.8,1.3,2.7,0.8c1-0.6,1.3-1.8,0.8-2.7
		C1563.9,409.9,1562.7,409.6,1561.7,410.1z"/>
	<path class="st0" d="M1603.9,410.1c-1,0.6-1.3,1.8-0.8,2.7c0.6,0.9,1.8,1.3,2.7,0.8c1-0.6,1.3-1.8,0.8-2.7
		C1606,409.9,1604.8,409.6,1603.9,410.1z"/>
	<path class="st0" d="M1536,391.3c-1.1-0.1-2,0.6-2.2,1.8c-0.1,1.1,0.6,2,1.8,2.2s2-0.6,2.2-1.8
		C1537.9,392.4,1537.1,391.4,1536,391.3z"/>
	<path class="st0" d="M1574.4,389c-1.1,0.2-1.8,1.2-1.6,2.2c0.1,1.1,1.2,1.8,2.2,1.6c1.1-0.2,1.8-1.2,1.6-2.2
		C1576.5,389.6,1575.5,388.8,1574.4,389z"/>
	<path class="st0" d="M1615.7,391.8c-0.1-0.1-0.1-0.1-0.1-0.2c-0.1-0.1-0.2-0.3-0.3-0.4c-0.3-0.2-0.6-0.4-1-0.4
		c-1.1-0.1-2,0.6-2.2,1.8c-0.1,1.1,0.6,2,1.8,2.2c0.3,0.1,0.7-0.1,1.1-0.1c0.1-0.1,0.3-0.1,0.4-0.3c0.1-0.1,0.1-0.1,0.2-0.2
		c0.1-0.1,0.1-0.1,0.1-0.2c0.1-0.2,0.3-0.6,0.4-0.8c0.1-0.4,0.1-0.6-0.1-1C1615.8,392,1615.7,391.9,1615.7,391.8z"/>
	<path class="st0" d="M1641.3,391.1c-4,5.2-3,12.7,2.2,16.7c2,1.5,4.2,2.2,6.4,2.5v-23.7C1646.7,386.7,1643.5,388.3,1641.3,391.1z"
		/>
	<path class="st0" d="M1316.4,85.8c-4.8-3.7-11.8-2.8-15.5,2s-2.8,11.8,2,15.5c4.8,3.7,11.8,2.8,15.5-2
		C1322.2,96.5,1321.3,89.5,1316.4,85.8z"/>
</g>
<g>
	<path class="st0" d="M117.4,541.6c-1.1,0.1-1.9,1-1.8,2s1,1.9,2,1.8c1.1-0.1,1.9-1,1.8-2C119.4,542.4,118.5,541.6,117.4,541.6z"/>
	<path class="st0" d="M-7.6,558c0.5,0.1,1-0.2,1.1-0.7s-0.2-1-0.7-1.1c-0.5-0.1-1,0.2-1.1,0.7S-8.1,557.9-7.6,558z"/>
	<path class="st0" d="M20.6,560.6c0.4,0.3,1,0.2,1.3-0.2c0.3-0.4,0.2-1-0.2-1.3c-0.4-0.3-1-0.2-1.3,0.2
		C20.1,559.8,20.2,560.3,20.6,560.6z"/>
	<path class="st0" d="M36.5,558.1c0,0,0.1,0,0.1,0l0.1,0c0,0,0,0,0,0c0,0,0-0.1,0-0.1c0-0.2,0.4-0.4,0.4-0.7s0.1-0.6-0.5-0.9
		c-0.1,0-0.3,0-0.4,0c0,0-0.1,0-0.1,0l-0.1,0c0,0-0.1,0-0.1,0c-0.5,0.2-0.8,0.7-0.6,1.2S36,558.2,36.5,558.1z"/>
	<path class="st0" d="M51.3,560.9c0,0,0.1,0.1,0.2,0.1c0,0,0.1,0,0.1,0.1c0.2,0.1,0.4,0.1,0.6,0c0.5-0.1,0.8-0.6,0.7-1.1
		c-0.1-0.5-0.6-0.8-1.1-0.7c-0.2,0-0.4,0.1-0.5,0.3c0,0-0.1,0.1-0.1,0.1c0,0,0,0.1,0,0.1c0,0.1,0,0.2-0.1,0.3c0,0.1-0.1,0.2-0.1,0.3
		c0,0.1,0,0.2,0.1,0.3C51.1,560.8,51.2,560.8,51.3,560.9z"/>
	<path class="st0" d="M67.9,557.9c0.5-0.1,0.9-0.5,0.8-1c-0.1-0.5-0.5-0.9-1-0.8c-0.5,0.1-0.9,0.5-0.8,1
		C67,557.6,67.4,558,67.9,557.9z"/>
	<path class="st0" d="M147.2,557.7c0,0,0.1,0,0.2,0c0,0,0.1,0,0.1,0c0.2,0.1,0.3,0.1,0.5,0c0.5-0.1,0.8-0.6,0.6-1.1
		c-0.1-0.5-0.6-0.8-1.1-0.6c-0.2,0-0.3,0.1-0.4,0.3c0,0-0.1,0.1-0.1,0.1c0,0,0,0.1,0,0.1c0,0.1,0,0.1,0,0.2c0,0.1-0.1,0.2-0.1,0.4
		c0,0.1,0,0.3,0.1,0.4C147,557.6,147.1,557.7,147.2,557.7z"/>
	<path class="st0" d="M193.7,560.7c0.5,0,0.9-0.4,1-0.9c0-0.5-0.4-0.9-0.9-1c-0.5,0-0.9,0.4-1,0.9
		C192.8,560.2,193.2,560.7,193.7,560.7z"/>
	<path class="st0" d="M209.5,557.3c0.5-0.2,0.7-0.8,0.4-1.2c-0.2-0.5-0.8-0.7-1.2-0.4c-0.5,0.2-0.7,0.8-0.4,1.2
		C208.5,557.3,209,557.5,209.5,557.3z"/>
	<path class="st0" d="M-7.9,573.5c0.5,0,0.9-0.4,0.9-0.9c0-0.5-0.4-0.9-0.9-0.9c-0.5,0-0.9,0.4-0.9,0.9
		C-8.9,573.1-8.4,573.5-7.9,573.5z"/>
	<path class="st0" d="M9.1,571c-0.1-0.5-0.5-0.9-1-0.8c-0.5,0.1-0.9,0.5-0.8,1c0.1,0.5,0.5,0.9,1,0.8C8.8,571.9,9.1,571.5,9.1,571z"
		/>
	<path class="st0" d="M39.1,575.4c0.5-0.1,0.8-0.7,0.6-1.2c-0.1-0.5-0.7-0.8-1.2-0.6c-0.5,0.1-0.8,0.7-0.6,1.2
		S38.7,575.5,39.1,575.4z"/>
	<path class="st0" d="M54.5,571.9c0.5,0,0.9-0.4,0.9-0.9c0-0.5-0.4-0.9-0.9-0.9s-0.9,0.4-0.9,0.9C53.6,571.5,54,571.9,54.5,571.9z"
		/>
	<path class="st0" d="M70.9,574.4c0.2-0.5,0-1-0.4-1.2c-0.5-0.2-1,0-1.2,0.4c-0.2,0.5,0,1,0.4,1.2C70.1,575,70.7,574.8,70.9,574.4z"
		/>
	<path class="st0" d="M85.2,576c0.5-0.2,0.7-0.7,0.5-1.2c-0.2-0.5-0.7-0.7-1.2-0.5c-0.5,0.2-0.7,0.7-0.5,1.2
		C84.2,576,84.7,576.2,85.2,576z"/>
	<path class="st0" d="M100.5,571.5c0.5-0.1,0.8-0.6,0.7-1.1c-0.1-0.5-0.6-0.8-1.1-0.7c-0.5,0.1-0.8,0.6-0.7,1.1
		C99.5,571.3,100,571.6,100.5,571.5z"/>
	<path class="st0" d="M116.3,571.1c0.5,0,1-0.3,1-0.9c0-0.5-0.3-1-0.9-1c-0.5,0-1,0.3-1,0.9C115.4,570.6,115.8,571.1,116.3,571.1z"
		/>
	<path class="st0" d="M133.4,569.7c0.1-0.2,0.1-0.4,0-0.6c0-0.1-0.1-0.2-0.1-0.3c0,0,0,0-0.1-0.1c0,0,0,0,0,0l-0.1,0
		c-0.1,0-0.2-0.1-0.3-0.1c-0.1,0-0.1,0-0.2,0l-0.1,0l-0.1,0c-0.5,0-0.9,0.5-0.9,1c0,0.5,0.5,0.9,1,0.9c0,0,0,0,0,0l0,0l0,0
		c0,0,0,0,0,0l0,0c0,0,0,0,0,0c0,0,0.1,0,0.1,0c0.1,0,0.2-0.1,0.3-0.1C133.2,570.1,133.3,569.9,133.4,569.7z"/>
	<path class="st0" d="M148.8,574.6c0.1-0.5-0.2-1-0.7-1.1c-0.2,0-0.4,0-0.6,0.1c-0.2,0.1-0.3,0.2-0.4,0.4c0,0.1-0.1,0.2-0.1,0.3
		c0,0.1,0,0.2,0,0.3c0,0.2,0.1,0.4,0.3,0.5c0.1,0.1,0.3,0.2,0.5,0.3C148.2,575.4,148.7,575.1,148.8,574.6z"/>
	<path class="st0" d="M163.6,575.2c-0.5,0.1-0.8,0.6-0.8,1.1s0.6,0.8,1.1,0.8c0.5-0.1,0.8-0.6,0.8-1.1
		C164.6,575.5,164.1,575.1,163.6,575.2z"/>
	<path class="st0" d="M178.8,575.2c-0.1,0.5,0.3,1,0.8,1.1c0.5,0.1,1-0.3,1.1-0.8c0.1-0.5-0.3-1-0.8-1.1S178.9,574.7,178.8,575.2z"
		/>
	<path class="st0" d="M195.5,572.1c-0.3-0.4-0.8-0.6-1.3-0.3c-0.4,0.3-0.6,0.8-0.3,1.3s0.8,0.6,1.3,0.3
		C195.6,573.1,195.7,572.5,195.5,572.1z"/>
	<path class="st0" d="M208.8,569.7c-0.1,0.5,0.3,1,0.8,1c0.5,0.1,1-0.3,1.1-0.8c0.1-0.5-0.3-1-0.8-1
		C209.4,568.8,208.9,569.2,208.8,569.7z"/>
	<path class="st0" d="M-8.7,591.6c0.5,0.1,1-0.3,1.1-0.8c0.1-0.5-0.3-1-0.8-1.1c-0.5-0.1-1,0.3-1.1,0.8S-9.2,591.6-8.7,591.6z"/>
	<path class="st0" d="M7,588c0.5-0.2,0.7-0.7,0.5-1.2c-0.2-0.5-0.7-0.7-1.2-0.5c-0.5,0.2-0.7,0.7-0.5,1.2C6,587.9,6.6,588.1,7,588z"
		/>
	<path class="st0" d="M20.6,590.8c1.1,0.5,2.4,0,2.9-1.1s0-2.4-1.1-2.9c-1.1-0.5-2.4,0-2.9,1.1C18.9,589,19.4,590.3,20.6,590.8z"/>
	<path class="st0" d="M21,577.8c2.3,1,5,0,6-2.2c1-2.3,0-5-2.2-6c-2.3-1-5,0-6,2.2C17.8,574.1,18.8,576.8,21,577.8z"/>
	<path class="st0" d="M36.8,589.4c0,0-0.1,0.1-0.1,0.1c-0.1,0.1-0.1,0.1-0.2,0.2c-0.1,0.2-0.1,0.4-0.1,0.6c0,0.2,0.1,0.4,0.3,0.5
		c0.1,0.1,0.1,0.1,0.2,0.2c0,0,0.1,0,0.1,0.1c0,0,0,0,0,0l0.1,0l0.1,0l0.1,0c0,0,0.1,0,0.1,0c0,0,0.1,0,0.1,0
		c0.5-0.2,0.7-0.7,0.5-1.2c-0.2-0.5-0.7-0.7-1.2-0.5C36.9,589.2,36.9,589.2,36.8,589.4C36.8,589.3,36.8,589.3,36.8,589.4L36.8,589.4
		L36.8,589.4L36.8,589.4C36.8,589.3,36.8,589.3,36.8,589.4z"/>
	<path class="st0" d="M52,584.6c-0.1,0-0.2,0.1-0.3,0.2c-0.1,0.1-0.2,0.2-0.2,0.3c0,0.1,0,0.3-0.1,0.4c0,0.1,0,0.2,0.1,0.3
		c0.1,0.2,0.3,0.4,0.5,0.5c0.5,0.2,1,0,1.2-0.5c0.2-0.5,0-1-0.5-1.2C52.4,584.5,52.2,584.5,52,584.6z"/>
	<path class="st0" d="M67.6,591.1c0.5,0,0.9-0.5,0.9-1c0-0.5-0.5-0.9-1-0.9c-0.5,0-0.9,0.5-0.9,1C66.6,590.7,67.1,591.1,67.6,591.1z
		"/>
	<path class="st0" d="M83,592.3c0.5,0.2,1-0.1,1.2-0.5c0.2-0.5-0.1-1-0.5-1.2c-0.5-0.2-1,0.1-1.2,0.5
		C82.3,591.6,82.5,592.1,83,592.3z"/>
	<path class="st0" d="M98.8,592.9c0.5-0.2,0.7-0.7,0.6-1.2c-0.2-0.5-0.7-0.7-1.2-0.6c-0.5,0.2-0.7,0.7-0.6,1.2
		C97.8,592.9,98.3,593.1,98.8,592.9z"/>
	<path class="st0" d="M114.2,591.2c0.5,0,1-0.3,1-0.9c0-0.5-0.3-1-0.9-1c-0.5,0-1,0.3-1,0.9C113.3,590.7,113.7,591.1,114.2,591.2z"
		/>
	<path class="st0" d="M130.5,590.4c0.5-0.1,0.9-0.5,0.8-1c-0.1-0.5-0.5-0.9-1-0.8c-0.5,0.1-0.9,0.5-0.8,1
		C129.5,590.1,129.9,590.4,130.5,590.4z"/>
	<path class="st0" d="M146,586.1c-0.1,0-0.1,0-0.2,0.1c-0.1,0.1-0.2,0.1-0.3,0.2c-0.1,0.2-0.2,0.4-0.2,0.7c0,0.3,0.2,0.5,0.4,0.6
		c0.1,0.1,0.2,0.1,0.3,0.1c0.1,0,0.1,0,0.2,0c0,0,0,0,0,0l0,0l0,0c0,0,0,0,0,0c0,0,0,0,0,0c0,0,0,0,0,0l0,0c0.1,0,0.2,0,0.3-0.1
		c0.2-0.1,0.4-0.2,0.5-0.5c0.1-0.2,0.1-0.4,0-0.7c0-0.1-0.1-0.2-0.2-0.3l0,0l-0.1,0c0,0-0.1-0.1-0.1-0.1c-0.1-0.1-0.2-0.1-0.3-0.2
		c-0.1,0-0.2,0-0.2,0c-0.1,0-0.1,0-0.2,0C146.1,586.1,146,586.1,146,586.1z"/>
	<path class="st0" d="M160.3,592.9c-0.1,0.3,0,0.6,0.3,0.9c0.1,0,0.3,0,0.5,0c0,0,0.1,0,0.2,0l0.1,0l0,0l0,0c0.1,0,0.1,0,0.2-0.1
		c0.5-0.2,0.7-0.8,0.5-1.2c-0.2-0.5-0.8-0.7-1.2-0.5c-0.1,0-0.1,0.1-0.2,0.1l0,0c0,0,0,0,0,0l0,0l0,0c0,0,0,0.1,0,0.2
		C160.5,592.4,160.3,592.6,160.3,592.9z"/>
	<path class="st0" d="M175,586.8c0,0.5,0.4,0.9,0.9,0.9s0.9-0.4,0.9-0.9c0-0.5-0.4-0.9-0.9-0.9C175.5,585.9,175,586.3,175,586.8z"/>
	<path class="st0" d="M191.4,589.4c0.5,0.2,1,0,1.2-0.5c0.2-0.5,0-1-0.5-1.2c-0.5-0.2-1,0-1.2,0.5
		C190.7,588.7,190.9,589.2,191.4,589.4z"/>
	<path class="st0" d="M206.9,594.4c0.5,0.1,1-0.3,1-0.8c0.1-0.5-0.3-1-0.8-1c-0.5-0.1-1,0.3-1,0.8
		C206.1,593.8,206.4,594.3,206.9,594.4z"/>
	<path class="st0" d="M-9.7,606.5c0.5,0,1-0.4,1-0.9c0-0.5-0.4-1-0.9-1c-0.5,0-1,0.4-1,0.9C-10.6,606.1-10.2,606.5-9.7,606.5z"/>
	<path class="st0" d="M6,609.5c0.5,0.1,1-0.2,1.1-0.7c0.1-0.5-0.2-1-0.7-1.1c-0.5-0.1-1,0.2-1.1,0.7C5.2,608.9,5.5,609.4,6,609.5z"
		/>
	<path class="st0" d="M20.3,604.6c0.2,0.5,0.8,0.7,1.2,0.5c0.5-0.2,0.7-0.8,0.5-1.2s-0.8-0.7-1.2-0.5
		C20.3,603.6,20.1,604.1,20.3,604.6z"/>
	<path class="st0" d="M36.6,608.6c0-0.1,0-0.2,0-0.2c-0.1-0.1-0.2-0.2-0.3-0.2c-0.5-0.2-1,0-1.2,0.5c-0.2,0.5,0,1,0.5,1.2
		c0.1,0.1,0.2,0.1,0.4,0.1c0.2,0,0.4,0,0.5,0c0.3-0.2,0.4-0.5,0.4-0.7C36.8,609,36.7,608.8,36.6,608.6z"/>
	<path class="st0" d="M51.3,607.4c0,0.1,0.1,0.2,0.2,0.3c0.1,0.1,0.2,0.1,0.4,0.1c0.4,0,0.7-0.3,0.7-0.7c0-0.4-0.3-0.7-0.7-0.7
		c-0.1,0-0.3,0-0.4,0.1c-0.1,0.1-0.2,0.2-0.3,0.3c-0.1,0.1-0.1,0.2-0.1,0.4C51.2,607.2,51.2,607.3,51.3,607.4z"/>
	<path class="st0" d="M67.7,605.2c-0.4,0.1-0.6,0.5-0.5,0.9c0.1,0.4,0.5,0.6,0.9,0.5s0.6-0.5,0.5-0.9
		C68.5,605.4,68.1,605.1,67.7,605.2z"/>
	<path class="st0" d="M83.7,602.9c-0.4,0-0.8,0.2-0.8,0.7c0,0.4,0.2,0.8,0.7,0.8c0.4,0,0.8-0.2,0.8-0.7
		C84.4,603.3,84.1,603,83.7,602.9z"/>
	<path class="st0" d="M245.5,599c-0.8,2.6,0.7,5.4,3.3,6.2c2.6,0.8,5.4-0.7,6.2-3.3c0.8-2.6-0.7-5.4-3.3-6.2S246.3,596.4,245.5,599z
		"/>
	<path class="st0" d="M99,605.6c-0.1,0.4,0.2,0.8,0.6,0.8c0.4,0.1,0.8-0.2,0.8-0.6c0.1-0.4-0.2-0.8-0.6-0.8
		C99.4,604.9,99,605.2,99,605.6z"/>
	<path class="st0" d="M115.3,603c-0.4,0.1-0.6,0.5-0.5,0.9c0.1,0.4,0.5,0.6,0.9,0.5s0.6-0.5,0.5-0.9
		C116.1,603.1,115.7,602.9,115.3,603z"/>
	<path class="st0" d="M132,604.3C132,604.3,132,604.3,132,604.3L132,604.3c0.1-0.1,0.1-0.1,0.1-0.2c0-0.1,0.1-0.2,0.1-0.3
		c0-0.1,0-0.2,0-0.3c0,0,0-0.1-0.1-0.1c0,0,0,0,0,0l0,0c0-0.1-0.1-0.1-0.1-0.2c-0.1-0.1-0.3-0.2-0.4-0.2c-0.4,0-0.8,0.3-0.8,0.7
		c0,0.4,0.3,0.8,0.7,0.8c0.2,0,0.3,0,0.4-0.1C131.9,604.4,132,604.4,132,604.3z"/>
	<path class="st0" d="M146.8,609c0.1,0,0.3-0.1,0.5-0.1c0.1,0,0.1,0,0.1,0c0,0,0,0,0.1,0c0,0,0.1-0.1,0.1-0.1
		c0.1-0.1,0.1-0.1,0.2-0.2c0.1-0.2,0.1-0.4,0-0.6c-0.1-0.2-0.2-0.3-0.4-0.4c-0.1,0-0.2-0.1-0.3-0.1c0,0-0.1,0-0.1,0c0,0,0,0-0.1,0
		c0,0-0.1,0,0,0c0,0,0,0,0,0c0,0,0,0.1,0,0.1c0,0,0,0,0,0.1c0,0-0.1,0-0.1,0.1c-0.1,0.1-0.2,0.2-0.3,0.4c0,0.2,0,0.3,0,0.5
		c0,0,0,0.1,0,0.1c0,0,0.1,0.1,0.1,0.1C146.5,608.8,146.6,608.9,146.8,609z"/>
	<path class="st0" d="M162.7,602.8c0.1-0.4-0.2-0.8-0.6-0.8c-0.4-0.1-0.8,0.2-0.8,0.6s0.2,0.8,0.6,0.8
		C162.3,603.5,162.7,603.2,162.7,602.8z"/>
	<path class="st0" d="M178.8,605c0.1-0.4-0.2-0.8-0.6-0.8s-0.8,0.2-0.8,0.6c-0.1,0.4,0.2,0.8,0.6,0.8
		C178.3,605.7,178.7,605.4,178.8,605z"/>
	<path class="st0" d="M194.9,607.8c0.1-0.5-0.2-1-0.7-1.1c-0.5-0.1-1,0.2-1.1,0.7c-0.1,0.5,0.2,1,0.7,1.1
		C194.3,608.6,194.8,608.3,194.9,607.8z"/>
	<path class="st0" d="M210,609.2c-0.5-0.1-1,0.3-1,0.8c-0.1,0.5,0.3,1,0.8,1c0.5,0.1,1-0.3,1-0.8C210.9,609.7,210.5,609.2,210,609.2
		z"/>
	<path class="st0" d="M-47.7,615.6c-0.5-1.4-2.1-2-3.5-1.5c-1.4,0.5-2,2.1-1.5,3.5c0.5,1.4,2.1,2,3.5,1.5
		C-47.8,618.6-47.1,617-47.7,615.6z"/>
	<path class="st0" d="M-10.3,620.9c0.5,0.1,1-0.3,1.1-0.8c0.1-0.5-0.3-1-0.8-1.1c-0.5-0.1-1,0.3-1.1,0.8S-10.8,620.8-10.3,620.9z"/>
	<path class="st0" d="M6.4,620.5c0.5-0.1,0.9-0.5,0.8-1.1c-0.1-0.5-0.6-0.9-1.1-0.8s-0.9,0.5-0.8,1.1C5.4,620.2,5.9,620.5,6.4,620.5
		z"/>
	<path class="st0" d="M22.7,617.4C22.7,617.4,22.7,617.3,22.7,617.4L22.7,617.4C22.7,617.3,22.7,617.3,22.7,617.4
		c0.1-0.1,0.1-0.1,0.1-0.2c0-0.1,0.1-0.2,0.2-0.3c0.1-0.1,0.2-0.2,0.3-0.3c0.1-0.1,0.2-0.3,0.1-0.5c0-0.2-0.1-0.4-0.3-0.7
		c-0.1,0-0.3,0-0.4,0c-0.1,0-0.2,0-0.2,0l-0.1,0l-0.1,0c-0.5,0.1-0.8,0.6-0.7,1.1C21.6,617.1,22.1,617.5,22.7,617.4z"/>
	<path class="st0" d="M36.4,626.5c0-0.3,0-0.6,0-0.8c0-0.1,0-0.2,0-0.2c-0.1-0.1-0.1-0.2-0.2-0.3c-0.4-0.3-1-0.2-1.3,0.2
		c-0.3,0.4-0.2,1,0.2,1.3c0.1,0.1,0.2,0.1,0.3,0.2c0.2,0.1,0.4,0.1,0.5,0.1C36.3,627,36.4,626.8,36.4,626.5z"/>
	<path class="st0" d="M50.1,620.8c0.1,0,0.2,0,0.3,0c0,0,0.1,0,0.1,0c0,0,0.1,0,0.1,0c0,0,0,0,0,0c0,0,0,0,0,0c0,0,0,0,0,0l0.1,0
		c0.1,0,0.1-0.1,0.2-0.2c0.1-0.1,0.2-0.3,0.2-0.5c0-0.2-0.1-0.4-0.2-0.5c-0.1-0.1-0.1-0.1-0.2-0.2c0,0,0,0-0.1,0c0,0-0.1,0-0.1,0
		c-0.1,0-0.2,0-0.3,0c-0.1,0-0.2,0.1-0.3,0.1c-0.1,0.1-0.1,0.1-0.2,0.1c0,0-0.1,0.1-0.1,0.1c-0.1,0.1-0.1,0.2-0.1,0.3
		c-0.1,0.2-0.1,0.4,0,0.6C49.8,620.7,49.9,620.8,50.1,620.8z"/>
	<path class="st0" d="M66.3,622.2c0.4,0.2,0.8,0,1-0.4c0.2-0.4,0-0.8-0.4-1c-0.4-0.2-0.8,0-1,0.4C65.8,621.6,65.9,622,66.3,622.2z"
		/>
	<path class="st0" d="M81.7,625.1c0.3-0.2,0.4-0.7,0.2-1.1s-0.7-0.4-1.1-0.2c-0.3,0.2-0.4,0.7-0.2,1.1S81.4,625.4,81.7,625.1z"/>
	<path class="st0" d="M94.8,619.6c0.4,0.2,0.8,0,1-0.3c0.2-0.4,0-0.8-0.3-1c-0.4-0.2-0.8,0-1,0.3C94.3,619,94.4,619.4,94.8,619.6z"
		/>
	<path class="st0" d="M110.4,622.9c0.4-0.1,0.6-0.6,0.5-1c-0.1-0.4-0.6-0.6-1-0.5c-0.4,0.1-0.6,0.6-0.5,1
		C109.6,622.8,110.1,623,110.4,622.9z"/>
	<path class="st0" d="M126.2,618.9c0.4,0,0.7-0.4,0.7-0.8c0-0.4-0.4-0.7-0.8-0.7c-0.4,0-0.7,0.4-0.7,0.8
		C125.4,618.7,125.8,619,126.2,618.9z"/>
	<path class="st0" d="M140.9,623c0.4,0.2,0.8,0.1,1-0.3c0.2-0.4,0.1-0.8-0.3-1c-0.4-0.2-0.8-0.1-1,0.3
		C140.4,622.3,140.5,622.8,140.9,623z"/>
	<path class="st0" d="M157.8,625.6c0-0.4-0.3-0.8-0.7-0.8c-0.4,0-0.8,0.3-0.8,0.7c0,0.4,0.3,0.8,0.7,0.8
		C157.4,626.3,157.8,626,157.8,625.6z"/>
	<path class="st0" d="M173.2,621.2C173.3,621.2,173.3,621.2,173.2,621.2c0.1-0.1,0.1-0.2,0.1-0.2c0-0.1,0-0.1,0-0.2
		c0-0.1,0-0.2,0-0.3c0-0.1,0-0.2-0.1-0.3c0-0.1-0.1-0.1-0.2-0.1c0,0-0.1,0-0.1,0c0,0-0.1,0-0.1,0c-0.1,0-0.3,0-0.4,0
		c-0.4,0.2-0.6,0.6-0.4,1c0.2,0.4,0.6,0.6,1,0.4C173,621.5,173.2,621.4,173.2,621.2z"/>
	<path class="st0" d="M188.4,622.6c0.2,0.1,0.3,0.2,0.5,0.2c0.5,0,1-0.4,1-0.9c0-0.5-0.4-1-0.9-1c-0.2,0-0.4,0.1-0.5,0.2
		c-0.1,0.1-0.1,0.1-0.2,0.2c-0.1,0.1-0.1,0.2-0.1,0.2c0,0.1-0.1,0.2-0.1,0.3c0,0.1,0,0.2,0,0.3c0,0.1,0.1,0.2,0.1,0.2
		C188.3,622.5,188.4,622.5,188.4,622.6z"/>
	<path class="st0" d="M205.2,623.9c0.5,0.1,1-0.2,1.1-0.7c0.1-0.5-0.2-1-0.7-1.1c-0.5-0.1-1,0.2-1.1,0.7
		C204.3,623.3,204.7,623.8,205.2,623.9z"/>
	<path class="st0" d="M221.5,623.6c0.5-0.2,0.7-0.8,0.5-1.2c-0.2-0.5-0.8-0.7-1.2-0.5c-0.5,0.2-0.7,0.8-0.5,1.2
		C220.4,623.6,221,623.8,221.5,623.6z"/>
	<path class="st0" d="M-7.4,633.7c-0.5,0.2-0.7,0.8-0.5,1.3c0.2,0.5,0.8,0.7,1.3,0.5c0.5-0.2,0.7-0.8,0.5-1.3
		C-6.4,633.7-6.9,633.5-7.4,633.7z"/>
	<path class="st0" d="M7.5,640.1c-0.4-0.3-1-0.2-1.3,0.3c-0.3,0.4-0.2,1,0.3,1.3c0.4,0.3,1,0.2,1.3-0.3S8,640.4,7.5,640.1z"/>
	<path class="st0" d="M23.8,640.1c-0.1-0.5-0.6-0.9-1.1-0.8c-0.5,0.1-0.9,0.6-0.8,1.1c0.1,0.5,0.6,0.9,1.1,0.8
		C23.5,641.1,23.9,640.7,23.8,640.1z"/>
	<path class="st0" d="M39.5,638.1c0.5-0.2,0.7-0.8,0.5-1.2c-0.2-0.5-0.8-0.7-1.2-0.5c-0.5,0.2-0.7,0.8-0.5,1.2
		C38.4,638.1,39,638.3,39.5,638.1z"/>
	<path class="st0" d="M53.6,634c-0.2,0.4-0.1,0.8,0.3,1c0.4,0.2,0.8,0.1,1-0.3c0.2-0.4,0.1-0.8-0.3-1
		C54.3,633.5,53.8,633.7,53.6,634z"/>
	<path class="st0" d="M69.3,641.3c0.4,0.1,0.8-0.2,0.9-0.6c0.1-0.4-0.2-0.8-0.6-0.9c-0.4-0.1-0.8,0.2-0.9,0.6
		C68.7,640.9,68.9,641.3,69.3,641.3z"/>
	<path class="st0" d="M84.9,638.1c-0.4,0.2-0.5,0.6-0.4,1c0.2,0.4,0.6,0.5,1,0.4s0.5-0.6,0.4-1C85.7,638,85.3,637.9,84.9,638.1z"/>
	<path class="st0" d="M100.2,640c0.4,0.2,0.8,0,1-0.4c0.2-0.4,0-0.8-0.4-1s-0.8,0-1,0.4C99.6,639.4,99.8,639.8,100.2,640z"/>
	<path class="st0" d="M114.6,636.1c0.2,0.4,0.7,0.5,1,0.3c0.4-0.2,0.5-0.7,0.3-1c-0.2-0.4-0.7-0.5-1-0.3
		C114.5,635.3,114.4,635.7,114.6,636.1z"/>
	<path class="st0" d="M129.2,640.4c0.4,0.2,0.8,0.1,1-0.3c0.2-0.4,0.1-0.8-0.3-1c-0.4-0.2-0.8-0.1-1,0.3
		C128.7,639.7,128.8,640.2,129.2,640.4z"/>
	<path class="st0" d="M143.5,636.1c0.2,0.4,0.7,0.5,1,0.3c0.4-0.2,0.5-0.7,0.3-1c-0.2-0.4-0.7-0.5-1-0.3
		C143.5,635.3,143.3,635.7,143.5,636.1z"/>
	<path class="st0" d="M159.9,637.1c0,0,0.1,0,0.2,0.1c0.1,0,0.2,0,0.3,0.1c0.1,0,0.1,0,0.2-0.1c0,0,0.1,0,0.1-0.1c0,0,0,0,0.1,0
		c0,0,0.1-0.1,0.1-0.1c0.1-0.1,0.1-0.1,0.2-0.2c0.1-0.2,0.1-0.4,0-0.6c-0.1-0.2-0.2-0.4-0.4-0.4c-0.1,0-0.2-0.1-0.3-0.1
		c0,0-0.1,0-0.1,0c0,0-0.1,0-0.1,0l0,0l0,0c0,0,0,0,0,0c0,0-0.1,0-0.1,0c-0.1,0-0.2,0.1-0.2,0.1c-0.1,0.1-0.2,0.3-0.3,0.5
		c0,0.2,0,0.4,0.1,0.5C159.8,637,159.9,637.1,159.9,637.1z"/>
	
		<ellipse transform="matrix(0.9344 -0.3561 0.3561 0.9344 -213.5303 104.2222)" class="st0" cx="176.3" cy="632" rx="0.8" ry="0.8"/>
	<path class="st0" d="M193.4,634.3c0.2-0.5,0-1-0.5-1.2c-0.5-0.2-1,0-1.2,0.5c-0.2,0.5,0,1,0.5,1.2
		C192.7,635,193.2,634.8,193.4,634.3z"/>
	<path class="st0" d="M208.5,636.8c0.5-0.1,0.8-0.6,0.7-1.1c-0.1-0.5-0.6-0.8-1.1-0.7s-0.8,0.6-0.7,1.1
		C207.5,636.6,208,636.9,208.5,636.8z"/>
	<path class="st0" d="M-9.3,649.7c-0.5,0.2-0.7,0.7-0.6,1.2c0.2,0.5,0.7,0.7,1.2,0.6c0.5-0.2,0.7-0.7,0.6-1.2
		C-8.2,649.8-8.8,649.5-9.3,649.7z"/>
	<path class="st0" d="M7.1,650.2c-0.5-0.1-1,0.2-1.1,0.7c-0.1,0.5,0.2,1,0.7,1.1c0.5,0.1,1-0.2,1.1-0.7
		C7.9,650.8,7.6,650.3,7.1,650.2z"/>
	<path class="st0" d="M22.5,656C22.5,656.1,22.5,656.1,22.5,656l0.1,0l0,0l0,0c0.1,0,0.2,0,0.3,0c0.4-0.1,0.5-0.2,0.6-0.4
		c0.1-0.2,0.1-0.4,0.1-0.6c0-0.2-0.1-0.4-0.2-0.5c-0.1-0.1-0.4-0.2-0.3-0.3c0,0,0,0,0,0l0,0l0,0l0,0c0,0-0.1,0-0.1,0
		c-0.5-0.1-1,0.2-1.1,0.7S22,655.9,22.5,656z"/>
	<path class="st0" d="M38.5,655.1c0.5,0.2,1-0.1,1.2-0.6c0.2-0.5-0.1-1-0.6-1.2c-0.5-0.2-1,0.1-1.2,0.6
		C37.8,654.4,38,654.9,38.5,655.1z"/>
	<path class="st0" d="M54.5,659.1c0.4,0,0.8-0.3,0.8-0.7c0-0.4-0.3-0.8-0.7-0.8c-0.4,0-0.8,0.3-0.8,0.7
		C53.7,658.8,54.1,659.1,54.5,659.1z"/>
	<path class="st0" d="M70.5,656.2c0.4-0.2,0.5-0.6,0.3-1c-0.2-0.4-0.6-0.5-1-0.3c-0.4,0.2-0.5,0.6-0.3,1
		C69.7,656.3,70.1,656.4,70.5,656.2z"/>
	<path class="st0" d="M85.4,650c-0.4,0.1-0.7,0.4-0.6,0.8c0.1,0.4,0.4,0.7,0.8,0.6c0.4-0.1,0.7-0.4,0.6-0.8
		C86.2,650.2,85.8,649.9,85.4,650z"/>
	<path class="st0" d="M101.8,649.8c-0.4,0-0.8,0.3-0.8,0.7c0,0.4,0.3,0.8,0.7,0.8c0.4,0,0.8-0.3,0.8-0.7
		C102.6,650.1,102.3,649.8,101.8,649.8z"/>
	<path class="st0" d="M118.1,647.6C118.1,647.6,118.1,647.6,118.1,647.6c-0.1,0-0.1,0-0.1,0c-0.1,0-0.1,0-0.2,0
		c-0.4,0.1-0.7,0.5-0.6,0.9c0.1,0.4,0.5,0.7,0.9,0.6c0.1,0,0.1,0,0.2-0.1c0,0,0.1,0,0.1,0c0,0,0,0,0,0l0,0c0-0.1,0-0.1,0.1-0.3
		c0.1-0.1,0.1-0.2,0.2-0.4c0.1-0.2,0.1-0.3,0-0.5C118.5,647.7,118.4,647.6,118.1,647.6L118.1,647.6z"/>
	<path class="st0" d="M131.1,656.1c-0.2,0.3-0.1,0.8,0.2,1c0.1,0.1,0.3,0.1,0.4,0.1l0.1,0c0,0,0.1,0,0.1,0c0,0,0.1,0,0.1,0
		c0.1,0,0.2,0,0.2-0.1c0.1-0.1,0.1-0.2,0.2-0.3s0-0.2,0-0.3c0-0.1,0-0.1,0-0.2c0,0,0-0.1,0-0.1c0,0,0,0,0,0l0,0
		c-0.1-0.1-0.1-0.2-0.3-0.3C131.8,655.7,131.3,655.8,131.1,656.1z"/>
	<path class="st0" d="M147.5,657.5C147.5,657.5,147.6,657.5,147.5,657.5c0.1,0,0.1,0,0.1,0c0.1,0,0.3,0,0.4-0.1
		c0.3-0.2,0.4-0.7,0.2-1c-0.2-0.3-0.7-0.4-1-0.2c-0.1,0.1-0.2,0.2-0.3,0.3c0,0,0,0,0,0l0,0c0,0,0,0.1,0,0.1c0,0.1,0,0.1,0,0.2
		c0,0.1,0,0.2,0,0.3c0,0.1,0.1,0.2,0.2,0.3c0.1,0,0.1,0.1,0.2,0.1C147.4,657.5,147.5,657.5,147.5,657.5z"/>
	<path class="st0" d="M161,649.3C161,649.3,161,649.4,161,649.3c0.1,0.1,0.2,0.1,0.3,0.1c0.4,0.1,0.8-0.1,0.9-0.5
		c0.1-0.4-0.1-0.8-0.5-0.9c-0.1,0-0.1,0-0.2,0c0,0-0.1,0-0.1,0l0,0l0,0l-0.1,0c-0.2,0-0.4,0.1-0.4,0.2c-0.1,0.2-0.1,0.3,0,0.5
		c0,0.1,0.1,0.2,0.1,0.3C160.9,649.1,161,649.2,161,649.3L161,649.3L161,649.3L161,649.3z"/>
	<path class="st0" d="M177.5,651.7c-0.4-0.1-0.8,0.2-0.9,0.6c-0.1,0.4,0.2,0.8,0.6,0.9c0.4,0.1,0.8-0.2,0.9-0.6
		C178.1,652.2,177.9,651.8,177.5,651.7z"/>
	<path class="st0" d="M194.4,653.2c-0.1-0.5-0.5-0.9-1.1-0.8c-0.5,0.1-0.9,0.5-0.8,1.1c0.1,0.5,0.5,0.9,1.1,0.8
		C194.1,654.2,194.5,653.7,194.4,653.2z"/>
	<path class="st0" d="M210.7,652.1c0-0.5-0.4-0.9-0.9-0.9c-0.5,0-0.9,0.4-0.9,0.9c0,0.5,0.4,0.9,0.9,0.9
		C210.3,653.1,210.7,652.7,210.7,652.1z"/>
	<path class="st0" d="M-8.7,670.6c0.4-0.3,0.6-0.8,0.3-1.3c-0.3-0.4-0.8-0.6-1.3-0.3c-0.4,0.3-0.6,0.8-0.3,1.3
		C-9.7,670.7-9.2,670.9-8.7,670.6z"/>
	<path class="st0" d="M6.5,667.5c0.5,0,0.9-0.5,0.9-1c0-0.5-0.5-0.9-1-0.9c-0.5,0-0.9,0.5-0.9,1C5.5,667.1,5.9,667.5,6.5,667.5z"/>
	<path class="st0" d="M21.8,673.6c0.3-0.4,0.1-1-0.3-1.3s-1-0.1-1.3,0.3c-0.3,0.4-0.1,1,0.3,1.3C21,674.2,21.6,674,21.8,673.6z"/>
	<path class="st0" d="M35.4,667.9c0.4-0.3,0.6-0.9,0.3-1.3c-0.3-0.4-0.9-0.6-1.3-0.3c-0.4,0.3-0.6,0.9-0.3,1.3
		C34.4,668,35,668.1,35.4,667.9z"/>
	<path class="st0" d="M51.1,666.5C51,666.5,51,666.5,51.1,666.5c-0.1,0-0.1,0-0.2,0c0,0-0.1,0-0.1,0c0,0,0,0-0.1,0c0,0-0.1,0-0.1,0
		c-0.1,0-0.1,0.1-0.2,0.1c-0.1,0.1-0.2,0.3-0.2,0.5c0,0.2,0,0.4,0.1,0.5c0,0.1,0.1,0.1,0.2,0.2c0,0,0.1,0,0.1,0.1c0,0,0,0,0.1,0
		c0,0,0,0,0,0c0,0,0,0,0,0c0,0,0,0,0.1,0c0.4,0.1,0.8-0.1,0.9-0.5C51.7,667,51.5,666.6,51.1,666.5z"/>
	<path class="st0" d="M66.9,670.4c-0.4-0.1-0.8,0.2-0.9,0.6c-0.1,0.4,0.2,0.8,0.6,0.9c0.4,0.1,0.8-0.2,0.9-0.6
		S67.3,670.5,66.9,670.4z"/>
	<path class="st0" d="M82.1,672.6c0.1,0.4,0.5,0.7,0.9,0.6c0.4-0.1,0.7-0.5,0.6-0.9c-0.1-0.4-0.5-0.7-0.9-0.6
		C82.3,671.8,82,672.2,82.1,672.6z"/>
	<path class="st0" d="M98.7,668.6c0.4-0.2,0.5-0.6,0.4-1c-0.2-0.4-0.6-0.5-1-0.4c-0.4,0.2-0.5,0.6-0.4,1
		C97.9,668.6,98.3,668.7,98.7,668.6z"/>
	<path class="st0" d="M113.5,667.8c0.4,0.1,0.8-0.1,0.9-0.5c0.1-0.4-0.1-0.8-0.5-0.9c-0.4-0.1-0.8,0.1-0.9,0.5
		C112.9,667.3,113.1,667.7,113.5,667.8z"/>
	<path class="st0" d="M129.2,672.4c0.4,0.1,0.8-0.1,0.9-0.5c0.1-0.4-0.1-0.8-0.5-0.9c-0.4-0.1-0.8,0.1-0.9,0.5
		S128.8,672.3,129.2,672.4z"/>
	<path class="st0" d="M144,666.3c-0.4,0.2-0.5,0.6-0.3,1c0.2,0.4,0.6,0.5,1,0.3c0.4-0.2,0.5-0.6,0.3-1
		C144.8,666.3,144.4,666.1,144,666.3z"/>
	<path class="st0" d="M159.9,668.6c0,0,0.1,0,0.1,0.1c0,0,0.1,0,0.1,0c0,0,0.1,0,0.1,0c0,0,0.1,0,0.1,0l0.1,0c0,0,0.1,0,0.1,0
		c0,0,0,0,0.1,0c0,0,0.1,0,0.1-0.1c0.1-0.1,0.2-0.1,0.2-0.2c0.1-0.2,0.2-0.4,0.1-0.6c0-0.2-0.1-0.4-0.3-0.5
		c-0.1-0.1-0.2-0.1-0.3-0.1c0,0-0.1,0-0.1,0c0,0,0,0-0.1,0c0,0,0,0,0,0l0,0v0l0,0c0,0,0,0,0,0c0,0-0.1,0-0.1,0
		c-0.1,0-0.2,0.1-0.2,0.1c-0.1,0.1-0.2,0.3-0.3,0.5c0,0.2,0,0.4,0.1,0.5C159.8,668.5,159.8,668.5,159.9,668.6z"/>
	<path class="st0" d="M176.7,667.4c0.2-0.3,0.1-0.8-0.2-1s-0.8-0.1-1,0.2c-0.2,0.3-0.1,0.8,0.2,1S176.5,667.8,176.7,667.4z"/>
	<path class="st0" d="M190.1,673.3c-0.5,0.1-0.9,0.5-0.8,1s0.5,0.9,1,0.8c0.5-0.1,0.9-0.5,0.8-1
		C191.1,673.6,190.6,673.3,190.1,673.3z"/>
	<path class="st0" d="M207.4,672.7c0-0.5-0.5-0.9-1-0.9c-0.5,0-0.9,0.5-0.9,1c0,0.5,0.5,0.9,1,0.9
		C207.1,673.6,207.5,673.2,207.4,672.7z"/>
	<path class="st0" d="M7.2,683.5c0.5-0.2,0.7-0.8,0.5-1.2c-0.2-0.5-0.8-0.7-1.2-0.5C6,682,5.8,682.6,6,683
		C6.2,683.5,6.8,683.7,7.2,683.5z"/>
	<path class="st0" d="M23,681.8L23,681.8C23.1,681.8,23.1,681.8,23,681.8L23,681.8C23.1,681.8,23.1,681.8,23,681.8
		c0.1,0,0.1-0.1,0.2-0.1c0,0,0.1,0,0.1-0.1c0.1-0.1,0.2-0.1,0.2-0.2c0.1-0.2,0.2-0.3,0.2-0.6s-0.1-0.4-0.2-0.6
		c-0.1-0.1-0.1-0.2-0.2-0.2c0,0-0.1-0.1-0.1-0.1c0,0,0,0-0.1,0c0,0,0,0,0,0l-0.1,0l-0.1,0l-0.1,0c0,0-0.1,0-0.1,0
		c-0.5,0-0.9,0.5-0.9,1c0,0.5,0.5,0.9,1,0.9C22.9,681.9,23,681.8,23,681.8z"/>
	<path class="st0" d="M39.9,682.7c0.2-0.5-0.1-1-0.6-1.2c-0.5-0.2-1,0.1-1.2,0.6c-0.2,0.5,0.1,1,0.6,1.2
		C39.2,683.4,39.7,683.2,39.9,682.7z"/>
	<path class="st0" d="M54.6,686.7c0.4,0,0.7-0.4,0.6-0.8s-0.4-0.7-0.8-0.6s-0.7,0.4-0.6,0.8S54.2,686.8,54.6,686.7z"/>
	<path class="st0" d="M70,688c0.4,0.2,0.8,0,1-0.4s0-0.8-0.4-1c-0.4-0.2-0.8,0-1,0.4S69.6,687.8,70,688z"/>
	<path class="st0" d="M85.9,689.3c0.4-0.1,0.6-0.5,0.6-0.9c-0.1-0.4-0.5-0.6-0.9-0.6s-0.6,0.5-0.6,0.9
		C85.1,689.2,85.5,689.4,85.9,689.3z"/>
	<path class="st0" d="M101.7,685.4c-0.4,0-0.7,0.4-0.7,0.8c0,0.4,0.4,0.7,0.8,0.7s0.7-0.4,0.7-0.8
		C102.5,685.6,102.1,685.3,101.7,685.4z"/>
	<path class="st0" d="M117.5,681.7c0.4-0.2,0.6-0.6,0.4-1c-0.2-0.4-0.6-0.6-1-0.4c-0.4,0.2-0.6,0.6-0.4,1
		C116.6,681.7,117.1,681.9,117.5,681.7z"/>
	<path class="st0" d="M132.4,685.5C132.4,685.5,132.4,685.5,132.4,685.5C132.4,685.5,132.4,685.5,132.4,685.5z"/>
	<polygon class="st0" points="132.4,685.5 132.4,685.5 132.4,685.5 	"/>
	<path class="st0" d="M132.6,684.8C132.6,684.8,132.6,684.9,132.6,684.8c0.1,0,0.1,0,0.1,0c0,0,0.1,0,0.1,0c0.1,0,0.2,0,0.3-0.1
		c0.2-0.1,0.3-0.2,0.4-0.4c0.1-0.2,0.1-0.4,0-0.6c0-0.1-0.1-0.2-0.2-0.2c0,0-0.1-0.1-0.1-0.1c0,0,0,0-0.1,0c0,0,0,0-0.1,0l0,0
		c-0.1,0-0.1,0-0.1,0c0,0,0,0-0.1,0c0,0-0.1,0-0.1,0c-0.1,0-0.2,0-0.3,0.1c-0.2,0.1-0.3,0.2-0.4,0.4c-0.1,0.2,0,0.4,0.1,0.6
		c0,0.1,0.1,0.2,0.2,0.2c0,0,0.1,0.1,0.1,0.1C132.5,684.8,132.5,684.8,132.6,684.8C132.5,684.8,132.6,684.8,132.6,684.8z"/>
	<path class="st0" d="M147.8,689.3c0.2,0.1,0.4,0.1,0.6,0c0.4-0.1,0.6-0.5,0.5-0.9c-0.1-0.4-0.5-0.6-0.9-0.5
		c-0.2,0.1-0.3,0.2-0.4,0.4c0,0,0,0.1,0,0.1c0,0,0,0.1,0,0.1c0,0.1,0,0.2,0,0.3c0,0.1,0,0.2,0.1,0.3c0,0,0.1,0.1,0.1,0.1
		C147.7,689.3,147.7,689.3,147.8,689.3z"/>
	<path class="st0" d="M164.5,685.2c0-0.4-0.3-0.8-0.7-0.8c-0.4,0-0.8,0.3-0.8,0.7s0.3,0.8,0.7,0.8
		C164.2,685.9,164.5,685.6,164.5,685.2z"/>
	<path class="st0" d="M180.9,687.3c0.1-0.5-0.2-1-0.7-1.1c-0.5-0.1-1,0.2-1.1,0.7c-0.1,0.5,0.2,1,0.7,1.1
		C180.3,688.1,180.8,687.8,180.9,687.3z"/>
	<path class="st0" d="M196.1,687.9c0.5-0.1,0.8-0.6,0.7-1.1c-0.1-0.5-0.6-0.8-1.1-0.7c-0.5,0.1-0.8,0.6-0.7,1.1
		C195.1,687.6,195.6,688,196.1,687.9z"/>
	<path class="st0" d="M213.1,685.6c0-0.5-0.4-0.9-1-0.9c-0.5,0-0.9,0.4-0.9,1c0,0.5,0.4,0.9,1,0.9
		C212.7,686.5,213.1,686.1,213.1,685.6z"/>
	<path class="st0" d="M-2.5,701.5c-0.5,0-0.9,0.5-0.9,1s0.5,0.9,1,0.9c0.5,0,0.9-0.5,0.9-1C-1.5,701.9-2,701.5-2.5,701.5z"/>
	<path class="st0" d="M13.7,699.5c-0.5,0.1-0.8,0.6-0.7,1.1c0.1,0.5,0.6,0.8,1.1,0.7c0.5-0.1,0.8-0.6,0.7-1.1
		C14.8,699.7,14.2,699.4,13.7,699.5z"/>
	<path class="st0" d="M30.2,696.7c-0.5,0-0.9,0.5-0.9,1c0,0.5,0.5,0.9,1,0.9c0.5,0,0.9-0.5,0.9-1C31.1,697.1,30.7,696.7,30.2,696.7z
		"/>
	<path class="st0" d="M46.6,699.1c-0.4-0.1-0.8,0.1-0.9,0.5c-0.1,0.4,0.1,0.8,0.5,0.9s0.8-0.1,0.9-0.5
		C47.2,699.6,47,699.2,46.6,699.1z"/>
	<path class="st0" d="M62.2,697.2c-0.4,0.1-0.6,0.5-0.5,0.9c0.1,0.4,0.5,0.6,0.9,0.5c0.4-0.1,0.6-0.5,0.5-0.9
		C63,697.3,62.6,697.1,62.2,697.2z"/>
	<path class="st0" d="M77.7,704.3C77.7,704.3,77.7,704.3,77.7,704.3L77.7,704.3c0.1,0,0.2,0,0.2,0c0.1,0,0.1-0.1,0.2-0.1
		c0.1-0.1,0.2-0.2,0.2-0.4c0-0.2,0-0.3,0-0.5c0-0.1-0.1-0.1-0.1-0.2c0,0-0.1-0.1-0.1-0.1l0,0c0,0,0,0,0,0l0,0c0,0,0,0,0,0
		c0,0-0.1,0-0.1-0.1c-0.4-0.2-0.8,0-1,0.4c-0.2,0.4,0,0.8,0.4,1c0,0,0.1,0,0.1,0c0,0,0.1,0,0.2,0.1L77.7,704.3z"/>
	<path class="st0" d="M93.9,706.8c0.4-0.1,0.6-0.6,0.5-1s-0.6-0.6-1-0.5c-0.4,0.1-0.6,0.6-0.5,1C93.1,706.7,93.5,706.9,93.9,706.8z"
		/>
	<path class="st0" d="M110.3,701.9c0-0.4-0.3-0.8-0.8-0.8c-0.4,0-0.8,0.3-0.8,0.8c0,0.4,0.3,0.8,0.8,0.8
		C109.9,702.7,110.3,702.3,110.3,701.9z"/>
	<path class="st0" d="M126.8,702.1c0-0.4-0.3-0.8-0.7-0.8c-0.4,0-0.8,0.3-0.8,0.7c0,0.4,0.3,0.8,0.7,0.8
		C126.5,702.8,126.8,702.5,126.8,702.1z"/>
	<path class="st0" d="M142.4,704.5c0.4,0.1,0.8-0.2,0.9-0.6c0.1-0.4-0.2-0.8-0.6-0.9c-0.4-0.1-0.8,0.2-0.9,0.6
		C141.7,704,141.9,704.4,142.4,704.5z"/>
	<path class="st0" d="M158,702.2c0.1,0.4,0.5,0.7,0.9,0.6c0.4-0.1,0.7-0.5,0.6-0.9c-0.1-0.4-0.5-0.7-0.9-0.6
		C158.2,701.4,157.9,701.8,158,702.2z"/>
	<path class="st0" d="M173.8,698.4C173.8,698.4,173.8,698.4,173.8,698.4C173.8,698.4,173.8,698.4,173.8,698.4z"/>
	<path class="st0" d="M174.1,697.7C174.1,697.7,174.1,697.7,174.1,697.7c0.1,0,0.2,0,0.2,0.1c0.1,0,0.2,0,0.3,0
		c0.2-0.1,0.3-0.2,0.4-0.4c0.1-0.2,0.1-0.4,0-0.6c0-0.1-0.1-0.2-0.1-0.3c0,0-0.1-0.1-0.1-0.1c0,0,0,0-0.1,0c0,0-0.1,0-0.1-0.1
		c-0.2-0.1-0.3-0.2-0.5-0.2c-0.1,0.1-0.3,0.2-0.3,0.2c0,0-0.1,0.1-0.1,0.1c0,0-0.1,0.1-0.1,0.1c0,0.1,0,0.3,0,0.5
		c0.1,0.2,0.2,0.3,0.3,0.4c0,0,0.1,0,0.1,0.1c0,0,0,0,0,0.1C174.1,697.6,174.1,697.6,174.1,697.7
		C174.1,697.7,174.1,697.7,174.1,697.7C174.1,697.7,174.1,697.7,174.1,697.7z"/>
	<path class="st0" d="M173.8,698.4C173.8,698.4,173.8,698.4,173.8,698.4C173.8,698.4,173.8,698.4,173.8,698.4z"/>
	<path class="st0" d="M190.2,703.7c0-0.5-0.5-0.9-1-0.9c-0.3,0-0.5,0.2-0.6,0.3c0,0-0.1,0.1-0.1,0.1c0,0.1,0,0.1,0,0.2
		c0,0.1-0.1,0.2-0.1,0.4c0,0.1,0,0.3,0.1,0.4c0,0.1,0.1,0.1,0.1,0.1c0.1,0,0.1,0.1,0.1,0.1c0.2,0.2,0.4,0.2,0.7,0.2
		C189.8,704.7,190.2,704.2,190.2,703.7z"/>
	<path class="st0" d="M204.8,703c-0.1,0.5,0.3,1,0.8,1c0.5,0.1,1-0.3,1-0.8c0.1-0.5-0.3-1-0.8-1C205.3,702.1,204.8,702.5,204.8,703z
		"/>
	<path class="st0" d="M-6.5,713.2c-0.5,0.1-0.8,0.7-0.7,1.2c0.1,0.5,0.6,0.8,1.2,0.7c0.5-0.1,0.8-0.7,0.7-1.2
		C-5.5,713.4-6,713.1-6.5,713.2z"/>
	<path class="st0" d="M10,714.2c-0.1,0-0.1,0-0.2,0c0,0-0.1,0-0.1,0c0,0,0,0,0,0l0,0c0,0,0,0-0.1,0c0,0-0.1,0-0.1,0.1
		c-0.1,0-0.1,0.1-0.2,0.2c-0.1,0.1-0.2,0.3-0.2,0.5c0,0.2,0,0.4,0.1,0.5c0,0.1,0.1,0.2,0.2,0.2c0,0,0.1,0.1,0.1,0.1c0,0,0,0,0.1,0
		l0.1,0l0.2,0c0,0,0.1,0,0.1,0c0.1,0,0.1,0,0.2,0c0.5,0,0.9-0.5,0.9-1C11,714.6,10.5,714.2,10,714.2z"/>
	<path class="st0" d="M26.7,714.3c-0.5-0.1-1,0.2-1.1,0.7c-0.1,0.5,0.2,1,0.7,1.1c0.5,0.1,1-0.2,1.1-0.7
		C27.5,714.9,27.2,714.4,26.7,714.3z"/>
	<path class="st0" d="M42.2,715c-0.4,0.1-0.6,0.6-0.5,1s0.6,0.6,1,0.5c0.4-0.1,0.6-0.6,0.5-1S42.6,714.9,42.2,715z"/>
	<path class="st0" d="M58.5,713.2c-0.4-0.1-0.8,0.2-0.8,0.7c-0.1,0.4,0.2,0.8,0.7,0.8c0.4,0.1,0.8-0.2,0.8-0.7
		C59.2,713.7,58.9,713.3,58.5,713.2z"/>
	<path class="st0" d="M74.5,717.2c-0.4-0.1-0.8,0.1-1,0.5c-0.1,0.4,0.1,0.8,0.5,1c0.4,0.1,0.8-0.1,1-0.5
		C75.2,717.8,74.9,717.4,74.5,717.2z"/>
	<path class="st0" d="M91.1,717.3c0,0-0.1-0.1-0.2-0.1c0,0-0.1-0.1-0.2-0.1c-0.1,0-0.2-0.1-0.3,0c-0.4,0-0.7,0.4-0.7,0.8
		c0,0.4,0.4,0.7,0.8,0.7c0.1,0,0.2-0.1,0.3-0.1c0,0,0.1-0.1,0.1-0.1c0.1,0,0-0.1,0.1-0.1c0-0.1,0-0.1,0.1-0.2c0-0.1,0.1-0.2,0.1-0.2
		c0-0.1,0-0.2,0-0.2C91.3,717.4,91.2,717.4,91.1,717.3z"/>
	<path class="st0" d="M107,718.5c-0.4-0.1-0.8,0.2-0.8,0.7c0,0.4,0.3,0.8,0.7,0.8s0.8-0.2,0.8-0.7
		C107.7,718.9,107.4,718.5,107,718.5z"/>
	<path class="st0" d="M123.4,720.1c-0.4,0-0.8,0.3-0.8,0.7c0,0.4,0.3,0.8,0.7,0.8c0.4,0,0.8-0.3,0.8-0.7S123.8,720.2,123.4,720.1z"
		/>
	<path class="st0" d="M138.8,717.4c-0.4,0.2-0.5,0.6-0.3,1c0.2,0.4,0.6,0.5,1,0.3s0.5-0.6,0.3-1
		C139.6,717.4,139.2,717.3,138.8,717.4z"/>
	<path class="st0" d="M153.9,718.4c-0.3-0.2-0.8-0.1-1,0.2c-0.2,0.3-0.1,0.8,0.2,1c0.3,0.2,0.8,0.1,1-0.2
		C154.3,719.1,154.2,718.6,153.9,718.4z"/>
	<path class="st0" d="M167.5,719.1c-0.4,0.2-0.5,0.6-0.4,1c0.2,0.4,0.6,0.5,1,0.4c0.4-0.2,0.5-0.6,0.4-1
		C168.3,719.1,167.9,718.9,167.5,719.1z"/>
	<path class="st0" d="M183.4,719.6c-0.5-0.2-1,0-1.2,0.5c-0.2,0.5,0,1,0.5,1.2c0.5,0.2,1,0,1.2-0.5S183.8,719.8,183.4,719.6z"/>
	<path class="st0" d="M198,717.2c-0.5,0.2-0.7,0.7-0.5,1.2c0.2,0.5,0.7,0.7,1.2,0.5c0.5-0.2,0.7-0.7,0.5-1.2S198.4,717,198,717.2z"
		/>
	<path class="st0" d="M213.1,723c0.1,0.1,0.2,0.1,0.4,0.1c0.1,0,0.1,0,0.2,0c0,0,0.1,0,0.1,0c0,0,0.1,0,0.1,0c0.3,0,0.5-0.2,0.5-0.5
		c0-0.3,0-0.6,0-0.7l0-0.1c0,0,0-0.1,0-0.1c0-0.1-0.1-0.1-0.1-0.1c-0.1-0.1-0.2-0.2-0.3-0.2c-0.5-0.2-1,0-1.2,0.5
		C212.4,722.2,212.6,722.8,213.1,723z"/>
	<path class="st0" d="M-12.4,738.1c-0.5,0-0.9,0.4-0.9,0.9c0,0.5,0.4,0.9,0.9,0.9c0.5,0,0.9-0.4,0.9-0.9
		C-11.5,738.5-11.9,738.1-12.4,738.1z"/>
	<path class="st0" d="M2.9,735.1c-0.5,0.2-0.7,0.7-0.5,1.2c0.2,0.5,0.7,0.7,1.2,0.5c0.5-0.2,0.7-0.7,0.5-1.2
		C3.9,735.1,3.4,734.9,2.9,735.1z"/>
	<path class="st0" d="M19.1,733.6c-0.5-0.1-1,0.3-1,0.8c-0.1,0.5,0.3,1,0.8,1s1-0.3,1-0.8S19.6,733.7,19.1,733.6z"/>
	<path class="st0" d="M34.9,732c-0.5,0.1-0.8,0.6-0.8,1.1c0.1,0.5,0.6,0.8,1.1,0.8c0.5-0.1,0.8-0.6,0.8-1.1S35.4,732,34.9,732z"/>
	<path class="st0" d="M50.5,736.4c-0.1,0-0.2,0-0.3,0.1c-0.2,0.1-0.3,0.2-0.4,0.4c-0.1,0.2,0,0.4,0,0.6c0,0.1,0.1,0.2,0.2,0.2
		c0,0,0.1,0.1,0.1,0.1c0.1,0,0.2,0.1,0.3,0.1c0,0,0.1,0,0.1,0c0.5-0.1,0.5-0.2,0.6-0.3c0.1-0.2,0.1-0.3,0.1-0.5s-0.1-0.4-0.3-0.5
		c-0.1-0.1-0.4-0.1-0.4-0.2c0,0,0,0,0,0C50.6,736.4,50.5,736.4,50.5,736.4z"/>
	<path class="st0" d="M50.7,735.7C50.7,735.7,50.7,735.7,50.7,735.7C50.7,735.7,50.7,735.7,50.7,735.7z"/>
	<polygon class="st0" points="50.7,735.7 50.7,735.7 50.7,735.7 	"/>
	<path class="st0" d="M66.7,734.5c0.4-0.2,0.5-0.6,0.4-1c-0.2-0.4-0.6-0.5-1-0.4c-0.4,0.2-0.5,0.6-0.4,1
		C65.9,734.5,66.3,734.7,66.7,734.5z"/>
	<path class="st0" d="M82,730.2c0.1-0.4,0-0.8-0.4-1c-0.4-0.1-0.8,0-1,0.4c-0.1,0.4,0,0.8,0.4,1C81.4,730.7,81.8,730.5,82,730.2z"/>
	<path class="st0" d="M96.1,733.9c0,0.4,0.3,0.7,0.7,0.8c0.4,0,0.7-0.3,0.8-0.7c0-0.4-0.3-0.7-0.7-0.8
		C96.4,733.1,96.1,733.5,96.1,733.9z"/>
	<path class="st0" d="M113.8,733.3c0-0.4-0.4-0.7-0.8-0.7s-0.7,0.4-0.7,0.8c0,0.4,0.4,0.7,0.8,0.7
		C113.5,734.1,113.8,733.7,113.8,733.3z"/>
	<path class="st0" d="M130,731.9c0-0.4-0.4-0.7-0.8-0.7c-0.4,0-0.7,0.4-0.7,0.8c0,0.4,0.4,0.7,0.8,0.7
		C129.7,732.7,130,732.3,130,731.9z"/>
	<path class="st0" d="M145.8,734.6c0,0,0-0.1,0-0.1c0,0,0-0.1,0-0.1c-0.1-0.1-0.3-0.3-0.4-0.3c-0.4-0.1-0.8,0.1-0.9,0.5
		s0.1,0.8,0.5,0.9c0.2,0,0.4,0,0.5-0.1c0,0,0.1,0,0.1-0.1c0,0,0.1-0.1,0.1-0.1c0.1-0.1,0.1-0.2,0.1-0.2c0,0,0-0.1,0-0.1
		c0,0,0-0.1,0-0.1C145.8,734.8,145.8,734.7,145.8,734.6z"/>
	<path class="st0" d="M160.8,730.5c-0.1,0-0.1,0-0.2,0c-0.1,0-0.2,0-0.3,0c-0.1,0-0.1,0.1-0.2,0.1c0,0,0,0-0.1,0.1l0,0
		c0,0.1-0.1,0.1-0.1,0.2c0,0.1,0,0.3,0,0.4c0,0.1,0.1,0.3,0.2,0.4c0.1,0,0.1,0.1,0.2,0.1l0,0l0,0c0,0,0,0,0,0c0,0,0,0,0,0
		c0,0,0.1,0,0.2,0c0.4,0,0.8-0.3,0.8-0.7C161.6,730.9,161.3,730.6,160.8,730.5z"/>
	<path class="st0" d="M177.1,732.4c-0.4-0.1-0.8,0.2-0.9,0.6s0.2,0.8,0.6,0.9s0.8-0.2,0.9-0.6C177.7,732.9,177.5,732.5,177.1,732.4z
		"/>
	<path class="st0" d="M192,732.2c-0.5,0.2-0.7,0.8-0.4,1.2c0.2,0.5,0.8,0.7,1.2,0.4c0.5-0.2,0.7-0.8,0.4-1.2
		C193.1,732.2,192.5,732,192,732.2z"/>
	<path class="st0" d="M207.8,728.4c-0.5,0-1,0.3-1,0.9c0,0.5,0.3,1,0.9,1c0.5,0,1-0.3,1-0.9S208.3,728.5,207.8,728.4z"/>
	<path class="st0" d="M-7.8,748.6c0.5-0.2,0.7-0.7,0.6-1.2c-0.2-0.5-0.7-0.7-1.2-0.6c-0.5,0.2-0.7,0.7-0.6,1.2
		C-8.8,748.5-8.3,748.8-7.8,748.6z"/>
	<path class="st0" d="M6.9,747.5c-0.1,0.5,0.3,1,0.8,1c0.5,0.1,1-0.3,1-0.8c0.1-0.5-0.3-1-0.8-1C7.4,746.7,6.9,747,6.9,747.5z"/>
	<path class="st0" d="M23.8,750.2c0.5,0.1,1-0.3,1-0.8c0.1-0.5-0.3-1-0.8-1c-0.5-0.1-1,0.3-1,0.8C22.9,749.7,23.3,750.1,23.8,750.2z
		"/>
	<path class="st0" d="M39.6,749c-0.5,0.1-0.8,0.6-0.7,1.1c0.1,0.5,0.6,0.8,1.1,0.7c0.5-0.1,0.8-0.6,0.7-1.1
		C40.6,749.2,40.1,748.9,39.6,749z"/>
	<path class="st0" d="M55.7,748.3c0.5,0,0.9-0.4,0.9-0.9c0-0.5-0.4-0.9-0.9-0.9c-0.5,0-0.9,0.4-0.9,0.9
		C54.7,747.8,55.2,748.3,55.7,748.3z"/>
	<path class="st0" d="M71.8,748.7c-0.5-0.1-1,0.1-1.1,0.6s0.1,1,0.6,1.1c0.5,0.1,1-0.1,1.1-0.6C72.6,749.4,72.3,748.9,71.8,748.7z"
		/>
	<path class="st0" d="M87.4,749.6c-0.5,0-0.9,0.5-0.8,1s0.5,0.9,1,0.8c0.5,0,0.9-0.5,0.8-1S87.9,749.6,87.4,749.6z"/>
	<path class="st0" d="M103.5,748.5c-0.5,0-0.9,0.5-0.9,1s0.5,0.9,1,0.9c0.5,0,0.9-0.5,0.9-1C104.4,748.8,104,748.4,103.5,748.5z"/>
	<path class="st0" d="M119.5,748.6c-0.1,0-0.3,0.1-0.3,0.1c0,0,0,0,0,0.1c0,0-0.1,0-0.1,0.1c-0.1,0.1-0.1,0.1-0.2,0.2
		c-0.1,0.1-0.2,0.3-0.2,0.5c0,0.2,0,0.4,0.1,0.5c0,0.1,0.1,0.1,0.2,0.2c0,0,0.1,0.1,0.1,0.1c0.1,0,0.1,0,0.2,0.1c0.3,0,0.4,0,0.5,0
		c0.5-0.1,0.8-0.6,0.7-1.1C120.5,748.8,120,748.5,119.5,748.6z"/>
	<path class="st0" d="M135.6,747c-0.4-0.3-1-0.1-1.3,0.3c-0.3,0.4-0.1,1,0.3,1.3c0.4,0.3,1,0.1,1.3-0.3
		C136.2,747.9,136,747.3,135.6,747z"/>
	<path class="st0" d="M149.3,752.9c-0.5,0.1-0.8,0.6-0.7,1.1c0.1,0.5,0.6,0.8,1.1,0.7c0.5-0.1,0.8-0.6,0.7-1.1
		C150.2,753.2,149.8,752.8,149.3,752.9z"/>
	<path class="st0" d="M165.4,752.5c0.5,0,0.9-0.4,0.9-0.9c0-0.5-0.4-0.9-0.9-0.9c-0.5,0-0.9,0.4-0.9,0.9
		C164.4,752.1,164.9,752.5,165.4,752.5z"/>
	<path class="st0" d="M181.5,750.5c-0.5,0-0.9,0.4-0.9,0.9c0,0.5,0.4,0.9,0.9,0.9c0.5,0,0.9-0.4,0.9-0.9
		C182.4,750.9,182,750.5,181.5,750.5z"/>
	<path class="st0" d="M197.5,749.4c-0.5,0.1-0.9,0.5-0.8,1c0.1,0.5,0.5,0.9,1,0.8c0.5-0.1,0.9-0.5,0.8-1
		C198.5,749.7,198,749.3,197.5,749.4z"/>
	<path class="st0" d="M213.8,750.1c-0.5,0-1,0.3-1,0.8s0.3,1,0.8,1c0.5,0,1-0.3,1-0.8C214.7,750.6,214.3,750.1,213.8,750.1z"/>
	<path class="st0" d="M223.9,752.3c-0.3,1.6,0.2,3.2,1.1,4.4c0.9,1.3,2.2,2.2,3.9,2.5c3.2,0.6,6.3-1.6,6.8-4.8
		c0.5-3.2-1.7-6.3-4.9-6.9c-1.6-0.3-3.2,0.1-4.4,1C225,749.3,224.1,750.7,223.9,752.3z"/>
	<path class="st0" d="M-14.4,762.3c-0.5-0.2-1,0.1-1.2,0.5c-0.2,0.5,0.1,1,0.5,1.2c0.5,0.2,1-0.1,1.2-0.5S-13.9,762.5-14.4,762.3z"
		/>
	<path class="st0" d="M0.7,766c-0.5,0-0.9,0.5-0.9,1c0,0.5,0.5,0.9,1,0.9c0.5,0,0.9-0.5,0.9-1C1.7,766.4,1.3,766,0.7,766z"/>
	<path class="st0" d="M17,765.2c-0.5,0-0.9,0.5-0.9,1c0,0.5,0.5,0.9,1,0.9c0.5,0,0.9-0.5,0.9-1C17.9,765.6,17.5,765.2,17,765.2z"/>
	<path class="st0" d="M33.3,766.6c-0.5-0.1-1,0.3-1.1,0.8c-0.1,0.5,0.3,1,0.8,1.1c0.5,0.1,1-0.3,1.1-0.8S33.8,766.7,33.3,766.6z"/>
	<path class="st0" d="M50.2,767.7c0-0.1-0.1-0.1-0.2-0.2c-0.1-0.1-0.1-0.1-0.2-0.2c-0.1-0.1-0.3-0.1-0.5-0.1c-0.5,0-0.9,0.4-0.9,0.9
		c0,0.5,0.4,0.9,0.9,0.9c0.2,0,0.3-0.1,0.5-0.1c0.1,0,0.1-0.1,0.2-0.2c0.1-0.1,0.1-0.1,0.1-0.2c0-0.1,0.1-0.3,0.2-0.4
		S50.3,767.8,50.2,767.7z"/>
	<path class="st0" d="M65.7,770.9c0.4-0.3,0.5-0.9,0.3-1.3c-0.3-0.4-0.9-0.5-1.3-0.3c-0.1,0-0.1,0.1-0.1,0.1c0,0,0,0-0.1,0.1l0,0
		c0,0,0,0.1,0,0.2c0,0.2-0.1,0.4-0.1,0.6c0,0.3,0.1,0.5,0.4,0.7c0.1,0,0.3,0,0.5-0.1c0.1,0,0.1,0,0.2-0.1c0,0,0.1,0,0.1,0
		C65.6,771,65.7,771,65.7,770.9z"/>
	<path class="st0" d="M79,760.8L79,760.8l-0.2-0.1c-0.1,0-0.2,0-0.2,0c-0.2,0-0.3,0-0.4,0c-0.2,0.2-0.3,0.4-0.3,0.6
		c0,0.2,0,0.3,0.1,0.5c0.1,0.1,0.2,0.2,0.3,0.3c0.1,0.1,0.2,0.2,0.2,0.3c0,0.1,0,0.1,0,0.1c0,0,0,0,0,0l0,0c0,0,0,0,0.1,0
		c0.5,0.1,1-0.1,1.2-0.6C79.8,761.5,79.5,760.9,79,760.8z"/>
	<path class="st0" d="M94.5,764.8c-0.5,0-1,0.4-1,0.9c0,0.5,0.3,1,0.9,1s1-0.4,1-0.9C95.4,765.3,95,764.9,94.5,764.8z"/>
	<path class="st0" d="M110.7,766.1c-0.5,0-1,0.3-1,0.8s0.3,1,0.8,1c0.5,0,1-0.3,1-0.8C111.6,766.6,111.2,766.1,110.7,766.1z"/>
	<path class="st0" d="M126.8,768.8c-0.5-0.1-1,0.2-1.1,0.7s0.2,1,0.7,1.1s1-0.2,1.1-0.7C127.6,769.5,127.3,769,126.8,768.8z"/>
	<path class="st0" d="M142.7,770.6c0.5-0.1,0.8-0.6,0.8-1.1c-0.1-0.5-0.6-0.8-1.1-0.8c-0.5,0.1-0.8,0.6-0.8,1.1
		C141.7,770.3,142.2,770.7,142.7,770.6z"/>
	<path class="st0" d="M158.6,766.9c0.5-0.1,0.8-0.6,0.7-1.1c-0.1-0.5-0.6-0.8-1.1-0.7c-0.5,0.1-0.8,0.6-0.7,1.1
		C157.6,766.7,158.1,767,158.6,766.9z"/>
	<path class="st0" d="M174.3,763c0.1,0,0.2-0.1,0.3-0.1c0.2-0.1,0.4-0.3,0.4-0.6c0.1-0.2,0-0.5-0.1-0.7c-0.1-0.1-0.1-0.2-0.2-0.3
		c0,0-0.1-0.1-0.2-0.1c0,0-0.1,0-0.1,0c-0.1,0-0.1,0-0.2,0c-0.1,0-0.2,0-0.3-0.1c-0.1,0-0.2,0.1-0.3,0.1c0,0-0.1,0-0.1,0.1
		c0,0,0,0-0.1,0.1c-0.1,0.1-0.1,0.2-0.2,0.3c-0.1,0.2-0.1,0.4-0.1,0.6c0.1,0.2,0.2,0.4,0.4,0.5c0.1,0.1,0.2,0.1,0.3,0.1
		c0,0,0.1,0,0.1,0c0,0,0,0,0,0c0,0,0,0,0,0l0,0l0,0l0.1,0C174.1,763,174.2,763,174.3,763z"/>
	<path class="st0" d="M190.1,765.2c-0.5-0.2-1,0.1-1.1,0.6c-0.1,0.5,0.1,1,0.6,1.2c0.5,0.2,1-0.1,1.1-0.6
		C190.9,765.8,190.6,765.3,190.1,765.2z"/>
	<path class="st0" d="M205.2,767.6c-0.5,0.1-0.8,0.6-0.7,1.1c0.1,0.5,0.6,0.8,1.1,0.7c0.5-0.1,0.8-0.6,0.7-1.1
		C206.2,767.8,205.7,767.5,205.2,767.6z"/>
	<path class="st0" d="M221.1,764.1c-0.5,0.1-0.9,0.6-0.8,1.1c0.1,0.5,0.6,0.9,1.1,0.8c0.5-0.1,0.9-0.6,0.8-1.1
		S221.6,764,221.1,764.1z"/>
	<path class="st0" d="M52.3,508.3c0.6,0.2,1.3-0.2,1.4-0.8c0.2-0.6-0.2-1.3-0.8-1.4c-0.6-0.2-1.3,0.2-1.4,0.8
		C51.3,507.5,51.7,508.2,52.3,508.3z"/>
	<path class="st0" d="M68.8,511c0.6-0.1,1.1-0.7,1-1.3c-0.1-0.6-0.7-1.1-1.3-1c-0.6,0.1-1.1,0.7-1,1.3
		C67.5,510.6,68.1,511.1,68.8,511z"/>
	<path class="st0" d="M84.4,511.5c0.6,0.2,1.3-0.2,1.5-0.8c0.2-0.6-0.2-1.3-0.8-1.5s-1.3,0.2-1.5,0.8
		C83.5,510.7,83.8,511.4,84.4,511.5z"/>
	<path class="st0" d="M101,512.2c0.6-0.1,1.1-0.7,1-1.3s-0.7-1.1-1.3-1c-0.6,0.1-1.1,0.7-1,1.3S100.4,512.3,101,512.2z"/>
	<path class="st0" d="M116.9,513.7c0.6,0.1,1.3-0.3,1.4-0.9c0.1-0.6-0.3-1.3-0.9-1.4c-0.6-0.1-1.3,0.3-1.4,0.9
		C115.8,513,116.2,513.6,116.9,513.7z"/>
	<path class="st0" d="M132.2,506.8c0.2-0.1,0.4-0.3,0.5-0.5c0.1-0.2,0-0.4,0-0.6c0-0.1,0-0.3-0.1-0.4c0-0.2-0.1-0.3-0.2-0.4
		c-0.2-0.2-0.5-0.2-0.7-0.2c-0.2,0-0.5,0-0.7,0.2c-0.6,0.3-0.8,1-0.4,1.6C130.9,507,131.6,507.2,132.2,506.8z"/>
	<path class="st0" d="M161,513c0.1,0,0.2,0,0.3,0c0.1,0,0.1,0,0.2,0c0.1,0,0.3,0,0.4-0.1c0.6-0.2,1-0.9,0.8-1.5
		c-0.2-0.6-0.9-1-1.5-0.8c-0.1,0-0.3,0.1-0.4,0.2c-0.1,0-0.1,0.1-0.1,0.1c0,0,0,0.1,0,0.1c0,0.2-0.1,0.4-0.2,0.7
		c0,0.1,0,0.2-0.1,0.3c0,0.1,0,0.2,0,0.3C160.5,512.7,160.7,512.9,161,513z"/>
	<path class="st0" d="M23,521.5C23,521.5,23,521.6,23,521.5c0.1,0.1,0.2,0.1,0.2,0.1c0,0,0,0.1,0.1,0.1c0,0.1,0,0.1,0,0.1
		c0,0,0,0,0,0s0,0,0,0l0,0c0,0,0,0,0,0c0,0,0.1,0,0.1,0c0.2,0,0.3,0,0.4-0.1c0.3-0.1,0.5-0.3,0.7-0.6c0.2-0.3,0.2-0.6,0.1-0.9
		c0-0.1-0.1-0.3-0.2-0.4c0,0-0.1-0.1-0.1-0.1c0,0,0,0-0.1,0l-0.1-0.1c-0.1-0.1-0.3-0.2-0.4-0.2c-0.2-0.1-0.3-0.1-0.4-0.2
		c-0.2,0.1-0.5,0.3-0.6,0.4c-0.1,0.1-0.2,0.1-0.2,0.2c0,0-0.1,0.1-0.1,0.1c0,0,0,0.1,0,0.1c-0.1,0.3-0.1,0.5,0,0.8
		C22.5,521.2,22.7,521.4,23,521.5z"/>
	<path class="st0" d="M37.3,528.5c0.1,0,0.1,0.1,0.2,0.1c0.1,0,0.1,0.1,0.1,0.1c0.2,0.1,0.4,0.2,0.6,0.2c0.6,0,1.2-0.5,1.2-1.2
		c0-0.6-0.5-1.2-1.2-1.2c-0.2,0-0.5,0.1-0.6,0.2c0,0-0.1,0.1-0.1,0.1c0,0,0,0.1,0,0.1c0,0.1-0.1,0.2-0.1,0.3
		c-0.1,0.1-0.2,0.3-0.2,0.4c-0.1,0.2-0.1,0.3,0,0.5C37.1,528.3,37.2,528.4,37.3,528.5z"/>
	<path class="st0" d="M53.3,526.3c0.3,0.6,1,0.9,1.6,0.6c0.6-0.3,0.9-1,0.6-1.6c-0.3-0.6-1-0.9-1.6-0.6
		C53.3,525,53,525.7,53.3,526.3z"/>
	<path class="st0" d="M68.1,523.8c-0.3,0.6-0.2,1.3,0.4,1.6c0.6,0.3,1.3,0.2,1.6-0.4c0.3-0.6,0.2-1.3-0.4-1.6
		C69.2,523.1,68.4,523.2,68.1,523.8z"/>
	<path class="st0" d="M84,528.2c0.6-0.3,0.8-1,0.5-1.6c-0.3-0.6-1-0.8-1.6-0.5c-0.6,0.3-0.8,1-0.5,1.6
		C82.7,528.2,83.4,528.5,84,528.2z"/>
	<path class="st0" d="M98.5,526c0.6,0.2,1.3-0.2,1.4-0.9c0.2-0.6-0.2-1.3-0.9-1.4c-0.6-0.2-1.3,0.2-1.4,0.9
		C97.5,525.2,97.8,525.8,98.5,526z"/>
	<path class="st0" d="M115.1,526.6c0.6-0.1,1.1-0.7,1-1.3c-0.1-0.6-0.7-1.1-1.3-1c-0.6,0.1-1.1,0.7-1,1.3
		C113.9,526.2,114.5,526.7,115.1,526.6z"/>
	<path class="st0" d="M130.2,530.4c0.6,0.2,1.3-0.1,1.5-0.7c0.2-0.6-0.1-1.3-0.7-1.5c-0.6-0.2-1.3,0.1-1.5,0.7
		C129.3,529.5,129.6,530.2,130.2,530.4z"/>
	<path class="st0" d="M145.5,523.7c0.6-0.3,0.7-1.1,0.4-1.6c-0.3-0.6-1.1-0.7-1.6-0.4c-0.6,0.3-0.7,1.1-0.4,1.6
		C144.2,523.9,144.9,524,145.5,523.7z"/>
	<path class="st0" d="M160,520.7c0.1,0.2,0.1,0.3,0.1,0.4c0,0.1,0,0.1,0,0.1c0,0,0,0,0,0l0,0c0,0,0,0,0,0l0.1,0
		c0.5,0.4,1.3,0.3,1.6-0.3c0.4-0.5,0.3-1.3-0.3-1.6l-0.1,0l-0.1-0.1c-0.1-0.1-0.2-0.1-0.3-0.1c-0.2-0.1-0.3-0.2-0.5-0.2
		c-0.4,0.1-0.6,0.3-0.8,0.5c-0.1,0.2-0.1,0.4-0.1,0.6C159.8,520.3,159.9,520.5,160,520.7z"/>
	<path class="st0" d="M173,530.3c0,0.1,0.1,0.2,0.2,0.3c0.1,0.2,0.3,0.4,0.5,0.6c0.1,0,0.3-0.1,0.4-0.1c0.2-0.1,0.3-0.1,0.4-0.2
		c0.1,0,0.1-0.1,0.2-0.1c0,0,0.1,0,0.1-0.1l0,0c0.1-0.1,0.2-0.2,0.3-0.4c0.1-0.3,0.2-0.6,0-0.9c-0.1-0.3-0.3-0.5-0.6-0.7
		c-0.1-0.1-0.3-0.1-0.4-0.1l-0.1,0c0,0,0,0,0,0c0,0,0,0,0,0c0,0,0,0,0,0s0,0,0,0c0,0,0,0.1-0.1,0.1c0,0,0,0.1-0.1,0.1l-0.1,0
		c0,0-0.1,0-0.1,0c-0.3,0.1-0.5,0.2-0.7,0.5c-0.2,0.2-0.2,0.5-0.2,0.8c0,0,0,0.1,0,0.1C173,530.2,173,530.3,173,530.3z"/>
	<path class="st0" d="M188.6,525c0,0.6,0.5,1.2,1.1,1.2c0.6,0,1.2-0.4,1.2-1c-0.6-0.4-1.2-0.8-1.8-1.2
		C188.9,524.3,188.6,524.6,188.6,525z"/>
	<path class="st0" d="M8.4,540.9c0.1,0,0.3,0,0.4,0c0.1,0,0.3-0.1,0.3-0.2c0,0,0.1-0.1,0.1-0.1c0.1,0,0.1-0.1,0.2-0.2
		c0.1-0.1,0.2-0.3,0.3-0.4s0.1-0.3,0.1-0.5c0-0.1,0-0.2,0-0.2c0-0.1-0.1-0.2-0.2-0.3c-0.2-0.1-0.3-0.2-0.4-0.3
		c-0.1-0.1-0.3-0.1-0.4-0.1c-0.6-0.1-1.2,0.3-1.4,1C7.3,540.2,7.7,540.8,8.4,540.9z"/>
	<path class="st0" d="M23.6,543.7c-0.1,0-0.1,0-0.2,0.1l0,0c0,0,0,0,0,0l0,0c0,0,0,0.1,0,0.1c0,0.1-0.1,0.2-0.2,0.4
		c-0.1,0.1-0.3,0.3-0.3,0.5s-0.1,0.4-0.1,0.6c0.1,0.2,0.3,0.4,0.5,0.6c0.2,0,0.3,0,0.5,0l0.2,0l0.1,0l0,0c0.1,0,0.1,0,0.2,0
		c0.6-0.2,1-0.9,0.8-1.5C24.9,543.8,24.2,543.5,23.6,543.7z"/>
	<path class="st0" d="M38.4,541.1c-0.2,0.6,0.2,1.3,0.8,1.5c0.6,0.2,1.3-0.2,1.5-0.8c0.2-0.6-0.2-1.3-0.8-1.5
		C39.3,540.2,38.6,540.5,38.4,541.1z"/>
	<path class="st0" d="M54.5,541.6c-0.6,0.3-0.8,1-0.6,1.5c0.3,0.6,1,0.8,1.5,0.6s0.8-1,0.6-1.5C55.8,541.6,55.1,541.4,54.5,541.6z"
		/>
	<path class="st0" d="M69.2,539.7c-0.2,0.6,0.2,1.3,0.9,1.4c0.6,0.2,1.3-0.2,1.4-0.9c0.2-0.6-0.2-1.3-0.9-1.4
		C69.9,538.7,69.3,539,69.2,539.7z"/>
	<path class="st0" d="M85.9,538.6c-0.6,0.2-1,0.8-0.8,1.4c0.2,0.6,0.8,1,1.4,0.8c0.6-0.2,1-0.8,0.8-1.4
		C87.1,538.8,86.5,538.5,85.9,538.6z"/>
	<path class="st0" d="M100.4,542c-0.3,0.6,0,1.3,0.6,1.5c0.6,0.3,1.3,0,1.5-0.6c0.3-0.6,0-1.3-0.6-1.5S100.7,541.5,100.4,542z"/>
	<path class="st0" d="M132.4,540.6c0.1,0.6,0.8,1,1.4,0.9c0.6-0.2,1-0.8,0.9-1.4c-0.1-0.6-0.8-1-1.4-0.9
		C132.7,539.4,132.3,540,132.4,540.6z"/>
	<path class="st0" d="M148.5,539.8c0.6,0.3,1.3,0.1,1.6-0.4c0.3-0.6,0.1-1.3-0.4-1.6c-0.6-0.3-1.3-0.1-1.6,0.4
		C147.8,538.7,148,539.4,148.5,539.8z"/>
	<path class="st0" d="M162.5,544.6c0.2,0.6,0.8,1,1.4,0.8c0.6-0.2,1-0.8,0.8-1.4s-0.8-1-1.4-0.8C162.6,543.4,162.3,544,162.5,544.6z
		"/>
	<path class="st0" d="M179.6,540.7c0.6-0.2,1-0.9,0.8-1.5c-0.2-0.6-0.9-0.9-1.5-0.7c-0.6,0.2-0.9,0.9-0.8,1.5
		C178.3,540.6,179,540.9,179.6,540.7z"/>
	<path class="st0" d="M194.1,541c0.6,0.3,1.3,0,1.5-0.6c0.3-0.6,0-1.3-0.6-1.5c-0.6-0.3-1.3,0-1.5,0.6
		C193.2,540,193.5,540.7,194.1,541z"/>
	<path class="st0" d="M209.1,542.3c0,0.6,0.6,1.1,1.3,1.1c0.6,0,1.1-0.6,1.1-1.3c0-0.2-0.1-0.4-0.2-0.6c-0.1-0.1-0.2-0.2-0.3-0.3
		c-0.2-0.1-0.4-0.2-0.7-0.2C209.5,541.1,209,541.7,209.1,542.3z"/>
	<path class="st0" d="M8.1,553.7c0.3-0.1,0.5-0.4,0.6-0.6c0.1-0.1,0.1-0.3,0.1-0.4c0-0.1,0-0.3-0.1-0.5c0-0.2-0.1-0.3-0.2-0.4
		c-0.1-0.1-0.3-0.2-0.4-0.2c-0.3-0.1-0.6-0.1-0.9,0c-0.6,0.3-0.8,0.9-0.6,1.5C6.8,553.6,7.5,553.9,8.1,553.7z"/>
	<path class="st0" d="M85,554.5c-0.1-0.6-0.7-1-1.4-0.9c-0.6,0.1-1,0.7-0.9,1.4c0.1,0.6,0.7,1,1.4,0.9S85.1,555.1,85,554.5z"/>
	<path class="st0" d="M100.8,555.3c0.2-0.6-0.2-1.2-0.8-1.4c-0.6-0.2-1.2,0.2-1.4,0.8c-0.2,0.6,0.2,1.2,0.8,1.4
		C100,556.3,100.6,555.9,100.8,555.3z"/>
	<path class="st0" d="M116.8,555.3c0-0.6-0.6-1.1-1.2-1c-0.6,0.1-1.1,0.6-1.1,1.3c0.1,0.6,0.6,1.1,1.2,1
		C116.4,556.5,116.9,556,116.8,555.3z"/>
	<path class="st0" d="M132.3,555.6c0.1,0,0.1-0.1,0.2-0.1c0,0,0-0.1,0-0.1c0,0,0-0.1,0.1-0.2c0.1-0.1,0.1-0.1,0.2-0.2
		c0.1-0.1,0.2-0.3,0.2-0.5s0-0.3,0-0.5c0-0.1,0-0.2-0.1-0.2c0-0.1-0.1-0.2-0.2-0.2c-0.1,0-0.2-0.1-0.3-0.1c-0.1,0-0.1-0.1-0.2-0.1
		c-0.1,0-0.3-0.1-0.4-0.1c-0.6,0-1.1,0.6-1.1,1.2c0,0.6,0.6,1.1,1.2,1.1C132.1,555.6,132.2,555.6,132.3,555.6z"/>
	<path class="st0" d="M163.6,554.2c0.6-0.1,1.1-0.7,1-1.3c-0.1-0.6-0.7-1.1-1.3-1c-0.6,0.1-1.1,0.7-1,1.3
		C162.4,553.8,163,554.2,163.6,554.2z"/>
	<path class="st0" d="M178.3,555.4c0.6,0.3,1.3,0.1,1.6-0.4c0.3-0.6,0.1-1.3-0.4-1.6c-0.6-0.3-1.3-0.1-1.6,0.4
		C177.5,554.4,177.7,555.1,178.3,555.4z"/>
	<path class="st0" d="M-24.2,573.6c0.6,0,1.2-0.4,1.2-1.1s-0.4-1.2-1.1-1.2c-0.6,0-1.2,0.4-1.2,1.1C-25.3,573-24.8,573.6-24.2,573.6
		z"/>
	<path class="st0" d="M224.5,572.4c-0.1,0.6,0.3,1.2,0.9,1.4c0.6,0.1,1.2-0.3,1.4-0.9c0.1-0.6-0.3-1.2-0.9-1.4
		C225.2,571.4,224.6,571.8,224.5,572.4z"/>
	<path class="st0" d="M-40.3,594c0.6,0,1.2-0.5,1.2-1.1s-0.5-1.2-1.1-1.2c-0.6,0-1.2,0.5-1.2,1.1S-41,594-40.3,594z"/>
	<path class="st0" d="M-24.1,592.2c0.6-0.2,1-0.8,0.8-1.4s-0.8-1-1.4-0.8c-0.6,0.2-1,0.8-0.8,1.4C-25.3,592-24.7,592.4-24.1,592.2z"
		/>
	<path class="st0" d="M238.9,590.4c0.6-0.1,1.1-0.7,1-1.3c-0.1-0.6-0.7-1.1-1.3-1c-0.6,0.1-1.1,0.7-1,1.3
		C237.6,590,238.2,590.5,238.9,590.4z"/>
	<path class="st0" d="M223.2,593.4c0.6-0.2,1-0.8,0.8-1.4c-0.2-0.6-0.8-1-1.4-0.8c-0.6,0.2-1,0.8-0.8,1.4
		C221.9,593.2,222.6,593.6,223.2,593.4z"/>
	<path class="st0" d="M-40.8,604.8c0.6-0.2,1-0.8,0.8-1.4c-0.2-0.6-0.8-1-1.4-0.8c-0.6,0.2-1,0.8-0.8,1.4S-41.4,605-40.8,604.8z"/>
	<path class="st0" d="M-25.8,604c0.6,0.2,1.3-0.2,1.4-0.8c0.2-0.6-0.2-1.3-0.8-1.4c-0.6-0.2-1.3,0.2-1.4,0.8
		C-26.8,603.2-26.4,603.8-25.8,604z"/>
	<path class="st0" d="M239.3,607.8c-0.2,0.6,0.2,1.3,0.8,1.4c0.6,0.2,1.3-0.2,1.4-0.8c0.2-0.6-0.2-1.3-0.8-1.4
		C240.1,606.8,239.5,607.1,239.3,607.8z"/>
	<path class="st0" d="M225.6,607.1c0.6-0.3,0.8-0.9,0.6-1.5c-0.3-0.6-0.9-0.8-1.5-0.6c-0.6,0.3-0.8,0.9-0.6,1.5
		C224.3,607.1,225,607.4,225.6,607.1z"/>
	<path class="st0" d="M-41.2,623.4c-0.2-0.6-0.9-0.9-1.5-0.7c-0.6,0.2-0.9,0.9-0.7,1.5c0.2,0.6,0.9,0.9,1.5,0.7
		C-41.2,624.7-40.9,624-41.2,623.4z"/>
	<path class="st0" d="M-26.5,620.5c0.7,0,1.1-0.6,1.1-1.2c0-0.7-0.6-1.1-1.2-1.1c-0.7,0-1.1,0.6-1.1,1.2
		C-27.7,620-27.1,620.5-26.5,620.5z"/>
	<path class="st0" d="M236.8,621.5c0.6,0.1,1.2-0.4,1.3-1.1c0.1-0.6-0.4-1.2-1.1-1.3c-0.6-0.1-1.2,0.4-1.3,1.1
		C235.7,620.9,236.1,621.4,236.8,621.5z"/>
	<path class="st0" d="M253.3,619.2c0.6-0.2,1-0.8,0.8-1.4c-0.2-0.6-0.8-1-1.4-0.8c-0.6,0.2-1,0.8-0.8,1.4
		C252.1,619,252.7,619.4,253.3,619.2z"/>
	<path class="st0" d="M-39.6,633.6c-0.1,0.6,0.3,1.3,0.9,1.4c0.6,0.1,1.3-0.3,1.4-0.9c0.1-0.6-0.3-1.3-0.9-1.4
		C-38.8,632.6-39.5,633-39.6,633.6z"/>
	<path class="st0" d="M-23.5,637.7c-0.2,0.6,0.2,1.3,0.8,1.5c0.6,0.2,1.3-0.2,1.5-0.8c0.2-0.6-0.2-1.3-0.8-1.5
		C-22.6,636.7-23.3,637-23.5,637.7z"/>
	<path class="st0" d="M-54.3,636.1c0.6-0.2,1-0.8,0.9-1.4c-0.2-0.6-0.8-1-1.4-0.9c-0.6,0.2-1,0.8-0.9,1.4
		C-55.6,635.9-54.9,636.3-54.3,636.1z"/>
	<path class="st0" d="M239.6,642.4c0.7,0,1.2-0.6,1.2-1.2c0-0.7-0.6-1.2-1.2-1.2c-0.7,0-1.2,0.6-1.2,1.2
		C238.4,641.9,239,642.4,239.6,642.4z"/>
	<path class="st0" d="M254.1,636.4c0.2,0.6,0.9,0.9,1.5,0.7c0.1-0.1,0.3-0.1,0.4-0.2c0,0,0,0,0.1-0.1c0,0,0.1-0.1,0-0.1
		c0,0,0-0.1,0-0.1c0-0.1,0-0.1,0-0.2c0-0.1,0.1-0.1,0.1-0.2c0.1-0.2,0.1-0.3,0.1-0.5c0-0.2-0.1-0.4-0.1-0.5c0-0.1-0.1-0.1-0.2-0.2
		c-0.1-0.1-0.2-0.1-0.3-0.2c-0.1,0-0.2,0-0.3,0c-0.1,0-0.1,0-0.1,0c0,0-0.1,0-0.1,0c-0.1,0-0.3,0-0.4,0.1
		C254.2,635.2,253.9,635.8,254.1,636.4z"/>
	<path class="st0" d="M224.7,639.4c0.3-0.6,0.1-1.3-0.5-1.6c-0.6-0.3-1.3-0.1-1.6,0.5c-0.3,0.6-0.1,1.3,0.5,1.6
		S224.4,640,224.7,639.4z"/>
	<path class="st0" d="M-40.4,652.5c0.6-0.1,1.1-0.6,1-1.3c-0.1-0.6-0.6-1.1-1.3-1c-0.6,0.1-1.1,0.6-1,1.3
		C-41.6,652.1-41.1,652.6-40.4,652.5z"/>
	<path class="st0" d="M-23.4,652.5c0.2-0.6-0.2-1.3-0.8-1.4c-0.6-0.2-1.3,0.2-1.4,0.8c-0.2,0.6,0.2,1.3,0.8,1.4
		C-24.2,653.5-23.5,653.1-23.4,652.5z"/>
	<path class="st0" d="M-55.6,657.2c0.6-0.2,0.9-0.9,0.7-1.5c-0.2-0.6-0.9-0.9-1.5-0.7c-0.6,0.2-0.9,0.9-0.7,1.5
		C-56.9,657.1-56.2,657.4-55.6,657.2z"/>
	<path class="st0" d="M241.8,647.6c-0.6,0.2-1,0.8-0.8,1.4c0.2,0.6,0.8,1,1.4,0.8l0,0l0,0l0,0c0,0,0,0,0,0c0,0,0,0,0-0.1
		c0,0,0,0,0,0c0,0,0.1,0,0.1,0c0.1,0,0.2-0.1,0.3-0.2c0.2-0.2,0.3-0.4,0.4-0.7c0-0.3,0-0.5-0.1-0.8c-0.1-0.1-0.1-0.2-0.2-0.3
		c0,0,0,0-0.1-0.1c0,0-0.1,0-0.1-0.1c-0.1,0-0.2-0.1-0.3-0.1c-0.1,0-0.2,0-0.3,0l-0.1,0L241.8,647.6z"/>
	<path class="st0" d="M257.7,653c0.6,0.2,1.3-0.2,1.5-0.8c0.2-0.6-0.2-1.3-0.8-1.5c-0.6-0.2-1.3,0.2-1.5,0.8
		C256.8,652.1,257.1,652.8,257.7,653z"/>
	<path class="st0" d="M225,652.2c0,0.6,0.5,1.2,1.2,1.2c0.6,0,1.2-0.5,1.2-1.2c0-0.6-0.5-1.2-1.2-1.2C225.5,651,225,651.5,225,652.2
		z"/>
	<path class="st0" d="M-39.6,669.8c0.6,0.1,1.2-0.4,1.3-1.1c0.1-0.6-0.4-1.2-1.1-1.3c-0.6-0.1-1.2,0.4-1.3,1.1
		C-40.7,669.2-40.2,669.8-39.6,669.8z"/>
	
		<ellipse transform="matrix(5.166594e-02 -0.9987 0.9987 5.166594e-02 -694.0797 613.9592)" class="st0" cx="-23.8" cy="672.4" rx="1.2" ry="1.2"/>
	<path class="st0" d="M-54.4,673.6c0.6-0.3,0.8-1,0.6-1.5c-0.3-0.6-1-0.8-1.5-0.6c-0.6,0.3-0.8,1-0.6,1.5
		C-55.7,673.6-55,673.9-54.4,673.6z"/>
	<path class="st0" d="M237.3,669.9c0.2,0.6,0.9,0.9,1.5,0.7c0.6-0.2,0.9-0.9,0.7-1.5s-0.9-0.9-1.5-0.7S237.1,669.3,237.3,669.9z"/>
	<path class="st0" d="M254.3,665.5c-0.6,0.1-1.1,0.6-1,1.3c0.1,0.6,0.6,1.1,1.3,1c0.6-0.1,1.1-0.6,1-1.3
		C255.5,665.9,254.9,665.4,254.3,665.5z"/>
	<path class="st0" d="M224,672.9c0.1-0.6-0.4-1.2-1.1-1.3c-0.6-0.1-1.2,0.4-1.3,1.1c-0.1,0.6,0.4,1.2,1.1,1.3
		C223.3,674,223.9,673.6,224,672.9z"/>
	<path class="st0" d="M-37.5,687.8c-0.6,0-1.2,0.5-1.2,1.2c0,0.6,0.5,1.2,1.2,1.2c0.6,0,1.2-0.5,1.2-1.2
		C-36.3,688.3-36.8,687.7-37.5,687.8z"/>
	<path class="st0" d="M-22,684.7c0.6-0.3,0.8-1,0.4-1.6c-0.3-0.6-1-0.8-1.6-0.4c-0.6,0.3-0.8,1-0.4,1.6
		C-23.2,684.9-22.5,685.1-22,684.7z"/>
	<path class="st0" d="M-53.8,687.9c-0.6,0-1.2,0.5-1.1,1.2c0,0.6,0.5,1.2,1.2,1.1c0.6,0,1.2-0.5,1.1-1.2
		C-52.6,688.4-53.1,687.9-53.8,687.9z"/>
	<path class="st0" d="M242.7,685.7C242.7,685.7,242.7,685.7,242.7,685.7C242.7,685.7,242.7,685.7,242.7,685.7
		C242.7,685.7,242.7,685.7,242.7,685.7z"/>
	<polygon class="st0" points="242.7,685.8 242.7,685.7 242.7,685.7 	"/>
	<path class="st0" d="M242.9,683.2L242.9,683.2c-0.1,0-0.1,0-0.1,0c-0.1,0-0.3,0-0.5-0.1c0,0-0.1,0-0.1,0c-0.7,0.3-0.7,0.5-0.8,0.8
		c-0.1,0.3-0.1,0.6,0,0.9c0.1,0.3,0.4,0.5,0.6,0.6c0.2,0.1,0.5,0.1,0.6,0.1c0,0,0,0,0,0l0.1,0c0,0,0.1,0,0.1,0
		c0.1,0,0.3-0.1,0.4-0.2c0.2-0.2,0.4-0.5,0.4-0.8c0-0.3-0.1-0.6-0.3-0.8c-0.1-0.1-0.2-0.2-0.3-0.3
		C243,683.2,242.9,683.2,242.9,683.2z"/>
	<path class="st0" d="M257.5,685.9c-0.2,0.6,0.1,1.3,0.7,1.5s1.3-0.1,1.5-0.7c0.2-0.6-0.1-1.3-0.7-1.5S257.7,685.3,257.5,685.9z"/>
	<path class="st0" d="M226.5,689.7c-0.2,0.6,0.1,1.3,0.7,1.5c0.1,0,0.2,0.1,0.3,0.1c0.1,0,0.1,0,0.3,0c0.3,0,0.5,0,0.7-0.1
		c0.2-0.3,0.2-0.6,0.2-0.8c-0.1-0.3-0.2-0.5-0.2-0.7c0-0.2-0.1-0.3-0.1-0.4c0,0-0.1-0.1-0.1-0.2c-0.1-0.1-0.2-0.1-0.2-0.1
		C227.4,688.8,226.7,689.1,226.5,689.7z"/>
	<path class="st0" d="M-45.1,705.2c-0.1,0-0.2,0-0.2,0c0,0-0.1-0.1-0.1-0.1c0,0,0-0.1,0-0.1l0,0c0,0,0,0,0,0.1c0,0,0,0.1-0.1,0.1
		c0,0,0,0,0,0.1c0,0,0,0,0,0l-0.1,0c-0.3,0.1-0.5,0.3-0.7,0.5c-0.2,0.3-0.2,0.6-0.1,0.9l0,0.1c0,0,0,0,0,0.1c0,0,0.1,0.1,0.1,0.1
		c0.1,0.1,0.2,0.2,0.3,0.3c0.2,0.2,0.5,0.4,0.7,0.5c0,0,0,0,0.1-0.1c0.3-0.2,0.5-0.4,0.7-0.6c0.1-0.1,0.2-0.2,0.3-0.3
		c0.1-0.1,0.1-0.2,0.1-0.2c0-0.3,0-0.6-0.2-0.9C-44.5,705.4-44.8,705.3-45.1,705.2z"/>
	<path class="st0" d="M-31.7,695.1c-0.1,0.1-0.3,0.2-0.4,0.3c-0.3,0.2-0.5,0.4-0.7,0.6c-0.2,0.2-0.2,0.4-0.3,0.5
		c0,0.3,0,0.6,0.2,0.9c0.2,0.3,0.5,0.4,0.8,0.5c0.1,0,0.3,0,0.3,0.1c0,0,0,0.1,0,0.1s0,0,0,0c0-0.1,0.1-0.2,0.2-0.4
		c0.1-0.2,0.4-0.3,0.6-0.5c0.2-0.2,0.3-0.5,0.1-0.8C-30.9,695.9-31.2,695.5-31.7,695.1z"/>
	<path class="st0" d="M-17.4,705.8c0,0-0.1-0.1-0.1-0.1l-0.1-0.1l0-0.1c-0.1-0.2-0.1-0.3-0.1-0.4c0-0.1,0-0.1,0-0.1l0,0c0,0,0,0,0,0
		l0,0c0,0-0.1,0-0.1-0.1c-0.1,0-0.1-0.1-0.2-0.1c-0.1,0-0.3,0-0.5,0c-0.3,0-0.6,0.2-0.8,0.5c-0.2,0.3-0.3,0.6-0.2,0.9
		c0,0.1,0.1,0.3,0.2,0.4c0,0.1,0.1,0.1,0.1,0.2c0,0,0.1,0.1,0.1,0.1l0,0l0,0l0.1,0.1c0.3,0.2,0.5,0.3,0.8,0.4
		c0.4-0.2,0.7-0.4,0.9-0.7c0,0,0-0.1,0-0.1l0-0.1c0-0.1,0-0.1,0-0.2c0-0.1,0-0.2,0-0.4C-17.3,706-17.4,705.9-17.4,705.8z"/>
	<path class="st0" d="M-29.7,708.9c0,0-0.1-0.1-0.1-0.1l-0.1-0.1l0-0.1c-0.1-0.2-0.1-0.3-0.1-0.4c0-0.1,0-0.1,0-0.1l0,0c0,0,0,0,0,0
		l0,0c0,0-0.1,0-0.1-0.1c-0.1,0-0.1-0.1-0.2-0.1c-0.1,0-0.3,0-0.5,0c-0.3,0-0.6,0.2-0.8,0.5c-0.2,0.3-0.3,0.6-0.2,0.9
		c0,0.1,0.1,0.3,0.2,0.4c0,0.1,0.1,0.1,0.1,0.2c0,0,0.1,0.1,0.1,0.1l0,0l0,0l0.1,0.1c0.3,0.2,0.5,0.3,0.8,0.4
		c0.4-0.2,0.7-0.4,0.9-0.7c0,0,0-0.1,0-0.1l0-0.1c0-0.1,0-0.1,0-0.2c0-0.1,0-0.2,0-0.4S-29.6,709-29.7,708.9z"/>
	<path class="st0" d="M238.7,703.9c-0.7,0-1.2,0.5-1.2,1.2c0,0.7,0.5,1.2,1.2,1.2c0.7,0,1.2-0.5,1.2-1.2
		C239.9,704.4,239.4,703.9,238.7,703.9z"/>
	<path class="st0" d="M255.7,704c0-0.1,0-0.1-0.1-0.2c-0.1,0-0.2-0.1-0.4-0.1c-0.7,0-1.2,0.5-1.2,1.2c0,0.7,0.5,1.2,1.2,1.2
		c0.1,0,0.2,0,0.4-0.1c0.1,0,0.3-0.1,0.4-0.1c0.1-0.4,0.3-0.9,0.4-1.3C256.2,704.4,255.7,704.2,255.7,704z"/>
	<path class="st0" d="M221,704.6c-0.1,0.7,0.4,1.2,1.1,1.3c0.7,0.1,1.2-0.4,1.3-1.1c0.1-0.7-0.4-1.2-1.1-1.3
		C221.6,703.5,221.1,704,221,704.6z"/>
	<path class="st0" d="M-38.6,720.3c-0.6,0.1-1.1,0.7-0.9,1.4c0.1,0.6,0.7,1.1,1.4,1c0.6-0.1,1.1-0.7,0.9-1.4
		C-37.4,720.6-38,720.2-38.6,720.3z"/>
	<path class="st0" d="M-22.5,717.1c-0.6,0.1-1,0.8-0.9,1.4c0.1,0.6,0.8,1,1.4,0.9s1-0.8,0.9-1.4C-21.2,717.3-21.9,716.9-22.5,717.1z
		"/>
	<path class="st0" d="M227.8,713.9c-0.1,0-0.3,0.1-0.4,0.2c-0.1,0-0.1,0-0.2,0.1c0,0,0,0,0,0c-0.6,0.3-0.9,1-0.6,1.6
		c0.3,0.6,1.1,0.8,1.7,0.5c0,0,0.1,0,0.1-0.1c0,0,0.1-0.1,0.1-0.1c0,0,0,0,0-0.1c0-0.1,0-0.2,0-0.4c0-0.2,0.2-0.4,0.2-0.7
		c0-0.1,0-0.3,0-0.4C228.7,714.1,228.2,713.8,227.8,713.9C227.8,713.9,227.8,713.9,227.8,713.9z"/>
	<path class="st0" d="M-37,733.7c-0.5,0.4-0.6,1.1-0.2,1.6c0.4,0.5,1.1,0.6,1.6,0.2c0.5-0.4,0.6-1.1,0.2-1.6
		C-35.8,733.4-36.5,733.3-37,733.7z"/>
	<path class="st0" d="M-25.8,731.6c-0.5-0.4-1.2-0.3-1.6,0.2c-0.4,0.5-0.3,1.2,0.2,1.6c0.5,0.4,1.2,0.3,1.6-0.2
		C-25.2,732.8-25.3,732-25.8,731.6z"/>
	<path class="st0" d="M238.8,734.8c-0.5-0.4-1.3-0.2-1.6,0.3c-0.4,0.5-0.2,1.3,0.3,1.6c0.5,0.4,1.3,0.2,1.6-0.3
		C239.5,735.9,239.3,735.1,238.8,734.8z"/>
	<path class="st0" d="M243.7,723.3c-0.6-0.3-1.3,0-1.6,0.5c-0.3,0.6,0,1.3,0.5,1.6c0.6,0.3,1.3,0,1.6-0.5
		C244.5,724.3,244.2,723.6,243.7,723.3z"/>
	<path class="st0" d="M246.5,717.8c-1.4-0.7-3.1-0.1-3.8,1.3c-0.7,1.4-0.1,3.1,1.3,3.8c1.4,0.7,3.1,0.1,3.8-1.3
		C248.5,720.2,247.9,718.5,246.5,717.8z"/>
	<path class="st0" d="M223.9,728.3c-0.6,0-1.1,0.6-1.1,1.2s0.6,1.1,1.2,1.1c0.6,0,1.1-0.6,1.1-1.2
		C225.1,728.7,224.5,728.2,223.9,728.3z"/>
	<path class="st0" d="M-24.9,749.8c-0.6-0.1-1.2,0.3-1.4,0.9c-0.1,0.6,0.3,1.2,0.9,1.4c0.6,0.1,1.2-0.3,1.4-0.9
		S-24.3,749.9-24.9,749.8z"/>
	<path class="st0" d="M-7.4,776.6c-0.6,0-1.2,0.5-1.2,1.1c0,0.6,0.5,1.2,1.1,1.2c0.6,0,1.2-0.5,1.2-1.1
		C-6.2,777.2-6.7,776.7-7.4,776.6z"/>
	<path class="st0" d="M8.3,782.5c-0.6-0.3-1.3,0-1.6,0.6s0,1.3,0.6,1.6s1.3,0,1.6-0.6C9.2,783.4,8.9,782.7,8.3,782.5z"/>
	<path class="st0" d="M23.9,785.3c-0.1,0-0.2,0-0.3,0c0,0-0.1,0-0.1,0.1c0,0,0,0,0,0l0,0l0,0c0,0,0,0.1,0,0.1c0,0-0.1,0.1-0.1,0.1
		c-0.1,0.1-0.2,0.1-0.2,0.2c-0.1,0.2-0.2,0.3-0.2,0.6c0,0.2,0,0.4,0.1,0.6c0,0.1,0.1,0.2,0.1,0.3c0,0,0.1,0.1,0.1,0.1
		c0,0,0.1,0.1,0.2,0.1l0.1,0l0.1,0c0,0,0,0,0,0c0,0,0.1,0,0.1,0c0.1,0,0.2,0,0.3,0c0.6,0,1.2-0.6,1.2-1.2S24.6,785.2,23.9,785.3z"/>
	<path class="st0" d="M39.2,783.2c-0.5,0.4-0.7,1.1-0.3,1.6c0.4,0.5,1.1,0.7,1.6,0.3c0.5-0.4,0.7-1.1,0.3-1.6
		C40.5,783,39.8,782.9,39.2,783.2z"/>
	<path class="st0" d="M55.1,778.9c0.2-0.6-0.1-1.3-0.7-1.5c-0.6-0.2-1.3,0.1-1.5,0.7s0.1,1.3,0.7,1.5
		C54.2,779.8,54.9,779.5,55.1,778.9z"/>
	<path class="st0" d="M71,782.3c0-0.7-0.5-1.2-1.2-1.2c-0.7,0-1.2,0.5-1.2,1.2c0,0.7,0.5,1.2,1.2,1.2C70.5,783.5,71,783,71,782.3z"
		/>
	<path class="st0" d="M86.4,782.7c-0.6-0.1-1.2,0.3-1.4,1c-0.1,0.6,0.3,1.2,1,1.4s1.2-0.3,1.4-1C87.5,783.4,87.1,782.8,86.4,782.7z"
		/>
	<path class="st0" d="M101.9,780.5c0.6-0.3,0.8-1,0.5-1.6c-0.3-0.6-1-0.8-1.6-0.5c-0.6,0.3-0.8,1-0.5,1.6
		C100.6,780.6,101.3,780.8,101.9,780.5z"/>
	<path class="st0" d="M118.3,778.1c0-0.6-0.4-1.2-1.1-1.3c-0.6,0-1.2,0.4-1.3,1.1c0,0.6,0.4,1.2,1.1,1.3
		C117.7,779.3,118.3,778.8,118.3,778.1z"/>
	<path class="st0" d="M132.8,778.9c0,0.1,0,0.1,0,0.2c0,0.1,0,0.1,0.1,0.2c0.1,0.1,0.2,0.1,0.3,0.2c0.6,0.2,1.3-0.1,1.5-0.7
		c0.2-0.6-0.1-1.3-0.7-1.5c-0.1,0-0.2-0.1-0.4-0.1c-0.1,0-0.3,0-0.5,0c-0.1,0.1-0.3,0.1-0.4,0.2c-0.1,0.1-0.1,0.1-0.2,0.2
		c-0.1,0.2-0.1,0.4-0.1,0.6c0,0.2,0.1,0.4,0.1,0.6C132.7,778.8,132.7,778.9,132.8,778.9z"/>
	<path class="st0" d="M149.2,781.4c-0.6,0.1-1.1,0.7-1,1.3c0.1,0.6,0.7,1.1,1.3,1c0.6-0.1,1.1-0.7,1-1.3
		C150.4,781.7,149.8,781.3,149.2,781.4z"/>
	<path class="st0" d="M165.3,778.8c-0.6,0.1-1,0.8-0.9,1.4c0.1,0.6,0.8,1,1.4,0.9c0.6-0.1,1-0.8,0.9-1.4
		C166.6,779,165.9,778.6,165.3,778.8z"/>
	<path class="st0" d="M181.5,780.6c-0.6-0.3-1.3-0.1-1.6,0.5c-0.3,0.6-0.1,1.3,0.5,1.6c0.6,0.3,1.3,0.1,1.6-0.5
		C182.3,781.6,182.1,780.9,181.5,780.6z"/>
	<path class="st0" d="M195.7,780.9c-0.6,0.2-0.9,0.9-0.7,1.5c0.2,0.6,0.9,0.9,1.5,0.7c0.6-0.2,0.9-0.9,0.7-1.5
		C197,781,196.3,780.7,195.7,780.9z"/>
	<path class="st0" d="M36.8,800.1C36.7,800.1,36.7,800,36.8,800.1l-0.1-0.2c0,0,0-0.1,0-0.1c0,0-0.1-0.1-0.1-0.1
		c-0.1-0.1-0.1-0.1-0.2-0.1c-0.1-0.1-0.3-0.1-0.5-0.1c-0.6,0-1.2,0.5-1.2,1.1c0,0.6,0.5,1.2,1.1,1.2c0.2,0,0.3,0,0.5-0.1
		c0.1,0,0.1-0.1,0.2-0.1c0,0,0.1,0,0.1-0.1c0,0,0.1-0.1,0.1-0.1c0,0,0.1-0.1,0.1-0.1c0,0,0-0.1,0.1-0.1c0-0.1,0.1-0.1,0.1-0.2
		c0-0.1,0.1-0.3,0-0.4c0-0.1,0-0.3-0.1-0.4C36.8,800.2,36.8,800.2,36.8,800.1z"/>
	<path class="st0" d="M51.5,798c-0.3,0.1-0.5,0.4-0.6,0.7c-0.1,0.3,0,0.6,0.1,0.9c0.1,0.3,0.4,0.5,0.7,0.6c0.3,0.1,0.6,0.1,0.9-0.1
		c0.6-0.3,0.8-1,0.5-1.6C52.8,798,52.1,797.7,51.5,798z"/>
	<path class="st0" d="M67.2,792.1c-0.6,0-1.2,0.4-1.3,1.1c0,0.6,0.4,1.2,1.1,1.3c0.6,0,1.2-0.4,1.3-1.1S67.8,792.1,67.2,792.1z"/>
	<path class="st0" d="M83.5,795.4c-0.6-0.3-1.3,0-1.6,0.5c-0.3,0.6,0,1.3,0.5,1.6c0.6,0.3,1.3,0,1.6-0.5
		C84.3,796.4,84,795.7,83.5,795.4z"/>
	<path class="st0" d="M70.8,801.7c-1.4-0.7-3.2-0.1-3.9,1.3c-0.7,1.4-0.1,3.2,1.3,3.9c1.4,0.7,3.2,0.1,3.9-1.3
		C72.9,804.2,72.3,802.4,70.8,801.7z"/>
	<path class="st0" d="M97.8,797.6c-0.6,0.2-1,0.9-0.8,1.5s0.9,1,1.5,0.8c0.6-0.2,1-0.9,0.8-1.5C99,797.7,98.4,797.4,97.8,797.6z"/>
	<path class="st0" d="M114.3,796.4c-0.6-0.1-1.2,0.4-1.3,1c-0.1,0.6,0.4,1.2,1,1.3c0.6,0.1,1.2-0.4,1.3-1
		C115.4,797.1,114.9,796.5,114.3,796.4z"/>
	<path class="st0" d="M129.8,795.4c-0.6-0.2-1.3,0.1-1.5,0.7c-0.2,0.6,0.1,1.3,0.7,1.5c0.6,0.2,1.3-0.1,1.5-0.7
		C130.7,796.3,130.4,795.7,129.8,795.4z"/>
	<path class="st0" d="M143.1,795c-0.5,0.4-0.7,1.1-0.3,1.6c0.4,0.5,1.1,0.7,1.6,0.3c0.5-0.4,0.7-1.1,0.3-1.6
		C144.3,794.8,143.6,794.6,143.1,795z"/>
	<path class="st0" d="M160.1,797.1c0-0.1,0-0.1,0-0.2c0-0.1-0.1-0.3-0.2-0.4c-0.1-0.1-0.3-0.2-0.5-0.2c-0.6-0.2-1.3,0.2-1.4,0.8
		c-0.2,0.6,0.2,1.3,0.8,1.4c0.2,0,0.3,0.1,0.5,0c0.2,0,0.3-0.1,0.5-0.2c0.1,0,0.2-0.1,0.2-0.2c0-0.1,0.1-0.1,0.1-0.2
		c0.1-0.1,0.1-0.3,0.1-0.4c0-0.1,0-0.3,0-0.4C160.2,797.3,160.2,797.2,160.1,797.1z"/>
	<path class="st0" d="M175.8,798c-0.6-0.2-1.3,0.2-1.4,0.8s0.2,1.3,0.8,1.4c0.6,0.2,1.3-0.2,1.4-0.8
		C176.7,798.8,176.4,798.2,175.8,798z"/>
	<path class="st0" d="M56.3,812.8c-0.6-0.3-1.3,0-1.6,0.5c-0.3,0.6,0,1.3,0.5,1.6c0.6,0.3,1.3,0,1.6-0.5
		C57.1,813.8,56.8,813.1,56.3,812.8z"/>
	<path class="st0" d="M18.7,795.3c-0.6-0.3-1.3,0-1.6,0.5c-0.3,0.6,0,1.3,0.5,1.6c0.6,0.3,1.3,0,1.6-0.5
		C19.5,796.3,19.3,795.6,18.7,795.3z"/>
	<path class="st0" d="M72.6,815.2c-0.6,0.3-0.8,1-0.5,1.6s1,0.8,1.6,0.5c0.6-0.3,0.8-1,0.5-1.6C73.8,815.1,73.1,814.9,72.6,815.2z"
		/>
	<path class="st0" d="M96,818.1c-0.6,0.3-0.8,1-0.5,1.6c0.3,0.6,1,0.8,1.6,0.5c0.6-0.3,0.8-1,0.5-1.6C97.3,818,96.6,817.7,96,818.1z
		"/>
	<path class="st0" d="M113.5,818.1c-0.6,0.3-0.8,1-0.5,1.6c0.3,0.6,1,0.8,1.6,0.5c0.6-0.3,0.8-1,0.5-1.6
		C114.8,818,114.1,817.7,113.5,818.1z"/>
	<path class="st0" d="M85.6,810.2c-0.6-0.1-1.2,0.4-1.3,1c-0.1,0.6,0.4,1.2,1,1.3c0.6,0.1,1.2-0.4,1.3-1
		C86.7,810.9,86.2,810.3,85.6,810.2z"/>
	<path class="st0" d="M101.4,809.3c-0.6,0.1-1.1,0.7-1,1.3c0.1,0.6,0.7,1.1,1.3,1c0.6-0.1,1.1-0.7,1-1.3
		C102.7,809.6,102.1,809.2,101.4,809.3z"/>
	<path class="st0" d="M118.9,810.6c0,0-0.1-0.1-0.1-0.1c-0.1-0.1-0.1-0.2-0.2-0.2c-0.2-0.1-0.4-0.2-0.6-0.2c-0.6-0.1-1.2,0.4-1.3,1
		c-0.1,0.6,0.4,1.2,1,1.3c0.2,0,0.4,0,0.6-0.1c0.1,0,0.2-0.1,0.3-0.2c0,0,0.1-0.1,0.1-0.1c0,0,0-0.1,0.1-0.1
		c0.1-0.2,0.2-0.3,0.2-0.5c0-0.2,0.1-0.4,0-0.6C118.9,810.7,118.9,810.7,118.9,810.6z"/>
	<path class="st0" d="M151.5,808.7c-0.5-0.4-1.2-0.3-1.6,0.2c-0.4,0.5-0.3,1.2,0.2,1.6c0.5,0.4,1.2,0.3,1.6-0.2
		C152.1,809.9,152.1,809.1,151.5,808.7z"/>
	<path class="st0" d="M137.5,807.9c-3.1-2.4-7.5-1.8-9.9,1.3c-2.4,3.1-1.8,7.5,1.3,9.9c3.1,2.4,7.5,1.8,9.9-1.3
		C141.2,814.7,140.6,810.3,137.5,807.9z"/>
	<path class="st0" d="M-4.3,682.4c-2.9-2.2-7-1.7-9.2,1.2c-2.2,2.9-1.7,7,1.2,9.2c2.9,2.2,7,1.7,9.2-1.2
		C-0.8,688.7-1.4,684.6-4.3,682.4z"/>
</g>
</svg>
