<svg xmlns="http://www.w3.org/2000/svg" width="333.6" height="108.1" viewBox="0 0 333.6 108.1"><title>Accel</title><path d="M257.47 89.44a26.29 26.29 0 0 1-4.88-8.92c-.1-.27-.19-.54-.28-.83s-.19-.64-.29-1-.12-.42-.18-.63q-.15-.57-.29-1.14l-.15-.68q-.21-1-.37-2c0-.24-.08-.49-.11-.73q-.08-.59-.15-1.2c0-.26-.05-.52-.08-.78s-.07-.67-.09-1l49.74-12.37a22.25 22.25 0 0 0-2.16-7.67 22.77 22.77 0 0 0-8.6-10 34 34 0 0 0-13.83-5.16l-.83-.13a39.25 39.25 0 0 0-8.93-.07 36.26 36.26 0 0 0-31.7 30.31v.31c-.08.53-.16 1.06-.22 1.59q-.06.49-.1 1c0 .28 0 .56-.07.84q0 .73-.07 1.47v2.28a35.72 35.72 0 0 0 2.64 12.26c5.66 13.79 19.07 22.89 33.25 22.89a36.32 36.32 0 0 0 30.65-15.7l-.85-2.22c-3.52 7.01-27.75 15.62-42.05-.72zM280.07 59l-29.54 7.34q0-1.36.13-2.68v-.33q0-.44.09-.88c0-.4.09-.81.15-1.2a37.18 37.18 0 0 1 1.25-5.63 33.32 33.32 0 0 1 4.54-9.53 23.11 23.11 0 0 1 6.81-6.5 16.15 16.15 0 0 1 8.62-2.42q6.35 0 9.3 3.71a12.76 12.76 0 0 1 1.7 2.83c2.02 5.09 1.88 13.71-3.05 15.29zM168.8 90.18c-3.54 7-27.75 15.61-42.05-.74a27 27 0 0 1-5.14-9.68 40.78 40.78 0 0 1-1.81-12.48 39.6 39.6 0 0 1 1.66-11.65 33.32 33.32 0 0 1 4.54-9.52 23.11 23.11 0 0 1 6.81-6.5 16.15 16.15 0 0 1 8.62-2.42q6.35 0 9.3 3.71a14.47 14.47 0 0 1 2.95 9.3 15.38 15.38 0 0 1-.76 5.14L168 51.69C162.52 36.95 144.34 35 141 35c-28.79-.47-44.57 27.57-35.27 50.25C111.4 99 124.81 108.1 139 108.1a36.32 36.32 0 0 0 30.65-15.7z" fill="#332b3c"/><path d="M234.28 90.18c-3.54 7-27.75 15.61-42.05-.74a27 27 0 0 1-5.14-9.68 40.78 40.78 0 0 1-1.81-12.48 39.6 39.6 0 0 1 1.66-11.65 33.32 33.32 0 0 1 4.54-9.53 23.11 23.11 0 0 1 6.81-6.5 16.15 16.15 0 0 1 8.62-2.42q6.35 0 9.3 3.71a14.47 14.47 0 0 1 2.95 9.3 15.38 15.38 0 0 1-.76 5.14l15.06-3.65C228 36.95 209.83 35 206.5 35c-28.79-.47-44.57 27.57-35.27 50.25 5.66 13.75 19.07 22.85 33.25 22.85a36.32 36.32 0 0 0 30.65-15.7zm87.84 3.26V0l-21.27 5.35-.15.06v2.01c.75 0 7.19 1.91 7.19 6.42v79.27c0 10-6.85 11.46-11.48 11.77v1.66h37.2v-1.66c-4.61-.32-11.33-1.78-11.49-11.44zM64.73 0L43.66 5.33l-.15.06V7c.75 0 7 2.29 5.24 6.42-7.9 18.23-33.89 79.26-35.26 82C9 104.63 2.63 104.57 0 104.87v1.67h33v-1.7s-12.53.16-12.53-6.62c0-4.11 6.47-20.26 8.25-24.66l43-10.82c.05.26 11.61 29.2 11.61 35.26 0 6.59-10.28 6.8-10.59 6.8v1.67h43v-1.67c-2.32-.1-10-.21-14.52-9.52C100 92.73 64.73 0 64.73 0zm5.48 59L30.52 69c.21-.53 21.81-52.79 22.42-54.1.9 2.18 17.27 44.1 17.27 44.1z" fill="#332b3c"/></svg>