<svg xmlns="http://www.w3.org/2000/svg" xmlns:xlink="http://www.w3.org/1999/xlink" viewBox="0 0 7100 500"><defs><style>.cls-1{isolation:isolate;}.cls-2{fill:#6969ff;}.cls-3{fill:#7373ff;}.cls-4{opacity:0.2;}.cls-5{fill:url(#linear-gradient);}.cls-6{fill:#fff;}.cls-7,.cls-9{opacity:0.8;}.cls-7{fill:url(#linear-gradient-2);}.cls-44,.cls-8{opacity:0.1;}.cls-8{fill:url(#linear-gradient-3);}.cls-9{fill:url(#linear-gradient-4);}.cls-10,.cls-11,.cls-12,.cls-18,.cls-23,.cls-40,.cls-41,.cls-42,.cls-43,.cls-45,.cls-49,.cls-50,.cls-51,.cls-52,.cls-53,.cls-57,.cls-58,.cls-61,.cls-62,.cls-64,.cls-69,.cls-70,.cls-71,.cls-72,.cls-73{opacity:0.3;}.cls-10,.cls-11,.cls-12,.cls-28,.cls-40,.cls-41,.cls-42,.cls-43,.cls-45,.cls-49,.cls-50,.cls-51,.cls-52,.cls-53,.cls-54,.cls-57,.cls-58,.cls-61,.cls-62,.cls-64,.cls-69,.cls-70,.cls-71,.cls-72,.cls-73{mix-blend-mode:multiply;}.cls-10{fill:url(#linear-gradient-5);}.cls-11{fill:url(#linear-gradient-6);}.cls-12{fill:url(#linear-gradient-7);}.cls-13{fill:#01013b;}.cls-14{fill:#19196b;}.cls-15{fill:url(#linear-gradient-8);}.cls-16{fill:url(#linear-gradient-9);}.cls-17{fill:url(#linear-gradient-10);}.cls-18{fill:url(#linear-gradient-11);}.cls-19{fill:url(#linear-gradient-12);}.cls-20{fill:url(#linear-gradient-13);}.cls-21{fill:url(#linear-gradient-14);}.cls-22{opacity:0.25;fill:url(#linear-gradient-15);}.cls-23{fill:url(#linear-gradient-16);}.cls-24{fill:url(#linear-gradient-17);}.cls-25{fill:url(#linear-gradient-18);}.cls-26{fill:url(#linear-gradient-19);}.cls-27{fill:url(#linear-gradient-20);}.cls-28{opacity:0.29;}.cls-29{fill:url(#linear-gradient-21);}.cls-30{fill:url(#linear-gradient-22);}.cls-31{fill:#242774;}.cls-32,.cls-33{opacity:0.4;}.cls-32{fill:url(#linear-gradient-23);}.cls-33{fill:url(#linear-gradient-24);}.cls-34{fill:#e6e7e8;}.cls-35{fill:#5b5bff;}.cls-36{fill:#4748ff;}.cls-37{fill:#7b7bff;}.cls-38{fill:#f06e46;}.cls-39{fill:#e03e3e;}.cls-40{fill:url(#linear-gradient-25);}.cls-41{fill:url(#linear-gradient-26);}.cls-42{fill:url(#linear-gradient-27);}.cls-43{fill:url(#linear-gradient-28);}.cls-44{fill:url(#linear-gradient-29);}.cls-45{fill:url(#linear-gradient-30);}.cls-46{fill:#3536cd;}.cls-47{fill:#262676;}.cls-48{fill:#e74848;}.cls-49{fill:url(#linear-gradient-31);}.cls-50{fill:url(#linear-gradient-32);}.cls-51{fill:url(#linear-gradient-33);}.cls-52{fill:url(#linear-gradient-34);}.cls-53{fill:url(#linear-gradient-35);}.cls-54{fill:url(#linear-gradient-36);}.cls-55,.cls-59{fill:none;stroke-miterlimit:10;}.cls-55{stroke:#e6e7e8;}.cls-56{fill:#1c2268;}.cls-57{fill:url(#linear-gradient-37);}.cls-58{fill:url(#linear-gradient-38);}.cls-59{stroke:#01013b;stroke-width:6px;}.cls-60{fill:#0077c0;}.cls-61{fill:url(#linear-gradient-39);}.cls-62{fill:url(#linear-gradient-40);}.cls-63{fill:#2329a3;}.cls-64{fill:url(#linear-gradient-41);}.cls-65{fill:#5050e9;}.cls-66{fill:#3842fc;}.cls-67{fill:#7271ff;}.cls-68{fill:#3d3de8;}.cls-69{fill:url(#linear-gradient-42);}.cls-70{fill:url(#linear-gradient-43);}.cls-71{fill:url(#linear-gradient-44);}.cls-72{fill:url(#linear-gradient-45);}.cls-73{fill:url(#linear-gradient-46);}.cls-74{opacity:0.5;}.cls-75{fill:#f1f2f2;}.cls-76{fill:#262dbc;}</style><linearGradient id="linear-gradient" x1="1013.62799" y1="-0.72261" x2="1013.62799" y2="374.03792" gradientUnits="userSpaceOnUse"><stop offset="0" stop-color="#fff"/><stop offset="0.101" stop-color="#fff" stop-opacity="0.97959"/><stop offset="0.22473" stop-color="#fff" stop-opacity="0.92067"/><stop offset="0.36035" stop-color="#fff" stop-opacity="0.82318"/><stop offset="0.50447" stop-color="#fff" stop-opacity="0.68699"/><stop offset="0.65534" stop-color="#fff" stop-opacity="0.51197"/><stop offset="0.8119" stop-color="#fff" stop-opacity="0.29793"/><stop offset="0.97029" stop-color="#fff" stop-opacity="0.04991"/><stop offset="1" stop-color="#fff" stop-opacity="0"/></linearGradient><linearGradient id="linear-gradient-2" x1="1087.8981" y1="399.61327" x2="1087.8981" y2="412.69614" xlink:href="#linear-gradient"/><linearGradient id="linear-gradient-3" x1="1017.80324" y1="211.54444" x2="868.2811" y2="44.18939" xlink:href="#linear-gradient"/><linearGradient id="linear-gradient-4" x1="1089.04805" y1="185.107" x2="1089.04805" y2="219.88392" xlink:href="#linear-gradient"/><linearGradient id="linear-gradient-5" x1="1030.9476" y1="447.63099" x2="1030.9476" y2="414.98887" gradientUnits="userSpaceOnUse"><stop offset="0" stop-color="#fff" stop-opacity="0"/><stop offset="0.37853" stop-color="#bcb5ff" stop-opacity="0.42297"/><stop offset="0.68129" stop-color="#8b7fff" stop-opacity="0.73335"/><stop offset="0.89472" stop-color="#6d5dff" stop-opacity="0.92589"/><stop offset="1" stop-color="#6150ff"/></linearGradient><linearGradient id="linear-gradient-6" x1="4713.72749" y1="472.25962" x2="4713.72749" y2="439.13347" xlink:href="#linear-gradient-5"/><linearGradient id="linear-gradient-7" x1="4818.49484" y1="452.31361" x2="4818.49484" y2="440.17911" xlink:href="#linear-gradient-5"/><linearGradient id="linear-gradient-8" x1="4608.13597" y1="312" x2="4608.13597" y2="398.50498" gradientUnits="userSpaceOnUse"><stop offset="0" stop-color="#4748ff"/><stop offset="0.99787" stop-color="#281fcd"/></linearGradient><linearGradient id="linear-gradient-9" x1="4770.40184" y1="310" x2="4770.40184" y2="401.62726" xlink:href="#linear-gradient-8"/><linearGradient id="linear-gradient-10" x1="4865.91136" y1="318.66667" x2="4865.91136" y2="398.69166" xlink:href="#linear-gradient-8"/><linearGradient id="linear-gradient-11" x1="4528.28375" y1="355.56289" x2="4683.93735" y2="355.56289" gradientUnits="userSpaceOnUse"><stop offset="0" stop-color="#262262"/><stop offset="0.10877" stop-color="#292574" stop-opacity="0.82775"/><stop offset="0.32282" stop-color="#2f2ea4" stop-opacity="0.38126"/><stop offset="0.48565" stop-color="#3536cd" stop-opacity="0"/><stop offset="0.63116" stop-color="#3535ca" stop-opacity="0.0278"/><stop offset="0.72805" stop-color="#3334c0" stop-opacity="0.1183"/><stop offset="0.8108" stop-color="#3131b0" stop-opacity="0.27218"/><stop offset="0.88555" stop-color="#2e2c99" stop-opacity="0.4896"/><stop offset="0.95428" stop-color="#29277b" stop-opacity="0.76789"/><stop offset="1" stop-color="#262262"/></linearGradient><linearGradient id="linear-gradient-12" x1="4615.94847" y1="428.17868" x2="4615.94847" y2="352.23003" gradientUnits="userSpaceOnUse"><stop offset="0" stop-color="#262262"/><stop offset="0.09132" stop-color="#282572" stop-opacity="0.85422"/><stop offset="0.35571" stop-color="#2e2c99" stop-opacity="0.48496"/><stop offset="0.603" stop-color="#3232b6" stop-opacity="0.21827"/><stop offset="0.82434" stop-color="#3435c7" stop-opacity="0.05659"/><stop offset="0.99787" stop-color="#3536cd" stop-opacity="0"/></linearGradient><linearGradient id="linear-gradient-13" x1="4763.96397" y1="428.17868" x2="4763.96397" y2="352.23003" xlink:href="#linear-gradient-12"/><linearGradient id="linear-gradient-14" x1="4514.21177" y1="318.66667" x2="4514.21177" y2="450.90887" xlink:href="#linear-gradient-8"/><linearGradient id="linear-gradient-15" x1="4872.29511" y1="355.56289" x2="4691.25108" y2="355.56289" gradientUnits="userSpaceOnUse"><stop offset="0" stop-color="#262262"/><stop offset="0.11581" stop-color="#272367" stop-opacity="0.95794"/><stop offset="0.23468" stop-color="#292574" stop-opacity="0.83226"/><stop offset="0.35499" stop-color="#2c2a8a" stop-opacity="0.62269"/><stop offset="0.4755" stop-color="#302faa" stop-opacity="0.33115"/><stop offset="0.58389" stop-color="#3536cd" stop-opacity="0"/><stop offset="0.69862" stop-color="#3535ca" stop-opacity="0.02848"/><stop offset="0.77739" stop-color="#3334c0" stop-opacity="0.12065"/><stop offset="0.84535" stop-color="#3130af" stop-opacity="0.27709"/><stop offset="0.9072" stop-color="#2e2c98" stop-opacity="0.49808"/><stop offset="0.96438" stop-color="#292679" stop-opacity="0.78099"/><stop offset="1" stop-color="#262262"/></linearGradient><linearGradient id="linear-gradient-16" x1="4594.69281" y1="355.56299" x2="4484.14042" y2="355.56299" xlink:href="#linear-gradient-11"/><linearGradient id="linear-gradient-17" x1="4585.20835" y1="376.88057" x2="4585.20835" y2="428.81913" gradientUnits="userSpaceOnUse"><stop offset="0" stop-color="#4748ff"/><stop offset="0.99787" stop-color="#3536cd"/></linearGradient><linearGradient id="linear-gradient-18" x1="4792.87265" y1="376.43644" x2="4792.87265" y2="428.14666" gradientTransform="translate(9585.74529 805.37917) rotate(180)" xlink:href="#linear-gradient-17"/><linearGradient id="linear-gradient-19" x1="4586.5504" y1="383" x2="4586.5504" y2="462.15807" gradientUnits="userSpaceOnUse"><stop offset="0" stop-color="#4748ff"/><stop offset="0.00329" stop-color="#4748ff"/><stop offset="0.19782" stop-color="#3936e9"/><stop offset="0.41028" stop-color="#2f29d9"/><stop offset="0.65432" stop-color="#2a21d0"/><stop offset="0.99787" stop-color="#281fcd"/></linearGradient><linearGradient id="linear-gradient-20" x1="4792.92535" y1="383" x2="4792.92535" y2="462.15807" xlink:href="#linear-gradient-19"/><linearGradient id="linear-gradient-21" x1="4585.10301" y1="422.58933" x2="4585.10301" y2="401.25245" xlink:href="#linear-gradient-12"/><linearGradient id="linear-gradient-22" x1="4792.97801" y1="422.58933" x2="4792.97801" y2="401.25245" xlink:href="#linear-gradient-12"/><linearGradient id="linear-gradient-23" x1="4788.50201" y1="350.95902" x2="4845.55694" y2="350.95902" gradientUnits="userSpaceOnUse"><stop offset="0" stop-color="#262262"/><stop offset="0.10877" stop-color="#292574" stop-opacity="0.82775"/><stop offset="0.32282" stop-color="#2f2ea4" stop-opacity="0.38126"/><stop offset="0.48565" stop-color="#3536cd" stop-opacity="0"/><stop offset="0.70237" stop-color="#2e2c99" stop-opacity="0.48636"/><stop offset="0.89683" stop-color="#282571" stop-opacity="0.85864"/><stop offset="1" stop-color="#262262"/></linearGradient><linearGradient id="linear-gradient-24" x1="4582.99481" y1="369.42618" x2="4617.86204" y2="394.33135" gradientUnits="userSpaceOnUse"><stop offset="0" stop-color="#262262" stop-opacity="0.4"/><stop offset="0.48764" stop-color="#2c2b90" stop-opacity="0.22804"/><stop offset="1" stop-color="#3536cd" stop-opacity="0"/></linearGradient><linearGradient id="linear-gradient-25" x1="4572.15003" y1="472.67616" x2="4572.15003" y2="460.41804" xlink:href="#linear-gradient-5"/><linearGradient id="linear-gradient-26" x1="4610.20189" y1="452.26797" x2="4610.20189" y2="437.81698" xlink:href="#linear-gradient-5"/><linearGradient id="linear-gradient-27" x1="4856.97315" y1="472.62992" x2="4856.97315" y2="458.0553" xlink:href="#linear-gradient-5"/><linearGradient id="linear-gradient-28" x1="4782.02156" y1="471.05856" x2="4782.02156" y2="456.43561" xlink:href="#linear-gradient-5"/><linearGradient id="linear-gradient-29" x1="4576.11106" y1="346.82406" x2="4639.11106" y2="319.82406" gradientTransform="translate(427.46911 -1622.42399) rotate(21.00865)" gradientUnits="userSpaceOnUse"><stop offset="0" stop-color="#262262" stop-opacity="0.5"/><stop offset="0.18719" stop-color="#2c2a8d" stop-opacity="0.29776"/><stop offset="0.41503" stop-color="#3131b1" stop-opacity="0.13072"/><stop offset="0.6688" stop-color="#3435c6" stop-opacity="0.0314"/><stop offset="0.99787" stop-color="#3536cd" stop-opacity="0"/></linearGradient><linearGradient id="linear-gradient-30" x1="3833.09454" y1="457.41949" x2="3833.09454" y2="432.78932" xlink:href="#linear-gradient-5"/><linearGradient id="linear-gradient-31" x1="2808.59293" y1="490.20622" x2="2679.4228" y2="434.25992" xlink:href="#linear-gradient-5"/><linearGradient id="linear-gradient-32" x1="2851.53625" y1="479.25145" x2="2743.51837" y2="432.46664" xlink:href="#linear-gradient-5"/><linearGradient id="linear-gradient-33" x1="2797.92313" y1="430.8414" x2="2766.0443" y2="417.03401" xlink:href="#linear-gradient-5"/><linearGradient id="linear-gradient-34" x1="2822.15324" y1="426.40006" x2="2798.80119" y2="416.2858" xlink:href="#linear-gradient-5"/><linearGradient id="linear-gradient-35" x1="2916.94668" y1="479.04633" x2="2810.17361" y2="432.80067" xlink:href="#linear-gradient-5"/><linearGradient id="linear-gradient-36" x1="2727.9523" y1="202.09264" x2="2630.24304" y2="299.8019" gradientUnits="userSpaceOnUse"><stop offset="0" stop-color="#fff" stop-opacity="0"/><stop offset="0.00535" stop-color="#fefeff" stop-opacity="0.00674"/><stop offset="0.29313" stop-color="#c7c1ff" stop-opacity="0.35444"/><stop offset="0.54624" stop-color="#9b91ff" stop-opacity="0.63096"/><stop offset="0.7553" stop-color="#7c6eff" stop-opacity="0.83068"/><stop offset="0.91258" stop-color="#6858ff" stop-opacity="0.95379"/><stop offset="1" stop-color="#6150ff"/></linearGradient><linearGradient id="linear-gradient-37" x1="1191.57029" y1="488.28118" x2="1063.28132" y2="432.71653" xlink:href="#linear-gradient-5"/><linearGradient id="linear-gradient-38" x1="1291.87998" y1="492.41002" x2="1139.82803" y2="426.55312" xlink:href="#linear-gradient-5"/><linearGradient id="linear-gradient-39" x1="5584.72537" y1="491.44954" x2="5438.20134" y2="427.9869" xlink:href="#linear-gradient-5"/><linearGradient id="linear-gradient-40" x1="5485.48027" y1="487.54977" x2="5363.76403" y2="434.8319" xlink:href="#linear-gradient-5"/><linearGradient id="linear-gradient-41" x1="2098.49081" y1="486.99139" x2="2098.49081" y2="443.38904" xlink:href="#linear-gradient-5"/><linearGradient id="linear-gradient-42" x1="6599.6643" y1="494.69174" x2="6434.48025" y2="423.14705" xlink:href="#linear-gradient-5"/><linearGradient id="linear-gradient-43" x1="6707.88752" y1="482.96405" x2="6587.0771" y2="430.63852" xlink:href="#linear-gradient-5"/><linearGradient id="linear-gradient-44" x1="6753.92185" y1="458.91775" x2="6634.65255" y2="407.25971" xlink:href="#linear-gradient-5"/><linearGradient id="linear-gradient-45" x1="6971.22047" y1="459.02995" x2="6843.08328" y2="403.53104" xlink:href="#linear-gradient-5"/><linearGradient id="linear-gradient-46" x1="7009.9901" y1="483.00677" x2="6888.93385" y2="430.57476" xlink:href="#linear-gradient-5"/></defs><title>sa</title><g class="cls-1"><g id="Layer_1" data-name="Layer 1"><rect class="cls-2" y="412.18797" width="7100" height="87.81203"/><rect class="cls-3" x="907.58874" y="-0.33397" width="12.26021" height="414.41039"/><g class="cls-4"><rect class="cls-5" x="920.34894" y="0.16602" width="186.55811" height="413.41016"/><path class="cls-6" d="M1106.407.666v412.4104H920.84894V.666H1106.407m1-1H919.84894v414.4104H1107.407V-.334Z"/></g><rect class="cls-7" x="1068.38917" y="399.6443" width="39.01785" height="14.43213"/><polygon class="cls-8" points="919.849 414.076 1107.407 -0.334 919.849 -0.334 919.849 414.076"/><rect class="cls-9" x="1084.98492" y="185.18946" width="8.12626" height="38.36352"/><polygon class="cls-10" points="1154.306 448.283 954.488 448.283 907.589 414.076 1107.407 414.076 1154.306 448.283"/><polygon class="cls-11" points="4961.924 472.921 4505.392 472.921 4465.531 438.302 4911.506 438.207 4961.924 472.921"/><polyline class="cls-12" points="4791.438 439.84 4824.911 452.556 4845.551 452.556 4798.725 439.841"/><g id="lrO40f.tif"><polygon class="cls-13" points="4827.704 419.606 4835.364 460.075 4826.36 460.075 4818.565 419.606 4827.704 419.606"/><polygon class="cls-14" points="4831.735 419.606 4838.993 457.648 4835.364 460.075 4827.704 419.606 4831.735 419.606"/><polygon class="cls-13" points="4552.999 419.606 4545.338 460.075 4554.343 460.075 4562.138 419.606 4552.999 419.606"/><polygon class="cls-14" points="4548.967 419.606 4541.71 457.648 4545.338 460.075 4552.999 419.606 4548.967 419.606"/><polygon class="cls-13" points="4584.233 399.371 4590.432 439.841 4583.145 439.841 4576.838 399.371 4584.233 399.371"/><polygon class="cls-14" points="4587.496 399.371 4593.368 437.413 4590.432 439.841 4584.233 399.371 4587.496 399.371"/><polygon class="cls-13" points="4797.637 399.371 4791.438 439.841 4798.725 439.841 4805.033 399.371 4797.637 399.371"/><polygon class="cls-14" points="4794.375 399.371 4788.502 437.413 4791.438 439.841 4797.637 399.371 4794.375 399.371"/><path class="cls-15" d="M4552.23545,311.538a134.57634,134.57634,0,0,0-24.89868,2.89143l4.71265,1.487a35.746,35.746,0,0,1,10.91235,25.71119v57.96019h145.97339V323.02688a11.48889,11.48889,0,0,0-11.48889-11.48889Z"/><path class="cls-16" d="M4842.82316,312.68807a107.74032,107.74032,0,0,0-15.70025-1.15008H4700.42405a11.48889,11.48889,0,0,0-11.48889,11.48889v76.56091h150.05762V341.62414a35.7378,35.7378,0,0,1,10.91235-25.70773l1.96338-1.896Z"/><path class="cls-17" d="M4883.66319,318.70351l-31.79468-4.68311-1.96338,1.896a35.7445,35.7445,0,0,0-10.91235,25.71045v57.96094h53.83716V329.31924A10.73022,10.73022,0,0,0,4883.66319,318.70351Z"/><path class="cls-18" d="M4552.23545,311.538a134.57634,134.57634,0,0,0-24.89868,2.89143l4.71265,1.487a35.746,35.746,0,0,1,10.91235,25.71119v57.96019h145.97339V323.02688a11.48889,11.48889,0,0,0-11.48889-11.48889Z"/><rect class="cls-19" x="4542.96177" y="378.03213" width="145.97339" height="21.55566"/><rect class="cls-20" x="4688.93516" y="378.03213" width="150.05762" height="21.55566"/><path class="cls-21" d="M4532.04942,315.9164h0a5.54148,5.54148,0,0,0-4.9969-1.4356l-33.08158,6.99958a10.73037,10.73037,0,0,0-8.50916,10.498v67.60947h57.5V341.6276A35.746,35.746,0,0,0,4532.04942,315.9164Z"/><path class="cls-22" d="M4842.82316,312.68807a107.74032,107.74032,0,0,0-15.70025-1.15008H4700.42405a11.48889,11.48889,0,0,0-11.48889,11.48889v76.56091h150.05762V341.62414a35.7378,35.7378,0,0,1,10.91235-25.70773l1.96338-1.896Z"/><path class="cls-23" d="M4563.24982,311.53809h-11.0144a134.57625,134.57625,0,0,0-24.89868,2.89136l4.71265,1.48706a35.74545,35.74545,0,0,1,10.91235,25.71094v57.96045h26.20935V333.91528A45.321,45.321,0,0,0,4563.24982,311.53809Z"/><path class="cls-24" d="M4493.41146,378.03213h185.73439a10,10,0,0,1,10,10V427.347a0,0,0,0,1,0,0h-207.875a0,0,0,0,1,0,0v-37.1743A12.14061,12.14061,0,0,1,4493.41146,378.03213Z"/><path class="cls-25" d="M4688.93515,378.03213h207.875a0,0,0,0,1,0,0V417.347a10,10,0,0,1-10,10H4702.31562a13.38047,13.38047,0,0,1-13.38047-13.38047V378.03213a0,0,0,0,1,0,0Z" transform="translate(9585.74529 805.37917) rotate(-180)"/><path class="cls-26" d="M4481.27085,399.37085h210.66431V391.4126a13.38022,13.38022,0,0,0-13.38037-13.38037H4491.06016a9.99379,9.99379,0,0,0-9.89453,8.62549,10.04161,10.04161,0,0,1,.10523,1.37451Z"/><path class="cls-27" d="M4689.14581,399.37085h207.66431V391.4126a13.38022,13.38022,0,0,0-13.38037-13.38037H4698.93512a9.99379,9.99379,0,0,0-9.89453,8.62549,10.04161,10.04161,0,0,1,.10522,1.37451Z"/><g class="cls-28"><rect class="cls-29" x="4481.27085" y="397.13536" width="207.66431" height="30.2117"/><rect class="cls-30" x="4689.14585" y="397.13536" width="207.66431" height="30.2117"/></g><rect class="cls-31" x="4685.83656" y="215.28112" width="6.61859" height="424.13184" transform="translate(5116.49289 -4261.79882) rotate(90)"/><path class="cls-31" d="M4484.07994,337.28213h1.38184a0,0,0,0,1,0,0v93.37421a0,0,0,0,1,0,0h-8.38184a0,0,0,0,1,0,0V344.28213A7,7,0,0,1,4484.07994,337.28213Z"/><path class="cls-31" d="M4892.82994,337.28213h1.38184a7,7,0,0,1,7,7v86.37421a0,0,0,0,1,0,0h-8.38184a0,0,0,0,1,0,0V337.28213A0,0,0,0,1,4892.82994,337.28213Z"/><path class="cls-32" d="M4817.0296,320.98779,4788.502,375.99487s2.22925.96265,5.71533,2.03735c6.25024,1.92676,16.55688,4.2146,25.41016,1.96777a48.33172,48.33172,0,0,0,6.16992-1.96777c7.59155-3.06128,7.55054-6.20361,7.55054-6.20361h5.51684l.14233-30.77246a35.71985,35.71985,0,0,1,3.96021-15.78735l.00366-.0144.02539-.042a35.72084,35.72084,0,0,1,2.5227-4.1626l.03784-.062Z"/><path class="cls-33" d="M4572.91827,378.03223s14.75,6.66224,29,7.19c0,0,7.31039,3.39768,14.03019,3.58772l1.21981-10.77773Z"/></g><polyline class="cls-6" points="4709.088 411.504 4697.074 438.562 4710.704 441.679 4720.679 419.007"/><polyline class="cls-6" points="4756.911 427.742 4764.879 448.436 4779.39 447.936 4770.412 424.851"/><path class="cls-13" d="M4779.97758,456.02685l-.703-9.305-14.51143-.50036s-13.981-1.70293-20.34754,9.80532l22.63412.06713Z"/><path class="cls-34" d="M4807.39317,278.77861l7.4195,3.96167a6.6571,6.6571,0,0,1,1.84606,9.87073l-31.62861,40.04149a5.62861,5.62861,0,0,1-5.55564,2.02333l-42.78872-1.21032,5.47872-7.62605,36.05492-4.68595,29.17377-42.3749"/><path class="cls-35" d="M4808.72849,282.98226l1.09031.796a12.58458,12.58458,0,0,1,4.39134,14.50667l-26.86068,41.24321-9.13006-18.37461,18.95889-31.10039c1.895-4.62448,6.48256-9.3752,11.55019-7.07085Z"/><path class="cls-13" d="M4748.02314,352.29179h0a14.66283,14.66283,0,0,1,7.20611-5.87382l35.91458-4.90686,22.20044,21.8879c-17.87742,6.1352-43.752,11.25046-43.752,11.25046l9.2884,65.17315-26.37288,2.19453-6.68835-80.45612A14.66237,14.66237,0,0,1,4748.02314,352.29179Z"/><path class="cls-34" d="M4742.16447,325.83945s-6.24489-.57235-8.00462-.58493-8.92192,3.86216-11.52033,4.03045c-1.31894.08542-.13453,1.38384-.13453,1.38384s-.60113.98514.14574,1.50147a1.42975,1.42975,0,0,0,.49326,1.23746c.57809.37865,10.29114-1.25924,10.29114-1.25924s1.6963,3.837,9.758,2.09751Z"/><path class="cls-13" d="M4827.25,357.53169s-5.53382,19.34919-24.18971,19.59285c-13.6781.17864-54.936-7.55248-54.936-7.55248l-22.17066,62.999-24.82591-9.16622,30.99081-75.74792a14.66239,14.66239,0,0,1,5.91739-7.46718h0a14.66239,14.66239,0,0,1,9.01415-2.27462l47.59353,3.596Z"/><rect class="cls-36" x="4702.75336" y="332.39107" width="69.2646" height="5.17509" transform="translate(9444.13322 968.66706) rotate(-176.37678)"/><polyline class="cls-36" points="4702.659 335.372 4693.831 279.317 4696.649 279.495 4704.734 330.318"/><rect class="cls-31" x="4707.00892" y="332.18671" width="8.01148" height="2.24411" transform="translate(9391.54946 963.66417) rotate(-176.37678)"/><rect class="cls-31" x="4717.66942" y="332.80078" width="6.08574" height="2.24411" transform="translate(9410.88653 965.50392) rotate(-176.37678)"/><path class="cls-37" d="M4824.85314,275.278s20.56572,4.04461,19.38427,24.97432c-1.0654,18.87393-16.26954,55.99932-16.98746,65.7454a23.99722,23.99722,0,0,1-18.83147-8.46608c-8.20085-9.40173-8.79619-15.6444-16.96945-16.26194l-14.77086-1.116s1.25837-14.3179,15.17408-27.71923c5.7087-5.49768,2.61223-23.877,17.42775-35.75525Z"/><path class="cls-6" d="M4799.1904,241.4722l-1.332,18.91381,3.57464.27862.62648,7.47672a5.46844,5.46844,0,0,0,5.36595,4.40514h0l-.03814,7.87757a2.91553,2.91553,0,0,0,1.57661,2.604h0l13.17184-.94028a2.91179,2.91179,0,0,0,2.70781-2.89325c.01133-3.83909.13453-10.61705.83944-12.46744,1-2.625,6.124-11.631,6.7495-18.253s-2.54879-17.488-15.14915-18.18c-9.45081-.519-14.204,2.52988-16.46439,6.00629A10.85174,10.85174,0,0,0,4799.1904,241.4722Z"/><polygon class="cls-34" points="4807.379 272.553 4807.379 277.075 4817.283 271.115 4807.379 272.553"/><path class="cls-13" d="M4797.85843,234.56046s-2.6337,0-2.842,2.375c-.23142,2.63824,2.842,2.95833,2.842,2.95833s2.3663,3,4.783,1.66667c0,0,4.08333,2.5,7.16667-.5,0,0,4.33333,3.58333,7.5,1.91667,0,0,1.91667,4.25,4.5,3.91667,0,0-.91667,3.91667,1.25,4.66667l-.58333,5.0717h2.41667s0-3.03712,1.08333-3.84608,3.47935.46737,2.33333,3.10771c-4.25,9.79167-3.24214,15.22111-3.24214,15.22111s3.82547-9.13778,4.32547-10.13778a6.48463,6.48463,0,0,0,.47917-2.5,4.96842,4.96842,0,0,0,1.5625-2.6875c.1875-1.5,1.875-4.25,1.9375-6.375s.9375-5.75-.3125-8.75-.75-5.875-3.9375-7.375c0,0-2.1875-3.17849-4.9375-2.9955a3.873,3.873,0,0,0-4.1875-.8795s-3.68343-1.45041-5.6875-.24626c0,0-2.6875-.173-4.0625,1.06787,0,0-3.375-.63411-5.0625,1.67839,0,0-3.0625-.5625-4,1.5C4801.18307,233.41463,4799.3463,232.3938,4797.85843,234.56046Z"/><path class="cls-6" d="M4833.28082,282.38178h0a12.30951,12.30951,0,0,1,12.02089,9.65911l7.31835,33.19212a7.36143,7.36143,0,0,1-7.18876,8.94644h-47.57288v-10.382l38.09482-2.92382-7.0659-25.49428"/><path class="cls-35" d="M4832.78578,281.36934h1.34994a12.58459,12.58459,0,0,1,12.10038,9.12733l4.33231,16.28883-18.14969,1.49511-4.7925-14.39c-1.19618-4.85244-.29216-11.39441,5.15954-12.5213Z"/><polygon class="cls-38" points="4784.147 339.129 4796.612 339.129 4798.247 314.249 4782.512 314.249 4784.147 339.129"/><polygon class="cls-39" points="4798.929 320.988 4798.291 330.684 4782.467 330.684 4781.83 320.988 4798.929 320.988"/><polygon class="cls-38" points="4779.974 317.476 4800.784 317.476 4799.81 314.051 4780.949 314.051 4779.974 317.476"/><polygon class="cls-38" points="4791.586 319.461 4792.889 308.208 4801.639 307.759 4801.538 305.812 4791.141 306.347 4789.65 319.237 4791.586 319.461"/><path class="cls-6" d="M4802.63627,323.43073l-4.70929-4.30444-.25724,3.91482s-4.78137.98191-8.406,0a39.9453,39.9453,0,0,1-4.13608-1.32829.90794.90794,0,0,0-1.21212.63012l-.10044.39959a.91357.91357,0,0,0,.46391,1.03291l3.37026,1.75581,2.98471,1.15735-3.8375.60913-2.60635-.67743a.91357.91357,0,0,0-1.14338.88419v.51537a.91357.91357,0,0,0,.57356.84794l3.11283,1.24816,4.20542-.3208-2.98476,2.37561h-3.24652a.91357.91357,0,0,0-.90233,1.05638l.06753.42665a.91357.91357,0,0,0,.90233.77075h3.72723l2.92382-.24509-2.16213,1.38816-4.21558.48466a.91357.91357,0,0,0-.80008,1.03654h0a.91357.91357,0,0,0,.90442.78462h5.301l6.35751-1.764,3.92446-2.17966,9.191-1.57623"/><path class="cls-31" d="M4764.76318,446.22149l1.92625.06639,3.44938,9.79009-3.08907.01594-3.54384-.01047-3.39507-9.80413A22.80438,22.80438,0,0,1,4764.76318,446.22149Z"/><path class="cls-31" d="M4752.23563,448.5156a22.18655,22.18655,0,0,1,5.90267-1.94814l3.35069,9.51-6.6416-.01975Z"/><path class="cls-13" d="M4710.71881,449.13466l.996-9.27816-14.18011-3.12355s-13.44042-4.21-21.78828,5.953l22.24669,4.17045Z"/><path class="cls-31" d="M4697.53475,436.73291l1.88228.41459,1.61687,10.25329-3.04075-.54449-3.48319-.65293-1.56091-10.25724A22.80439,22.80439,0,0,1,4697.53475,436.73291Z"/><path class="cls-31" d="M4684.79888,436.71725a22.18654,22.18654,0,0,1,6.15808-.84546l1.5706,9.96-6.5279-1.2238Z"/><polygon class="cls-35" points="4826.152 273.113 4808.964 283.028 4816.659 292.611 4830.298 276.691 4826.152 273.113"/><polygon class="cls-35" points="4808.964 283.028 4801.975 289 4804.105 278.581 4807.379 277.075 4808.964 283.028"/><polygon class="cls-35" points="4818.228 320.987 4822.679 337.873 4833.578 337.259 4828.512 318.838 4818.228 320.987"/><path class="cls-35" d="M4826.51691,321.14039l9.43635-.26678-5.6554-20.14936,18.76507.307,6.91714,26.29429a5.56808,5.56808,0,0,1-5.1982,6.98153l-20.484.68712Z"/><polyline class="cls-40" points="4545.338 460.075 4573.462 472.921 4598.962 472.921 4554.343 460.075"/><polyline class="cls-41" points="4583.145 439.841 4611.758 452.556 4637.258 452.556 4593.368 437.413"/><polyline class="cls-42" points="4826.36 460.075 4855.827 472.921 4887.587 472.921 4838.993 457.648"/><polyline class="cls-43" points="4744.416 456.027 4775.532 471.35 4819.627 471.35 4779.978 456.077"/><path class="cls-35" d="M4559.58158,297.63178a195.414,195.414,0,0,1-1.298,22.29055c-1.33772,10.00427-7.03208,34.61331-13.28649,46.98669,0,0-2.282,1.37748,14.68858,4.13839,0,0,27.74987,9.9057,44.4848,11.324,0,0,4.81873,3.10272,7.8567,3.01726,0,0,1.249-19.55465,4.78327-33.97437s6.21465-24.65965,6.21465-24.65965,2.40609-4.96105,2.497-7.80608c0,0-5.38011-1.31488-8.5438-.90206,0,0-38.71257-14.61664-46.98833-16.54269C4569.99,301.50377,4564.4746,298.25873,4559.58158,297.63178Z"/><path class="cls-44" d="M4554.58015,362.51151c6.25457-12.3734,11.94882-36.98246,13.28659-46.98673.65188-4.87528.97623-10.2893,1.13778-14.5623a30.91482,30.91482,0,0,0-9.42306-3.3306,195.40706,195.40706,0,0,1-1.29778,22.29038c-1.33777,10.00426-7.03214,34.61328-13.28648,46.98677,0,0-2.282,1.37745,14.68852,4.13848,0,0,27.74992,9.90564,44.48473,11.324,0,0,4.81888,3.10255,7.85669,3.01726,0,0,.19283-3.00645.63816-7.522-16.82027-1.73307-43.39653-11.217-43.39653-11.217C4552.29815,363.889,4554.58015,362.51151,4554.58015,362.51151Z"/><polygon class="cls-45" points="3988.426 457.911 3724.191 457.911 3677.763 432.158 3932.169 432.101 3988.426 457.911"/><polyline class="cls-34" points="3880.79 348.856 3855.35 424.934 3841.838 424.468 3853.903 352.803"/><path class="cls-39" d="M3841.29134,432.00151l.65458-8.6643,13.5123-.46591s13.01841-1.58568,18.94659,9.13021l-21.07573.06251Z"/><path class="cls-14" d="M3883.566,349.00869l-6.81722-17.09234a13.546,13.546,0,0,0-9.17541-8.09229h0a13.546,13.546,0,0,0-5.09675-.32955l-70.90482,12.6147-5.00831,34.5007,63.59222-6.956,6.94148,10.05855,24.48507-15.69473Z"/><path class="cls-13" d="M3883.566,349.00866a2.0358,2.0358,0,0,0-1.98378-.36376,7.75039,7.75039,0,0,0-.792.21086,11.40266,11.40266,0,0,0-4.12144,2.4213,117.65939,117.65939,0,0,0-19.57145,22.43527l20.9656-13.43874a13.07158,13.07158,0,0,0,5.74113-7.89724C3884.14043,350.96292,3884.19481,349.663,3883.566,349.00866Z"/><path class="cls-6" d="M3881.20667,348.74475c-.13827.03668-.26513.063-.41644.11106a11.40277,11.40277,0,0,0-4.12142,2.42121,124.73782,124.73782,0,0,0-14.33755,15.23463c.0643.3,21.23478,57.93752,21.23478,57.93752l14.39757.45221Z"/><path class="cls-38" d="M3855.45821,422.87126l-1.79363.06181-3.21188,9.116,2.87639.01484,3.29984-.00975,3.16131-9.12911A21.23426,21.23426,0,0,0,3855.45821,422.87126Z"/><path class="cls-38" d="M3867.12322,425.00742a20.659,20.659,0,0,0-5.49626-1.814l-3.12,8.85526,6.18431-.01839Z"/><path class="cls-39" d="M3882.54916,432.10975l.65458-8.6643,13.5123-.46591s13.01841-1.58568,18.94659,9.13021l-21.07573.06251Z"/><path class="cls-38" d="M3896.716,422.9795l-1.79363.06181-3.21188,9.116,2.87639.01484,3.29984-.00975,3.16131-9.12911A21.23426,21.23426,0,0,0,3896.716,422.9795Z"/><path class="cls-38" d="M3908.381,425.11566a20.659,20.659,0,0,0-5.49626-1.814l-3.12,8.85526,6.18431-.01839Z"/><rect class="cls-46" x="3779.38891" y="328.07054" width="63.17025" height="4.71975" transform="matrix(0.98391, -0.17867, 0.17867, 0.98391, 2.28417, 686.22365)"/><polyline class="cls-46" points="3842.473 327.109 3864.371 281.211 3861.254 280.465 3840.058 322.751"/><rect class="cls-47" x="3831.03184" y="325.10134" width="7.30658" height="2.04666" transform="translate(3.43501 690.39083) rotate(-10.2923)"/><rect class="cls-47" x="3823.19051" y="326.68473" width="5.55027" height="2.04666" transform="translate(3.0118 688.8584) rotate(-10.2923)"/><path class="cls-36" d="M3724.34909,300.60376s-4.68932,12.0946,0,23.6732,43.54632,22.37221,43.54632,22.37221l31.33854-11.77749s-1.53006-4.75685-8.96632-10.006c-6.67241-4.70994-15.81289-1.90325-22.4853-5.73007a78.47665,78.47665,0,0,1-10.5824-7.12414,49.93376,49.93376,0,0,0-9.81237-7.70271C3742.0008,301.22589,3724.34909,300.60376,3724.34909,300.60376Z"/><path class="cls-13" d="M3726.66571,275.72259l3.51632-.57311-1.69074-3.66232s3.37971-2.08227,3.08052-5.26036.72836-7.61161,5.44029-4.8793,11.86858-.15607,11.86858-.15607c6.8915-6.03652,3.98427-12.76467,3.98427-12.76467-8.37734,5.00965-19.35406.00242-28.95409,4.52034-7.65669,3.60336-4.86423,11.76563-1.77826,20.39859C3724.39038,272.90784,3726.66571,275.72259,3726.66571,275.72259Z"/><path class="cls-47" d="M3727.18139,291.89345s-9.90388,2.19952-12.142,6.87133,8.197,7.05909,28.43319,2.22123Z"/><path class="cls-6" d="M3754.0224,274.61879l-5.14172-13.42735s-7.15663,2.88845-11.86858.15607-5.73955,1.70122-5.44029,4.8793-3.08052,5.26036-3.08052,5.26036l1.69074,3.66232-3.51632.57311s-2.27533-2.81475-4.53311-2.3769a2.75669,2.75669,0,0,0-1.41585.776c-2.21754,2.16629.60593,6.73782,3.65639,5.82171a145.8297,145.8297,0,0,1,4.50085,23.422l14.59862-2.37937-1.94872-11.95639,6.51178-1.06133a3.2184,3.2184,0,0,0,2.56056-4.11607l-.98186-7.33567Z"/><path class="cls-36" d="M3743.47262,300.986s-24.91222,4.35137-28.627-.38225c0,0,.30829,5.07875,4.72386,6.40342,0,0,.19625,4.70994,7.26116,3.58152s18.05477-7.70271,20.55692-6.27992C3747.38755,304.30877,3746.917,300.31259,3743.47262,300.986Z"/><path class="cls-38" d="M3731.22232,281.10573a12.25662,12.25662,0,0,0-2.38883-8.14762,6.77571,6.77571,0,0,0-5.49345-3.0909c-5.22437.1309-7.69416,5.97081-5.26623,11.49644s7.14894,7.45433,10.234,5.58349C3730.417,285.66805,3731.09,283.25665,3731.22232,281.10573Z"/><path class="cls-39" d="M3731.2223,281.10576a12.25623,12.25623,0,0,0-2.38885-8.14766,6.77548,6.77548,0,0,0-5.49342-3.0909,6.1286,6.1286,0,0,0-2.83036.74365c.19193-.02144.38661-.03758.58685-.0426a6.77563,6.77563,0,0,1,5.49342,3.0909,12.25669,12.25669,0,0,1,2.38885,8.14766c-.13173,2.142-.80084,4.54175-2.88973,5.82472a4.80406,4.80406,0,0,0,2.21871-.68438C3730.417,285.66805,3731.09007,283.25667,3731.2223,281.10576Z"/><path class="cls-48" d="M3722.42328,274.30587a1.76068,1.76068,0,0,1-2.38585-.95083c-1.67-4.2558-5.15738-15.20142.66544-20.47825,7.02275-6.36463,17.56714-2.17817,17.98532-2.00741l-.79411.04781c-.07781-.03143-9.45744-.28153-14.81937,4.57713-3.8476,3.487-1.53539,12.07585.24106,16.56712a1.76048,1.76048,0,0,1-.89248,2.24442Z"/><path class="cls-36" d="M3759.36985,311.79339a14.60921,14.60921,0,0,1-8.12051-2.69514,21.67251,21.67251,0,0,1-4.6352-4.18559l-1.629-2.08628,2.5953.52032c6.75712,1.35342,11.25893-4.21855,11.30339-4.27509l1.53855,1.21811c-.18743.23688-4.16068,5.15226-10.5184,5.2364,2.40825,2.21641,7.058,5.476,12.34328,3.878l.568,1.87853A11.86735,11.86735,0,0,1,3759.36985,311.79339Z"/><path class="cls-34" d="M3741.5239,289.02962l-7.5405,1.00215,2.27661,1.10036a14.98225,14.98225,0,0,1,5.86692,5.06092l.74232,1.091Z"/><path class="cls-14" d="M3884.65444,348.46028l-2.34181-4.83959s-8.02331,1.36469-15.64012,10.23357-12.76979,15.22952-12.76979,15.22952l3.19463,4.62854s16.45074-24.30078,26.46868-24.70367c0,0,1.42825,1.97-.9038,6.35128l1.431-1.80579A4.82074,4.82074,0,0,0,3884.65444,348.46028Z"/><path class="cls-47" d="M3842.76785,361.06545c-9.31416-13.2589-32.75658-22.26962-34.85194-23.05543a42.69528,42.69528,0,0,0-5.75418-1.90094h-.0002l.0002.0002c-2.49376-1.0114-5.36881-2.04237-8.75415-3.09025-16.48487-5.10246-46.31443-5.10246-56.51936-9.33658s-14.91468-8.32558-25.90459-22.45547a36.65151,36.65151,0,0,0-12.10647-10.089,18.75763,18.75763,0,0,0-18.76445.86264h-.0001a18.58117,18.58117,0,0,0-6.91241,7.94205c-5.33478,11.63144-5.07148,26.17482-4.01148,35.93976,1.08324,26.87707,9.71736,59.18328,24.5819,79.21387,28.49434,38.397,118.5029,34.64081,143.15419,8.76454C3851.18249,408.89465,3854.90693,378.34551,3842.76785,361.06545Z"/><path class="cls-13" d="M3737.80573,336.10921h64.356c-2.49372-1.01133-5.36883-2.0423-8.7541-3.09013-16.48479-5.10243-46.31441-5.10243-56.51927-9.33661s-14.91481-8.32567-25.90467-22.45548a36.81151,36.81151,0,0,0-5.56124-5.74561C3700.49916,315.69353,3716.07285,336.10921,3737.80573,336.10921Z"/><path class="cls-6" d="M3788.83434,325.1538l3.28089-1.71286,14.02938-6.82274s10.321,2.19727,11.21764,2.2771-.09358,2.20525-2.51115,1.77135a20.30485,20.30485,0,0,1-3.13119-.71334s3.7993,2.04265,4.31663,2.3038-1.18933,2.17911-3.4017,1.10622-3.19047-1.44049-3.19047-1.44049,3.41506,3.51978,3.85088,3.934-1.54863,2.02607-3.28527.25787-2.81167-2.749-2.81167-2.749-2.27506,5.74155-6.8578,7.01413c-2.67978.69534-3.82423-.41249-3.82423-.41249l-5.72218,1.073"/><path class="cls-46" d="M3731.44141,321.17848l17.75,23.8559a8.95617,8.95617,0,0,0,10.90607,2.80044l36.8937-16.84961L3788.854,322.95l-4.73757,1.71465-4.445-.75489-23.34718,4.97075-10.67627-17.335a8.59049,8.59049,0,0,0-7.81743-4.07088h0A8.5905,8.5905,0,0,0,3731.44141,321.17848Z"/><path class="cls-47" d="M3794.77155,336.10921s53.02127-2.50514,73.85265,30.21452c8.58679,13.4872,26.7309,78.68225-93.46247,77.21652"/><polyline class="cls-49" points="2778.728 498.022 2685.283 430.638 2702.337 427.432 2838.082 482.227"/><polyline class="cls-50" points="2860.109 494.281 2749.675 426.538 2755.958 426.538 2872.44 481.251"/><polyline class="cls-51" points="2793.853 432.705 2767.356 416.451 2773.071 416.451 2804.265 431.032"/><polyline class="cls-52" points="2816.433 426.538 2799.505 416.451 2805.221 416.451 2826.8 426.538"/><polyline class="cls-53" points="2925.179 494.281 2816.433 426.538 2822.656 426.538 2937.511 481.251"/><rect class="cls-13" x="2638.54739" width="8.29709" height="176.67848"/><path class="cls-46" d="M2597.64935,250.76c-.089-57.24771,27.7436-80.38921,59.87024-86.64108a25.75908,25.75908,0,0,0-9.5003-1.86435c-39.69712,0-80.259,40.06438-80.15172,109.15562.13424,86.40109,40.4546,113.79336,80.15172,113.79336,20.36561,0,37.4454-9.2885,49.19161-23.681a62.91234,62.91234,0,0,1-19.40983,3.03082C2638.10394,364.55334,2597.78359,337.16107,2597.64935,250.76Z"/><path class="cls-46" d="M2643.27547,162.44635s19.3113-3.57135,32.08234,15.91115c0,0-12.21825-19.71436-39.76939-6.64766"/><path class="cls-31" d="M2672.54511,174.625c-7.20445-7.48394-19.09827-10.31343-28.80491-6.6128-25.90841,9.87751-46.16676,33.89345-46.09085,82.74778.13424,86.40109,40.4546,113.79336,80.15172,113.79336a64.32666,64.32666,0,0,0,6.90784-.36943,25.49,25.49,0,0,0,19.41313-12.77867,81.29163,81.29163,0,0,0,10.31993-41.13367C2713.87569,268.82459,2698.67067,201.76409,2672.54511,174.625Z"/><path class="cls-54" d="M2672.54511,174.625c-7.20445-7.48394-19.09827-10.31343-28.80491-6.6128-25.90841,9.87751-46.16676,33.89345-46.09085,82.74778.13424,86.40109,40.4546,113.79336,80.15172,113.79336a64.32666,64.32666,0,0,0,6.90784-.36943,25.49,25.49,0,0,0,19.41313-12.77867,81.29163,81.29163,0,0,0,10.31993-41.13367C2713.87569,268.82459,2698.67067,201.76409,2672.54511,174.625Z"/><path class="cls-13" d="M2694.18523,349.093s-44.87188-25.48606-49.82688-34.66725-14.09548-40.35006-16.09425-44.2476l-.00962-.0189a4.11618,4.11618,0,0,0-5.55135-1.88232c-7.32088,3.75613-17.08428,9.01763-23.04836,13.24627,8.60632,62.28765,43.60942,83.03016,78.14632,83.03016a62.91465,62.91465,0,0,0,19.1467-2.95141Z"/><path class="cls-13" d="M2687.37058,422.0991l-1.20133,8.64306s4.96108,11.25849,7.084,14.45459,9.28275,7.13619,14.60394,3.90793-3.5398-12.92342-3.5398-12.92342l-5.2382-13.15053Z"/><path class="cls-34" d="M2687.93176,410.96849l-.56118,11.13061s3.10832,11.14844,8.37592,14.70194,8.57089-.61977,8.57089-.61977-4.30859-11.27709-4.63026-14.12157.32824-11.09121.32824-11.09121Z"/><path class="cls-46" d="M2649.18882,279.02622l-2.83692-6.6118a3.691,3.691,0,0,0-4.59182-2.03511l-3.53326,1.21462c-3.206,1.25135-3.20256,7.519-1.52175,10.52218l5.99089,10.72136a52.44788,52.44788,0,0,1,10.43224-5.77665Z"/><path class="cls-6" d="M2663.80568,308.83794l-10.67747-21.77713a52.44788,52.44788,0,0,0-10.43224,5.77665l13.82921,24.749a4.79353,4.79353,0,0,0,4.398,2.452l35.88906,5.31562,2.0008-6.92964Z"/><path class="cls-35" d="M2635.75427,267.01464s13.24153,17.52283,15.46408,20.86464-1.27,10.00948-1.27,10.00948,4.49476,24.52641,8.23632,32.14661l-32.986,6.27186-21.19159-60.61111Z"/><polygon class="cls-13" points="2614.828 249.401 2614.12 272.833 2626.308 274.843 2644.85 270.2 2641.467 248.676 2614.828 249.401"/><path class="cls-6" d="M2609.96046,274.58719A16.65054,16.65054,0,0,0,2620.466,264.641l13.72959.34305a4.44409,4.44409,0,0,0,3.8999,3.53519l3.269.59752-6.65859,18.64847Z"/><path class="cls-34" d="M2634.19558,264.984l-13.72958-.343a26.82039,26.82039,0,0,1-1.341,2.9756,17.61123,17.61123,0,0,0,2.83906,1.67376l.718.33466a12.134,12.134,0,0,0,11.54925-.70465,17.4301,17.4301,0,0,0,1.69026-1.21983A4.71882,4.71882,0,0,1,2634.19558,264.984Z"/><path class="cls-6" d="M2636.72733,236.77682l2.80066,9.48093a16.811,16.811,0,0,1-.27261,10.36584l-.762,2.15532a14.41661,14.41661,0,0,1-5.95815,7.42421h0a8.92933,8.92933,0,0,1-8.50062.51873l-.71649-.33395a14.41661,14.41661,0,0,1-6.085-5.34695h0a16.811,16.811,0,0,1-2.40527-11.63972l1.41157-8.88567Z"/><path class="cls-13" d="M2651.23379,266.98745c-5.5167-6.78857-4.873-10.99364-5.54171-21.68656s-9.47066-19.53383-20.243-17.20975c-12.16594,2.62474-14.35708,9.38977-15.31986,15.69558-1.03642,6.78813,1.58583,14.67586-.37886,21.6075a77.45679,77.45679,0,0,1-3.79048,10.05609l4.00057-.86313c6.845-2.02292,8.95247-5.75424,9.07378-11.26227.12132-5.5083-1.00582-13.77882.4095-14.81241s5.372-3.78781,5.372-3.78781l-1.02351,2.84962a19.784,19.784,0,0,0,11.79472-8.50762c1.79905,4.18522,3.32119,8.8491,3.14912,12.38285-.4029,8.27278-2.61028,11.56982-2.61028,11.56982s-2.16178,6.389,2.61379,17.55516c4.77546,11.16588,18.50653,9.84171,20.81552,4.60432S2656.75056,273.776,2651.23379,266.98745Z"/><polyline class="cls-55" points="2631.239 252.167 2633.042 258.194 2630.183 258.317"/><path class="cls-13" d="M2668.6813,331.2271s21.7493-1.9072,30.79828-1.19173,11.90655,12.7514,11.43029,18.64-13.699,62.3644-13.699,62.3644h-9.28607s-.35179-16.23167-2.25684-23.3756-6.66767-28.4827,6.66767-35.7922l-30.24264-9.45268"/><path class="cls-31" d="M2625.19867,336.30722s7.34046,21.27986,45.46706,21.27986c0,0,2.22256,15.57352,12.38281,27.61645a79.18883,79.18883,0,0,1,14.16236,25.83621l11.1589-2.97571s-19.17495-56.431-20.445-64.68621-19.24352-12.15073-19.24352-12.15073l-10.49665-1.19173Z"/><path class="cls-13" d="M2700.67748,421.63163l1.97718,8.4992s8.6676,8.73147,11.79524,10.954,11.22409,3.33383,15.03419-1.58754-7.9377-10.79527-7.9377-10.79527l-9.60462-10.39839Z"/><path class="cls-6" d="M2697.21089,411.03975l3.46659,10.59189s6.89855,9.293,13.09,10.72176,7.77895-3.65134,7.77895-3.65134-8.06515-8.98277-9.38522-11.52283-3.79137-9.11519-3.79137-9.11519Z"/><path class="cls-35" d="M2613.46917,283.49l-2.83692-6.6118a3.691,3.691,0,0,0-4.59182-2.03511l-3.53326,1.21462c-3.206,1.25135-3.20256,7.519-1.52175,10.52218l5.99089,10.72136a52.44789,52.44789,0,0,1,10.43224-5.77665Z"/><path class="cls-6" d="M2628.086,313.30169l-10.67747-21.77713a52.44789,52.44789,0,0,0-10.43224,5.77665l13.82921,24.749a4.79354,4.79354,0,0,0,4.398,2.452l30.70062,3.64477,2.58384-5.58449Z"/><path class="cls-6" d="M2652.48309,322.01942l2.86455.05929,12.06228.59394s6.1865,5.33474,6.76528,5.7228-.88473,1.46182-2.36392.26706a15.7188,15.7188,0,0,1-1.85945-1.65017s1.81786,2.80114,2.07172,3.171-1.61866,1.036-2.72063-.516-1.6289-2.16575-1.6289-2.16575,1.007,3.66057,1.14856,4.104-1.80553.79837-2.32569-1.0484-.88454-2.91274-.88454-2.91274-3.68216,3.04949-7.2663,2.2066c-2.07767-.526-2.44184-1.70406-2.44184-1.70406l-4.28313-1.40268"/><polygon class="cls-46" points="2715.039 336.121 2663.575 334.614 2634.262 333.755 2634.352 330.68 2701.625 332.65 2715.039 336.121"/><polygon class="cls-35" points="2663.575 334.614 2715.039 336.121 2725.281 291.889 2673.818 290.382 2663.575 334.614"/><polygon class="cls-46" points="2673.818 290.382 2675.796 290.44 2665.553 334.672 2663.575 334.614 2673.818 290.382"/><polygon class="cls-46" points="2695.104 313.099 2694.583 310.042 2691.032 309.938 2692.075 316.052 2699.105 316.258 2698.583 313.201 2695.104 313.099"/><polygon class="cls-46" points="2700.099 311.772 2699.577 308.715 2696.098 308.613 2696.62 311.67 2700.099 311.772"/><polygon class="cls-46" points="2617.409 291.525 2616.56 285.174 2619.218 295.215 2617.409 291.525"/><polygon class="cls-31" points="2758.518 373.105 2749.675 426.538 2755.958 426.538 2764.801 373.105 2758.518 373.105"/><polygon class="cls-31" points="2807.599 363.018 2799.505 416.451 2805.256 416.451 2813.35 363.018 2807.599 363.018"/><polygon class="cls-31" points="2764.977 363.018 2773.071 416.451 2767.32 416.451 2759.227 363.018 2764.977 363.018"/><polygon class="cls-31" points="2813.899 373.105 2822.656 426.538 2816.433 426.538 2807.677 373.105 2813.899 373.105"/><path class="cls-56" d="M2751.776,377.81237h0a8.4561,8.4561,0,0,0,8.4561,8.4561h51.86644a8.4561,8.4561,0,0,0,8.4561-8.4561H2751.776Z"/><path class="cls-31" d="M2827.31718,372.61269c-8.21324-1.694-23.56028-2.83493-41.15187-2.83493s-32.93863,1.14093-41.15187,2.83493H2738.653v2.83041c0,3.12873,21.272,5.66507,47.51232,5.66507s47.51233-2.53635,47.51233-5.66507v-2.83041Z"/><ellipse class="cls-46" cx="2786.16531" cy="372.61277" rx="47.5123" ry="5.66525"/><polygon class="cls-31" points="2762.519 370.971 2772.247 378.278 2783.581 378.278 2768.87 370.971 2762.519 370.971"/><path class="cls-38" d="M2757.67558,367.22831a4.468,4.468,0,1,1,4.468-4.468A4.47252,4.47252,0,0,1,2757.67558,367.22831Zm0-6.4365a1.96854,1.96854,0,1,0,1.96854,1.96854A1.97141,1.97141,0,0,0,2757.67558,360.79181Z"/><path class="cls-38" d="M2757.71331,356.16264h16.871a0,0,0,0,1,0,0v8.96859a6.09439,6.09439,0,0,1-6.09439,6.09439h-4.68225a6.09439,6.09439,0,0,1-6.09439-6.09439v-8.96859A0,0,0,0,1,2757.71331,356.16264Z"/><path class="cls-39" d="M2762.158,357.89529l-1.50657,1.13v3.99287h3.01336v-3.99287Zm0,2.17069a.452.452,0,1,1,.452-.452A.452.452,0,0,1,2762.158,360.066Z"/><path class="cls-39" d="M2762.15783,358.68168a.22588.22588,0,0,1-.226-.226V356.012a.226.226,0,1,1,.452,0v2.44371A.22588.22588,0,0,1,2762.15783,358.68168Z"/><path class="cls-35" d="M2786.1548,361.7979h28.57062a0,0,0,0,1,0,0v10.29937a0,0,0,0,1,0,0H2786.1548a3.72048,3.72048,0,0,1-3.72048-3.72048v-2.8584A3.72048,3.72048,0,0,1,2786.1548,361.7979Z"/><path class="cls-31" d="M2816.57646,372.78958H2787.5838a5.84206,5.84206,0,0,1,0-11.68411h28.99266a.69207.69207,0,0,1,0,1.38414H2787.5838a4.45791,4.45791,0,0,0,0,8.91583h28.99266a.69207.69207,0,0,1,0,1.38414Z"/><polyline class="cls-57" points="1148.83 481.448 1061.559 446.534 1098.057 446.534 1218.653 485.448"/><polyline class="cls-58" points="1236.653 481.448 1136.226 446.534 1172.723 446.534 1325.54 485.448"/><polygon class="cls-31" points="1082.317 281.457 1118.703 358.687 1135.335 446.534 1158.213 437.25 1145.641 354.295 1118.912 280.238 1082.317 281.457"/><path class="cls-6" d="M1108.84291,135.45169l-.50043-.01872A4.79192,4.79192,0,0,0,1108.84291,135.45169Z"/><path class="cls-6" d="M1100.234,134.62734c-4.61808-1.28876-9.55835,0-10.6323,2.25534s.96657,5.47724,0,7.30294-2.25534,2.685-2.148,4.40322c.10741,1.7184,2.68494,8.8066,3.43673,10.31011.75175,1.50366,2.6849,2.148,6.55119,2.47023s.96657-6.22876,11.54518-8.05461l3.37875-1.03012c-1.28451-5.69371-4.02313-16.85147-4.02313-16.85147A21.96105,21.96105,0,0,1,1100.234,134.62734Z"/><path class="cls-6" d="M1086.5946,156.47449s-.99379-7.01379-3.62465-7.21437a3.544,3.544,0,0,0-3.37643,5.56345c1.68493,2.49132,4.10136,1.2831,4.58465,3.619s-.57894,9.5534-.57894,9.5534l-.0009.00063a12.706,12.706,0,0,1,.29387,2.39409c.19728,7.73258,0,12.24325,0,12.24325l21.38958,9.26676c-3.08158-4.27737-5.63846-19.89906-5.63846-19.89906C1086.53364,173.80514,1086.5946,156.47449,1086.5946,156.47449Z"/><path class="cls-34" d="M1089.09572,166.803s3.6205,6.80938,6.62762,9.27951,6.51172,7.9776,6.51172,7.9776l-2.59173-12.05848-1.772-5.19864Z"/><path class="cls-13" d="M1110.92,167.491c0-3.383-1.93314-14.1764-1.93314-14.1764-10.57861,1.82585-7.67889,8.3768-11.54518,8.05461s-5.79943-.96657-6.55119-2.47023c-.75179-1.5035-3.32932-8.5917-3.43673-10.31011-.10737-1.71825,1.18139-2.57753,2.148-4.40322s-1.074-5.0476,0-7.30294,6.01421-3.5441,10.6323-2.25534a21.96105,21.96105,0,0,0,8.10846.80563l.50043.01872c5.02286-.07347,8.06566-8.19636,4.01024-11.93978-4.18848-3.86629-7.41039-2.41643-11.27668-.80548s-5.79943-1.93314-11.76-1.44986-4.02739,4.18848-11.93966,5.47724-10.93588,12.40435-6.103,21.74788c4.31489,8.342,10.42338,13.0901,11.8245,19.51488l.0009-.00063s1.06222-7.21751.57894-9.5534-2.89972-1.12767-4.58465-3.619a3.544,3.544,0,0,1,3.37643-5.56345c2.63086.20058,3.62465,7.21437,3.62465,7.21437s-.061,17.33066,13.04873,15.52714C1099.64333,172.00163,1110.92,170.874,1110.92,167.491Z"/><polygon class="cls-13" points="1082.317 281.457 1118.912 280.238 1086.93 441.498 1061.559 446.534 1082.317 281.457"/><path class="cls-31" d="M1083.88507,174.29962h0a9.91083,9.91083,0,0,0-4.32491,2.44187,40.963,40.963,0,0,0-12.34593,25.40673c-1.65648,17.73412,5.45665,56.48283,4.28737,76.36064s-3.50785,20.90384-3.50785,20.90384H1132.304s-7.20851-34.21017-8.18291-53.89309c-.78544-15.86589.6087-28.261-9.38744-45.32056-4.71831-8.05233-8.2053-11.80148-12.75922-17.35142l-.53194-.25171Z"/><path class="cls-59" d="M1126.40535,309.17941s6.23531-39.56159,5.89868-58.27011c-.32354-17.98134-5.89634-37.99747-11.17772-44.01689-12.70281-14.478-28.28531-24.97077-38.37037-18.39356s-7.89266,24.70109-7.89266,24.70109l5.40793,75.711"/><path class="cls-6" d="M1086.93006,223.94272l16.72681-8.69654,4.09249,16.37,11.16229-19.29316-2.685-5.84641a3.01134,3.01134,0,0,1,3.89761,1.65648l2.43923-3.11228-3.35273-3.67888a25.96874,25.96874,0,0,1,5.78551.26266c1.65648.4872,3.50785,4.77457,3.50785,4.77457s-5.26177,22.75229-10.52354,34.00663a42.41732,42.41732,0,0,1-12.95391,15.736,3.789,3.789,0,0,1-5.77289-1.6343Z"/><polygon class="cls-46" points="1068.027 269.741 1056.262 331.342 1125.422 331.342 1138.923 269.741 1068.027 269.741"/><polygon class="cls-13" points="1138.923 269.741 1138.923 330.111 1132.172 329.776 1125.422 331.342 1138.923 269.741"/><path class="cls-36" d="M1068.02657,269.7407h70.896s-8.80333,26.76465-15.40277,31.04286-76.27311,0-76.27311,0S1064.5132,280.89155,1068.02657,269.7407Z"/><path class="cls-60" d="M1084.25043,225.08618c3.02075-2.06128,6.12805-3.95215,9.25879-5.79663l4.72717-2.70532,4.77832-2.60449-.76819,1.43091a77.73355,77.73355,0,0,0-1.82129-8.55762,50.42722,50.42722,0,0,0-2.9231-8.16772,17.01264,17.01264,0,0,0-5.04651-6.595,8.09527,8.09527,0,0,0-3.84668-1.43921,12.69351,12.69351,0,0,0-4.35852.40552,10.92921,10.92921,0,0,1,4.37256-1.40991,8.69448,8.69448,0,0,1,4.70032.96069,12.76457,12.76457,0,0,1,3.77307,2.99829,21.15674,21.15674,0,0,1,2.73157,3.86328,38.17363,38.17363,0,0,1,1.99438,4.21069c.55969,1.44116,1.03015,2.90552,1.45911,4.37842.43689,1.47095.77637,2.9646,1.06775,4.46509.2876,1.50952.55273,2.988.71826,4.55835l.10742,1.01929-.87586.41187-4.92493,2.31543-4.976,2.2146C1091.06,222.478,1087.69842,223.86743,1084.25043,225.08618Z"/><path class="cls-35" d="M1085.1394,297.26931h6.904a17.473,17.473,0,0,1-5.52883,11.61228l-7.18128-.50931S1084.98661,301.08914,1085.1394,297.26931Z"/><path class="cls-13" d="M1062.82528,436.46282l-1.26642,10.07088H1098.905a26.48855,26.48855,0,0,0-20.78709-10.07087Z"/><path class="cls-13" d="M1133.42852,436.46282l1.84353,10.07088h37.34616a26.48855,26.48855,0,0,0-20.78709-10.07087Z"/><polyline class="cls-61" points="5527.968 481.448 5435.036 446.534 5462.382 446.534 5616.855 485.448"/><path class="cls-13" d="M5376.292,302.81921s-9.80127,47.39362-2.28125,66.01862c0,0-13.55811,15.97705-10.93433,58.065,3.9165,1.57794,9.07593,2.81232,12.46265.36841l.075-.00427,32.05273-122.19775Z"/><path class="cls-6" d="M5363.07643,426.90282c.19043,3.052.4585,6.22937.83032,9.56h9.29517l2.41211-9.19586-.075.00427C5372.15236,429.71514,5366.99293,428.48077,5363.07643,426.90282Z"/><path class="cls-31" d="M5444.33853,428.14867h.084l-8.885-63.68585-24.75-61-31.375-2.25s26.50659,57.5,37.25317,66.5c0,0,.00928,25.88251,14.97485,59.14288C5433.14932,428.17223,5437.653,431.23211,5444.33853,428.14867Z"/><path class="cls-6" d="M5444.33853,428.14867c-6.68555,3.08344-11.18921.02356-12.698-1.293,1.41431,3.14319,2.95264,6.34766,4.647,9.60712l9.68591,2.80022-1.5509-11.11437Z"/><path class="cls-13" d="M5370.29855,201.01556s-6.868,4.91944-9.31689,13.10139-2.15787,23.61326-22.9391,28.80262l-10.3983-20.79537s11.06083-.33573,15.01772-5.89278c7.259-10.19458,9.25-17.5126,24.6187-17.46837"/><ellipse class="cls-38" cx="5369.58304" cy="198.93506" rx="2.53379" ry="3.0799" transform="translate(431.20688 2316.58425) rotate(-25.33213)"/><path class="cls-6" d="M5400.68678,178.18554a18.18391,18.18391,0,0,0-1.42773-5.13336c-.002.02771-.76538,10.65955-13.44678,9.91052-12.69775-.75-8.25049,11.22284-5.87549,14.97284,0,0-4.875-4-6.54785-.87225-1.51,2.82312,2.90576,5.12714,4.96826,4.32031,0,0,1.36133,6.18433-2.15283,8.68042.03613,1.63873-.05078,3.17114-.05078,3.17114l17.5332,13.659-5.08105-17.38552a11.3221,11.3221,0,0,0,10.74658-5.47327,16.593,16.593,0,0,0,2.23169-8.20044l.01953-2.8161a5.00993,5.00993,0,0,0,3.03052-1.02081S5402.34547,190.705,5400.68678,178.18554Z"/><path class="cls-13" d="M5378.35719,201.3836c-2.0625.80682-6.47827-1.49719-4.96826-4.32031,1.67285-3.12775,6.54785.87225,6.54785.87225-2.375-3.75-6.82227-15.72284,5.87549-14.97284,12.6814.749,13.44482-9.88281,13.44678-9.91052-3.66553-8.111-12.572-9.89832-16.65552-9.61664a20.57626,20.57626,0,0,0-18.66675,17.16663c-2.50464,13.39685,11.387,24.48962,11.93018,26.33a13.7032,13.7032,0,0,1,.3374,3.1319C5379.71852,207.56793,5378.35719,201.3836,5378.35719,201.3836Z"/><path class="cls-36" d="M5418.23088,321.80812s-6.7941,6.62742-22.2941,7.37742-24.17013-1.232-24.17013-1.232,2.4015-10.30931-1.20487-34.55931c-1.68894-11.35679-8.875-38.70864-6.92681-56.40456s12.51861-23.75446,12.51861-23.75446l7.98307,2.49467c4.36283,1.36336,8.786,7.31864,11.05013,11.28935,3.47818,6.09977,8.44456,12.5328,14.08333,19.45833,0,0-1.76851,10.18915-8.35184,13.85582,0,0,1.71577,11.31085,3.71577,21.81085S5418.23088,321.80812,5418.23088,321.80812Z"/><rect class="cls-46" x="5368.62206" y="280.14582" width="48.41813" height="37.34793" transform="translate(76.86705 1254.04057) rotate(-13.35827)"/><path class="cls-6" d="M5388.30079,307.94454s7.2192-.24795,8.336-.3,2.91745,2.91034,4.826,3.91942c0,0-1.30222,1.55063-3.61856-.473s-1.78414,1.32676-.4667,2.36292c.66093.51981,5.01215,1.74765,5.92053,2.07365s-10.45269,3.82715-13.02022,2.83488-7.31282-7.47784-7.31282-7.47784"/><polygon class="cls-47" points="5392.382 298.926 5391.169 296.073 5387.69 296.792 5390.117 302.499 5397.005 301.075 5395.791 298.222 5392.382 298.926"/><polygon class="cls-47" points="5396.935 296.481 5395.722 293.627 5392.313 294.332 5393.527 297.185 5396.935 296.481"/><path class="cls-35" d="M5383.48165,313.65041l-19.89225-35.66717a11.733,11.733,0,0,1-1.23571-9.40632l11.27507-38.40174a7.34959,7.34959,0,0,1,9.12235-4.98143h0a7.34959,7.34959,0,0,1,4.98144,9.12253l-10.90612,37.14318,16.80175,36.01462Z"/><polyline class="cls-62" points="5441.099 481.448 5362.739 446.534 5390.325 446.534 5510.921 485.448"/><path class="cls-13" d="M5364.00584,436.46282l-1.26642,10.07088h27.34616a26.48855,26.48855,0,0,0-20.78709-10.07087Z"/><path class="cls-13" d="M5436.30261,436.46282l-1.26642,10.07088h27.34616a26.48855,26.48855,0,0,0-20.78709-10.07087Z"/><path class="cls-13" d="M5399.259,173.05218s1.12513,12.58617-10.40181,13.68383c0,0,6.20455-3.33906,6.32955-8.59044"/><path class="cls-38" d="M2115.201,227.375h-5.28711a2.99539,2.99539,0,0,1-2.98242-2.67773l-.56738-5.249a2.99989,2.99989,0,0,1,2.98242-3.32227h5.85449a3.00328,3.00328,0,0,1,3,3v5.249A3.00328,3.00328,0,0,1,2115.201,227.375Zm-5.85449-9.249a1,1,0,0,0-.99414,1.10742l.56738,5.249a.99858.99858,0,0,0,.99414.89258h5.28711a1.001,1.001,0,0,0,1-1v-5.249a1.001,1.001,0,0,0-1-1Z"/><path class="cls-36" d="M2147.78883,256.24286h23.17728a16.92544,16.92544,0,0,1,16.88715,18.06317l-2.11517,71.76541h-40.8116Z"/><path class="cls-46" d="M2170.96608,256.24289h-6.28051a16.92542,16.92542,0,0,1,16.88719,18.0631l-2.11513,71.76545h6.28051l2.11513-71.76545A16.92542,16.92542,0,0,0,2170.96608,256.24289Z"/><polygon class="cls-13" points="2152.248 327.874 2150.328 346.071 2116.621 346.071 2116.621 334.765 2140.976 333.911 2152.248 327.874"/><path class="cls-31" d="M2156.98988,280.871s-2.72466,40.65335,0,60.92692h-49.725s.86541-41.97155,1.80422-57.46232"/><path class="cls-31" d="M2160.85431,266.68518a12.472,12.472,0,0,0-9.612-11.46346l-10.58143-2.4757-15.44116,7.49568-9.282,32.403-5.91673,1.88445-26.60756,2.28528,28.813,8.78611-.02875.10045h52.63588Z"/><path class="cls-31" d="M2126.8869,252.746l-13.48036,3.41717a7.04756,7.04756,0,0,0-5.36981,6.33169l-3.18367,43.2062h15.65927"/><path class="cls-6" d="M2139.25394,223.24531l1.71289,35.91541a7.8938,7.8938,0,0,1-8.99622,8.19122h0a7.8938,7.8938,0,0,1-6.75088-7.11023l-1.96994-21.97091"/><path class="cls-34" d="M2134.65517,244.26043l-4.88622,6.065a29.21324,29.21324,0,0,0-2.2367,3.08407l-2.5607,4.06435-1.11246-12.40731Z"/><polygon class="cls-6" points="2118.286 207.927 2112.353 228.385 2140.254 228.385 2140.254 207.927 2118.286 207.927"/><path class="cls-6" d="M2140.25421,213.25v31.30487l-18.754.615c-3.06378.10046-5.64887-1.71009-5.758-4.03281l1.119-27.887h23.393"/><path class="cls-31" d="M2111.07012,279.78958,2087.8686,296.713l-44.19305,6.20418-4.23112-11.76679,35.72634-4.79733,29.63449-26.5999a12.472,12.472,0,0,1,5.69188-3.031l14.09558-3.47345"/><polygon class="cls-36" points="2000.472 305.701 2069.701 305.701 2110.301 305.701 2110.301 300.237 2068.632 294.772 2000.472 305.701"/><polygon class="cls-46" points="1998.422 305.701 2069.701 305.701 2110.301 305.701 2110.301 301.441 2017.126 301.441 1998.422 305.701"/><polygon class="cls-36" points="2069.701 305.701 1998.422 305.701 1986.041 244.075 2057.319 244.075 2069.701 305.701"/><polygon class="cls-46" points="2057.319 244.075 2054.58 244.075 2066.961 305.701 2069.701 305.701 2057.319 244.075"/><polygon class="cls-46" points="2024.076 275.724 2023.383 272.273 2019.351 272.273 2020.738 279.174 2028.72 279.174 2028.026 275.724 2024.076 275.724"/><polygon class="cls-46" points="2029.698 274.052 2029.005 270.602 2025.055 270.602 2025.748 274.052 2029.698 274.052"/><polygon class="cls-13" points="2146.236 280.871 2145.655 297.568 2147.711 297.909 2146.236 280.871"/><polygon class="cls-13" points="2106.518 283.11 2107.265 272.97 2103.355 285.484 2106.518 283.11"/><polygon class="cls-13" points="2105.937 290.988 2106.031 289.72 2121.872 293.628 2105.937 290.988"/><path class="cls-13" d="M2141.5139,267.37974s-4.97236,5.21855-12.28607,4.41952a16.67655,16.67655,0,0,0,12.50989-.53269Z"/><path class="cls-6" d="M2113.90913,295.61668l-3.88816-1.08749-16.51292-4.1149s-10.5192,4.67469-11.45807,4.96227.59764,2.33243,3.07986,1.32367a22.14974,22.14974,0,0,0,3.18075-1.46809s-3.59375,3.03759-4.08692,3.43308,1.76118,2.0572,3.88017.41279,3.0799-2.25752,3.0799-2.25752-2.85025,4.52733-3.2219,5.06775,2.1101,1.81278,3.56442-.46633,2.38027-3.5685,2.38027-3.5685,3.724,5.61416,8.90222,5.93792c3.017.13723,3.98831-1.30343,3.98831-1.30343l6.34921-.14646"/><polyline class="cls-31" points="2110.079 291.674 2109.069 305.741 2128.122 305.741"/><path class="cls-31" d="M2110.3014,305.701s39.20973,11.81519,47.65974,9.48415,6.87244-9.48415,6.87244-9.48415Z"/><path class="cls-13" d="M2155.79121,315.39144l.00071,4.77076s-10.81551,2.07893-30.91311-10.48592C2124.87881,309.67629,2143.03988,317.9738,2155.79121,315.39144Z"/><path class="cls-46" d="M2159.20371,320.69488c7.48711,0,15.99176,2.94688,20.73617,4.86594l-.4159,14.11062h-29.86039c-1.51281-6.08484-2.27719-14.18437.96309-16.71922,1.91465-1.498,4.80039-2.25734,8.577-2.25734m0-6.4c-4.69023,0-9.13418.96734-12.52051,3.61656-9.45,7.393-1.75672,28.16-1.75672,28.16h40.81164l.72629-24.64219s-14.5298-7.13437-27.2607-7.13437Z"/><path class="cls-13" d="M2116.70748,201.59956a8.69921,8.69921,0,0,1-3.1413,1.81268,2.66026,2.66026,0,0,0-1.945,3.18419c.44,2.64,4.10695,2.67663,5.11348,3.57832s4.768,3.22253,7.68653,2.22168,4.68,0,6.68-.8a4.31288,4.31288,0,0,0,2.44-1.8,4.60494,4.60494,0,0,0,1.596,2.673c1.364,1.087-1.05823,4.31311.27287,6.80005a20.344,20.344,0,0,1,1.81662,5.5738,16.14344,16.14344,0,0,1,0,4.36314l2.46268-.25s.03781-3.578.56481-4.579a9.54712,9.54712,0,0,1,3.331-2.32531c1.836-.65571,2.156-3.45571.796-4.73571s2.24-4,.32-7.44-.476-3.82691-2.56-7.02691-7.92-4.68087-11.2-3.21309c-5.00933,2.24165-6-1.12-9.92-.24A9.97013,9.97013,0,0,0,2116.70748,201.59956Z"/><path class="cls-38" d="M2125.09161,227.375h-5.4917a2.99539,2.99539,0,0,1-2.98242-2.67773l-.56738-5.249a2.99989,2.99989,0,0,1,2.98242-3.32227h6.62647a2.99989,2.99989,0,0,1,2.98242,3.32227l-.56738,5.249A2.99539,2.99539,0,0,1,2125.09161,227.375Zm-6.05908-9.249a1,1,0,0,0-.99414,1.10742l.56738,5.249a.99858.99858,0,0,0,.99414.89258h5.4917a.99858.99858,0,0,0,.99414-.89258l.56738-5.249a1,1,0,0,0-.99414-1.10742Z"/><path class="cls-38" d="M2116.75177,221.125h-2.771a1,1,0,0,1,0-2h2.771a1,1,0,0,1,0,2Z"/><path class="cls-38" d="M2142.4173,223.90527l-.35107-.39941a5.59975,5.59975,0,0,0-3.92285-1.88672l-10.627-.49512.09277-1.998,10.627.49512a7.60673,7.60673,0,0,1,5.332,2.56445l.35108.39941Z"/><path class="cls-6" d="M2139.6894,223.19387s1.07322-3.55139,4.57322-3.56776c4.28131-.02,5.64354,8.368-4.57322,10.50867Z"/><polygon class="cls-46" points="2039.177 313.005 1886.685 313.005 1886.685 441.97 2039.177 441.97 2191.669 441.97 2191.669 313.005 2039.177 313.005"/><rect class="cls-63" x="1878.54523" y="304.73896" width="321.26291" height="15.08722"/><polygon class="cls-64" points="2340.952 487.862 1931.18 487.862 1856.03 442.17 2228.326 442.17 2340.952 487.862"/><polygon class="cls-46" points="2126.157 304.737 2138.069 304.737 2139.631 280.963 2124.595 280.963 2126.157 304.737"/><polygon class="cls-36" points="2140.282 289.382 2139.673 298.647 2124.553 298.647 2123.944 289.382 2140.282 289.382"/><polygon class="cls-46" points="2122.17 284.047 2142.055 284.047 2141.124 280.774 2123.102 280.774 2122.17 284.047"/><polygon class="cls-46" points="2133.027 285.944 2131.782 275.191 2123.42 274.762 2123.517 272.902 2133.452 273.412 2134.877 285.73 2133.027 285.944"/><rect class="cls-36" x="1863.8605" y="404.896" width="73.93599" height="26.89311"/><polygon class="cls-65" points="1869.365 442.17 1872.529 442.17 1873.683 431.789 1868.212 431.789 1869.365 442.17"/><polygon class="cls-65" points="1929.598 442.17 1932.763 442.17 1933.916 431.789 1928.445 431.789 1929.598 442.17"/><rect class="cls-66" x="1863.8605" y="378.0029" width="73.93599" height="26.89311"/><rect class="cls-36" x="1863.8605" y="351.10979" width="73.93599" height="26.89311"/><circle class="cls-67" cx="1900.82854" cy="364.55602" r="2.07513"/><circle class="cls-67" cx="1900.82854" cy="418.34223" r="2.07513"/><circle class="cls-67" cx="1900.82854" cy="391.44912" r="2.07513"/><rect class="cls-36" x="2150.92433" y="404.896" width="73.93599" height="26.89311"/><polygon class="cls-65" points="2156.429 442.17 2159.593 442.17 2160.747 431.789 2155.276 431.789 2156.429 442.17"/><polygon class="cls-65" points="2216.662 442.17 2219.826 442.17 2220.98 431.789 2215.509 431.789 2216.662 442.17"/><rect class="cls-66" x="2150.92433" y="378.0029" width="73.93599" height="26.89311"/><rect class="cls-36" x="2150.92433" y="351.10979" width="73.93599" height="26.89311"/><circle class="cls-67" cx="2187.89237" cy="364.55602" r="2.07513"/><circle class="cls-67" cx="2187.89237" cy="418.34223" r="2.07513"/><circle class="cls-67" cx="2187.89237" cy="391.44912" r="2.07513"/><path class="cls-37" d="M6548.34242,270.27377h85.31a9.0963,9.0963,0,0,1,0-3.01507h-85.31a1.50753,1.50753,0,0,0,0,3.01507Z"/><path class="cls-37" d="M6933.01511,268.76624h-77.34737a8.24735,8.24735,0,0,1,0,2.73365h77.34737a1.36683,1.36683,0,0,0,0-2.73365Z"/><path class="cls-46" d="M6933.03485,267.56307h16.93356a2.57,2.57,0,0,1,0,5.14h-16.93356a2.57,2.57,0,1,1,0-5.14Z"/><polygon class="cls-46" points="6563.418 271.563 6563.542 271.563 6636.626 271.563 6636.626 260 6563.418 271.563"/><polygon class="cls-46" points="6921.86 271.563 6848.652 260 6848.652 271.563 6921.737 271.563 6921.86 271.563"/><polygon class="cls-65" points="6742.639 260 6636.626 260 6636.626 271.563 6742.639 271.563 6848.652 271.563 6848.652 260 6742.639 260"/><path class="cls-31" d="M6632.04658,264.979c-.8452,0-1.561,1.08307-1.81559,2.58427h3.631C6633.60749,266.062,6632.89165,264.979,6632.04658,264.979Z"/><path class="cls-31" d="M6632.04658,272.5534c.84507,0,1.56092-1.083,1.81546-2.58417h-3.631C6630.48553,271.4704,6631.20137,272.5534,6632.04658,272.5534Z"/><path class="cls-31" d="M6863.44425,272.5534c.84507,0,1.56092-1.083,1.81546-2.58417h-3.631C6861.8832,271.4704,6862.599,272.5534,6863.44425,272.5534Z"/><path class="cls-31" d="M6863.44425,264.979c-.8452,0-1.561,1.08307-1.81559,2.58427h3.631C6865.00517,266.062,6864.28932,264.979,6863.44425,264.979Z"/><path class="cls-37" d="M6865.25971,267.56324H6630.231a7.25879,7.25879,0,0,0,0,2.406h235.02872a7.25879,7.25879,0,0,0,0-2.406Z"/><path class="cls-68" d="M6797.54355,264.63322c-.41079-.0934-.81048-.19645-1.09452-.27242l.23509-.17165-.54628.00441v-.28117a2.534,2.534,0,1,0-1.604.05727v.23685l-.62513.005.19919.14692c-.28456.07617-.6883.18043-1.1034.27477-.76819.17459-1.22205.55868-1.22205,2.40922a4.14483,4.14483,0,0,0,1.18707,2.92065l.17465,1.34945h.053v.802h.11578l.31994,2.13866h-.70305v4.27732h4.54465v-4.27732h-.59432l.32007-2.13866h.27425v-.802h-.07062l.17465-1.34945a4.03655,4.03655,0,0,0,1.18707-2.8919C6798.76561,265.22069,6798.31174,264.80781,6797.54355,264.63322Z"/><path class="cls-68" d="M6754.166,264.63322c-.41079-.0934-.81048-.19645-1.09452-.27242l.23509-.17165-.54628.00441v-.28117a2.534,2.534,0,1,0-1.604.05727v.23685l-.62512.005.19919.14692c-.28456.07617-.6883.18043-1.1034.27477-.76819.17459-1.22205.55868-1.22205,2.40922a4.14483,4.14483,0,0,0,1.18707,2.92065l.17465,1.34945h.053v.802h.11578l.31994,2.13866h-.70305v4.27732h4.54465v-4.27732h-.59432l.32007-2.13866h.27425v-.802h-.07062l.17465-1.34945a4.03655,4.03655,0,0,0,1.18707-2.8919C6755.38806,265.22069,6754.9342,264.80781,6754.166,264.63322Z"/><path class="cls-68" d="M6710.78846,264.63322c-.41079-.0934-.81048-.19645-1.09452-.27242l.23509-.17165-.54628.00441v-.28117a2.534,2.534,0,1,0-1.604.05727v.23685l-.62512.005.19919.14692c-.28456.07617-.6883.18043-1.1034.27477-.76819.17459-1.22205.55868-1.22205,2.40922a4.14483,4.14483,0,0,0,1.18707,2.92065l.17465,1.34945h.053v.802h.11578l.31994,2.13866h-.70305v4.27732h4.54465v-4.27732h-.59432l.32007-2.13866h.27425v-.802h-.07062l.17465-1.34945a4.03655,4.03655,0,0,0,1.18707-2.8919C6712.01052,265.22069,6711.55665,264.80781,6710.78846,264.63322Z"/><path class="cls-37" d="M6615.01916,286.46537h-85.31a9.0963,9.0963,0,0,1,0,3.01507h85.31a1.50753,1.50753,0,0,0,0-3.01507Z"/><path class="cls-46" d="M6521.80354,284.62282h22.07354a3.35008,3.35008,0,0,1,0,6.70015h-22.07354a3.35008,3.35008,0,1,1,0-6.70015Z"/><polyline class="cls-69" points="6517.11 481.448 6429.839 446.534 6502.834 446.534 6636.959 485.448"/><polyline class="cls-70" points="6673.658 476.413 6586.387 441.498 6597.054 441.498 6732.459 482.448"/><polyline class="cls-71" points="6719.144 452.916 6634.207 417.438 6642.293 417.438 6777.945 458.951"/><polyline class="cls-72" points="6939.516 450.059 6841.317 417.438 6849.403 417.438 6998.317 456.094"/><polyline class="cls-73" points="6975.829 476.413 6888.224 441.498 6898.891 441.498 7034.63 482.448"/><path class="cls-37" d="M6958.605,286.46537h-85.31a9.0963,9.0963,0,0,1,0,3.01507h85.31a1.50753,1.50753,0,1,0,0-3.01507Z"/><polygon class="cls-46" points="6642.293 280.323 6642.293 417.438 6634.207 417.438 6626.626 280.323 6642.293 280.323"/><polygon class="cls-46" points="6841.317 280.323 6841.317 417.438 6849.403 417.438 6856.984 280.323 6841.317 280.323"/><polygon class="cls-46" points="6586.387 304.383 6586.387 441.498 6597.054 441.498 6607.054 304.383 6586.387 304.383"/><polygon class="cls-46" points="6898.891 304.383 6898.891 441.498 6888.224 441.498 6878.224 304.383 6898.891 304.383"/><rect class="cls-31" x="6676.13909" y="266.31402" width="133" height="3.01514"/><rect class="cls-37" x="6681.45921" y="264.08024" width="7.48269" height="7.48269" rx="2.22898" ry="2.22898"/><rect class="cls-37" x="6689.27171" y="264.08024" width="7.48269" height="7.48269" rx="2.22898" ry="2.22898"/><rect class="cls-37" x="6697.08421" y="264.08024" width="7.48269" height="7.48269" rx="2.22898" ry="2.22898"/><rect class="cls-37" x="6704.90889" y="264.08024" width="7.48269" height="7.48269" rx="2.22898" ry="2.22898"/><rect class="cls-37" x="6774.95921" y="264.08024" width="7.48269" height="7.48269" rx="2.22898" ry="2.22898"/><rect class="cls-37" x="6712.81338" y="264.08024" width="7.48269" height="7.48269" rx="2.22898" ry="2.22898"/><rect class="cls-37" x="6782.77171" y="264.08024" width="7.48269" height="7.48269" rx="2.22898" ry="2.22898"/><rect class="cls-37" x="6790.58421" y="264.08024" width="7.48269" height="7.48269" rx="2.22898" ry="2.22898"/><rect class="cls-37" x="6798.40889" y="264.08024" width="7.48269" height="7.48269" rx="2.22898" ry="2.22898"/><rect class="cls-31" x="6710.46675" y="257.41667" width="77.10216" height="1.28838"/><rect class="cls-68" x="6713.5509" y="255.66217" width="4.33783" height="4.33783" rx="1.25" ry="1.25"/><rect class="cls-68" x="6718.07993" y="255.66217" width="4.33783" height="4.33783" rx="1.25" ry="1.25"/><rect class="cls-68" x="6754.00893" y="255.66217" width="4.33783" height="4.33783" rx="1.25" ry="1.25"/><rect class="cls-68" x="6758.54501" y="255.66217" width="4.33783" height="4.33783" rx="1.25" ry="1.25"/><rect class="cls-68" x="6767.7543" y="255.66217" width="4.33783" height="4.33783" rx="1.25" ry="1.25"/><rect class="cls-68" x="6763.12737" y="255.66217" width="4.33783" height="4.33783" rx="1.25" ry="1.25"/><rect class="cls-68" x="6772.28333" y="255.66217" width="4.33783" height="4.33783" rx="1.25" ry="1.25"/><rect class="cls-68" x="6776.81236" y="255.66217" width="4.33783" height="4.33783" rx="1.25" ry="1.25"/><rect class="cls-68" x="6781.34844" y="255.66217" width="4.33783" height="4.33783" rx="1.25" ry="1.25"/><path class="cls-31" d="M6717.18577,280.54144h50.90664a9.88,9.88,0,0,1,9.88,9.88v0a9.88,9.88,0,0,1-9.88,9.88h-50.90664a9.88,9.88,0,0,1-9.88-9.88v0A9.88,9.88,0,0,1,6717.18577,280.54144Z"/><rect class="cls-65" x="6563.41793" y="271.56293" width="358.44232" height="37.71708"/><g class="cls-74"><path class="cls-46" d="M6840.77881,274.49463a102.52846,102.52846,0,0,0,20.62891-2.10254c1.56909-.28687,3.11645-.56958,4.71118-.8291h-2.937q-.9386.16809-1.864.33789a101.23306,101.23306,0,0,1-21.58008,2.08887,67.21727,67.21727,0,0,1-18.37744-2.42676h-1.82812a67.84415,67.84415,0,0,0,20.20166,2.92676C6840.08741,274.49268,6840.43409,274.49463,6840.77881,274.49463Z"/><path class="cls-46" d="M6648.41651,274.40283a544.86469,544.86469,0,0,0,58.09082.68555c14.58105-.665,28.457-1.68652,39.60547-2.50781,4.6377-.34082,9.01855-.66406,12.82324-.915.51074-.03369,1.041-.06812,1.56665-.10254h-7.30444c-2.27246.16284-4.656.33789-7.12158.51953-11.14649.82031-25.01758,1.8418-39.59277,2.50586a544.546,544.546,0,0,1-58.02832-.68359,116.4762,116.4762,0,0,1-15.39795-2.3418h-2.29395A121.02658,121.02658,0,0,0,6648.41651,274.40283Z"/><path class="cls-46" d="M6801.394,272.85693c1.51465.37891,2.9834.75391,4.41992,1.12109,10.4209,2.66113,19.41992,4.96,31.90137,4.96a104.43743,104.43743,0,0,0,20.69434-1.72461c1.959-.33105,3.98535-.67285,6.4209-1.00684a166.42576,166.42576,0,0,1,24.56152-1.71484q.63135,0,1.27832.00293c6.43774.03271,22.39307.70093,31.18994,1.08984V275.084c-8.80518-.38892-24.74756-1.05664-31.188-1.08936a167.95349,167.95349,0,0,0-25.91016,1.71582c-2.44238.335-4.47266.67773-6.43555,1.00977a103.96045,103.96045,0,0,1-20.61133,1.71777c-12.418,0-21.38965-2.291-31.77832-4.94434-1.43652-.36719-2.90625-.74219-4.42187-1.12109-1.25684-.31421-2.56934-.5752-3.907-.80957H6794.293A61.42569,61.42569,0,0,1,6801.394,272.85693Z"/><path class="cls-46" d="M6581.73194,271.563h-1.19824a34.92438,34.92438,0,0,1-7.3291,2.3457,73.391,73.391,0,0,1-9.78662,1.41187v.50171a73.80376,73.80376,0,0,0,9.88818-1.42334A35.47756,35.47756,0,0,0,6581.73194,271.563Z"/><path class="cls-46" d="M6880.34034,279.08838c-11.50391.752-18.72559,1.48633-24.52832,2.0752-10.7168,1.08984-15.60937,1.58691-31.6875.35547a106.05337,106.05337,0,0,1-23.99023-4.26855,70.51825,70.51825,0,0,0-20.43652-3.25586c-11.43164-.30176-22.06738.83984-33.3252,2.0459-7.97559.85547-16.22363,1.73926-24.89258,2.08594-8.65527.34668-19.39258.54395-30.76172.75293-15.40039.28223-31.3252.5752-42.19141,1.27051-17.67578,1.12988-28.57812,3.52051-36.91211,5.71-1.542.40527-2.88086.8418-4.1748,1.2627-4.459,1.45215-8.30762,2.70605-17.4209,1.46875-2.29687-.31152-4.40625-.623-6.417-.91992a142.35093,142.35093,0,0,0-20.18408-1.96069v.50073a142.04188,142.04188,0,0,1,20.11084,1.9541c2.01367.29785,4.124.60938,6.42383.92188a50.25327,50.25327,0,0,0,6.74121.50879,31.2594,31.2594,0,0,0,10.90039-1.998c1.28809-.41895,2.61914-.85254,4.14746-1.25391,8.31055-2.18359,19.18359-4.56738,36.81641-5.69629,10.85547-.69434,26.77441-.98633,42.16992-1.26953,11.37109-.208,22.11133-.40527,30.77148-.752,8.68652-.34766,16.94238-1.23242,24.92578-2.08789,11.24121-1.20508,21.86621-2.3457,33.25879-2.04395a70.07452,70.07452,0,0,1,20.31348,3.2373,106.48631,106.48631,0,0,0,24.08789,4.28516c16.126,1.23633,21.03027.73828,31.77734-.35547,5.79883-.58984,13.01563-1.32324,24.51074-2.0752a291.23,291.23,0,0,1,37.25293-.39551c1.43384.06738,2.83423.13013,4.23389.18408v-.50049c-1.3916-.054-2.78442-.1167-4.21045-.18359A291.47453,291.47453,0,0,0,6880.34034,279.08838Z"/><path class="cls-46" d="M6578.42823,283.0415c2.30078.35547,4.34766.83105,6.32813,1.291a44.38766,44.38766,0,0,0,10.58887,1.53613,34.68314,34.68314,0,0,0,6.02637-.54687c2.76563-.4834,5.96-1.333,9.6582-2.31738,9.21582-2.45215,21.83691-5.80957,37.79688-5.8916a.25.25,0,0,0-.001-.5h-.001c-16.02539.082-28.68164,3.44922-37.92285,5.9082-3.6875.98145-6.873,1.82813-9.61621,2.30859-6.94727,1.21387-11.54687.14648-16.416-.9834-1.98926-.46289-4.0459-.94043-6.36523-1.29883a83.92971,83.92971,0,0,0-15.08643-.40967v.50146A83.66927,83.66927,0,0,1,6578.42823,283.0415Z"/><path class="cls-46" d="M6620.062,271.98682a91.52458,91.52458,0,0,0,12.06934,2.85938.246.246,0,0,0,.28613-.208.25034.25034,0,0,0-.208-.28613,91.395,91.395,0,0,1-11.83154-2.78906h-1.70825C6619.10425,271.68555,6619.56006,271.82153,6620.062,271.98682Z"/><path class="cls-46" d="M6612.354,271.58545a29.5786,29.5786,0,0,1-2.8252,3.66211c-1.51562,1.75586-2.71289,3.14355-2.02539,4.33594a1.02519,1.02519,0,0,0,.97754.47559,15.19722,15.19722,0,0,0,4.46094-1.459,34.379,34.379,0,0,1,9.04492-2.79687.24859.24859,0,0,0,.2207-.27539.2433.2433,0,0,0-.27539-.2207,34.74421,34.74421,0,0,0-9.18262,2.83105c-2.28027.9502-4.43359,1.85059-4.8125,1.19531-.51074-.88477.53027-2.09082,1.9707-3.75879a30.02393,30.02393,0,0,0,2.87012-3.72363,1.77561,1.77561,0,0,1,.22266-.28809h-.63086Z"/><path class="cls-46" d="M6595.44287,281.646c-6.30176,1.11719-15.27734-1.38379-16.28027-3.39062a.55206.55206,0,0,1,.1582-.72559,29.8964,29.8964,0,0,1,10.93311-5.9668h-1.47608a28.858,28.858,0,0,0-9.79883,5.60156,1.05043,1.05043,0,0,0-.26367,1.31445c.97363,1.94922,7.56836,3.9375,13.35547,3.9375a19.99473,19.99473,0,0,0,3.46-.27832c5.62988-1.00024,11.06592-6.9939,12.45337-10.5752h-.53052C6606.01978,274.98486,6600.72779,280.70728,6595.44287,281.646Zm-16.28711-4.29883h0Z"/><path class="cls-46" d="M6602.79248,271.50342c-.07544.01416-.18652.03516-.31323.05957h.51294A.2408.2408,0,0,0,6602.79248,271.50342Z"/><path class="cls-46" d="M6585.31787,277.25342a.91794.91794,0,0,0-.00488.85156c.43457.84863,1.62793,1.27734,3.5498,1.27734.09668,0,.19629-.001.2959-.00293,3.74512-.08105,9.25293-1.76953,9.82226-3.01074a.25038.25038,0,1,0-.45508-.209c-.40723.88867-5.38672,2.63281-9.37793,2.71973-1.83691.03711-3.03711-.31641-3.38965-1.00293a.41589.41589,0,0,1,.00879-.40234c1.00879-2.05664,12.69824-4.65234,17.11719-5.47852a.25054.25054,0,0,0,.2002-.292.24676.24676,0,0,0-.09228-.14062h-.51294C6599.83277,272.06909,6586.562,274.71973,6585.31787,277.25342Z"/><path class="cls-46" d="M6574.98682,277.82666a.25343.25343,0,0,0-.30566-.17871,62.53688,62.53688,0,0,1-11.26318,1.22559v.49976a63.23,63.23,0,0,0,11.39014-1.241A.2503.2503,0,0,0,6574.98682,277.82666Z"/><path class="cls-46" d="M6888.64209,283.08643c-6.08105.24023-12.54687.62793-18.7998,1.00293-11.76367.7041-23.916,1.44043-34.248,1.23145h-.00293a.25.25,0,0,0-.00684.5q1.793.03516,3.65527.03418c9.49316,0,20.21973-.64258,30.63184-1.2666,6.251-.375,12.71387-.7627,18.79-1.002,10.09863-.39941,19.38867-.39941,26.85254-.39941,2.34228,0,4.45386-.00073,6.34619-.0127v-.5c-1.8916.012-4.00342.0127-6.34619.0127C6908.04541,282.687,6898.74952,282.687,6888.64209,283.08643Z"/><path class="cls-46" d="M6787.20557,288.9751c5.65527,0,8.17285-1.80566,9.28906-3.32031a4.63957,4.63957,0,0,0,.875-3.957c-.67578-2.17383-8.41016-5.18945-18.959-4.9707-8.56445.17871-17.96875,3.5332-17.96875,6.40918C6760.4419,286.2124,6778.62061,288.9751,6787.20557,288.9751Zm-8.78516-11.748c.35644-.00781.709-.01074,1.05859-.01074,9.93945,0,16.8877,2.93652,17.41211,4.62988a4.19427,4.19427,0,0,1-.79883,3.51172c-1.04785,1.42188-3.44043,3.11719-8.88672,3.11719-11.33691,0-26.26367-3.3584-26.26367-5.33887C6760.9419,280.81787,6769.74952,277.40771,6778.42041,277.22705Z"/><path class="cls-46" d="M6767.34522,283.05811c5.0918-3.124,20.29688-4.25586,24.79395-.03027.376.35352.78516.85254.5918,1.21875-1.07422,2.05078-15.26074.667-18.7998-.09961a.24977.24977,0,0,0-.10547.48828,82.48351,82.48351,0,0,0,12.97266,1.1748c3.2002,0,5.85156-.333,6.376-1.33008.27148-.51855.03906-1.12891-.69336-1.81738-4.72559-4.44043-20.06055-3.30371-25.39746-.03027a.25012.25012,0,0,0-.082.34375A.24733.24733,0,0,0,6767.34522,283.05811Z"/><path class="cls-46" d="M6780.14014,282.519c1.501-.09277,5.61523-.10937,6.5957.99023a.24826.24826,0,0,0,.18652.084.24406.24406,0,0,0,.166-.06348.24918.24918,0,0,0,.02051-.35254c-1.3418-1.50488-6.76953-1.1709-7.002-1.15625a.2498.2498,0,0,0,.0166.499Z"/><path class="cls-46" d="M6800.24952,280.99072h.00488a16.72034,16.72034,0,0,1,5.78027.97168.24979.24979,0,0,0,.19727-.459,16.82793,16.82793,0,0,0-5.9873-1.0127.25.25,0,0,0,.00488.5Z"/><path class="cls-46" d="M6573.78662,290.31494c8.54.38672,11.98145,1.42871,12.35449,2.27539a.37479.37479,0,0,1-.03516.41406c-1.28223,1.69824-13.60547,1.2041-19.62207.37793a.25039.25039,0,0,0-.06836.49609,106.84927,106.84927,0,0,0,12.11621.76758c3.82715,0,7.20605-.32324,7.97363-1.34082a.86556.86556,0,0,0,.09277-.916c-1.02832-2.33716-14.38306-2.9541-23.18018-2.61084v.4917C6566.55249,290.14819,6570.2544,290.15576,6573.78662,290.31494Z"/><path class="cls-46" d="M6692.65088,283.45068c6.74121-.13574,13.1084-.26367,18.21289-.41406,17.04-.501,47.707-4.06445,48.01465-4.10059a.24977.24977,0,0,0-.05859-.49609c-.30762.03613-30.95312,3.59668-47.97168,4.09668-5.10059.15039-11.4668.27832-18.207.41406-16.20117.32617-34.56348.69629-44.54492,1.5332a379.843,379.843,0,0,0-39.36328,5.67969.25014.25014,0,0,0,.05078.49512.30776.30776,0,0,0,.05078-.00488,379.342,379.342,0,0,1,39.30273-5.67187C6658.104,284.146,6676.45752,283.77686,6692.65088,283.45068Z"/><path class="cls-46" d="M6831.4419,285.3208h-.00293c-2.45508.02246-6.00391-.26172-9.75879-.56738-6.99609-.57031-14.92676-1.21484-18.11914.03223a12.26011,12.26011,0,0,0-4.16992,2.87988,10.456,10.456,0,0,1-7.94336,3.43359c-5.13086.23633-16.29492-.0918-33.38184-4.89551-10.64648-2.99512-26.166-1.94336-39.8584-1.01367-5.17969.35156-10.07324.68262-14.376.77637-15.13477.3291-47.21387,1.6748-64.12793,2.48047a.2514.2514,0,0,0-.23828.26172.26247.26247,0,0,0,.26172.23828c16.91211-.80664,48.98535-2.15234,64.11621-2.48047,4.31348-.09375,9.21191-.42578,14.39844-.77734,13.65137-.9248,29.126-1.97363,39.68945.99512,14.74609,4.14746,25.11035,4.96973,31.00879,4.96973.96289,0,1.80664-.02246,2.53125-.05469a10.99465,10.99465,0,0,0,8.2627-3.57031,11.88109,11.88109,0,0,1,4.00879-2.77832c3.08691-1.2041,10.95508-.56348,17.89746.001,3.76465.30566,7.32519.59961,9.80469.56934a.25.25,0,0,0-.00293-.5Z"/><path class="cls-46" d="M6697.58155,289.09912c-.19434.01563-19.58691,1.54883-33.8418,2.05664-14.25293.50781-37.98145.00684-38.21973,0a.25342.25342,0,0,0-.25586.24414.25.25,0,0,0,.24414.25586c.15918.00293,10.708.22656,21.95605.22656,5.667,0,11.5127-.05664,16.293-.22656,14.2666-.50781,33.66895-2.043,33.86328-2.05859a.24958.24958,0,0,0,.22949-.26855A.25535.25535,0,0,0,6697.58155,289.09912Z"/><path class="cls-46" d="M6595.41553,295.47314c13.416-2.3125,20.33887-1.97559,25.77539-1.48047,4.81836.44043,19.17285,1.48438,23.80664,1.48438a.25.25,0,0,0,0-.5c-4.62012,0-18.94922-1.042-23.76172-1.48242-5.4668-.499-12.43066-.83594-25.9043,1.48633a137.20714,137.20714,0,0,1-31.91357,1.62231v.49585c3.27539.16772,6.45605.27344,9.59814.27344A128.49475,128.49475,0,0,0,6595.41553,295.47314Z"/><path class="cls-46" d="M6860.14307,296.00342l-6.3877.24707c-13.0498.501-34.8916,1.34082-45.58008,1.91992a286.09634,286.09634,0,0,1-40.93359-.79687c-4.001-.4375-9.40527-1.47656-15.66211-2.67969-11.71289-2.25391-24.96582-4.81152-34.70605-4.5127a180.79958,180.79958,0,0,0-21.28027,1.80566c-2.86328.38086-5.82422.77539-9.48633,1.14355-18.42285,1.85059-34.18359,1.87207-34.34082,1.87207a.25.25,0,0,0,0,.5c.15723,0,15.94141-.02148,34.3916-1.874,3.66895-.36914,6.63477-.76465,9.502-1.14648a180.39445,180.39445,0,0,1,21.22949-1.80078c9.65234-.29785,22.90723,2.25586,34.59668,4.50293,6.26758,1.20605,11.67969,2.24707,15.70117,2.68555a256.4324,256.4324,0,0,0,25.99316,1.17871c5.17578,0,10.32617-.123,15.02246-.37793,10.68359-.58008,32.52344-1.41895,45.57227-1.9209l6.3877-.24609c9.88574-.38428,41.2627-1.439,61.69775-.23242v-.501C6901.39356,294.56494,6870.02906,295.61841,6860.14307,296.00342Z"/><path class="cls-46" d="M6887.29248,286.87842c-4.98144.22949-10.51562.417-16.375.61523-11.6875.39551-23.77246.80469-33.39941,1.60547-1.55859.12988-3.16895.2666-4.80566.40625-12.793,1.09082-28.71094,2.44922-30.14453.74219a.79959.79959,0,0,1-.14941-.95605c.71973-1.374,5.06543-2.63867,9.5752-2.21777a.247.247,0,0,0,.27246-.22559.25.25,0,0,0-.22559-.27246c-4.43848-.415-9.15137.74414-10.06445,2.4834a1.28179,1.28179,0,0,0,.209,1.51074c.58594.69727,2.8252.98145,6.36328.98145,5.43457,0,13.93359-.6709,24.207-1.54785,1.63574-.13965,3.24609-.27637,4.80371-.40625,9.61524-.79883,21.69434-1.208,33.375-1.60352,5.86133-.19922,11.39649-.38672,16.38184-.61523,6.69531-.30859,12.7793-.38379,18.66309-.457,5.35254-.06689,10.491-.13281,15.88135-.35986v-.50024c-5.3916.22729-10.53271.293-15.88818.36011C6900.08545,286.49463,6893.99756,286.5708,6887.29248,286.87842Z"/><path class="cls-46" d="M6786.9292,294.77686a140.07619,140.07619,0,0,1-27.27637-3.64551c-3.65039-.76953-7.09766-1.49707-10.69141-2.03027a148.604,148.604,0,0,0-21.415-1.48926.25.25,0,0,0,.00391.5h.00391a148.06989,148.06989,0,0,1,21.333,1.4834c3.5791.53125,7.02051,1.25684,10.66309,2.02539a140.50936,140.50936,0,0,0,27.36523,3.65625c2.17773.05566,4.41309.08008,6.67578.08008,15.47266,0,32.18164-1.168,39.87891-1.70605,8.54492-.59668,33.89746-1.31543,49.04492-1.74414l6.14355-.1748a.25.25,0,0,0-.00684-.5h-.00684l-6.14355.1748c-15.15137.42969-40.51074,1.14746-49.06641,1.74609C6824.61866,293.769,6803.97022,295.21826,6786.9292,294.77686Z"/><path class="cls-46" d="M6893.29248,291.48193a.25048.25048,0,0,0,.25.25c.20264,0,16.96973-.00781,28.31787-.53809v-.50049c-11.32983.53076-28.115.53857-28.31787.53857A.25048.25048,0,0,0,6893.29248,291.48193Z"/><path class="cls-46" d="M6577.1958,300.75244l1.56934-.03516c10.38281-.22949,16.64941-.36816,21.14063-1.59961.41016-.1123.81836-.22754,1.22656-.3418,4.15137-1.165,8.44922-2.37012,15.47461-1.40234a170.52119,170.52119,0,0,0,23.53223,1.67578c7.583.06152,17.71191-.19824,30.10742-.77832a264.44968,264.44968,0,0,0,29.59082-2.917,102.23675,102.23675,0,0,1,31.96973-.502c3.083.40039,6.9375,1.24219,11.01758,2.13184,5.08106,1.10938,10.84082,2.36523,15.99707,2.93945a.25662.25662,0,0,0,.27539-.2207.24859.24859,0,0,0-.2207-.27539c-5.12988-.57227-10.876-1.8252-15.94531-2.93164-4.09082-.89258-7.95605-1.73633-11.05957-2.13965a102.6965,102.6965,0,0,0-32.11621.50586,264.131,264.131,0,0,1-29.53223,2.90918c-12.3877.58008-22.50391.84277-30.08008.77832a170.04362,170.04362,0,0,1-23.46777-1.67187c-7.13477-.97559-11.47754.24023-15.67773,1.417-.40723.11426-.81445.22852-1.22461.34082-4.43066,1.21582-10.6748,1.35352-21.01855,1.582l-1.57031.03516c-5.48242.1228-10.26489.1272-13.76611.09912v.5q1.60876.01282,3.55615.01416C6569.91553,300.86572,6573.39014,300.8374,6577.1958,300.75244Z"/><path class="cls-46" d="M6832.811,300.186c-3.61133.19043-10,.50781-17.01172.85742-9.4502.46973-20.16016,1.00293-26.58691,1.34766-11.17383.60352-23.41309-.09668-32.82715-.76953a125.4878,125.4878,0,0,1-16.35449-2.80469,117.826,117.826,0,0,0-14.16113-2.499c-5.50391-.44629-12.88086.62207-20.02051,1.65234-3.91309.56445-7.60937,1.09766-10.751,1.3418-6.4375.499-19.84375.959-30.61621,1.32813-4.04785.13867-7.78125.2666-10.73926.38184-9.90332.38672-24.05371,1.0625-32.56934,2.45313a57.76815,57.76815,0,0,1-16.98633.08105c-.42187-.04883-.82227-.0957-1.20117-.13672-4.31152-.47363-9.98828-.65332-23.68066-.002-6.8623.32764-12.19043.4585-15.88721.50659v.49927c3.70313-.04761,9.03979-.17773,15.91064-.50586,13.66016-.65234,19.31348-.47168,23.60254-.002.37793.042.77734.08887,1.19824.1377a71.53274,71.53274,0,0,0,8.65723.60059,52.33423,52.33423,0,0,0,8.4668-.68457c8.48926-1.3877,22.61914-2.06152,32.50879-2.44727,2.957-.11523,6.68945-.24316,10.73731-.38281,10.77637-.36914,24.18945-.8291,30.63769-1.3291,3.1582-.24512,6.86231-.7793,10.7832-1.34473,7.11133-1.02637,14.46289-2.083,19.9082-1.64941a117.3374,117.3374,0,0,1,14.09668,2.49023,125.5121,125.5121,0,0,0,16.4248,2.81348,274.83581,274.83581,0,0,0,32.88965.77148c6.4248-.3457,17.13477-.87793,26.584-1.34863,7.0127-.34863,13.40234-.667,17.0127-.85645,8.54-.44922,38.48242-1.0459,46.98828-1.0459,7.01563,0,26.63452.00049,42.03564.75635v-.50024c-15.41113-.75562-35.02026-.7561-42.03564-.7561C6871.31495,299.14014,6841.356,299.73682,6832.811,300.186Z"/><path class="cls-46" d="M6591.41748,307.10986c2.60645.22363,4.94629.48242,7.21.73242a129.508,129.508,0,0,0,15.34375,1.03613c1.123,0,2.2959-.01758,3.52832-.05664a163.05566,163.05566,0,0,0,16.98242-1.91016,239.16731,239.16731,0,0,1,26.4043-2.7666c5.77051-.19336,11.208-.21582,16.46582-.2373,10.17578-.042,18.96484-.07812,26.10352-1.36328a.24945.24945,0,0,0,.20215-.29.24435.24435,0,0,0-.29-.20215c-7.09668,1.27734-15.86523,1.31348-26.01758,1.35547-5.26172.02148-10.70215.04395-16.48145.2373a239.79538,239.79538,0,0,0-26.458,2.77148,162.69368,162.69368,0,0,1-16.92676,1.90527,118.00006,118.00006,0,0,1-18.80176-.97656c-2.2666-.251-4.60937-.50977-7.22168-.7334-6.10352-.52539-16.96289.1748-24.8916.68457-1.11841.07227-2.17163.13965-3.15088.2v.50024c.98828-.06055,2.05176-.12842,3.18311-.20117C6574.51416,307.28662,6585.354,306.5874,6591.41748,307.10986Z"/><path class="cls-46" d="M6742.79444,305.97705c0-2.707-10.53906-5.19629-18.0957-5.79-8.1582-.64355-10.20117.39258-11.29785.94824a25.55755,25.55755,0,0,1-4.02051,1.4873c-2.60645.80176-4.85645,1.49512-4.62109,3.38574.1416,1.13672,1.59961,2.30957,4.448,3.27173h1.76343c-3.87842-1.02319-5.59082-2.33569-5.71533-3.33423-.18359-1.47363,1.78223-2.0791,4.27148-2.8457a26.30248,26.30248,0,0,0,4.10059-1.51953c.76074-.38477,2.16113-1.09375,6.5166-1.09375,1.24609,0,2.7334.05859,4.51563.19824,8.73535.68652,17.63477,3.35742,17.63477,5.292a2.25317,2.25317,0,0,1-.79883,1.54785,8.84549,8.84549,0,0,1-3.16992,1.75513h1.35791a7.86226,7.86226,0,0,0,2.16162-1.39673A2.73148,2.73148,0,0,0,6742.79444,305.97705Z"/><path class="cls-46" d="M6731.9292,304.17432a64.05649,64.05649,0,0,0-10.01562-.835c-3.873-.00879-5.97266.30859-6.19238.99023a.6338.6338,0,0,0,.10449.59668c.98242,1.29395,8.45215,1.03906,9.30078,1.00879a.25009.25009,0,0,0-.00977-.5h-.00977c-3.10644.12012-8.26074.00586-8.88281-.81152a.135.135,0,0,1-.02637-.14062c.3291-.85645,10.17969-.97363,16.43848.33789,2.94531.61719,3.06934,1.20508,3.06445,1.31641-.00781.18359-.22266.35449-.40234.4668-2.8291,1.76563-17.27734,2.02344-23.49219-.68555a.25018.25018,0,1,0-.19922.459c3.35352,1.46191,8.86426,2.082,13.81055,2.082,4.59961,0,8.71191-.53613,10.14551-1.43164a1.13444,1.13444,0,0,0,.63769-.86914C6736.22315,305.64014,6735.80616,304.87061,6731.9292,304.17432Z"/><path class="cls-46" d="M6758.85205,305.21436a45.64137,45.64137,0,0,1-13.03613-1.8623.25016.25016,0,0,0-.16406.47266,46.17087,46.17087,0,0,0,13.19434,1.88965h.00293a.25.25,0,0,0,.00293-.5Z"/><path class="cls-46" d="M6647.32422,309.28h4.40186a259.56931,259.56931,0,0,1,32.11523-1.49927,72.46892,72.46892,0,0,1,13.425,1.49927h2.36841a74.559,74.559,0,0,0-15.78369-1.99927A262.34646,262.34646,0,0,0,6647.32422,309.28Z"/><path class="cls-46" d="M6855.08936,304.05811c-2.88184.04-5.36816.07422-7.3457.09766-12.61621.15137-76.28418,1.05469-90.78711,3.94238-1.86475.37158-3.52979.77148-5.04834,1.18188h2.02441c.98-.238,2.01074-.47046,3.12158-.69165,14.46-2.87891,78.08691-3.78125,90.69531-3.93262,1.97754-.02344,4.46484-.05762,7.34668-.09766,16.522-.22852,45.96-.635,66.76416-.26562V303.793C6901.04859,303.42651,6871.61206,303.82959,6855.08936,304.05811Z"/><path class="cls-46" d="M6796.61768,309.28h27.65356c19.67188-.26587,41.24756-.41992,59.531-.55,15.52759-.1106,29.407-.20972,38.05811-.34814v-.49976c-8.64648.13892-22.5293.23706-38.061.3479C6856.28955,308.42578,6821.32959,308.67578,6796.61768,309.28Z"/><path class="cls-46" d="M6611.21436,298.88232c-2.7334.04-5.55957.08105-6.38281,1.01758a.9569.9569,0,0,0-.24219.76855c.1416,1.24707,2.44727,1.82715,7.47656,1.88086.02734,0,.10254.001.21777.001,1.32715,0,7.9873-.08691,8.06348-1.82617a.67607.67607,0,0,0-.21387-.50684C6618.97705,299.02783,6612.72022,298.86279,6611.21436,298.88232Zm.85742,3.167c-5.64551-.05957-6.915-.81445-6.98633-1.4375a.465.465,0,0,1,.12207-.38184c.67676-.76953,3.63672-.8125,6.01465-.84766.126-.002.25684-.00293.39355-.00293,2.70508,0,7.36328.36816,8.15918,1.18652a.19849.19849,0,0,1,.07227.13672C6619.814,301.46436,6616.1958,302.08545,6612.07178,302.04932Z"/><path class="cls-46" d="M6629.86866,300.186a56.6583,56.6583,0,0,0-7.66211.80273.25032.25032,0,0,0,.14063.48047,57.74158,57.74158,0,0,1,7.54492-.7832.25139.25139,0,0,0,.23828-.26172A.26791.26791,0,0,0,6629.86866,300.186Z"/><path class="cls-46" d="M6603.05616,291.38623a110.63793,110.63793,0,0,1-11.4834.53125c-.7002,0-1.07226-.00586-1.07226-.00586a.25289.25289,0,0,0-.25684.248.24986.24986,0,0,0,.24707.25293c.0166,0,.41309.00488,1.07813.00488a110.97211,110.97211,0,0,0,11.5459-.53516.24882.24882,0,0,0,.21875-.27734A.2514.2514,0,0,0,6603.05616,291.38623Z"/></g><path class="cls-37" d="M6717.186,303.30176a12.88037,12.88037,0,0,1,0-25.76074h50.90625a12.88037,12.88037,0,0,1,0,25.76074Z"/><path class="cls-31" d="M6717.18577,280.54144h50.90664a9.88,9.88,0,0,1,9.88,9.88v0a9.88,9.88,0,0,1-9.88,9.88h-50.90664a9.88,9.88,0,0,1-9.88-9.88v0A9.88,9.88,0,0,1,6717.18577,280.54144Z"/><path class="cls-6" d="M6500.976,359.5l-16.26517,78.69459h-17.291s2.102-62.88652,11.24869-79.97065l-12.166-39.97393h28.29583Z"/><path class="cls-75" d="M6465.14169,351.10135l-17.80675,87.09324H6431.501S6431.19165,380,6440.91827,363.75l1.91408-45.5h28.29583Z"/><path class="cls-13" d="M6440.82579,283.62019s-1.92807,44.1773-1.82837,52.93931.91232,25,.91232,25a35.79749,35.79749,0,0,0-5.3248,12.58333c-1.33333,7-4.20972,44.5-4.18819,47.16667a8.66277,8.66277,0,0,0,1.10318,4.33333v5.31224h17.31518l.76917-3.762s2.00067-.88355,3.16734-5.55022,14.24579-71.63755,14.24579-71.63755l11.52372-66.3851Z"/><path class="cls-31" d="M6451.31405,278.7706s21.93755,76.16183,23.27089,78.517a33.46484,33.46484,0,0,0-2.42265,8.3552c-.57735,4.33333-5.57553,59.11645-5.65977,60.33333s1.32205,3.35482,1.32205,3.35482l-.18364,3.63987h18.1496l.74575-3.6081s3.382-1.71993,4.21533-4.3866,14-62.83333,14.33333-70.83333S6491.66924,283,6491.66924,283Z"/><path class="cls-46" d="M6487.66339,355.6347c-.66406-4.74146-14.4602-60.71411-17.97461-74.93848l-1.05786-.11084c3.31958,13.44116,17.38794,70.519,18.04224,75.188.64014,4.57324-8.76343,62.43018-11.18652,77.19751h1.01416C6478.99591,417.78338,6488.32941,360.3908,6487.66339,355.6347Z"/><path class="cls-46" d="M6489.82062,355.6347c-.66064-4.7168-14.31519-60.125-17.91748-74.7063l-1.05762-.11084c3.42041,13.85034,17.33423,70.31323,17.98486,74.95581.64014,4.57324-8.76343,62.43018-11.18652,77.19751h1.01416C6481.15314,417.78338,6490.48663,360.3908,6489.82062,355.6347Z"/><path class="cls-75" d="M6478.144,181.32749s9.727,8.3727,18.53842,10.48151c6.04878,1.26121,41.56051-29.92036,41.56051-29.92036l8.5823,9.52312s-31.17194,33.39062-42.73131,37.71726c-12.11661,4.53522-31.93168-8.18366-31.93168-8.18366Z"/><path class="cls-76" d="M6478.144,181.32749s9.83862,6.74082,15.09333,9.378l-1.31567,19.401-20.98253-7.27021"/><path class="cls-6" d="M6455.02066,137.36209a4.56544,4.56544,0,0,0-6.06141-.64424c-3.05624,2.17528-2.19754,10.04061,6.06141,11.08465"/><path class="cls-46" d="M6451.317,164.9554s-13.017,7.65042-14.76957,30.51418,2.16413,61.64589,2.49746,67.3564a40.92975,40.92975,0,0,0,1.40943,8.41872,11.24033,11.24033,0,0,1,.39233,3.684l-.02081,8.69151L6491.66924,283l-.97433-6.9651a33.45526,33.45526,0,0,1-.21819-7.32986,68.70675,68.70675,0,0,0-.25377-15.3342c-1.3121-7.90522-2.03032-3.62389-2.4281-19.62085s-1.88381-26.46513-3.20206-39c-1.29794-12.34167-9.79794-22.0304-9.79794-22.0304Z"/><path class="cls-6" d="M6475.68157,201.4462s15.46326,36.52245,17.95379,41.56831c5.19705,10.52932,33.61227,37.30809,33.61227,37.30809l-10.26105,10.947s-35.39246-31.41124-39.66291-38.28161-21.23282-36.40887-21.23282-36.40887Z"/><path class="cls-37" d="M6456.09085,216.57907c3.07138-2.77289,6.22123-5.44437,9.39221-8.08817l4.78482-3.92933,4.83118-3.86937-.32634,1.03963a68.12454,68.12454,0,0,0-3.11921-7.46482c-.59173-1.21279-1.22344-2.40445-1.9133-3.55581a33.83705,33.83705,0,0,0-2.20491-3.34677,15.29208,15.29208,0,0,0-5.86966-5.07855,7.625,7.625,0,0,0-3.80941-.56274,10.65412,10.65412,0,0,0-3.83759,1.24506,12.12249,12.12249,0,0,1,1.73654-1.15316,9.17883,9.17883,0,0,1,1.98358-.75572,8.00859,8.00859,0,0,1,4.31218.13974,11.6912,11.6912,0,0,1,3.8176,2.06238,19.75424,19.75424,0,0,1,3.047,3.0088,36.939,36.939,0,0,1,4.52089,7.11407c.6358,1.24687,1.19887,2.52666,1.721,3.8212.52031,1.30109,1.01194,2.58826,1.43314,3.95488l.19954.64793-.526.39187-4.9642,3.69719-5.01057,3.63706C6462.93019,211.93482,6459.54967,214.30765,6456.09085,216.57907Z"/><path class="cls-6" d="M6516.98658,291.26956s5.39363,8.41932,6.70915,9.73484,3.5519-.92086,3.5519-.92086a4.56264,4.56264,0,0,0,5.52518-.65776s2.25453.67058,3.65057-.72354a5.76827,5.76827,0,0,0,1.01953-1.97328s3.02569-.72354,3.68345-1.6444-1.11819-6.29445-1.11819-6.29445l-1.74539-6.86074-11.01515-1.60678"/><path class="cls-34" d="M6541.37416,154.05777s4.17314-11.1842,5.115-15.20149.67453-5.79968,2.70992-5.26373,1.14664,3.93436.62677,5.90955-2.84839,8.084-2.51978,8.84171,2.42061-1.15,4.11358-4.25243,3.60331-6.21807,3.95241-8.07743,3.77018-.99442,2.177,3.02068-4.96,10.5493-4.73736,10.8559,2.93747-1.54248,4.97466-3.77817,3.65679-3.81483,4.1608-4.48215,2.54942.14029,1.97017,1.99287-2.513,3.88053-4.01942,5.24683-3.28168,2.94676-2.68582,3.663,3.84418-1.40278,6.439-2.75313,2.55637.46954,2.03466,1.46078-5.27516,4.52725-6.78221,5.16492-5.68319,10.01681-5.68319,10.01681a13.15761,13.15761,0,0,1-7.16635,5.80911l-3.55312-2.46512"/><path class="cls-75" d="M6534.5284,165.11129s4.30722-5.37557,3.38436-9.32212-4.57342-9.8664-4.57342-9.8664,2.56526-2.95992,5.84336,2.203c2.72242,4.28778,7.88445,4.21012,8.47643,11.70858s-4.80065,10.26609-4.80065,10.26609"/><path class="cls-6" d="M6452.52506,155.06208s5.58914-6.80865,2.254-11.07327c-2.68154-3.42886-.421-10.07451,3.11609-7.60335,5.32861,3.72269-3.78046,15.53209-.67028,21.12819,2.5791,4.6405,11.72326,6.37108,11.72326,6.37108l.36068,15.73593-18.50248-11.704a126.09732,126.09732,0,0,0,1.7187-12.85459Z"/><path class="cls-34" d="M6460.51968,157.73392s2.01027,6.78932,4.26335,9.56236,4.364,5.42331,4.364,5.42331l-.08992-8.37692-.64223-5.00165Z"/><path class="cls-6" d="M6460.05758,154.85017c5.197,1.57862,2.59956-5.73046,6.44226-7.12163,3.64767-1.3205,13.76368.25185,18.093,1.10316,1.35817-12.10821,1.31552-26.47483,1.31552-26.47483l-28.58942-1.06141c-.59353,8.60882-1.58248,23.16059-1.59616,24.74076C6455.68187,150.77209,6456.96739,153.91151,6460.05758,154.85017Z"/><path class="cls-13" d="M6454.01865,121.17291s-1.92644,26.06157-1.82914,37.33544c.0636,7.36842,7.20547,14.20151,13.28532,20.06561,10.69117,10.31179,14.00687,9.27535,15.60132-.671,3.50072-21.838,3.51664-29.07124,3.51664-29.07124a88.707,88.707,0,0,0-13.51188-1.60951c-5.20584.0248-6.3715.38141-7.55011,6.01865-.61942,2.338-5.53268,1.516-6.81478-1.37368-2.24837-5.06752.60287-30.57168.60287-30.57168Z"/><path class="cls-13" d="M6455.72184,138.92557a19.27161,19.27161,0,0,0,4.33577-6.64352,11.16148,11.16148,0,0,0,0-6.78893,25.43224,25.43224,0,0,0,11.45958,1.43654c5.68985-.8435,10.11807.427,14.34822-.18993,5.19223-.75729,4.5212-4.53181,2.25649-6.37712-1.603-1.30614-11.849-3.64257-17.11112-4.02615s-12.64177-.0417-16.65084,2.59637c-2.79143,1.83683-1.47789,20.93436-1.47789,20.93436"/><path class="cls-13" d="M6431.22017,436.46282l-.82342,10.07088h36.10576a26.48855,26.48855,0,0,0-20.78709-10.07087Z"/><path class="cls-13" d="M6467.35735,436.46282l-.6465,10.07088h36c-5.02341-6.36035-10.416-10.07087-16.7657-10.07087Z"/></g></g></svg>