<svg id="Layer_1" data-name="Layer 1" xmlns="http://www.w3.org/2000/svg" viewBox="0 0 800 500"><defs><style>.cls-1{fill:#ccf;}.cls-2{fill:#b8b8ff;}</style></defs><title>sa</title><polygon class="cls-1" points="29.559 97.735 29.559 27.838 41.47 27.838 54.126 14.663 54.126 46.436 68.271 46.436 68.271 0 73.73 0 73.73 0 83.16 0 83.16 0 97.057 0 97.057 0 109.961 0 118.15 0 118.15 46.953 136.761 46.953 136.761 4.848 142.965 4.848 153.388 4.848 153.388 0 162.569 0 162.569 5.623 169.021 5.623 169.021 0 173.24 0 173.24 5.106 187.385 5.106 187.385 25.254 226.097 25.254 226.097 0 238.504 0 238.504 22.155 247.19 22.155 253.89 22.155 270.764 22.155 280.442 22.155 285.157 22.155 285.157 9.756 295.083 9.756 336.277 9.756 336.277 16.472 329.825 16.472 329.825 24.221 344.218 24.221 344.218 39.203 354.144 39.203 354.144 0.973 373.003 0.973 373.003 28.612 382.185 28.612 382.185 0.973 400.796 0.973 400.796 0 406.008 0 406.008 1.49 414.693 1.49 414.693 26.288 421.641 26.288 421.641 0 430.575 0 430.575 22.155 452.909 22.155 452.909 10.789 468.294 10.789 468.294 16.988 479.709 16.988 479.709 0 488.146 0 488.146 0 492.117 0 492.117 0 497.08 0 497.08 0 502.043 0 502.043 0 535.295 0 535.295 8.722 544.725 8.722 544.725 2.523 552.666 2.523 552.666 0 574.007 0 574.007 0 628.601 0 628.601 14.405 637.038 14.405 637.038 0 645.972 0 645.972 0 666.32 0 666.32 0 690.143 0 690.143 18.538 697.091 18.538 697.091 0 700.566 0 700.566 18.538 723.396 18.538 723.396 0 742.255 0 742.255 31.454 758.633 31.454 758.633 0 777.99 0 777.99 28.871 787.419 28.871 787.419 0 799.827 0 799.827 97.735 29.559 97.735"/><polygon class="cls-2" points="799.827 500 0.173 500 0.173 43.324 4.295 43.324 4.295 78.946 13.054 78.946 13.054 29.028 18.722 29.028 28.769 29.028 28.769 46.605 32.633 46.605 32.633 5.827 43.969 5.827 43.969 0 52.212 0 52.212 0 77.287 0 77.287 0 85.531 6.139 85.531 66.759 96.523 66.759 96.523 15.929 100.302 15.929 100.302 15.929 103.736 15.929 103.736 15.929 108.545 15.929 108.545 68.009 115.415 68.009 115.415 32.387 118.85 32.387 118.85 27.075 124.69 27.075 132.418 20.044 132.418 11.139 137.399 11.139 137.399 19.576 141.864 19.576 141.864 10.826 150.452 10.826 150.452 20.201 157.15 26.294 157.15 40.511 161.1 40.511 161.1 35.512 164.535 35.512 164.535 35.512 169.344 35.512 169.344 52.385 174.84 52.385 174.84 0 211.25 0 211.25 37.387 222.929 37.387 222.929 53.01 228.081 53.01 228.081 38.168 232.375 38.168 246.63 38.168 246.63 42.386 255.217 42.386 264.663 42.386 264.663 40.511 264.663 33.09 306.398 33.09 306.398 35.824 306.398 35.824 306.398 45.198 317.218 45.198 317.218 42.386 321.512 42.386 321.512 64.572 325.977 64.572 325.977 52.073 335.595 52.073 335.595 68.947 344.182 68.947 344.182 28.325 354.144 28.325 363.59 28.325 363.59 63.01 370.717 56.526 370.717 37.074 376.127 37.074 376.127 8.327 391.928 8.327 391.928 39.808 399.571 39.808 413.224 39.808 421.511 39.808 421.511 32.075 436.582 32.075 436.582 35.199 450.665 35.199 450.665 66.759 455.818 66.759 455.818 47.073 460.97 47.073 460.97 32.7 467.497 32.7 467.497 63.635 474.023 63.635 474.023 9.576 478.145 9.576 478.145 5.514 512.494 10.826 512.494 47.698 517.99 47.698 517.99 33.324 527.265 33.324 527.265 28.95 533.447 28.95 533.447 24.575 547.531 24.575 547.531 15.201 558.522 15.201 558.522 32.387 565.736 32.387 565.736 11.764 575.354 11.764 575.354 0 580.85 0 580.85 11.451 610.047 11.451 610.047 11.451 610.047 44.886 616.573 44.886 616.573 33.012 627.221 23.325 633.404 23.325 633.404 35.512 642.335 35.512 642.335 0 649.892 0 649.892 0 662.258 0 662.258 0 670.158 0 670.158 19.263 687.504 19.263 687.504 49.417 693.516 49.417 693.516 25.513 703.477 25.513 703.477 0 708.629 0 708.629 0 717.217 0 717.217 0 720.308 0 720.308 0 723.743 0 723.743 0 730.613 0 730.613 0 749.849 0 749.849 46.761 758.092 46.761 758.092 46.761 771.489 46.761 771.489 46.761 779.733 46.761 779.733 19.888 799.827 19.888 799.827 500"/></svg>