<?xml version="1.0" encoding="UTF-8"?>
<svg width="90px" height="30px" viewBox="0 0 90 30" version="1.1" xmlns="http://www.w3.org/2000/svg" xmlns:xlink="http://www.w3.org/1999/xlink">
    <!-- Generator: Sketch 52.2 (67145) - http://www.bohemiancoding.com/sketch -->
    <title>Group 8</title>
    <desc>Created with Sketch.</desc>
    <g id="Page-1" stroke="none" stroke-width="1" fill="none" fill-rule="evenodd">
        <g id="final" transform="translate(-1135.000000, -4407.000000)">
            <g id="Group-8" transform="translate(1135.000000, 4407.000000)">
                <rect id="Rectangle" x="0" y="0" width="30" height="30"></rect>
                <path d="M20.304,22.704 C19.8,20.4 19.2,18.276 18.6,16.404 C19.2,16.32 19.8,16.272 20.496,16.272 L20.52,16.272 C21.636,16.272 22.86,16.416 24.192,16.716 C23.736,19.2 22.296,21.324 20.304,22.704 Z M15,24.36 C12.912,24.36 10.992,23.676 9.432,22.512 C9.768,21.972 10.476,20.928 11.616,19.848 C12.768,18.732 14.4,17.58 16.476,16.896 C17.184,18.9 17.832,21.18 18.324,23.748 C17.292,24.144 16.2,24.36 15,24.36 Z M5.64,15 C5.64,14.952 5.64,14.916 5.64,14.868 C5.904,14.88 6.252,14.88 6.66,14.88 L6.672,14.88 C8.544,14.868 11.832,14.712 15.168,13.668 C15.348,14.064 15.528,14.472 15.708,14.904 C13.476,15.648 11.724,16.836 10.428,18 C9.192,19.152 8.34,20.268 7.848,21 C6.48,19.392 5.64,17.292 5.64,15 Z M10.86,6.6 C11.52,7.38 12.816,9.072 14.208,11.7 C11.4,12.552 8.532,12.744 6.816,12.744 C6.768,12.744 6.72,12.744 6.672,12.744 L6.66,12.744 C6.372,12.744 6.12,12.744 5.916,12.732 C6.6,10.044 8.4,7.8 10.86,6.6 Z M15,5.64 C17.208,5.64 19.236,6.408 20.832,7.692 C19.608,9.168 18,10.2 16.236,10.98 C15,8.604 13.8,6.9 13.008,5.856 C13.656,5.724 14.316,5.64 15,5.64 Z M22.356,9.216 C23.52,10.704 24.252,12.552 24.348,14.556 C22.992,14.268 21.72,14.136 20.52,14.136 L20.508,14.136 C19.548,14.136 18.648,14.22 17.796,14.364 C17.592,13.86 17.4,13.38 17.172,12.912 C19.068,12.084 20.88,10.896 22.356,9.216 Z M15,3 C8.372583,3 3,8.372583 3,15 C3,18.1825979 4.26428208,21.2348448 6.51471863,23.4852814 C8.76515517,25.7357179 11.8174021,27 15,27 C18.1825979,27 21.2348448,25.7357179 23.4852814,23.4852814 C25.7357179,21.2348448 27,18.1825979 27,15 C27,11.8174021 25.7357179,8.76515517 23.4852814,6.51471863 C21.2348448,4.26428208 18.1825979,3 15,3 Z" id="Shape" fill="#ffffff" fill-rule="nonzero"></path>
                <rect id="Rectangle-Copy" x="30" y="0" width="30" height="30"></rect>
                <path d="M39.96,3 L50.04,3 C53.88,3 57,6.12 57,9.96 L57,20.04 C57,23.8839019 53.8839019,27 50.04,27 L39.96,27 C36.12,27 33,23.88 33,20.04 L33,9.96 C33,6.11609814 36.1160981,3 39.96,3 Z M39.72,5.4 C37.3341299,5.4 35.4,7.33412988 35.4,9.72 L35.4,20.28 C35.4,22.668 37.332,24.6 39.72,24.6 L50.28,24.6 C52.6658701,24.6 54.6,22.6658701 54.6,20.28 L54.6,9.72 C54.6,7.332 52.668,5.4 50.28,5.4 L39.72,5.4 Z M51.3,7.2 C52.1284271,7.2 52.8,7.87157288 52.8,8.7 C52.8,9.52842712 52.1284271,10.2 51.3,10.2 C50.4715729,10.2 49.8,9.52842712 49.8,8.7 C49.8,7.87157288 50.4715729,7.2 51.3,7.2 Z M45,9 C48.3137085,9 51,11.6862915 51,15 C51,18.3137085 48.3137085,21 45,21 C41.6862915,21 39,18.3137085 39,15 C39,11.6862915 41.6862915,9 45,9 Z M45,11.4 C43.0117749,11.4 41.4,13.0117749 41.4,15 C41.4,16.9882251 43.0117749,18.6 45,18.6 C46.9882251,18.6 48.6,16.9882251 48.6,15 C48.6,13.0117749 46.9882251,11.4 45,11.4 Z" id="Shape" fill="#ffffff" fill-rule="nonzero"></path>
                <rect id="Rectangle-Copy" x="60" y="0" width="30" height="30"></rect>
                <path d="M87.5454545,7.35294118 C86.6420129,7.76470588 85.6681731,8.03529412 84.6591344,8.16470588 C85.6916391,7.54117647 86.4894837,6.55294118 86.86494,5.36470588 C85.8911003,5.95294118 84.8116635,6.36470588 83.6735616,6.6 C82.7466539,5.58823529 81.4442899,5 79.9659308,5 C77.2086737,5 74.955936,7.25882353 74.955936,10.0470588 C74.955936,10.4470588 75.0028681,10.8352941 75.0849991,11.2 C70.908048,10.9882353 67.1886842,8.97647059 64.7130193,5.92941176 C64.278898,6.67058824 64.0325048,7.54117647 64.0325048,8.45882353 C64.0325048,10.2117647 64.9124804,11.7647059 66.2735095,12.6470588 C65.4404658,12.6470588 64.6660873,12.4117647 63.9855727,12.0588235 C63.9855727,12.0588235 63.9855727,12.0588235 63.9855727,12.0941176 C63.9855727,14.5411765 65.7220581,16.5882353 68.0217278,17.0470588 C67.5993395,17.1647059 67.1534851,17.2235294 66.6958978,17.2235294 C66.3791066,17.2235294 66.0623153,17.1882353 65.7572571,17.1294118 C66.3908396,19.1176471 68.232922,20.6 70.4504606,20.6352941 C68.7374413,22 66.5668347,22.8 64.1967669,22.8 C63.7978446,22.8 63.3989223,22.7764706 63,22.7294118 C65.2292717,24.1647059 67.8809317,25 70.7203198,25 C79.9659308,25 85.0463237,17.3058824 85.0463237,10.6352941 C85.0463237,10.4117647 85.0463237,10.2 85.0345906,9.97647059 C86.0201634,9.27058824 86.86494,8.37647059 87.5454545,7.35294118 Z" id="Path" fill="#ffffff"></path>
            </g>
        </g>
    </g>
</svg>